<svg xmlns="http://www.w3.org/2000/svg" height="60" width="60" style=""><rect id="backgroundrect" width="100%" height="100%" x="0" y="0" fill="none" stroke="none"/><g class="currentLayer" style=""><title>Layer 1</title><g id="Page-1" fill="#ffffff" fill-rule="evenodd" class="selected" fill-opacity="1"><g id="007---Plastic-Pollution" fill="#ffffff" fill-rule="nonzero" fill-opacity="1"><path id="Shape" d="m48,46.932 l0.279,-0.23 c1.0151853,-0.7918377 2.4388147,-0.7918377 3.454,0 c1.5477733,1.2690709 3.7283878,1.4218502000000002 5.438,0.38100000000000006 l0.12000000000000001,-0.07200000000000001 c0.5847859000000001,-0.3764107000000001 1.198356,-0.7061001 1.835,-0.986 l0.25,-0.1 c0.3389423000000001,-0.1277581 0.5822999000000001,-0.4288166000000001 0.6361710000000002,-0.7870092000000001 s-0.09016730000000002,-0.7175142 -0.37653670000000006,-0.9393172999999999 c-0.28636940000000005,-0.22180320000000003 -0.6702945000000001,-0.27140780000000003 -1.0036343,-0.12967349999999997 l-0.253,0.1 c-0.7380838000000001,0.31889130000000004 -1.4490822,0.6971318000000002 -2.126,1.131 l-0.126,0.07500000000000001 c-0.9828997,0.5980399000000001 -2.2361266,0.5110715 -3.127,-0.21700000000000003 c-1.7596207000000001,-1.3781020000000002 -4.2323793,-1.3781020000000002 -5.992,0 l-0.275,0.22600000000000003 c-0.31508730000000007,0.2548229000000001 -0.6830057000000002,0.43622000000000005 -1.077,0.531 l0.24900000000000003,-1.028 c0.1723513,-0.7188111 0.07074450000000002,-1.4760493000000001 -0.28500000000000003,-2.124 c1.2808677,-0.8517662 1.6940679,-2.5437122 0.9500000000000001,-3.89 c1.2769168,-0.8533873 1.6879493,-2.5422705 0.9460000000000001,-3.887 c1.2759369,-0.8536080000000001 1.6868186,-2.5414371 0.9460000000000001,-3.886 c0.6139791000000001,-0.4139282000000001 1.052325,-1.0411548 1.23,-1.7600000000000002 l1.6540000000000001,-6.8 c1.0382484,-4.2922754 -1.5933076000000002,-8.6151306 -5.883,-9.664 l-0.972,-0.23700000000000002 c-0.5364996000000001,-0.130677 -0.8655399,-0.6714671 -0.7350000000000001,-1.208 l0.23600000000000002,-0.972 l1.944,0.47300000000000003 c0.15444650000000004,0.03803340000000001 0.31293960000000004,0.057173500000000016 0.47200000000000003,0.05700000000000001 c0.9226481000000001,0.0003400000000000001 1.7257938000000002,-0.630526 1.944,-1.5270000000000001 l0.7090000000000001,-2.916 c0.3909279000000001,-1.609577 -0.5965846,-3.23140732 -2.206,-3.623 l-11.665000000000001,-2.838 c-1.6095757000000002,-0.38738292000000013 -3.2295118,0.5991510100000002 -3.624,2.207 l-0.7090000000000001,2.916 c-0.25745090000000004,1.07258471 0.3998398000000001,2.15168526 1.471,2.415 l1.944,0.47200000000000003 l-0.23700000000000002,0.972 c-0.130677,0.53649956 -0.6714671,0.8655398900000001 -1.208,0.7350000000000001 l-0.972,-0.23600000000000002 c-4.2921494,-1.03948469 -8.6156389,1.5920101 -9.664,5.882 l-1.6540000000000001,6.8 c-0.1726389,0.7197807 -0.07103620000000002,1.4780573000000001 0.28500000000000003,2.127 c-1.2769168,0.8533873 -1.6879493,2.5422705 -0.9460000000000001,3.887 c-1.2774007,0.8531110000000001 -1.6881592000000003,2.5426543 -0.9450000000000001,3.887 c-1.2767753,0.8530218000000002 -1.6878327,2.5415723 -0.9460000000000001,3.886 c-0.6126229000000001,0.41270290000000004 -1.0496708,1.0386866 -1.226,1.7560000000000002 l-2,8.191 c-0.5451326999999999,-0.04547120000000001 -1.0638016000000001,-0.2546119 -1.488,-0.6000000000000001 l-0.28200000000000003,-0.232 c-1.7434028000000001,-1.4158921 -4.24059719,-1.4158921 -5.984,0 c-0.9016204400000001,0.7155787 -2.15048352,0.8029952000000001 -3.143,0.22000000000000003 l-0.11500000000000002,-0.07 c-0.67658615,-0.43355260000000007 -1.38725385,-0.8114606 -2.125,-1.13 l-0.25,-0.1 c-0.33333982000000006,-0.14173430000000004 -0.71726491,-0.09212970000000004 -1.00363428,0.12967349999999997 c-0.28636937000000007,0.22180310000000003 -0.4304077800000001,0.5811247 -0.37653670000000006,0.9393172999999999 c0.05387109000000002,0.3581926 0.29722865000000004,0.6592511000000001 0.63617098,0.7870092000000001 l0.24700000000000003,0.1 c0.6377469000000001,0.2799933 1.25233257,0.6100238000000001 1.838,0.987 l0.11600000000000002,0.07 c1.71891211,1.0080996 3.88038756,0.8575945 5.443,-0.37900000000000006 c1.0057889,-0.8176501 2.4472111,-0.8176501 3.453,0 l0.281,0.232 c0.6564928000000001,0.5334218000000001 1.4443218,0.8805362 2.281,1.005 l-0.8640000000000001,3.547 c-0.05000000000000001,-0.035 -0.1,-0.06300000000000001 -0.15100000000000002,-0.1 l-0.28,-0.22800000000000004 c-1.7432196000000002,-1.4153508000000001 -4.23978039,-1.4153508000000001 -5.983,0 c-0.8939055400000001,0.731364 -2.15132753,0.8210654000000001 -3.14,0.22400000000000003 l-0.11900000000000002,-0.07200000000000001 c-0.6779230400000001,-0.43717780000000006 -1.39144182,-0.8165168999999999 -2.133,-1.134 l-0.24800000000000003,-0.1 c-0.3343632100000001,-0.1438736 -0.7204953100000001,-0.09469810000000004 -1.00812454,0.1283889 c-0.28762924,0.22308700000000004 -0.4313201400000001,0.5848454000000002 -0.37515227000000007,0.944489 c0.05616787000000001,0.3596437 0.30332194000000007,0.6603613 0.6452768100000001,0.7851220999999999 l0.24600000000000002,0.1 c0.6376019800000001,0.2775419 1.25133173,0.6069826 1.835,0.985 l0.11900000000000002,0.07300000000000001 c1.7128048700000003,1.0351878 3.89153354,0.8814517000000001 5.442,-0.38400000000000006 c1.0064282,-0.8179641 2.4485718,-0.8179641 3.455,0 l0.28,0.22800000000000004 c1.7433559,1.4149668000000002 4.2396441,1.4149668000000002 5.983,0 l0.28200000000000003,-0.23 c1.0064282,-0.8179641 2.4485718,-0.8179641 3.455,0 l0.28,0.22800000000000004 c1.7433559,1.4149668000000002 4.2396441,1.4149668000000002 5.983,0 l0.28200000000000003,-0.23 c1.0064282,-0.8179641 2.4485718,-0.8179641 3.455,0 l0.28,0.22800000000000004 c1.7433559,1.4149668000000002 4.2396441,1.4149668000000002 5.983,0 l0.28200000000000003,-0.23 c1.0064282,-0.8179641 2.4485718,-0.8179641 3.455,0 l0.28,0.22800000000000004 c1.7432196000000002,1.4153508000000001 4.2397804,1.4153508000000001 5.983,0 l0.28200000000000003,-0.23 c1.0068372,-0.8168115 2.4481628,-0.8168115 3.455,0 c1.5499511,1.2648165 3.7277412,1.4185429 5.44,0.38400000000000006 l0.12000000000000001,-0.07300000000000001 c0.5830063,-0.37767010000000006 1.1960705,-0.7067782000000001 1.8330000000000002,-0.984 l0.24800000000000003,-0.1 c0.3419549000000001,-0.12476080000000002 0.5891089,-0.4254784000000001 0.6452768000000001,-0.7851220999999999 c0.05616790000000001,-0.3596436 -0.08752300000000003,-0.721402 -0.37515230000000005,-0.944489 c-0.28762920000000003,-0.22308700000000004 -0.6737613000000001,-0.2722625 -1.0081245,-0.1283889 l-0.25,0.1 c-0.7408783000000001,0.31717790000000007 -1.4537304,0.6961837000000001 -2.1310000000000002,1.133 l-0.12000000000000001,0.07300000000000001 c-0.9881994000000001,0.5961159 -2.244494,0.5064377999999999 -3.138,-0.22400000000000003 c-1.7433559,-1.4149668000000002 -4.2396441,-1.4149668000000002 -5.983,0 l-0.28200000000000003,0.23 c-0.7068415000000001,0.5710509 -1.6510816000000001,0.7539037000000001 -2.52,0.48800000000000004 l0.9420000000000001,-3.887 c1.0396936,-0.030033700000000003 2.0409903,-0.39950550000000007 2.851,-1.052 zm-26.465,-20.323 c0.10873030000000002,-0.4477109000000001 0.5092759,-0.7631922000000001 0.97,-0.7640000000000001 c0.08019810000000002,0.0002673000000000001 0.16008430000000004,0.010001300000000001 0.23800000000000002,0.029000000000000005 l23.319,5.672000000000001 c0.3472622000000001,0.08431470000000002 0.6231643,0.34748680000000015 0.7237767,0.690382 s0.010649700000000002,0.7134195 -0.23600000000000002,0.972 s-0.6125145,0.36593270000000006 -0.9597767,0.28161800000000003 l-23.319,-5.673 c-0.25782440000000006,-0.06253380000000001 -0.48023299999999997,-0.22495710000000005 -0.6182699,-0.4515177 s-0.1803877,-0.4986879000000001 -0.11773010000000003,-0.7564822999999999 zm-0.8280000000000001,4.643 c-0.28710420000000003,-0.47166420000000003 -0.1375827,-1.0867619 0.3340000000000001,-1.374 c0.1563708,-0.09526440000000004 0.3358960000000001,-0.14576670000000003 0.519,-0.14600000000000002 c0.08019810000000002,0.0002673000000000001 0.16008430000000004,0.010001300000000001 0.23800000000000002,0.029000000000000005 l23.319,5.672000000000001 c0.35411810000000005,0.07774990000000001 0.6384168,0.3410770000000001 0.7430217000000001,0.6882116000000001 c0.10460490000000001,0.3471347000000001 0.013129100000000001,0.7236969000000001 -0.2390741,0.9841544999999999 s-0.6256252000000002,0.364009 -0.9759476,0.2706339 l-23.32,-5.676 c-0.2574599,-0.06103300000000002 -0.4799144000000001,-0.22229450000000003 -0.6180000000000001,-0.44800000000000006 zm-0.9450000000000001,3.887 c-0.18773940000000006,-0.3083839000000001 -0.1946748,-0.6940201000000001 -0.018145400000000002,-1.0089552 s0.5091106,-0.5102631999999999 0.8701454000000002,-0.5110448000000001 c0.08048540000000001,-0.000009300000000000004 0.16069620000000004,0.009387800000000003 0.23900000000000002,0.028000000000000004 l23.319,5.673 c0.513927,0.14696150000000002 0.8214146999999999,0.6721003000000001 0.6980776000000002,1.1922028 c-0.123337,0.5201024999999999 -0.6338850000000001,0.8512525 -1.1590776,0.7517972000000002 l-0.015000000000000003,-0.006000000000000002 l-23.32,-5.67 c-0.25629199999999996,-0.06193120000000001 -0.4772909,-0.22354110000000005 -0.6140000000000001,-0.44900000000000007 zm13.748,-32.374 c0.06253380000000001,-0.25782441000000006 0.22495710000000005,-0.48023298000000003 0.4515177,-0.6182699100000001 s0.4986879000000001,-0.18038766 0.7564822999999999,-0.11773009000000002 l11.66,2.8360000000000003 c0.5364996000000001,0.13067696999999998 0.8655399,0.67146707 0.7350000000000001,1.208 l-0.7130000000000001,2.915 l-2.915,-0.7090000000000001 l-7.769,-1.891 l-2.916,-0.7090000000000001 zm-11.03,19.958 l1.6550000000000002,-6.8 c0.7831549,-3.219809 4.0281828,-5.1951213 7.248,-4.412 l0.971,0.23700000000000002 c1.6103088,0.38853950000000004 3.2314562000000002,-0.5989069 3.625,-2.208 l0.23600000000000002,-0.972 l5.83,1.4180000000000001 l-0.23600000000000002,0.972 c-0.3915606000000001,1.6099086000000002 0.5960955000000001,3.2324226 2.206,3.624 l0.971,0.23600000000000002 c3.2178036,0.7861003 5.1922876,4.0282978 4.414,7.248 l-1.6540000000000001,6.8 c-0.06252210000000002,0.2580427 -0.22509720000000005,0.4806286000000001 -0.45188740000000005,0.6186911000000002 s-0.49917580000000006,0.18026660000000003 -0.7571126,0.11730890000000001 l-23.321,-5.671 c-0.25782440000000006,-0.06253380000000001 -0.48023299999999997,-0.22495710000000005 -0.6182699,-0.4515177 s-0.1803877,-0.4986879000000001 -0.11773010000000003,-0.7564822999999999 zm14.529,28.432 l-0.28200000000000003,0.23 c-1.0068372,0.8168115 -2.4481628,0.8168115 -3.455,0 l-0.28,-0.22800000000000004 c-1.7433559,-1.4149668000000002 -4.2396441,-1.4149668000000002 -5.983,0 l-0.28200000000000003,0.23 c-1.0068372,0.8168115 -2.4481628,0.8168115 -3.455,0 l-0.28,-0.22800000000000004 c-1.7433559,-1.4149668000000002 -4.2396441,-1.4149668000000002 -5.983,0 l-0.28200000000000003,0.23 c-0.39123090000000005,0.3165722000000001 -0.8628065,0.5180824999999999 -1.362,0.5820000000000001 l3.337,-13.7 c0.131229,-0.5322007 0.6664354000000001,-0.8595686 1.2,-0.7340000000000001 h0.007000000000000002 l23.32,5.673 h0.006000000000000002 c0.5319554000000001,0.1351921 0.8555254000000001,0.6738803000000001 0.7250000000000001,1.207 l-1.541,6.351 c-1.7063248,-1.0171357 -3.8658284000000003,-0.8626573000000001 -5.41,0.38700000000000007 z" fill="#ffffff" fill-opacity="1"/><path id="Shape" d="m58.631,56.071 l-0.25,0.1 c-0.7426583000000001,0.3179688000000001 -1.4571885,0.6979811000000001 -2.136,1.1360000000000001 l-0.11500000000000002,0.07 c-0.9881264,0.5964201 -2.2446096,0.5067285 -3.138,-0.22400000000000003 c-1.7433559,-1.4149668000000002 -4.2396441,-1.4149668000000002 -5.983,0 l-0.28200000000000003,0.23 c-1.0068372,0.8168115 -2.4481628,0.8168115 -3.455,0 l-0.28,-0.22800000000000004 c-1.7433559,-1.4149668000000002 -4.2396441,-1.4149668000000002 -5.983,0 l-0.28200000000000003,0.23 c-1.0068372,0.8168115 -2.4481628,0.8168115 -3.455,0 l-0.28,-0.22800000000000004 c-1.7433559,-1.4149668000000002 -4.2396441,-1.4149668000000002 -5.983,0 l-0.28200000000000003,0.23 c-1.0068372,0.8168115 -2.4481628,0.8168115 -3.455,0 l-0.28,-0.22800000000000004 c-1.7433559,-1.4149668000000002 -4.2396441,-1.4149668000000002 -5.983,0 l-0.28200000000000003,0.23 c-1.0068372,0.8168115 -2.4481628,0.8168115 -3.455,0 l-0.28,-0.22800000000000004 c-1.7432196000000002,-1.4153508000000001 -4.23978039,-1.4153508000000001 -5.983,0 c-0.8936737700000001,0.7319466000000001 -2.15147424,0.8216750000000002 -3.14,0.22400000000000003 l-0.11400000000000002,-0.06900000000000002 c-0.6794650200000001,-0.4383803000000001 -1.3946618800000001,-0.8187259000000001 -2.138,-1.137 l-0.24800000000000003,-0.1 c-0.3343632100000001,-0.1438736 -0.7204953100000001,-0.09469810000000004 -1.00812454,0.1283889 c-0.28762924,0.22308700000000004 -0.4313201400000001,0.5848454000000002 -0.37515227000000007,0.944489 c0.05616787000000001,0.3596437 0.30332194000000007,0.6603613 0.6452768100000001,0.7851220999999999 l0.24600000000000002,0.1 c0.6391788700000002,0.2787517 1.254553,0.6091809 1.84,0.988 l0.11400000000000002,0.07 c1.71486202,1.0330105 3.89428573,0.8748201000000001 5.442,-0.3950000000000001 c1.0064282,-0.8179641 2.4485718,-0.8179641 3.455,0 l0.28,0.22800000000000004 c1.7433559,1.4149668000000002 4.2396441,1.4149668000000002 5.983,0 l0.28200000000000003,-0.23 c1.0064282,-0.8179641 2.4485718,-0.8179641 3.455,0 l0.28,0.22800000000000004 c1.7433559,1.4149668000000002 4.2396441,1.4149668000000002 5.983,0 l0.28200000000000003,-0.23 c1.0064282,-0.8179641 2.4485718,-0.8179641 3.455,0 l0.28,0.22800000000000004 c1.7433559,1.4149668000000002 4.2396441,1.4149668000000002 5.983,0 l0.28200000000000003,-0.23 c1.0064282,-0.8179641 2.4485718,-0.8179641 3.455,0 l0.28,0.22800000000000004 c1.7432196000000002,1.4153508000000001 4.2397804,1.4153508000000001 5.983,0 l0.28200000000000003,-0.23 c1.0068372,-0.8168115 2.4481628,-0.8168115 3.455,0 c1.5499511,1.2648165 3.7277412,1.4185429 5.44,0.38400000000000006 l0.11500000000000002,-0.07 c0.5847899000000001,-0.37846370000000007 1.1994978,-0.7085598000000001 1.838,-0.987 l0.24800000000000003,-0.1 c0.3419549000000001,-0.12476080000000002 0.5891089,-0.4254784000000001 0.6452768000000001,-0.7851220999999999 c0.05616790000000001,-0.3596436 -0.08752300000000003,-0.721402 -0.37515230000000005,-0.944489 c-0.28762920000000003,-0.22308700000000004 -0.6737613000000001,-0.2722625 -1.0081245,-0.1283889 z" fill="#ffffff" fill-opacity="1"/></g></g></g></svg>