<svg xmlns="http://www.w3.org/2000/svg" width="35.995" height="27.001" viewBox="0 0 35.995 27.001">
  <path id="Icon_ionic-logo-youtube" data-name="Icon ionic-logo-youtube" d="M35.761,10.462a5.466,5.466,0,0,0-5.2-5.709C26.663,4.57,22.69,4.5,18.633,4.5H17.367c-4.05,0-8.03.07-11.925.253a5.478,5.478,0,0,0-5.2,5.723C.07,12.98-.007,15.483,0,17.986S.07,22.992.239,25.5a5.484,5.484,0,0,0,5.2,5.73c4.092.19,8.29.274,12.558.267q6.412.021,12.558-.267a5.485,5.485,0,0,0,5.2-5.73c.169-2.51.246-5.013.239-7.523Q36.014,14.224,35.761,10.462ZM14.555,24.884V11.067l10.2,6.9Z" transform="translate(0 -4.5)" fill="#878493"/>
</svg>
