<svg xmlns="http://www.w3.org/2000/svg" viewBox="0 0 65.38 71.62"><defs><style>.cls-1{fill:#35281f;}.cls-1,.cls-2{stroke:#6b3426;stroke-miterlimit:10;stroke-width:2px;}.cls-2{fill:#282618;}</style></defs><title>Asset 8</title><g id="Layer_2" data-name="Layer 2"><g id="Layer_1-2" data-name="Layer 1"><g id="_Group_" data-name="&lt;Group&gt;"><path id="_Path_" data-name="&lt;Path&gt;" class="cls-1" d="M50.08,60.78l.38-.27a14.18,14.18,0,0,0,3.45-19.66L35.07,14.08a14.13,14.13,0,0,0-19.66-3.45L15,10.9a14.08,14.08,0,0,0-3.45,19.66L30.42,57.33A14.07,14.07,0,0,0,50.08,60.78Z"/><line id="_Path_2" data-name="&lt;Path&gt;" class="cls-1" x1="46.84" y1="30.12" x2="52.98" y2="25.96"/><line id="_Path_3" data-name="&lt;Path&gt;" class="cls-1" x1="23.52" y1="48.24" x2="17.55" y2="52.29"/><line id="_Path_4" data-name="&lt;Path&gt;" class="cls-1" x1="42.63" y1="24.7" x2="49.09" y2="20.26"/><line id="_Path_5" data-name="&lt;Path&gt;" class="cls-1" x1="55.44" y1="42.88" x2="61.63" y2="38.66"/><line id="_Path_6" data-name="&lt;Path&gt;" class="cls-1" x1="51.12" y1="35.87" x2="56.97" y2="31.87"/><line id="_Path_7" data-name="&lt;Path&gt;" class="cls-1" x1="31.35" y1="58.59" x2="24.83" y2="62.97"/><line id="_Path_8" data-name="&lt;Path&gt;" class="cls-1" x1="27.13" y1="53.33" x2="21.06" y2="57.44"/><line id="_Path_9" data-name="&lt;Path&gt;" class="cls-1" x1="19.91" y1="42.44" x2="13.72" y2="46.65"/><line id="_Path_10" data-name="&lt;Path&gt;" class="cls-1" x1="38.25" y1="18.62" x2="44.93" y2="14.08"/><line id="_Path_11" data-name="&lt;Path&gt;" class="cls-1" x1="16.13" y1="37.07" x2="10.05" y2="41.23"/><line id="_Path_12" data-name="&lt;Path&gt;" class="cls-1" x1="34.03" y1="12.22" x2="40.6" y2="7.78"/><line id="_Path_13" data-name="&lt;Path&gt;" class="cls-1" x1="11.31" y1="30.61" x2="5.51" y2="34.55"/><line id="_Path_14" data-name="&lt;Path&gt;" class="cls-1" x1="56.97" y1="48.68" x2="65.24" y2="47.53"/><line id="_Path_15" data-name="&lt;Path&gt;" class="cls-1" x1="55.93" y1="53.01" x2="63.54" y2="56.51"/><line id="_Path_16" data-name="&lt;Path&gt;" class="cls-1" x1="54.02" y1="68.39" x2="50.35" y2="61.33"/><line id="_Path_17" data-name="&lt;Path&gt;" class="cls-1" x1="53.52" y1="58.1" x2="60.53" y2="62.53"/><line id="_Path_18" data-name="&lt;Path&gt;" class="cls-1" x1="35.24" y1="61.99" x2="31.19" y2="69.1"/><line id="_Path_19" data-name="&lt;Path&gt;" class="cls-1" x1="40.17" y1="63.41" x2="39.29" y2="71.51"/><line id="_Path_20" data-name="&lt;Path&gt;" class="cls-1" x1="46.84" y1="70.96" x2="45.37" y2="63.3"/><line id="_Path_21" data-name="&lt;Path&gt;" class="cls-1" x1="29" y1="9.04" x2="33.1" y2="1.81"/><line id="_Path_22" data-name="&lt;Path&gt;" class="cls-1" x1="24.12" y1="0.06" x2="24.62" y2="8.11"/><line id="_Path_23" data-name="&lt;Path&gt;" class="cls-1" x1="9.61" y1="4.55" x2="14.87" y2="10.57"/><line id="_Path_24" data-name="&lt;Path&gt;" class="cls-1" x1="17.44" y1="0.66" x2="18.92" y2="8.44"/><line id="_Path_25" data-name="&lt;Path&gt;" class="cls-1" x1="8.96" y1="25.03" x2="0.14" y2="26.29"/><line id="_Path_26" data-name="&lt;Path&gt;" class="cls-1" x1="8.63" y1="21.03" x2="0.52" y2="17.25"/><line id="_Path_27" data-name="&lt;Path&gt;" class="cls-1" x1="11.31" y1="14.57" x2="4.58" y2="10.3"/></g><line id="_Path_28" data-name="&lt;Path&gt;" class="cls-2" x1="24.07" y1="16.38" x2="28.89" y2="20.92"/><line id="_Path_29" data-name="&lt;Path&gt;" class="cls-2" x1="28.56" y1="16.05" x2="24.4" y2="21.2"/><line id="_Path_30" data-name="&lt;Path&gt;" class="cls-2" x1="26.86" y1="40.63" x2="31.68" y2="45.23"/><line id="_Path_31" data-name="&lt;Path&gt;" class="cls-2" x1="31.35" y1="40.3" x2="27.19" y2="45.45"/><line id="_Path_32" data-name="&lt;Path&gt;" class="cls-2" x1="46.74" y1="44.36" x2="51.5" y2="48.95"/><line id="_Path_33" data-name="&lt;Path&gt;" class="cls-2" x1="51.17" y1="44.08" x2="47.01" y2="49.23"/><line id="_Path_34" data-name="&lt;Path&gt;" class="cls-2" x1="16.79" y1="24.37" x2="23.52" y2="27.22"/><line id="_Path_35" data-name="&lt;Path&gt;" class="cls-2" x1="37.87" y1="38.66" x2="38.25" y2="30.61"/><line id="_Path_36" data-name="&lt;Path&gt;" class="cls-2" x1="43.67" y1="55.85" x2="35.68" y2="53.01"/></g></g></svg>