<svg xmlns="http://www.w3.org/2000/svg" viewBox="0 0 119.3 134.7"><defs><style>.cls-1,.cls-2{fill:#009444;stroke:#477c5e;stroke-miterlimit:10;stroke-width:3px;}.cls-2{stroke-linecap:round;}</style></defs><title>Asset 1</title><g id="Layer_2" data-name="Layer 2"><g id="Layer_1-2" data-name="Layer 1"><g id="_Group_" data-name="&lt;Group&gt;"><path id="_Compound_Path_" data-name="&lt;Compound Path&gt;" class="cls-1" d="M54.7,27.7,21,77.1a25.84,25.84,0,0,0,6.8,35.8l.7.5a25.84,25.84,0,0,0,35.8-6.8L98,57.2a25.84,25.84,0,0,0-6.8-35.8l-.7-.5A25.84,25.84,0,0,0,54.7,27.7ZM48.2,56.1a4.76,4.76,0,1,1,1.3,6.6A4.82,4.82,0,0,1,48.2,56.1ZM55,104.4a4.76,4.76,0,1,1-1.3-6.6A4.63,4.63,0,0,1,55,104.4ZM50,80.8h0a4.85,4.85,0,0,1-3.3,6.1L32.1,91.3A4.85,4.85,0,0,1,26,88h0a4.85,4.85,0,0,1,3.3-6.1l14.6-4.4A4.93,4.93,0,0,1,50,80.8ZM74.6,60.1l1.3,15.2a4.92,4.92,0,1,1-9.8.8L64.8,60.9a4.93,4.93,0,0,1,4.5-5.3A5,5,0,0,1,74.6,60.1Zm17.1-9.4a4.76,4.76,0,1,1-1.3-6.6A4.69,4.69,0,0,1,91.7,50.7ZM81,27.4h0a5,5,0,0,1-2.4,6.5L64.7,40.2a4.9,4.9,0,0,1-4.1-8.9L74.5,25A4.82,4.82,0,0,1,81,27.4Z"/></g><line id="_Path_" data-name="&lt;Path&gt;" class="cls-2" x1="77.5" y1="87.2" x2="89.2" y2="95.5"/><line id="_Path_2" data-name="&lt;Path&gt;" class="cls-2" x1="21.4" y1="51.9" x2="33.2" y2="60.2"/><line id="_Path_3" data-name="&lt;Path&gt;" class="cls-2" x1="84.7" y1="77" x2="96.4" y2="85.3"/><line id="_Path_4" data-name="&lt;Path&gt;" class="cls-2" x1="59.7" y1="109.1" x2="73" y2="118.5"/><line id="_Path_5" data-name="&lt;Path&gt;" class="cls-2" x1="70" y1="97.9" x2="81.7" y2="106.2"/><line id="_Path_6" data-name="&lt;Path&gt;" class="cls-2" x1="7.8" y1="71.2" x2="21.1" y2="80.6"/><line id="_Path_7" data-name="&lt;Path&gt;" class="cls-2" x1="14.9" y1="61.2" x2="26.6" y2="69.5"/><line id="_Path_8" data-name="&lt;Path&gt;" class="cls-2" x1="28.6" y1="41.7" x2="40.4" y2="50"/><line id="_Path_9" data-name="&lt;Path&gt;" class="cls-2" x1="91" y1="64.7" x2="104.3" y2="74.1"/><line id="_Path_10" data-name="&lt;Path&gt;" class="cls-2" x1="35.5" y1="31.9" x2="47.2" y2="40.2"/><line id="_Path_11" data-name="&lt;Path&gt;" class="cls-2" x1="99" y1="53.3" x2="112.3" y2="62.7"/><line id="_Path_12" data-name="&lt;Path&gt;" class="cls-2" x1="44" y1="19.9" x2="55.7" y2="28.1"/><line id="_Path_13" data-name="&lt;Path&gt;" class="cls-2" x1="52.4" y1="116" x2="60.2" y2="130.3"/><line id="_Path_14" data-name="&lt;Path&gt;" class="cls-2" x1="45" y1="117" x2="43.7" y2="133.2"/><line id="_Path_15" data-name="&lt;Path&gt;" class="cls-2" x1="28.3" y1="112.4" x2="17.3" y2="124.6"/><line id="_Path_16" data-name="&lt;Path&gt;" class="cls-2" x1="34.9" y1="115.9" x2="31.5" y2="131.9"/><line id="_Path_17" data-name="&lt;Path&gt;" class="cls-2" x1="17.6" y1="88.6" x2="1.5" y2="86"/><line id="_Path_18" data-name="&lt;Path&gt;" class="cls-2" x1="18" y1="96.1" x2="3.1" y2="102.7"/><line id="_Path_19" data-name="&lt;Path&gt;" class="cls-2" x1="22.2" y1="105.4" x2="8.3" y2="113.9"/><line id="_Path_20" data-name="&lt;Path&gt;" class="cls-2" x1="101.6" y1="43.5" x2="117.8" y2="46"/><line id="_Path_21" data-name="&lt;Path&gt;" class="cls-2" x1="100" y1="36.2" x2="115" y2="29.6"/><line id="_Path_22" data-name="&lt;Path&gt;" class="cls-2" x1="90.2" y1="22" x2="97.9" y2="7.6"/><line id="_Path_23" data-name="&lt;Path&gt;" class="cls-2" x1="95.7" y1="27" x2="109.6" y2="18.5"/><line id="_Path_24" data-name="&lt;Path&gt;" class="cls-2" x1="64.3" y1="21.2" x2="56.5" y2="6.8"/><line id="_Path_25" data-name="&lt;Path&gt;" class="cls-2" x1="71.3" y1="17.8" x2="72.5" y2="1.5"/><line id="_Path_26" data-name="&lt;Path&gt;" class="cls-2" x1="81.5" y1="18.7" x2="84.9" y2="2.7"/></g></g></svg>