<svg xmlns="http://www.w3.org/2000/svg" viewBox="0 0 60.7 68.47"><defs><style>.cls-1{fill:#ffc400;}.cls-1,.cls-2,.cls-3{stroke:#ffc400;stroke-miterlimit:10;stroke-width:2px;}.cls-2{fill:#fff;}.cls-2,.cls-3{stroke-linecap:round;}.cls-3{fill:none;}</style></defs><title>Asset 9</title><g id="Layer_2" data-name="Layer 2"><g id="Layer_1-2" data-name="Layer 1"><g id="_Group_" data-name="&lt;Group&gt;"><path id="_Compound_Path_" data-name="&lt;Compound Path&gt;" class="cls-1" d="M27.85,14.22l-17,24.93a13,13,0,0,0,3.43,18.07l.35.25A13,13,0,0,0,32.7,54l17-24.93A13,13,0,0,0,46.27,11l-.35-.25A13,13,0,0,0,27.85,14.22ZM24.57,28.56a2.4,2.4,0,1,1,.66,3.33A2.43,2.43,0,0,1,24.57,28.56ZM28,52.94a2.4,2.4,0,1,1-.66-3.33A2.34,2.34,0,0,1,28,52.94ZM25.48,41h0a2.45,2.45,0,0,1-1.67,3.08l-7.37,2.22a2.45,2.45,0,0,1-3.08-1.67h0A2.45,2.45,0,0,1,15,41.58l7.37-2.22A2.49,2.49,0,0,1,25.48,41ZM37.9,30.58l.66,7.67a2.48,2.48,0,1,1-4.95.4L32.95,31a2.49,2.49,0,0,1,2.27-2.68A2.55,2.55,0,0,1,37.9,30.58Zm8.63-4.74a2.4,2.4,0,1,1-.66-3.33A2.37,2.37,0,0,1,46.53,25.83Zm-5.4-11.76h0a2.5,2.5,0,0,1-1.21,3.28l-7,3.18A2.47,2.47,0,0,1,30.83,16l7-3.18A2.43,2.43,0,0,1,41.13,14.07Z"/></g><line id="_Path_" data-name="&lt;Path&gt;" class="cls-2" x1="39.36" y1="44.26" x2="45.26" y2="48.44"/><line id="_Path_2" data-name="&lt;Path&gt;" class="cls-2" x1="11.04" y1="26.44" x2="17" y2="30.63"/><line id="_Path_3" data-name="&lt;Path&gt;" class="cls-2" x1="42.99" y1="39.11" x2="48.9" y2="43.3"/><line id="_Path_4" data-name="&lt;Path&gt;" class="cls-2" x1="30.38" y1="55.31" x2="37.09" y2="60.05"/><line id="_Path_5" data-name="&lt;Path&gt;" class="cls-2" x1="35.57" y1="49.66" x2="41.48" y2="53.85"/><line id="_Path_6" data-name="&lt;Path&gt;" class="cls-2" x1="4.18" y1="36.18" x2="10.89" y2="40.92"/><line id="_Path_7" data-name="&lt;Path&gt;" class="cls-2" x1="7.76" y1="31.13" x2="13.67" y2="35.32"/><line id="_Path_8" data-name="&lt;Path&gt;" class="cls-2" x1="14.68" y1="21.29" x2="20.63" y2="25.48"/><line id="_Path_9" data-name="&lt;Path&gt;" class="cls-2" x1="46.17" y1="32.9" x2="52.89" y2="37.64"/><line id="_Path_10" data-name="&lt;Path&gt;" class="cls-2" x1="18.16" y1="16.34" x2="24.07" y2="20.53"/><line id="_Path_11" data-name="&lt;Path&gt;" class="cls-2" x1="50.21" y1="27.14" x2="56.92" y2="31.89"/><line id="_Path_12" data-name="&lt;Path&gt;" class="cls-2" x1="22.45" y1="10.29" x2="28.36" y2="14.43"/><line id="_Path_13" data-name="&lt;Path&gt;" class="cls-2" x1="26.69" y1="58.79" x2="30.63" y2="66.01"/><line id="_Path_14" data-name="&lt;Path&gt;" class="cls-2" x1="22.96" y1="59.3" x2="22.3" y2="67.47"/><line id="_Path_15" data-name="&lt;Path&gt;" class="cls-3" x1="14.53" y1="56.97" x2="8.97" y2="63.13"/><line id="_Path_16" data-name="&lt;Path&gt;" class="cls-2" x1="17.86" y1="58.74" x2="16.14" y2="66.82"/><line id="_Path_17" data-name="&lt;Path&gt;" class="cls-2" x1="9.13" y1="44.96" x2="1" y2="43.65"/><line id="_Path_18" data-name="&lt;Path&gt;" class="cls-2" x1="9.33" y1="48.75" x2="1.81" y2="52.08"/><line id="_Path_19" data-name="&lt;Path&gt;" class="cls-2" x1="11.45" y1="53.44" x2="4.43" y2="57.73"/><line id="_Path_20" data-name="&lt;Path&gt;" class="cls-2" x1="51.52" y1="22.2" x2="59.7" y2="23.46"/><line id="_Path_21" data-name="&lt;Path&gt;" class="cls-2" x1="50.72" y1="18.51" x2="58.29" y2="15.18"/><line id="_Path_22" data-name="&lt;Path&gt;" class="cls-3" x1="45.77" y1="11.35" x2="49.66" y2="4.08"/><line id="_Path_23" data-name="&lt;Path&gt;" class="cls-2" x1="48.55" y1="13.87" x2="55.56" y2="9.58"/><line id="_Path_24" data-name="&lt;Path&gt;" class="cls-2" x1="32.7" y1="10.94" x2="28.76" y2="3.68"/><line id="_Path_25" data-name="&lt;Path&gt;" class="cls-2" x1="36.23" y1="9.23" x2="36.84" y2="1"/><line id="_Path_26" data-name="&lt;Path&gt;" class="cls-2" x1="41.38" y1="9.68" x2="43.09" y2="1.61"/></g></g></svg>