<?xml version="1.0" encoding="utf-8"?>
<!-- Generator: Adobe Adobe Illustrator 24.2.0, SVG Export Plug-In . SVG Version: 6.00 Build 0)  -->
<svg version="1.1" xmlns="http://www.w3.org/2000/svg" xmlns:xlink="http://www.w3.org/1999/xlink" x="0px" y="0px" width="4500px"
	 height="3000px" viewBox="0 0 4500 3000" style="enable-background:new 0 0 4500 3000;" xml:space="preserve">
<style type="text/css">
	.st0{fill:#E98325;}
	.st1{fill:#F5DB5D;}
	.st2{fill:#F2D22F;}
	.st3{fill:#F3B025;}
	.st4{fill:#EAEAEA;}
	.st5{fill:#C2C2C2;}
	.st6{fill:#B4B3B3;}
	.st7{fill:#EFB96E;}
	.st8{fill:#ED9D4C;}
	.st9{fill:#F3DB5D;}
	.st10{fill:#EFB02D;}
	.st11{font-family:'AvenirNext-Bold';}
	.st12{font-size:338.7406px;}
	.st13{letter-spacing:16;}
	.st14{fill:none;stroke:#FFFFFF;stroke-width:20;stroke-linecap:round;stroke-miterlimit:10;}
	.st15{fill:#F4DB5D;}
	.st16{display:none;}
	.st17{display:inline;}
	.st18{display:inline;clip-path:url(#SVGID_2_);fill:#F4DB5D;}
	.st19{fill:#F1B029;}
	.st20{fill:none;stroke:#F4DB5D;stroke-width:60;stroke-linecap:round;stroke-miterlimit:10;}
	.st21{fill:none;stroke:#F1B029;stroke-width:80;stroke-linecap:round;stroke-miterlimit:10;}
	.st22{fill:#EAE9E9;}
	.st23{fill:#B4B2B3;}
	.st24{fill:none;stroke:#EAE9E9;stroke-width:80;stroke-linecap:round;stroke-miterlimit:10;}
	.st25{fill:#E88326;}
	.st26{fill:#E78326;}
	.st27{fill:none;stroke:#EFB96E;stroke-width:60;stroke-linecap:round;stroke-miterlimit:10;}
	.st28{fill:none;stroke:#E68225;stroke-width:40;stroke-miterlimit:10;}
</style>
<g id="Layer_1">
</g>
<g id="REFERENCES">
</g>
<g id="COLOUR">
</g>
<g id="GOLD">
	<g id="Layer_8">
		<g>
			<polygon class="st9" points="3975.79,2697.44 3265.79,2697.44 3476.9,2067.44 3975.79,2067.44 			"/>
			<polygon class="st10" points="3680.16,2318.33 3265.79,2318.33 3265.79,2697.44 			"/>
			<polygon class="st9" points="3975.79,2382.44 4255.79,2067.44 3975.79,2067.44 			"/>
			<polygon class="st9" points="3975.79,2382.44 4255.79,2697.44 3975.79,2697.44 			"/>
		</g>
		<g>
			<polygon class="st9" points="590.79,2697.44 1300.79,2697.44 1089.67,2067.44 590.79,2067.44 			"/>
			<polygon class="st10" points="886.42,2318.33 1300.79,2318.33 1300.79,2697.44 			"/>
			<polygon class="st9" points="590.79,2382.44 310.79,2067.44 590.79,2067.44 			"/>
			<polygon class="st9" points="590.79,2382.44 310.79,2697.44 590.79,2697.44 			"/>
		</g>
		<g>
			<g>
				<path class="st9" d="M3244.13,1688.33c-179.03,317.39-542.37,534.57-961.48,534.57c-419.11,0-782.45-217.18-961.48-534.57
					H910.16v630h2770v-630H3244.13z"/>
			</g>
		</g>
		<text transform="matrix(1 0 0 1 1766.7251 2671.7178)" class="st10 st11 st12 st13">GOLD</text>
		<line class="st14" x1="986.44" y1="1760.33" x2="986.44" y2="2246.33"/>
		<line class="st14" x1="3606.44" y1="1760.33" x2="3606.44" y2="2246.33"/>
	</g>
	<circle class="st15" cx="2283.29" cy="1146.16" r="982.5"/>
	<g class="st16">
		<defs>
			
				<rect id="SVGID_1_" x="1686.83" y="1339.69" transform="matrix(0.7519 0.6593 -0.6593 0.7519 2459.665 -856.9377)" width="1363.13" height="2999.71"/>
		</defs>
		<clipPath id="SVGID_2_" class="st17">
			<use xlink:href="#SVGID_1_"  style="overflow:visible;"/>
		</clipPath>
		<circle class="st18" cx="1849.6" cy="2365.17" r="982.5"/>
	</g>
	<circle class="st19" cx="2283.29" cy="1146.16" r="840"/>
	<g id="Layer_5">
		<path class="st15" d="M2250.56,1573.14l-383.89-512.08c-92.76-123.73-67.65-299.23,56.08-391.99l0,0
			c123.73-92.76,299.23-67.65,391.99,56.08l383.89,512.08c92.76,123.73,67.65,299.23-56.08,391.99l0,0
			C2518.82,1721.98,2343.32,1696.87,2250.56,1573.14z"/>
		<g>
			<line class="st20" x1="1908.47" y1="797.72" x2="1740.42" y2="687.8"/>
			<line class="st20" x1="2138.95" y1="1256.87" x2="1978.28" y2="1377.32"/>
			<line class="st20" x1="2048.97" y1="1136.85" x2="1888.31" y2="1257.3"/>
			<line class="st20" x1="2234.92" y1="1384.89" x2="2074.26" y2="1505.34"/>
			<line class="st20" x1="2336.89" y1="1520.91" x2="2176.23" y2="1641.36"/>
			<line class="st20" x1="2454.14" y1="1607.99" x2="2425.7" y2="1806.76"/>
			<line class="st20" x1="2381.96" y1="1565.54" x2="2280" y2="1738.53"/>
			<line class="st20" x1="1892.83" y1="941.46" x2="1698.19" y2="990.81"/>
			<line class="st20" x1="2515.05" y1="1606.85" x2="2573.44" y2="1798.98"/>
			<line class="st20" x1="1880.3" y1="875.86" x2="1681.52" y2="847.42"/>
			<line class="st20" x1="1947" y1="1000.83" x2="1786.34" y2="1121.28"/>
			<line class="st20" x1="1856.61" y1="573.17" x2="1977.06" y2="733.84"/>
			<line class="st20" x1="2430.03" y1="1038.65" x2="2590.7" y2="918.21"/>
			<line class="st20" x1="2340.06" y1="918.63" x2="2500.73" y2="798.19"/>
			<line class="st20" x1="2526.01" y1="1166.67" x2="2686.67" y2="1046.23"/>
			<line class="st20" x1="2627.98" y1="1302.69" x2="2788.64" y2="1182.25"/>
			<line class="st20" x1="2678.68" y1="1439.66" x2="2877.46" y2="1468.1"/>
			<line class="st20" x1="2658.18" y1="1358.46" x2="2852.82" y2="1309.11"/>
			<line class="st20" x1="2196.29" y1="713.97" x2="2298.24" y2="540.97"/>
			<line class="st20" x1="2660.52" y1="1497.8" x2="2828.56" y2="1607.72"/>
			<line class="st20" x1="2053.94" y1="688.67" x2="1995.55" y2="496.55"/>
			<line class="st20" x1="2136.84" y1="683.54" x2="2165.28" y2="484.77"/>
			<line class="st20" x1="2238.09" y1="782.61" x2="2398.75" y2="662.17"/>
			<line class="st20" x1="2593.2" y1="1555.72" x2="2713.64" y2="1716.38"/>
		</g>
	</g>
	<g id="Layer_6">
		<line class="st21" x1="1951.91" y1="949" x2="2076.77" y2="744.04"/>
		<line class="st21" x1="2160.06" y1="1118.09" x2="2363.09" y2="1138"/>
		<line class="st21" x1="2432.65" y1="1565.22" x2="2497.04" y2="1427.54"/>
		<circle class="st10" cx="2231.16" cy="872.06" r="40"/>
		<circle class="st10" cx="2255.16" cy="1280.4" r="40"/>
		<circle class="st10" cx="2651.51" cy="1356.52" r="40"/>
	</g>
	<path class="st14" d="M1392.11,872.06c13.79-18.4,84.14-335.07,439.08-549.54"/>
	<path class="st14" d="M3191.19,1412.52c-13.79,18.4-84.14,335.07-439.08,549.54"/>
</g>
<g id="SILVER">
	<g id="Layer_9">
	</g>
	<g id="Layer_10">
	</g>
</g>
<g id="BRONZE">
	<g id="Layer_12">
	</g>
</g>
</svg>
