<?xml version="1.0" encoding="utf-8"?>
<!-- Generator: Adobe Adobe Illustrator 24.2.0, SVG Export Plug-In . SVG Version: 6.00 Build 0)  -->
<svg version="1.1" xmlns="http://www.w3.org/2000/svg" xmlns:xlink="http://www.w3.org/1999/xlink" x="0px" y="0px" width="4500px"
	 height="3000px" viewBox="0 0 4500 3000" style="enable-background:new 0 0 4500 3000;" xml:space="preserve">
<style type="text/css">
	.st0{fill:#E98325;}
	.st1{fill:#F5DB5D;}
	.st2{fill:#F2D22F;}
	.st3{fill:#F3B025;}
	.st4{fill:#EAEAEA;}
	.st5{fill:#C2C2C2;}
	.st6{fill:#B4B3B3;}
	.st7{fill:#EFB96E;}
	.st8{fill:#ED9D4C;}
	.st9{fill:#F3DB5D;}
	.st10{fill:#EFB02D;}
	.st11{fill:none;stroke:#FFFFFF;stroke-width:20;stroke-linecap:round;stroke-miterlimit:10;}
	.st12{fill:#F4DB5D;}
	.st13{display:none;}
	.st14{display:inline;}
	.st15{display:inline;clip-path:url(#SVGID_2_);fill:#F4DB5D;}
	.st16{fill:#F1B029;}
	.st17{fill:none;stroke:#F4DB5D;stroke-width:60;stroke-linecap:round;stroke-miterlimit:10;}
	.st18{fill:none;stroke:#F1B029;stroke-width:80;stroke-linecap:round;stroke-miterlimit:10;}
	.st19{fill:#EAE9E9;}
	.st20{fill:#B4B2B3;}
	.st21{fill:none;stroke:#EAE9E9;stroke-width:80;stroke-linecap:round;stroke-miterlimit:10;}
	.st22{fill:#E88326;}
	.st23{font-family:'AvenirNext-Bold';}
	.st24{font-size:338.7406px;}
	.st25{letter-spacing:16;}
	.st26{fill:#E78326;}
	.st27{fill:none;stroke:#EFB96E;stroke-width:60;stroke-linecap:round;stroke-miterlimit:10;}
	.st28{fill:none;stroke:#E68225;stroke-width:40;stroke-miterlimit:10;}
</style>
<g id="Layer_1">
</g>
<g id="REFERENCES">
</g>
<g id="COLOUR">
</g>
<g id="GOLD">
	<g id="Layer_8">
	</g>
	<g class="st13">
		<defs>
			
				<rect id="SVGID_1_" x="1721.67" y="-2032.61" transform="matrix(0.7519 0.6593 -0.6593 0.7519 245.0184 -1716.5898)" width="1363.13" height="2999.71"/>
		</defs>
		<clipPath id="SVGID_2_" class="st14">
			<use xlink:href="#SVGID_1_"  style="overflow:visible;"/>
		</clipPath>
	</g>
	<g id="Layer_5">
	</g>
	<g id="Layer_6">
	</g>
</g>
<g id="SILVER">
	<g id="Layer_9">
	</g>
	<g id="Layer_10">
	</g>
</g>
<g id="BRONZE">
	<g>
		<polygon class="st7" points="3967.3,2697.44 3257.3,2697.44 3468.42,2067.44 3967.3,2067.44 		"/>
		<polygon class="st22" points="3671.67,2318.33 3257.3,2318.33 3257.3,2697.44 		"/>
		<polygon class="st7" points="3967.3,2382.44 4247.3,2067.44 3967.3,2067.44 		"/>
		<polygon class="st7" points="3967.3,2382.44 4247.3,2697.44 3967.3,2697.44 		"/>
	</g>
	<g>
		<polygon class="st7" points="582.3,2697.44 1292.3,2697.44 1081.19,2067.44 582.3,2067.44 		"/>
		<polygon class="st22" points="877.93,2318.33 1292.3,2318.33 1292.3,2697.44 		"/>
		<polygon class="st7" points="582.3,2382.44 302.3,2067.44 582.3,2067.44 		"/>
		<polygon class="st7" points="582.3,2382.44 302.3,2697.44 582.3,2697.44 		"/>
	</g>
	<g>
		<g>
			<path class="st7" d="M3235.65,1688.33c-179.03,317.39-542.37,534.57-961.48,534.57c-419.11,0-782.45-217.18-961.48-534.57H901.67
				v630h2770v-630H3235.65z"/>
		</g>
	</g>
	<text transform="matrix(1 0 0 1 1522.6448 2671.7175)" class="st22 st23 st24 st25">BRONZE</text>
	<line class="st11" x1="977.95" y1="1760.33" x2="977.95" y2="2246.33"/>
	<line class="st11" x1="3597.95" y1="1760.33" x2="3597.95" y2="2246.33"/>
	<circle class="st7" cx="2274.8" cy="1146.16" r="982.5"/>
	<circle class="st26" cx="2274.8" cy="1146.16" r="840"/>
	<path class="st11" d="M1383.62,872.06c13.79-18.4,84.14-335.07,439.08-549.54"/>
	<path class="st11" d="M3182.7,1412.52c-13.79,18.4-84.14,335.07-439.08,549.54"/>
	<g id="Layer_12">
		<g>
			<line class="st27" x1="2683.82" y1="783" x2="2813.87" y2="688.2"/>
			<line class="st27" x1="2469.34" y1="1303.09" x2="2576.01" y2="1377.71"/>
			<line class="st27" x1="2558.74" y1="1182.64" x2="2665.98" y2="1257.69"/>
			<line class="st27" x1="2378.06" y1="1431.28" x2="2480.03" y2="1505.73"/>
			<line class="st27" x1="2274.8" y1="1553.15" x2="2378.06" y2="1641.75"/>
			<line class="st27" x1="2106.15" y1="1652.43" x2="2128.59" y2="1807.15"/>
			<line class="st27" x1="2196.33" y1="1619.93" x2="2274.29" y2="1738.93"/>
			<line class="st27" x1="2697.68" y1="965.85" x2="2856.1" y2="991.2"/>
			<line class="st27" x1="2017.24" y1="1641.75" x2="1980.85" y2="1799.37"/>
			<line class="st27" x1="2714.71" y1="872.06" x2="2872.77" y2="847.82"/>
			<line class="st27" x1="2661.46" y1="1057.22" x2="2767.95" y2="1121.67"/>
			<line class="st27" x1="2697.68" y1="573.56" x2="2612.36" y2="689.06"/>
			<line class="st27" x1="2068.26" y1="1005.05" x2="1963.59" y2="918.6"/>
			<line class="st27" x1="2155.54" y1="887.03" x2="2053.57" y2="798.58"/>
			<line class="st27" x1="1980.85" y1="1133.07" x2="1867.62" y2="1046.62"/>
			<line class="st27" x1="1883.48" y1="1251.09" x2="1765.65" y2="1182.64"/>
			<line class="st27" x1="1840.65" y1="1431.28" x2="1676.83" y2="1468.49"/>
			<line class="st27" x1="1840.65" y1="1348.86" x2="1701.47" y2="1309.5"/>
			<line class="st27" x1="2340" y1="678.36" x2="2256.05" y2="541.37"/>
			<line class="st27" x1="1867.62" y1="1534.19" x2="1725.73" y2="1608.11"/>
			<line class="st27" x1="2522.67" y1="662.56" x2="2558.74" y2="496.94"/>
			<line class="st27" x1="2429.05" y1="649.94" x2="2389.01" y2="485.16"/>
			<line class="st27" x1="2256.05" y1="749" x2="2155.54" y2="662.56"/>
			<line class="st27" x1="1926.31" y1="1600.11" x2="1840.65" y2="1716.77"/>
		</g>
		<g>
			<path class="st7" d="M2303.73,1573.53l383.89-512.08c92.76-123.73,67.65-299.23-56.08-391.99l0,0
				c-123.73-92.76-299.23-67.65-391.99,56.08l-383.89,512.08c-92.76,123.73-67.65,299.23,56.08,391.99l0,0
				C2035.47,1722.37,2210.97,1697.26,2303.73,1573.53z"/>
		</g>
		<g>
			<line class="st28" x1="2439.23" y1="727.76" x2="2503.55" y2="882.06"/>
			<line class="st28" x1="2548.54" y1="772.75" x2="2394.24" y2="837.07"/>
		</g>
		<g>
			<line class="st28" x1="2277.24" y1="1165.2" x2="2341.56" y2="1319.5"/>
			<line class="st28" x1="2386.55" y1="1210.19" x2="2232.25" y2="1274.51"/>
		</g>
		<g>
			<line class="st28" x1="1977.43" y1="1277.19" x2="2041.74" y2="1431.49"/>
			<line class="st28" x1="2086.73" y1="1322.18" x2="1932.44" y2="1386.5"/>
		</g>
		<line class="st28" x1="2576.34" y1="971.77" x2="2412.73" y2="1005.87"/>
		<line class="st28" x1="2219.46" y1="988.82" x2="2173.62" y2="1149.53"/>
		<line class="st28" x1="2156.54" y1="1500" x2="1993.91" y2="1538.51"/>
	</g>
</g>
</svg>
