<svg xmlns="http://www.w3.org/2000/svg" viewBox="0 0 510.3 510.3"><defs><style>.cls-1{fill:#fff;}.cls-2{fill:#607ab6;}.cls-3{fill:#4f81bf;}.cls-4{fill:#94adda;}.cls-5{fill:#719ed4;}.cls-6{fill:#4b6ea2;}.cls-7{fill:#5772a8;}.cls-8{fill:#406e9e;}.cls-9{fill:#8dbce5;}.cls-10{fill:#7395c7;}.cls-11{fill:#7ca5d7;}.cls-12{fill:#518fcb;}.cls-13{fill:#7aa5d7;}.cls-14{fill:#6479b1;}.cls-15{fill:#6c8cc7;}.cls-16{fill:#9fbce2;}.cls-17{fill:#91bee4;}.cls-18{fill:#6fbae7;}.cls-19{fill:#879dc8;}.cls-20{fill:#6babde;}.cls-21{fill:#6c85bf;}.cls-22{fill:#9dcdef;}.cls-23{fill:#80bae4;}.cls-24{fill:#7d9ed2;}.cls-25{fill:#9da7d2;}.cls-26{fill:#758ac5;}.cls-27{fill:#a0add3;}.cls-28{fill:#98a9d0;}.cls-29{fill:#c6cde8;}.cls-30{fill:#97acd9;}</style></defs><g id="Layer_6" data-name="Layer 6"><rect class="cls-1" width="510.3" height="510.3"/><path class="cls-2" d="M97.88,439.27c-17.2,16.45-36.22,33.27-53.51,49.8-1.56,6.12,59.27,7.54,89.21,5.27C120.52,471.68,97.88,439.27,97.88,439.27Z" transform="translate(114.34 1.03)"/><path class="cls-3" d="M64.36,379.45l22.79,35.3,40-36.51S69.69,379.42,64.36,379.45Z" transform="translate(114.34 1.03)"/><path class="cls-4" d="M141.4,494.43l14.88-117c-8,.68-16,1.62-24,1L88.47,418.59l49.89,75.91Z" transform="translate(114.34 1.03)"/><path class="cls-5" d="M168.16,493.76l40.9-11.35L176.42,376.53c-4.31.11-8.61.24-12.92.44-1.07,0-2.14.11-3.21.19L145.37,494.34C153,494.16,160.56,494,168.16,493.76Z" transform="translate(114.34 1.03)"/><path class="cls-3" d="M180.76,376.43l21.33,69.21,24.19-69.88C211.11,376.16,195.93,376.12,180.76,376.43Z" transform="translate(114.34 1.03)"/><path class="cls-6" d="M39,380.28c-.19.38-.37.76-.56,1.15-.17.6-.3,1-.4,1.27-.66,2-1.41,3.93-2,6.06-.4,1.49-1.1,6-.38,1.26-.24,1.55-.64,3.07-.93,4.59-1,5.59-1.81,11.34-2.43,17.14-.3,2.89-.55,5.8-.79,8.72v0l0,.26c-.07,1.07-.13,2.15-.19,3.23-.39,7.16-.64,14.33-.48,21.54q.08,3.68.27,7.34l.15,2.41c0,.11,0,.23,0,.37.36,3.67.7,7.32,1.18,11q.4,3.21.92,6.39a53.23,53.23,0,0,1,1.1,5.88l.3.86A35.26,35.26,0,0,0,39,485.62c.39.42.85.9,1.37,1.4l54.88-49.85L60.84,379.45Z" transform="translate(114.34 1.03)"/><path class="cls-7" d="M248.86,464.1c0-.35.29-2.27.43-3.36.09-.93.35-3.38.39-3.78.32-3.52.59-7,.78-10.58.38-7.14.47-14.29.19-21.43q-.24-5.91-.8-11.79c-.11-1.2-.22-2.41-.35-3.62-.06-.37-.25-1.82-.39-2.78a172.54,172.54,0,0,0-3.76-18.87q-1.2-4.62-2.65-9.13c-.29-.9-1.95-5.3-.44-1.36-.24-.61-.47-1.21-.7-1.82-3.48-.09-7,0-10.45.05l-25.67,74.16,43.29,15.28C248.77,464.75,248.82,464.42,248.86,464.1Z" transform="translate(114.34 1.03)"/><path class="cls-8" d="M239.76,488.23a31,31,0,0,0,4.73-5.13,28.84,28.84,0,0,0,2-3.41c.52-3,1-6.06,1.47-9.1l-42.47-15.21,8.75,26.49,23.33,7.59C238.3,489.08,239,488.67,239.76,488.23Z" transform="translate(114.34 1.03)"/><path class="cls-9" d="M227.82,492.47c1.51-.34,3-.71,4.5-1.13L211,487.28l-29.45,5.36H227.3A2.88,2.88,0,0,1,227.82,492.47Z" transform="translate(114.34 1.03)"/><polygon class="cls-10" points="324.62 362.07 295.17 367.43 352.83 367.43 324.62 362.07"/><polygon class="cls-3" points="212.45 325.84 155.29 371.06 247.01 370 212.45 325.84"/><path class="cls-4" d="M64.36,269.65l20.7,29.67,41.52-29.65C124.8,269.62,72.43,268.52,64.36,269.65Z" transform="translate(114.34 1.03)"/><path class="cls-11" d="M140.34,368.26,155,268.54c-7.87.59-15.75,1.39-23.62.82L87,302.35l50.34,66Z" transform="translate(114.34 1.03)"/><path class="cls-12" d="M166.67,367.69,206.93,358l-32.12-90.27c-4.25.1-8.49.21-12.73.38-1.05,0-2.1.09-3.15.16l-14.68,99.9Z" transform="translate(114.34 1.03)"/><path class="cls-13" d="M179.07,267.66l21,59,23.8-59.57C208.94,267.43,194,267.4,179.07,267.66Z" transform="translate(114.34 1.03)"/><path class="cls-14" d="M40,270.26c-.17.26-.33.54-.5.81-.16.43-.29.72-.38.91-.61,1.42-1.3,2.78-1.84,4.3-.38,1.06-1.09,4.32-.35.9-.24,1.11-.63,2.19-.91,3.28-1,4-1.86,8.12-2.54,12.28-.34,2.08-.64,4.17-.93,6.27v0l0,.19c-.09.77-.17,1.55-.26,2.32-.53,5.16-.95,10.33-1,15.54,0,1.77,0,3.54,0,5.3,0,.58,0,1.16.05,1.74a2.45,2.45,0,0,0,0,.27c.19,2.66.37,5.31.66,7.95.32,2.92.89,5.8,1.2,8.68,3,27,4.6,27.52,4.71,28,0,.13,57.81-47.41,57.81-47.41l-36-51.91Z" transform="translate(114.34 1.03)"/><path class="cls-15" d="M246.09,342.4c0-.29.28-1.94.42-2.87s.35-2.88.38-3.22q.48-4.5.77-9a171.3,171.3,0,0,0,.19-18.27c-.15-3.36-.43-6.7-.78-10-.11-1-.23-2.05-.35-3.08-.06-.32-.25-1.56-.38-2.37a129.82,129.82,0,0,0-3.71-16.09c-.78-2.63-1.65-5.22-2.61-7.79-.28-.76-1.91-4.51-.43-1.16-.23-.51-.46-1-.68-1.55-3.43-.07-6.86,0-10.29,0L203.36,330.2l42.6,13C246,343,246.05,342.68,246.09,342.4Z" transform="translate(114.34 1.03)"/><path class="cls-3" d="M245.19,347.94l-41.8-13L212,357.55l29.6,8.35C242.92,359.94,244.15,354,245.19,347.94Z" transform="translate(114.34 1.03)"/><polygon class="cls-16" points="321.81 254.2 292.37 259.55 350.02 259.55 321.81 254.2"/><path class="cls-17" d="M41.25,248.61l52.23-36.32-5-11.2-51.17,33C38.69,238.93,39.83,243.8,41.25,248.61Z" transform="translate(114.34 1.03)"/><path class="cls-18" d="M65.42,159.26l24.29,35.08,38.66-30.68C108.45,163.66,74.84,159.26,65.42,159.26Z" transform="translate(114.34 1.03)"/><path class="cls-9" d="M140.67,259.63l14.12-96c-7.59.57-13.21.4-22.77.79,0,0-40.86,30.55-40.16,31.71C108,223,137.79,259.69,137.79,259.69Z" transform="translate(114.34 1.03)"/><polygon class="cls-19" points="212.45 213.97 154.52 257.9 247.91 260.71 212.45 213.97"/><path class="cls-20" d="M166.06,259.08l38.82-9.31-31-86.87c-4.09.09-8.18.19-12.27.35-1,0-2,.1-3,.16l-14.15,96.15Q155.26,259.34,166.06,259.08Z" transform="translate(114.34 1.03)"/><path class="cls-5" d="M178,162.81l20.25,56.79,23-57.34C206.83,162.59,192.42,162.56,178,162.81Z" transform="translate(114.34 1.03)"/><path class="cls-10" d="M46.26,157.81c-.2.28-5.8,14.5-6.06,15.37-1,3.2-1.71,6.5-2.37,9.83-.33,1.67-.61,3.35-.89,5v0l0,.15c-.09.62-.17,1.24-.25,1.86-.55,4.14-1,8.29-1.15,12.48-.06,1.43-.08,2.85-.08,4.27,0,.47,0,.94,0,1.41a1.77,1.77,0,0,0,0,.22c.13,2.48-.87,31.38,3.73,44.72.37,1.06,57.35-43.44,57.35-43.44l-35.22-51Z" transform="translate(114.34 1.03)"/><path class="cls-3" d="M242.66,234.74l.4-2.75c.09-.77.33-2.78.37-3.1q.47-4.33.74-8.69a166.27,166.27,0,0,0,.18-17.58c-.15-3.23-.41-6.45-.75-9.67-.11-1-.22-2-.34-3,0-.31-.24-1.5-.37-2.28a124,124,0,0,0-3.57-15.48q-1.12-3.79-2.52-7.5c-.27-.74-1.84-4.34-.41-1.11l-.66-1.5c-3.31-.07-6.62,0-9.92,0L201.44,223l41.09,12.55C242.57,235.28,242.62,235,242.66,234.74Z" transform="translate(114.34 1.03)"/><path class="cls-21" d="M241.78,240.07l-40.31-12.48,8.31,21.73,28.54,8C239.6,251.63,240.78,245.87,241.78,240.07Z" transform="translate(114.34 1.03)"/><polygon class="cls-17" points="317.61 150.91 288.16 156.27 345.82 156.27 317.61 150.91"/><path class="cls-22" d="M96.12,75c-.88.65-4.18,3.56-5.05,4.21L95,97l32.71-22.86c-4.73.17-15,.11-19.68.4C104,74.74,100.07,74.94,96.12,75Z" transform="translate(114.34 1.03)"/><path class="cls-22" d="M139.58,155.62,153,73.47c-7.21.48-14.42,1.14-21.63.68L96.21,99.49,99.4,115.8l35.82,39.76C136.13,155.54,138.67,155.64,139.58,155.62Z" transform="translate(114.34 1.03)"/><path class="cls-16" d="M130.77,155.76l-33.12-37-48.23,35C77.54,156.44,117.31,157.09,130.77,155.76Z" transform="translate(114.34 1.03)"/><path class="cls-23" d="M163.71,155.15l36.89-8L171.16,72.82c-3.88.07-7.77.17-11.65.3l-2.9.13-13.45,82.31Z" transform="translate(114.34 1.03)"/><path class="cls-16" d="M201.42,81.86c-2.33-3.14-5.21-6.17-7.86-9.31-6.16,0-12.32.1-18.49.19l19.24,48.61L207.84,90.9Q204.74,86.34,201.42,81.86Z" transform="translate(114.34 1.03)"/><path class="cls-19" d="M62.41,116.72c-.52.92-1.08,1.85-1.56,2.8.31-.6.65-1.23-.05.11L60,121.16a220.12,220.12,0,0,0-12.49,30l49-34.93-7.32-35.7C70.86,98.84,63.75,114.35,62.41,116.72Z" transform="translate(114.34 1.03)"/><path class="cls-24" d="M225.64,126.84c-3.38-7.91-6.73-15.83-10.12-23.74l-.06-.13c-.22-.38-.43-.76-.65-1.13-.55-.93-1.12-1.85-1.68-2.77-.88-1.43-1.79-2.85-2.7-4.27l-13.1,29.47,30.53,8.39A37.19,37.19,0,0,0,225.64,126.84Z" transform="translate(114.34 1.03)"/><path class="cls-25" d="M230.35,142.76a22.63,22.63,0,0,1-1.44-4.42c-.1-.47-.19-.94-.28-1.42l-31.28-8.72,7.9,18.6,27.12,6.88.12-.52c-.1-.65-.21-1.29-.33-1.94C231.62,148.39,231,145.57,230.35,142.76Z" transform="translate(114.34 1.03)"/><path class="cls-20" d="M108,66.57c3.52.05,29.8,0,33.32.05l-22-6.47L96.21,66.38Q102.11,66.5,108,66.57Z" transform="translate(114.34 1.03)"/><path class="cls-23" d="M93.73,52.58l-.1.09c0,.58-1.16,8.28-.15,13.06l23.75-6.06-23.1-7.38-.23.14Z" transform="translate(114.34 1.03)"/><path class="cls-3" d="M162.37,51.8l10.26,8.7,11.63-8.78C177,51.77,169.67,51.76,162.37,51.8Z" transform="translate(114.34 1.03)"/><path class="cls-4" d="M143.85,65.73l6.75-13.8c-3.94.09-53.29.36-53.29.36l45.16,13.44Z" transform="translate(114.34 1.03)"/><path class="cls-5" d="M156.31,66.55,176,65.12l-15.69-13.3-6.22,0-1.54,0-7.17,14.73Z" transform="translate(114.34 1.03)"/><path class="cls-26" d="M192.69,52.56c-.17-.16-.35-.31-.54-.46s-.93-.67-.21-.18l-.34-.22c-1.67,0-3.35,0-5,0l-12.84,9.82,4.93,3.57,14.05.64Z" transform="translate(114.34 1.03)"/><path class="cls-13" d="M170.42,33.54l-13,12.2L190,45.66s2.78-3.47,2.68-6.66C192.71,38.77,170.42,33.54,170.42,33.54Z" transform="translate(114.34 1.03)"/><path class="cls-27" d="M114.25,13.94l-.45,0L112,13.78c-1.63.11-3.25.22-4.88.3-3.13.14-6.29.12-9.43,0L116.2,27.65,116.79,14C115.94,14,115.09,14,114.25,13.94Z" transform="translate(114.34 1.03)"/><path class="cls-28" d="M118.94,14l-.17,8.54,17.29-8.8C133.61,13.84,121.44,14,118.94,14Z" transform="translate(114.34 1.03)"/><path class="cls-29" d="M142.84,45.66l7-32.24a111,111,0,0,1-11.24.26L118.77,24.5l.9,21.13Z" transform="translate(114.34 1.03)"/><path class="cls-25" d="M155.36,45.47s13.1-11.32,16.52-15.93c.24-.32-12.65-16.38-12.65-16.38l-6,.12-1.5.05-7,32.3Z" transform="translate(114.34 1.03)"/><path class="cls-27" d="M161.26,13.13s11.13,14.95,11.31,14.77c2.94-2.94,10.66-15,10.66-15C176.12,13,168.37,13.05,161.26,13.13Z" transform="translate(114.34 1.03)"/><path class="cls-21" d="M94.91,14.19c-.09.11-.18.21-.26.32s-.15.28-.19.35c-.31.55-.66,1.08-.93,1.67-.19.41-.51,1.67-.18.35-.11.43-.3.84-.43,1.26a37.89,37.89,0,0,0-1.14,4.73c-.14.8-.26,1.6-.37,2.4h0v.07l-.09.89a45.31,45.31,0,0,0-.22,5.94c0,.68.07,1.35.13,2l.06.67,0,.1c.17,1,.33,2,.55,3s.54,2.21.86,3.29c.14.45.29.91.44,1.36l.24.67s.1.29.17.48.21.53.24.59l.06.15,23.37-13V13.78Z" transform="translate(114.34 1.03)"/><path class="cls-30" d="M118.63,45.74l-1-12.65-22.58,12C97.87,45.74,115.2,45.7,118.63,45.74Z" transform="translate(114.34 1.03)"/><path class="cls-26" d="M193.15,37.3c0-.1.13-.63.2-.93s.16-.93.18-1c.15-1,.27-1.94.36-2.92a37.5,37.5,0,0,0,.09-5.9c-.07-1.09-.2-2.17-.37-3.25-.05-.33-.11-.67-.16-1,0-.1-.12-.5-.19-.77a30.93,30.93,0,0,0-1.76-5.2c-.37-.85-.78-1.69-1.24-2.52-.14-.24-.91-1.46-.21-.37-.1-.17-.21-.34-.32-.5-1.63,0-3.26,0-4.89,0L171.32,32.35l21.76,5.22C193.1,37.48,193.13,37.39,193.15,37.3Z" transform="translate(114.34 1.03)"/></g></svg>