<svg id="Layer_1" data-name="Layer 1" xmlns="http://www.w3.org/2000/svg" viewBox="0 0 121.63 80.36"><defs><style>.cls-1{fill:#fff;}</style></defs><path class="cls-1" d="M391.05,258.41a2,2,0,0,0,0-2.8c-.77-.77-1.39-1.4-1.38-1.41s-.62-.65-1.4-1.43l-35.35-35.36a2,2,0,1,0-2.83,2.83l33.52,33.53c.78.77.51,1.41-.59,1.41H272a2,2,0,0,0-2,2h0a2,2,0,0,0,2,2H382.69c1.1,0,1.36.64.58,1.41l-33.18,33.19a2,2,0,0,0,2.83,2.83l35.35-35.36c.78-.77,1.41-1.42,1.4-1.43S390.28,259.18,391.05,258.41Z" transform="translate(-270 -216.83)"/></svg>