<?xml version="1.0" encoding="utf-8"?>
<!-- Generator: Adobe Adobe Illustrator 24.2.0, SVG Export Plug-In . SVG Version: 6.00 Build 0)  -->
<svg version="1.1" xmlns="http://www.w3.org/2000/svg" xmlns:xlink="http://www.w3.org/1999/xlink" x="0px" y="0px" width="600px"
	 height="1000px" viewBox="0 0 600 1000" style="enable-background:new 0 0 600 1000;" xml:space="preserve">
<style type="text/css">
	.st0{fill:#66C8DE;}
	.st1{fill:#B893C1;}
	.st2{fill:#7586BE;}
</style>
<g id="Layer_6">
</g>
<g id="Layer_3">
</g>
<g id="Layer_4">
	<g>
		<g>
			<path class="st1" d="M480.11,709.96c-3.37-89.48-4.97-178.88-6.56-268.29c43.38-83.36,4.03-183.22-93.26-239.38
				c0.71-1.82,0.64-1.82,0.57-1.82c0.79-0.33,1.59-0.65,2.39-0.98c4.49-21.78,0.91-44.33-10.28-64.91
				c-2.71-3.01-2.57-6.76-2.43-10.52c2.04-1.3,4.21-2.47,6.38-3.65c0.64-8.21,1.13-16.55,1.62-24.9
				c-17.62-4.23-44.76-6.52-69.44-6.99c-27.78-1.7-61.9,0.82-87.64,6.99c0.49,8.34,0.98,16.69,1.62,24.9
				c2.17,1.17,4.35,2.35,6.38,3.65c0.14,3.76,0.28,7.51-2.43,10.52c-11.2,20.58-14.77,43.13-10.28,64.91
				c0.8,0.33,1.59,0.65,2.39,0.98c-0.07,0-0.14,0,0.57,1.82c-97.28,56.16-136.63,156.02-93.26,239.38
				c-1.6,89.41-3.2,178.81-6.56,268.29c-36.3,58.7-31.96,128.8,14.42,183.94c22.47,6.64,46.51,10.69,70.79,11.19
				c7.72-2.67,15.45-5.34,22.18-6.84c17.97,9.32,60.23,15.13,91.75,13.46c21.42-0.17,41.96-3.64,53.68-13.46
				c6.73,1.5,14.46,4.17,22.18,6.84c24.28-0.5,48.32-4.55,70.79-11.19C512.07,838.76,516.4,768.66,480.11,709.96z"/>
		</g>
	</g>
</g>
<g id="Layer_5">
</g>
</svg>
