<?xml version="1.0" encoding="utf-8"?>
<!-- Generator: Adobe Adobe Illustrator 24.2.0, SVG Export Plug-In . SVG Version: 6.00 Build 0)  -->
<svg version="1.1" xmlns="http://www.w3.org/2000/svg" xmlns:xlink="http://www.w3.org/1999/xlink" x="0px" y="0px" width="800px"
	 height="400px" viewBox="0 0 800 400" style="enable-background:new 0 0 800 400;" xml:space="preserve">
<style type="text/css">
	.st0{fill:#7586BE;}
	.st1{fill:#B893C1;}
	.st2{fill:#66C8DE;}
	.st3{fill:#7486BE;}
	.st4{fill:#B692BE;}
	.st5{fill:#7386BE;}
	.st6{fill:none;stroke:#7386BE;stroke-width:22;stroke-linecap:round;stroke-miterlimit:10;}
	.st7{fill:#B591BB;}
	.st8{fill:none;stroke:#B591BB;stroke-width:22;stroke-linecap:round;stroke-miterlimit:10;}
	.st9{fill:none;stroke:#66C8DE;stroke-width:22;stroke-linecap:round;stroke-miterlimit:10;}
	.st10{fill:#B692BC;}
</style>
<g id="Layer_6">
</g>
<g id="WATERBOTTLE">
	<g id="Layer_5">
	</g>
	<g id="Layer_4">
	</g>
	<g id="Layer_3">
	</g>
</g>
<g id="CIRCLE">
	<g id="Layer_8">
	</g>
	<g id="Layer_10">
	</g>
	<g id="Layer_9">
	</g>
</g>
<g id="FACE_MASk">
	<g id="Layer_17">
		<path class="st5" d="M194.83,220.07c-5.1-11.24,10.1-126.48,12.96-127.21c78.79-20.15,181.34-51.63,195.85-51.63
			c14.38,0,156.78,39.48,192.93,44.63c12.42,1.77,24.82,123.61,19.09,134.21c-38.2,70.69-130.98,138.7-208.8,138.7
			C329.96,358.13,224.46,285.34,194.83,220.07z"/>
		<path class="st6" d="M580.22,114.6c20.01-27.74,46.97-42.26,73.14-49.39c26.17-7.13,59.62,0.53,69.65,23.58
			c14.83,34.07-5.13,70-26.2,85.82c-25.38,19.06-63.93,35.32-113.02,40.18"/>
		<path class="st6" d="M219.78,113.45c-20.68-27.25-47.99-41.1-74.32-47.6S85.87,67.84,76.4,91.12c-14,34.42,6.84,69.85,28.28,85.15
			c25.83,18.43,64.77,33.75,113.97,37.42"/>
	</g>
	<g id="Layer_16">
	</g>
	<g id="Layer_12">
	</g>
</g>
<g id="PLASTIC_BAG">
	<g id="Layer_14">
	</g>
	<g id="Layer_13">
	</g>
	<g id="Layer_15">
	</g>
</g>
</svg>
