<svg xmlns="http://www.w3.org/2000/svg" xmlns:xlink="http://www.w3.org/1999/xlink" viewBox="0 0 8840 5800"><defs><style>.cls-1{fill:none;}.cls-2{isolation:isolate;}.cls-3{fill:#fff9d9;}.cls-17,.cls-3,.cls-36,.cls-37,.cls-40,.cls-42,.cls-46{stroke:#fff9d9;}.cls-14,.cls-15,.cls-16,.cls-17,.cls-3,.cls-36,.cls-37,.cls-38,.cls-39,.cls-40,.cls-41,.cls-42,.cls-43,.cls-44,.cls-45,.cls-46,.cls-61{stroke-miterlimit:10;}.cls-4,.cls-61{fill:#fff;}.cls-5{opacity:0.25;}.cls-34,.cls-5{mix-blend-mode:multiply;}.cls-34,.cls-6{fill:#bfd9ff;}.cls-7{fill:#c7b3a5;}.cls-8{fill:#cfd1e3;}.cls-15,.cls-9{fill:#475191;}.cls-10{fill:#afbbde;}.cls-11,.cls-37,.cls-38{fill:#d9c39a;}.cls-12{fill:#f7dfb2;}.cls-13{fill:#d6d6d6;}.cls-14{fill:#d4d4d4;stroke:#d4d4d4;}.cls-15{stroke:#475191;}.cls-16{fill:#646ca1;stroke:#646ca1;}.cls-17{fill:#b2d5ed;opacity:0.82;}.cls-18{fill:#e8e8e7;}.cls-19{fill:#f6e1ce;}.cls-20{fill:#f6c9a8;}.cls-21{fill:#d5d5d7;}.cls-22{fill:#c4996c;}.cls-23{fill:#656790;}.cls-24{fill:#f2af94;}.cls-25{fill:#f5ccae;}.cls-26{fill:#7b84bf;}.cls-27{fill:#c6cce2;}.cls-28{fill:#916848;}.cls-29{fill:#c48b60;}.cls-30{fill:#382111;}.cls-31{fill:#e0e0e2;}.cls-32{fill:#5d5b6e;opacity:0.5;}.cls-33{fill:#e8e8e8;}.cls-34{opacity:0.3;}.cls-35{fill:#757575;}.cls-36{fill:#fff2d9;}.cls-38{stroke:#d9c39a;}.cls-39,.cls-40{fill:#656a94;}.cls-39{stroke:#656a94;}.cls-41,.cls-42,.cls-43{fill:#b4b8d9;}.cls-41,.cls-45{stroke:#6f9e6f;}.cls-43{stroke:#b4b8d9;}.cls-44{fill:#a7cfa7;stroke:#a7cfa7;}.cls-45,.cls-46,.cls-49{fill:#6f9e6f;}.cls-47{fill:#b09684;}.cls-48{fill:#857366;}.cls-50,.cls-51,.cls-52{fill:#97b4c7;}.cls-50{opacity:0.67;}.cls-51{opacity:0;}.cls-52{opacity:0.68;}.cls-53,.cls-54{fill:#fff8eb;}.cls-53{opacity:0.75;}.cls-54{opacity:0.59;}.cls-55{fill:url(#linear-gradient);}.cls-56{fill:url(#linear-gradient-2);}.cls-57{fill:#ff0;fill-rule:evenodd;opacity:0.17;}.cls-58{clip-path:url(#clip-path);}.cls-59{fill:#aeafb8;}.cls-60{clip-path:url(#clip-path-2);}.cls-61{stroke:#aeafb8;stroke-width:10px;}</style><linearGradient id="linear-gradient" x1="13097.52" y1="2872.64" x2="14978" y2="2872.64" gradientTransform="matrix(-1, 0, 0, 1, 21428.32, 0)" gradientUnits="userSpaceOnUse"><stop offset="0.01" stop-color="#6b6b6b"/><stop offset="0.02" stop-color="#6f6f6f"/><stop offset="0.14" stop-color="#919191"/><stop offset="0.27" stop-color="#adadad"/><stop offset="0.41" stop-color="#c3c3c3"/><stop offset="0.57" stop-color="#d2d2d2"/><stop offset="0.74" stop-color="#dbdbdb"/><stop offset="1" stop-color="#dedede"/></linearGradient><linearGradient id="linear-gradient-2" x1="535.84" y1="2865.25" x2="2416.32" y2="2865.25" gradientTransform="matrix(1, 0, 0, 1, 0, 0)" xlink:href="#linear-gradient"/><clipPath id="clip-path"><ellipse class="cls-1" cx="4462.84" cy="526.12" rx="325" ry="311.59"/></clipPath><clipPath id="clip-path-2"><rect class="cls-1" x="4279.53" y="595.12" width="366" height="124"/></clipPath></defs><g class="cls-2"><g id="Layer_53" data-name="Layer 53"><path class="cls-3" d="M4956.79,727.37l5.74-4.45"/></g><g id="window_glass" data-name="window glass"><rect class="cls-4" x="2560.72" y="955.47" width="3720" height="2098.15"/><g class="cls-5"><rect class="cls-6" x="2579.54" y="980.28" width="3700.95" height="2048.53"/></g></g><g id="Layer_54" data-name="Layer 54"><path class="cls-7" d="M2533.43,3069.5c143.7-109.18-52.95-193.52,75.07-271.3,363.8-221,700.7-328.7,1217.52-399.65,720-98.85,1356.66-16.9,1846.86,100,217,51.75,434.93,141.33,633.19,253.57,163.66,92.65-74.64,173.69,11.36,299.74"/></g><g id="background_screens" data-name="background screens"><path class="cls-8" d="M2621.18,1597.63q-1.11,320.32,13.56,640.43A3304.18,3304.18,0,0,1,3207.82,2015a3710.69,3710.69,0,0,1-49.15-545.53C2982.42,1493.32,2808.3,1534.27,2621.18,1597.63Z"/><path class="cls-9" d="M2622.27,1233.4a1463.2,1463.2,0,0,0,7,212.55l308.23-96.34-23.56-142.08c-.54-3.29-1.19-6.8-3.4-9.22-3.26-3.57-8.65-3.52-13.37-3.2a2018.9,2018.9,0,0,0-249.84,32.94C2641.84,1229.11,2634.74,1233.15,2622.27,1233.4Z"/><path class="cls-10" d="M3195.44,1158.44c33.26,250,56.24,501.44,79.2,752.74q370.24-9.79,740.54,7.36a2871.73,2871.73,0,0,1,62.25-715.48C3784.5,1163.13,3488.08,1151.15,3195.44,1158.44Z"/><path class="cls-11" d="M4318.23,1256.27q-1,160.26,10.23,320.27c.55,7.82,1.52,16.49,7.2,21.62s14.08,4.86,21.59,4.31L4837,1566.91l.92-331.87C4662.06,1227.87,4485.93,1227.35,4318.23,1256.27Z"/><path class="cls-12" d="M4720.35,1641.45q7.74,159.48,5,319.26,232.47,45.22,466.18,83.07-2.39-213.49,11-426.75a1665.79,1665.79,0,0,1-325.24,18.89C4808.32,1633.16,4732.71,1628,4720.35,1641.45Z"/><path class="cls-7" d="M5402.43,1179.17l-2.54,298.07,729.33-67.9-17.51-230.74c-.35-4.65-1-9.88-4.54-12.72-2.63-2.11-6.18-2.31-9.49-2.42q-301.61-10.51-603.24,9.11C5457.64,1175,5417.88,1179,5402.43,1179.17Z"/><path class="cls-13" d="M5722.24,1552l14.52,390.39c187.41,36,373.05,103.26,553.9,200.66l40.78-454.3c.85-9.46,1.62-19.82-1-28.09-2.91-9.12-9-12.71-14.52-15.53C6128.39,1549.81,5933.24,1505.48,5722.24,1552Z"/></g><g id="DRYLAB"><g id="desktop"><path class="cls-14" d="M6143.7,2806.56c.61,6.48-.74.13-1.38-2.55a123.13,123.13,0,0,1-2-14.36,27.45,27.45,0,0,1,.16-7.42c-9.13-29.22-33.33-53.73-60.59-64.56-38.44-15.27-83.55-8.54-116.85,17.45-22.72,17.71-42.36,40.48-49.64,54l-27.54,51.16c85.67,15.3,173-4.29,257.92-23.8.25-2,.38-4,.47-5.93C6144,2809.23,6143.84,2807.88,6143.7,2806.56Z"/><path class="cls-15" d="M5775.72,2243.45c46.86,82.13,69.28,180.56,63.1,277.07l-91.4-2.43c-1,4.88,4.14,8.37,8.43,10.16l158.47,66.12c54.92,22.92,110.11,45.92,167.61,59.33l-90.82-89.31c-4.09-4-8.32-8.26-10.34-13.86-2.75-7.63-.86-16.21,1-24.14l41-170"/><path class="cls-16" d="M5393.44,1797.24a4573.15,4573.15,0,0,1,61.76,524.88c287.22,70.47,566.26,169.07,830.85,293.6,49.46-239.89,47.74-485.9,45.13-730-319.35-54.5-640.47-109.18-965.23-114.44a663.17,663.17,0,0,1,53,272.18"/><path class="cls-17" d="M5474.39,1888.07c23.08,155.87,38.59,313.08,46.42,470.75,215.91,63.21,425.66,151.65,624.55,263.34,37.17-215.16,35.89-435.8,33.92-654.77-240.05-48.89-481.44-97.92-725.55-102.64a696,696,0,0,1,39.85,244.12"/></g><g id="boyd"><path class="cls-18" d="M5133.87,2368.78c-99.21,231.31-94.74,533.62-79.79,747,95.95,15.3,435.35-34.13,531.66-46.61-56.58-112.49-78-251.87-98.51-351.08-18.08-87.56-17.27-140-21.84-241.75-1.14-25.47-17.06-101.35-27.69-124.28-21.28-45.9-12.58-55.7-15-55.7-42.82,0-152.07-49.6-177.47-66.13C5245.24,2230.27,5150.73,2329.48,5133.87,2368.78Z"/><path class="cls-19" d="M5844.09,2740.21c-158.95,11.58-221.23,11.73-380.18,23.31-28.31,2.06-46.65,39.82-38.88,70s34.46,50.71,62.12,57.67,61.84-4.15,90-8.31c102.6-15.16,175.45-23.58,275.37-53.49C5893.74,2817.06,5855.08,2800.42,5844.09,2740.21Z"/><path class="cls-19" d="M5801.2,2744.9c43.28-6.86,78.88-37.74,116.3-61.57,42-26.73,92.44-45.76,139.9-32.51l-46.92,12.66c-17.23,4.65-35.7,10.12-46.76,24.73,45.24-22.22,92.54-44.92,142.48-43.69A912.3,912.3,0,0,1,5991.34,2709c49.51,3.53,93-34.91,142.12-42.34-2.28,14.15-15.64,22.83-27.68,29.66-29.49,16.72-59,33.45-87.93,50.91,37.29-5.63,85.86-18.33,119.16-14.75-35,19-74.49,32.34-111.76,45.36a1736.64,1736.64,0,0,1-206.5,58.17"/><path class="cls-19" d="M5306.2,2441.16c-8.68-22.35-37.65-34.18-59.49-24.29s-32.07,39.47-21,60.74l151.69,291.44c13.84,26.59,28.15,53.79,50.49,73.76s54.81,31.46,82.91,21,45.36-47.84,28.61-72.69c-45.08-66.91-64.33-147.36-95.74-221.66S5361.82,2421.2,5306.2,2441.16Z"/><path class="cls-20" d="M5363.38,2751.66c1.29,1.83,29,46.72,46.76,72,8.27-8.28,60.68-35.26,89.77-52.13,11.62-6.74,18.51-15.26,17.68-17-12.06-25.76-30.51-72.39-44.76-98.08-41.47,14.31-86.39,39-120.39,66.72C5352.44,2723.14,5352,2735.49,5363.38,2751.66Z"/><path class="cls-21" d="M5494.37,2702.22c-79.06,53.08-130.3,68.42-228.87,64.23-34.31-50.09-74.24-220.71-71.33-271.18,2.54-44,9.87,60.21,67.7,173.13C5330.15,2801.7,5455.72,2586.38,5494.37,2702.22Z"/><path class="cls-18" d="M5374.35,2354.42c88.18,84.48,103,207,158.21,315.9-70.43,64.1-118.86,86.78-217,97.09-41.29-44.51-95.91-209.34-110.32-257.79s-12.85-104.93,18.29-144.72S5325,2307.18,5374.35,2354.42Z"/><path class="cls-21" d="M5302.09,2340.79a440.16,440.16,0,0,1,155.58,152.32C5438.24,2414.14,5367.7,2350.36,5302.09,2340.79Z"/></g><g id="hea"><path class="cls-22" d="M5609.36,1856.37a202.37,202.37,0,0,1-9.28,98.32c15.12-13.28,27.26-34.06,28.32-54.16s1.75-40.74-6.76-57.92C5618.42,1847.69,5611.2,1851.77,5609.36,1856.37Z"/><path class="cls-19" d="M5228.24,1881c0-99,88.43-179.23,197.5-179.23s192.5,75.24,192.5,174.23-83.42,184.23-192.5,184.23S5228.24,1979.94,5228.24,1881Z"/><path class="cls-19" d="M5244.41,1980.55c15.35,41.84,43.32,79.53,51.06,123.29,8.26,46.73-9.24,97-45.06,129.37,48.21,36.89,94.92,60.69,157.84,63.19,10.23-37.72,45.19-120.88,48-123.39,4.72-4.25,12.17-3.17,18.47-1.82,29.14,6.25,52.42,20.55,86.26,18.31,20.95-29.71-.41-41.81,15.57-58.6,6-6.26,15.4-9.51,19.23-17.17,3.72-7.44-.07-17.52-7.88-20.9,8.46-3.58,18.54-10.14,16.25-18.78-1.2-4.52-5.52-7.47-8.68-11-10.79-12.07-.85-25.45,14.33-31.69,7.86-3.24,18.61-6.4,17-14.52-.63-3.24-7-13.52-9.5-15.8-16.39-15.34-18-40.28-14.31-62s15.53-58.49,15.53-58.49-23.76-63.56-42.09-87.87c-8.54-11.33-17.47-22.6-28.83-31.32-17-13.06-38.31-19.54-59.21-25.26-31.49-8.63-63.59-16.18-96.3-17.3s-46.28-.93-93.63,30.82C5220.25,1802,5215.76,1902.42,5244.41,1980.55Z"/><path class="cls-20" d="M5549.3,1950.35a323.52,323.52,0,0,1-43.79,2.2c6.91,6.42,17.41,7.19,27,7.55s20.06,1,27.1,7.33"/><path class="cls-20" d="M5604.16,2075.76c-4.31-1.22-9-.51-13.19,1s-8.1,3.72-12.11,5.67a94.64,94.64,0,0,1-30.15,8.78,161.14,161.14,0,0,0,30.42,5,21,21,0,0,0,7.84-.52c3.39-1.08,6-3.68,8.44-6.18C5599.29,2085.56,5603.27,2081.44,5604.16,2075.76Z"/><path class="cls-20" d="M5301.7,2063c8.11,16.42,16.53,33.26,30.37,45.59,11.6,10.34,26.24,16.8,40.61,23.1L5442,2162c3.85,1.68,23.91,7.88,23.42,8.24-20.09,14.77-45.95,95.43-55.13,126.18-8.17.28-9.29-23.21-30.89-59.51L5334.8,2162c-21-35.37-42.68-72.74-43.39-113.55C5297.93,2052.63,5302.26,2059.84,5301.7,2063Z"/><path class="cls-20" d="M5594.32,2115.3a77.59,77.59,0,0,1-28.34,11.44c-1.3.24-2.73.52-3.54,1.53-1.09,1.36-.55,3.31.05,4.93l4.07,11.15c.45,1.25,1.59,2.8,2.81,2.19a23.77,23.77,0,0,1,8.61-18.33C5583.7,2123.5,5591.87,2121.05,5594.32,2115.3Z"/><path class="cls-20" d="M5623.71,2013.16a49.25,49.25,0,0,1-15.09,8.61c-3.92,1.4-8,2.3-11.84,4s-7.43,4.19-9.18,7.86-1.43,7.65-1.14,11.55c.25,3.25.78,7,3.63,8.71a24.44,24.44,0,0,1,7.82-14.44,42.24,42.24,0,0,1,14.59-8.55c4.35-1.59,9.13-2.87,12.11-6.31C5627,2021.8,5627.82,2017.88,5623.71,2013.16Z"/><path class="cls-20" d="M5519.66,1956.19a105,105,0,0,1,22.8-3.4,36.73,36.73,0,0,1,9.54.6c4.14.93,7.9,3,11.72,4.83a103.57,103.57,0,0,0,21,7.37,35.28,35.28,0,0,1-15.67.42,43.55,43.55,0,0,0,16.72,12c-6.5,2.79-14.19,1.1-20.52-2s-11.83-7.65-18.1-10.91c-9.83-5.11-21.08-6.94-30.3-10C5519.77,1953.92,5523.2,1954.13,5519.66,1956.19Z"/><path class="cls-22" d="M5373.6,1939.83c-.24-84.45,4.93-174.06,59.44-238.56,20.7-24.5,57.21-28.17,112.75,8.29,60.62,39.81,77.45,108,77.45,140.09C5623.24,1939.77,5373.6,1939.83,5373.6,1939.83Z"/><path class="cls-22" d="M5378.4,1926c5.47,13.12,17.68,22.55,17.85,35.61.25,19.58,11.59,17.52,21.87,31.74,15.92-21.16,25.73-42.75,59.34-63.45C5450.9,1922.8,5400,1924.74,5378.4,1926Z"/><path class="cls-22" d="M5381.52,1930.32a359.48,359.48,0,0,0-130.06,102.92c-29.7-57.83-26.84-133-16.15-196.6,4.3-25.55,36.74-118.07,95.69-145.66,39.07-18.29,126.15-34.73,214.49,26.29C5549.31,1711.93,5381.52,1930.32,5381.52,1930.32Z"/><path class="cls-22" d="M5188.94,1844c-50.26,84.24-48.72,196.73,3.83,279.57-20.22-43.62-25.56-93-22.7-141S5183.66,1887.54,5188.94,1844Z"/><path class="cls-20" d="M5353.76,1976.82c-8.92-15.1,16.86-51.31,1.28-53.66s-31.26,8.79-36.78,23.54-2.07,31.82,6.31,45.16,21.17,23.36,34.73,31.37,28.09,14.25,42.59,21.57c0-.13,0-.26.83-.29C5378.46,2008.72,5372.89,1999.29,5353.76,1976.82Z"/><path class="cls-22" d="M5391.28,2016.44c-.48-3.4-4.21-8.82-1.45-10.19-25.47,70.82-16.69,153.1,23.15,216.95-39.11-33.6-61.71-86.22-57.16-137.58l12.72-83.47.9-1.05,21.55,6Z"/><path class="cls-22" d="M5401.64,1675.46c-104.12-1.53-182.48,78.74-218.45,162.17s8.37,293.61,8.37,293.61c83.85,39.62,137.68,62.41,221.54,102-91.19-71.05-40.89-141-44.8-253.29a176.32,176.32,0,0,1,15.11-11.6l-2.64,0Z"/><path class="cls-19" d="M5405.56,1945.35c-10.67-14.29-24.27-26.84-40.6-29.19s-32.78,8.79-38.57,23.54-2.17,31.82,6.61,45.16,23.31,27.45,37.1,36.12c20.76,13,43.27,29.89,44.14,29.86C5418.06,2019.52,5423.52,1969.37,5405.56,1945.35Z"/></g></g><g id="WETLAB"><g id="hair_back_" data-name="hair (back)"><path class="cls-23" d="M4278.1,1356c-20,20.16-40,40.9-54.31,65.81-16.54,28.8-24.79,62.11-28.21,95.49s-2.2,67.07-1,100.62c45.58-79.85,92.11-162.41,104.77-254.41.43-3.12.78-6.48-.63-9.26-2.11-4.18-7.58-5.41-11.9-4A23.82,23.82,0,0,0,4278.1,1356Z"/><ellipse class="cls-23" cx="4418.13" cy="1521.65" rx="211.5" ry="204.19"/><path class="cls-23" d="M4499.43,1723.43a190.57,190.57,0,0,0,189.43,194.12l-22.22-20.16c25.86,10.85,57.84,5.15,78.37-14-26.86,2.56-53.09-21.78-52.55-48.76a155,155,0,0,0-149.55-158C4512.43,1675.65,4486,1708.87,4499.43,1723.43Z"/><path class="cls-23" d="M4248.12,1766.9l24.6,47.63c-30.67-57.65-5.88-131.64-31.49-191.71-3.36-7.88-17.61-6.25-19.1,2.2a161.47,161.47,0,0,0,10.05,89.87Z"/><path class="cls-23" d="M4702.36,1870.38a32.38,32.38,0,0,0,45.09-1.78c-9.67,4.56-21.26,4-31.17,0s-18.31-11.11-25.39-19.12C4690.93,1859.41,4698.36,1866.78,4702.36,1870.38Z"/><path class="cls-23" d="M4568.61,1804.89a125,125,0,0,0,116.61,118.32c-32-7.61-58.54-34.67-65.53-66.82Z"/></g><g id="face"><ellipse class="cls-24" cx="4404.2" cy="1528.35" rx="190.72" ry="205.5"/><path class="cls-24" d="M4308.54,1381.85c-18.86,15.91-44.42,23.56-59.66,43.06a86.19,86.19,0,0,0-10.56,18.48c-13.48,30.65-17.06,64.76-18.84,98.29-1.39,26.12-1.76,52.63,4.16,78.1,6.1,26.25,18.67,50.49,32.63,73.44a604.24,604.24,0,0,0,49.27,69.46c13.16,16,27.36,31.53,44.75,42.62s38.46,17.45,58.67,13.77c17.79-3.23,33.35-13.77,48.11-24.35,55.16-39.52,110.17-87,130.44-152.39,5.45-17.57,8.17-35.88,10.16-54.19,2.83-26.2,4.16-53-1.4-78.72-13.6-63.05-67-110.71-125.44-136-34.31-14.82-72-23.54-109-18.48S4288.94,1380.28,4308.54,1381.85Z"/><path class="cls-24" d="M4368.86,1771.53a934.47,934.47,0,0,1,15,211.27c-10,138.71,34.26,109,68.3,106s102.21-115.27,129.87-135.64c-28.54-36.75-46.18-81.36-55.72-127.14s-11.25-92.91-10.37-139.7"/><path class="cls-25" d="M4571.68,1613.73c-24.76,40.39-24.88,95-57.63,129-9.13,9.49-20.27,16.7-31.29,23.81l-60.95,39.35c-7.87,5.08-16,10.28-25.26,11.68s-19.85-2-24.06-10.48c-2.63-5.3-2.37-11.53-3.23-17.4s-3.62-12.3-9.22-14c-2.38-.73-5.08-.53-7.15-1.94-8.82-6,9.34-22.93.82-29.37-3.81-2.87-9.62.06-13.83-2.17-5.9-3.13-3.38-12.4.92-17.56s10.06-11,8.09-17.5c-1.5-4.93-7-7.38-12-8s-10.31-.19-15.05-2c-12.85-5-14.16-22.71-13.29-36.68l2.06-33.45c1-15.21,1.55-31.73-7-44.26-7.36-10.8-20.19-16.39-32.81-19.27s-25.71-3.62-38.09-7.43c-3.18-1-6.56-2.38-8.18-5.32-1.21-2.2-1.21-4.85-1.17-7.37.4-25.64,1.17-51.62,8.38-76.2s21.7-48,48.71-63.44a193.35,193.35,0,0,1,108.47-35.7c53-.81,107.55,23,137.39,67.46,9.7,14.46,16.64,30.63,23.09,46.86,8.73,21.94,16.69,44.25,22.51,67.16,2.78,10.93,5.08,22,5.58,33.31a106.48,106.48,0,0,1-17.95,63.84"/><path class="cls-25" d="M4574.09,1582.53c6.18-8.39,10.47-18.2,17.49-25.89s18.2-13,27.68-8.85c5.05,2.2,8.8,6.74,11.36,11.68,7.89,15.23,5.45,34.37-2.6,49.52s-21,26.94-34.4,37.5-27.54,20.3-39.22,32.77"/><path class="cls-25" d="M4398.35,1977l-2.93-133.75c-.07-3.1-.13-6.28.92-9.18,2.14-5.92,8.2-9.22,13.77-12l45.84-22.86c4.58-2.28,9.69-4.62,14.59-3.22,6.44,1.85,9.53,9.17,11.18,15.75,6.06,24.19,4.22,50-2.54,74s-18.24,46.37-31.39,67.46c-8.18,13.13-18.73,26.95-33.87,29.15C4407.06,1983.28,4398.41,1979.74,4398.35,1977Z"/><path class="cls-24" d="M4340.87,1742.14c2.78-7.56,10.93-11.9,18.83-12.76s15.81,1,23.66,2.33a153.49,153.49,0,0,0,43.23.88c-19,13.85-36.77,31.5-59.7,36.24-7.32,1.52-15.41,1.48-21.72-2.59a26.13,26.13,0,0,1-7.65-8.11,39.85,39.85,0,0,1-6.13-19.76,4,4,0,0,1,.41-2.31,3.55,3.55,0,0,1,2-1.3C4338.61,1733.21,4344.22,1734.56,4340.87,1742.14Z"/><path class="cls-24" d="M4355.24,1585.28c6.09-6.08,12.56-12.39,20.81-14.64a58.09,58.09,0,0,1,10.61-1.41,163.52,163.52,0,0,0,43.36-9.58,23.46,23.46,0,0,1-18.43,12.1,6.15,6.15,0,0,0,6.59,5.13c-2,3.39-6,5-9.9,5.39s-7.76-.31-11.65-.42c-9.21-.24-18.18,2.74-26.92,5.69l-25.06,8.44C4349.92,1587.66,4357.47,1580.85,4355.24,1585.28Z"/></g><g id="hair_front_" data-name="hair (front)"><path class="cls-26" d="M4241.45,1630.74c-11.76,24.12,14.38,165.75,20.78,195.54-85-156.07-76.25-258.42-64.13-322.51s51.7-123.39,108.4-154.1c6.16-3.34,12.75-6.41,19.74-6.52s14.46,3.46,17,10.06c2.92,7.51-2.13,56.18-3.15,64.16C4318.59,1585.66,4241.45,1630.74,4241.45,1630.74Z"/><path id="_Path_" data-name="&lt;Path&gt;" class="cls-26" d="M4330.79,1347.51c.63,19.81-6.36,39.51-3.91,59.17,2.38,19.08,13.36,35.86,25.22,50.84,35.12,44.42,80.54,80.17,111.72,127.52a266.19,266.19,0,0,1,41.92,115.8,219.7,219.7,0,0,0,15.2-44.78,155.09,155.09,0,0,1,7.4,59.32c20.49-42,40.63-84.77,50.5-130.56s24-63.5,12.88-121.35c-6.16-32-39.28-92.53-68.15-109.93-31.48-19-58-31.56-97-35.31-26.56-2.56-73.82,1.26-98.26,12.07-14.85,6.57-26.59,18.71-36.86,31.43a293.32,293.32,0,0,0-50,91.83"/><path class="cls-26" d="M4524.12,1501.46c24.3,99.1,26.92,224.5,9.63,324.82,40.15-68.61,61.42-168,66.18-245.6,3.37-55.08,10.9-170.31-88.75-198.15Z"/><path class="cls-26" d="M4332,1369.11c-6.52,32.6,3.64,66.83,21,95s41.57,51.29,65.71,73.78,48.75,45,67.39,72.32a215.13,215.13,0,0,1,33.37,80.68c4.11-47.57-1.34-95.66-12.45-142.06-12.26-51.24-32.93-103-72.71-136.85-13.53-11.53-28.88-20.65-44.48-29.07-15.82-8.55-32.51-16.59-50.39-17.77C4335.08,1364.87,4329,1366.92,4332,1369.11Z"/></g><g id="clothing"><path class="cls-26" d="M4383.52,1927.15c24.66,22.67,54.65,27.48,78.89,24.25,18.19-2.42,67.38-30.39,90.05-55.05,17.14,21,193.08,167.39,210.22,188.42-41.75,47.72-67.42,257.52-118.09,295.63s-274.1-59.13-413.65-40.15C4126.73,2159,4310.28,1990.59,4383.52,1927.15Z"/><path class="cls-18" d="M4356.83,1944.68c-72.21-11.45-180.2,19.5-243.35,55.34-6.49,3.67-24.93,138.76-47.65,237.45-17.93,77.88-37.55,192.85-59.86,307.51-47.69,245.06-25.23,348-28.2,523.58,157.26-27.12,355.15,21.92,509.44-10.77,113.74-24.1,285.48-15,399.22-39.14,16.46-184.22-4.25-212.07,5.2-482.34,8.12-232.09-50.22-519-52.54-523.27-13.32-24.76-82.39-49.32-158.87-63.64-171.95,139.24-182.57,234.58-311.05,401.12C4351.81,2250.51,4353.55,2081.24,4356.83,1944.68Z"/><path class="cls-27" d="M4384.36,1917.55c-16.91,181.65-15.19,260.78-15.19,429.88-59.23-150.08-65.77-244.52-127.72-396.7C4298.81,1933,4383.87,1916.85,4384.36,1917.55Z"/><path class="cls-27" d="M4550.52,1895.5c-84,155.4-139,299.11-181.35,455.18,113.21-115,219.85-282.63,336.38-398.45C4642,1924.85,4551.25,1895.05,4550.52,1895.5Z"/><path class="cls-21" d="M4819.24,2044.74c-94.31,91.54-158.33,213.79-179.84,343.46A822.39,822.39,0,0,1,4793,2134.57C4816.78,2107.74,4824,2067.29,4819.24,2044.74Z"/><path class="cls-21" d="M4149,2061l38.25,224.53C4152.9,2224.69,4137,2140.74,4149,2061Z"/><path class="cls-21" d="M4371.79,2363.13,4364.91,2891C4361.65,2722.47,4358.39,2553.94,4371.79,2363.13Z"/><path class="cls-21" d="M4645.15,2388.16c22.81-69,74.51-128,140-159.66C4750.35,2292.72,4698.84,2347.79,4645.15,2388.16Z"/></g></g><g id="BUSINESS_ETHICS" data-name="BUSINESS &amp; ETHICS"><g id="face-2" data-name="face"><path class="cls-28" d="M3317.38,2086.13a908,908,0,0,1,54,216.24A292.3,292.3,0,0,0,3549.64,2240c-33-81.78-73.14-148.75-80.43-240"/><path class="cls-28" d="M3142.47,1894.34c-.69,37.69-.13,76.6,14.86,111.19,11.42,26.35,30.56,48.59,44,74,12.95,24.42,25.53,55.67,53,59.1,9.25,1.16,18.53-1.38,27.47-4.06,62.42-18.73,123.55-46.53,170.72-91.49s78.94-109,74.18-174c-1.12-15.38-4.34-30.87-11.88-44.33-7.83-14-19.91-25.07-32.2-35.36-57.94-48.48-128.58-85.89-204.09-88.81-25.39-1-55-2.15-73.7,15C3133.63,1780.81,3143.44,1841,3142.47,1894.34Z"/><circle class="cls-28" cx="3334.72" cy="1843.32" r="193.32"/><path class="cls-29" d="M3214.7,1709.63c-34.66,25.12-56.7,66.83-57.91,109.6-.2,7.12.21,14.5,3.39,20.88,2.83,5.65,7.6,10,11.48,15,16.17,20.75,15.63,50.66,6.06,75.15-4.14,10.61-9.82,20.7-12.33,31.81s-1.23,24,6.91,32c4.93,4.84,11.7,7.26,17.35,11.24s10.44,10.9,8.28,17.46c-1.87,5.68-8.58,10.52-6.37,16.07,1.74,4.36,8,5.25,10.23,9.34,3,5.39-2.55,12.25-.58,18.09,1.26,3.74,5.15,5.78,7.95,8.56,9.44,9.37,5.49,25.13,8.1,38.17,3.9,19.43,26,33.05,45.13,27.79,6-1.64,11.41-4.77,16.73-7.93a873.73,873.73,0,0,0,132.37-96.35c25.94-22.89,51.87-49.84,57.14-84,1.33-8.62.74-18.67-5.94-24.28-14.93-12.54-18.76-15.7-36.85-23-13.85-5.57-9.65-8.87-3.63-22.53s-8-15.45-4-29.82c4-14.1.6-29.45-6.08-42.49s-16.48-24.17-26.17-35.16c-10.31-11.69-20.77-23.51-33.69-32.24-20.87-14.11-46.42-19-71.19-23.68-17.11-3.2-34.62-9.72-48.57-12.85C3228.12,1705.44,3223.6,1704.82,3214.7,1709.63Z"/><path class="cls-30" d="M3423,1653.8c75.65,40,125.36,124.73,123.35,210.29s-57.87,145.71-74.83,158.55c-.18,0-3.68-10.18-2.31-13.1,45.6-97.11,19.31-115.38,19.31-115.38,3.52-36.87-34.12,63.35-44.93,39.95s-24.91-48.58-17.84-73.37C3444.7,1794.27,3442.38,1721.91,3423,1653.8Z"/><path class="cls-29" d="M3331.39,2124.8c16-5.37,25.7-10.22,35.85-14.9s19.15-11.58,29.31-16.25c1.83-1.1,4-2,6-1.21a7.46,7.46,0,0,1,2.9,3.59c14.23,31.42,22.95,65.91,19.73,100.14s-19.52,68.14-47.74,87.81c-2.31,1.72-5.92,2.4-7.49.11-7.74-15.2,0-4.88-22.35-104.78"/><path class="cls-28" d="M3194.11,2042.86c6.49-1.94,12.43-6.43,19.21-6.21,3.15.1,6.17,1.23,9.15,2.26a155,155,0,0,0,43.58,8.28c-4.43.1-8.33,2.72-12.22,4.84-16.9,9.24-37,10-56.24,10.59l-3.2-13.9a16.5,16.5,0,0,0-1.32-4.08c-1.14-2.16-3.28-4-3.37-6.39C3190.79,2038.28,3191.88,2038.31,3194.11,2042.86Z"/><path class="cls-28" d="M3219,1901.85a4.07,4.07,0,0,0-1.81,2.43c-.25,2.1,2.58,3,4.7,3,6.06-.13,30.34-11.1,56.64-12.17,17-.7,29,0,41.49-11.49l-68.06-1a33.73,33.73,0,0,0-8.64.62C3234.39,1885.52,3225.21,1897,3219,1901.85Z"/><path class="cls-30" d="M3138.39,1790.26c66-59.18,156.94-48.11,215.35-11.33s62,79.21,50.89,149.2c3.22,2,15.23,3.1,15.23,3.1s98.95-132.65,71-197.54c-33.27-77.11-121.08-124.2-200.89-107.73S3123.83,1722.32,3138.39,1790.26Z"/><path class="cls-29" d="M3412.61,1940.26c6.37-11.27,22.91-38.75,32.48-47.47s22.85-14.4,35.52-11.7,22.77,37.5,19.92,50.14c-9.69,43-40.27,58.85-80.68,76.51C3423.3,1980.49,3416.76,1969.24,3412.61,1940.26Z"/></g><g id="Layer_55" data-name="Layer 55"><path class="cls-30" d="M3153.28,1779c-8.94,18.76-36.35,21.61-54.3,11.12s-28.58-29.73-38.37-48.07c14.08,6.2,32.17,1.3,41.2-11.15-12.4-7.61-30.73-20.08-34.54-34.13,40.58,5.41,109.43-69.75,174.89-90.11,48.67-15.14,183.37-26.14,203.83,61l-263.79,64.43Z"/><path class="cls-30" d="M3109.36,1712c-6.35,6.26-16.4,7.77-25,5.25s-15.7-8.56-21.26-15.53a40.59,40.59,0,0,0,15.55,23.09,39.2,39.2,0,0,0,27.21,7.12c4.18-.43,8.47-1.52,11.63-4.28s4.86-7.54,3.06-11.34S3113,1711,3109.36,1712Z"/></g><path class="cls-31" d="M3066.75,2188.87a1085.41,1085.41,0,0,0-395.46,138.71c-50.91,30-78,90.33-82.1,149.27s11.43,117.35,28.55,173.89,11.19,119.75,39.26,172.36c155.89-111.23,331.81-194.32,512.32-246.85q-24-199.17-47.71-398.4C3101,2182.32,3080.45,2186.91,3066.75,2188.87Z"/><path class="cls-32" d="M3156.75,2232.23c-171.11,5.85-372.24,64.73-493.8,184.26-10.76,93.18,17.4,223.92,51.1,311.46,143.33-94.87,309.21-168.68,475.65-211.57C3174.87,2428.31,3170.38,2320.24,3156.75,2232.23Z"/><path class="cls-31" d="M3204,2612.87c-200.45,36.37-388.8,136.65-530.87,282.65,56.54,6,91.22,10.94,168.9,24.13,129.13-154.7,279.5-229.18,482.35-260.07C3284.74,2645.15,3245.09,2630.71,3204,2612.87Z"/><g id="clothes"><path class="cls-33" d="M3189.7,3082.55c186.16-.72,398.74,17,546.71-12,13-334.49-3.16-458.15-58.85-669.42-10.81-41-18.55-83.51-38.16-121.12s-69.86-71.28-73.67-69.47c-19,9-65.79,28.74-84.78,37.76-21,9.95-41.63,14.12-68.34,19.27-22.81,4.39-45.77,4.55-65.59,16.65S3198.58,3037.79,3189.7,3082.55Z"/><path class="cls-21" d="M3600.92,2248.32c-24.11,19.77-55,31.23-73.84,56.49-10.18,13.62-16,30.18-21.6,46.44l-34,98,46.92-98.09c9.89-20.67,20.16-41.87,36.64-57.28C3573.43,2276.77,3599.49,2266.58,3600.92,2248.32Z"/><path class="cls-21" d="M3627.29,2322.05A1407.6,1407.6,0,0,1,3719,2586.33c-61.85,88.3-176.27,68.36-235.48,31.87-5.21-94.42,22.09-190.32,76.23-267.85A68.33,68.33,0,0,1,3627.29,2322.05Z"/><path class="cls-29" d="M3646.63,2452.41c-43.47-14.44-95.52,23.36-95.24,69.16,1.43,228.27,5.74,289.88,7.16,518.15.25,39.3,59.41,61.59,85.52,32.22C3684.45,2811,3688.14,2711.48,3646.63,2452.41Z"/><path class="cls-28" d="M3555.17,2567.32c0,23.31-3.46,98.57-1.81,120.12.24,3.22,29.9,14.92,55.86,14,27.46-.92,64.19-20.24,64-23-4.09-70.46-14.52-163.55-32.33-143.47C3622.81,2555.47,3562.69,2570.45,3555.17,2567.32Z"/><path class="cls-33" d="M3639.45,2285.05a1407.6,1407.6,0,0,1,91.69,264.28c-61.85,88.3-176.27,68.36-235.48,31.87-5.21-94.42,22.09-190.32,76.23-267.85A68.33,68.33,0,0,1,3639.45,2285.05Z"/></g></g><g id="window_frame" data-name="window frame"><g id="Layer_31" data-name="Layer 31"><polygon class="cls-34" points="6358.77 1865.53 4580.97 904.54 4707.41 904.54 6378.56 1785.02 6358.77 1865.53"/><polygon class="cls-34" points="6330.08 1718.57 5040.4 1035.76 5909.92 1035.76 6330.08 1261.17 6330.08 1718.57"/><polygon class="cls-34" points="2613.1 1044.2 2613.1 2996.15 6266.42 2996.15 6266.42 2161.77 4145.46 1044.2 2613.1 1044.2"/></g><path class="cls-35" d="M6229.49,1033.8V2966.23H2632.66V1033.8H6229.49m40-40H2592.66V3006.23H6269.49V993.8Z"/><path class="cls-13" d="M6271.92,994.18V3005.86H2595.06V994.18H6271.92m100-100H2495.07V3105.86H6371.92V894.18Z"/></g><g id="foreground"><ellipse class="cls-13" cx="4455.71" cy="4843.39" rx="1474.84" ry="145"/><g id="Layer_1" data-name="Layer 1"><g id="Layer_10" data-name="Layer 10"><path class="cls-36" d="M3651.42,3884.51a1158.61,1158.61,0,0,0-202,210.7l1213.35,18.22c232.16,3.49,465.79,6.87,694.88-32.58l-186.48-179.41c-17.77-17.1-36.11-34.57-58.64-43.7-20.66-8.38-43.34-9.12-65.5-9.34-141.42-1.39-282.42,14.18-423.5,24.6C4312.15,3896,3999,3893.9,3651.42,3884.51Z"/><path class="cls-37" d="M3452.11,4061l-2.65,122,1896.18-3.69.81-122.92c-588.72,9.12-1177.7,8.38-1766.09-14.61C3531.42,4039.93,3476,4040.53,3452.11,4061Z"/><path class="cls-38" d="M3527.25,4135.79C3578,4400.52,3653,4596.61,3660.8,4884c37.68,16.69,67.72,5.62,105.87,2.68-1.58-292.27-74.1-515.88-126.54-743.06C3601.81,4136.82,3569.68,4130,3527.25,4135.79Z"/><path class="cls-38" d="M5266.77,4134.66c-50.74,264.73-125.69,460.82-133.55,748.21-37.67,16.68-67.72,5.62-105.86,2.68,1.58-292.27,74.1-515.88,126.54-743.07C5192.22,4135.68,5224.34,4128.88,5266.77,4134.66Z"/></g><g id="Layer_2" data-name="Layer 2"><path class="cls-39" d="M4939.87,3039.2c-33.21-74.67-89-137.15-156.48-175.35-11-6.22-22.51-11.88-34.8-13.55-24.56-3.35-48.52,9.61-68.84,25-38.59,29.3-72.34,74.44-70.7,125.71.36,11.25,2.52,22.67,8,32.2s13.86,16.55,23,21.67a80.93,80.93,0,0,0,71.53,3.67c11.52-5,25.53-12.46,35.05-3.78,3.39,3.09,5.28,7.68,8.07,11.42,8.76,11.73,25.08,13.27,38.33,8.82s24.67-13.62,37-20.49C4870,3032.34,4921,3036.13,4939.87,3039.2Z"/><path class="cls-40" d="M4854.71,3040.69c-43.61-7.81-87.79-15.4-131.8-11s-88.49,21.94-118.37,57.48c-16,19-27.44,47.48-16.58,70.44,9.3,19.66,31.66,27.7,51.93,27.6s40.16-6.4,60.43-7c2.32-.07,4.75,0,6.84,1.07,5.64,3,5.8,11.45,6.55,18.26,3.27,29.64,37.77,49.22,61.88,35.12,14.17-8.28,22.72-24.4,30.54-39.72l38.25-74.89c8.68-17,17.63-34.37,31.06-47.17S4908,3050.24,4854.71,3040.69Z"/><path class="cls-39" d="M4909.12,3035.54c-33,22.74-66.48,45.83-93.21,76.93s-46.45,71.59-46.05,114.23c.16,17.36,4.54,36.21,17.35,46.51,15.33,12.33,38.07,7.73,52.82-5.42s23.13-32.84,30-52.25c3.17-9,6.23-18.31,12-25.61s15-12.26,23.47-9.6c1.62,12.49,18.3,16.25,27.69,8.91s12.9-20.61,15.31-32.95C4953.56,3130.16,4954.32,3097.6,4909.12,3035.54Z"/><path class="cls-39" d="M4956.37,3004.85c-12.22-55.34-24.52-111.67-21.46-168.51s23.78-115.28,66-148.69c10.27-8.13,22.84-14.86,35.26-12,19.8,4.53,28.57,29.9,31,51.81,6.08,53.8-5,107.95-16,160.81,20.31-24.29,52.93-35.42,82.3-28.09,21.57,5.38,42.71,23.58,43.54,47.72.71,20.55-13.48,38.6-29.86,48.78s-35.16,14.61-52.65,22.26C5064,2992.3,5037.22,3015.88,4956.37,3004.85Z"/><path class="cls-41" d="M4993.58,3045.45c33.55-21.7,67.38-43.54,104.2-57.55s77.29-19.83,114.95-8.76c5.82,1.71,11.81,4,15.86,8.86,7.65,9.21,5.24,24.64-2.31,33.94s-18.75,13.86-29.59,17.64a425.22,425.22,0,0,1-117.64,23.14c13,8.77,28.78,11,42.84,17.6s27.6,20.49,26,37.09c-2.15,22.35-28.54,30.82-49,28-38-5.23-74-33.1-86-72.74-8.54-28.19-7.82-64.74-31.56-79.24C4967.46,2984.92,4950.22,2988.07,4993.58,3045.45Z"/><path class="cls-39" d="M4927.52,3024.38c42.54-26.66,81.37-60.63,126.26-82.23a260.75,260.75,0,0,1,162.52-21.21c8.46,1.65,17.13,3.86,24.05,9.43,17,13.71,16.51,43.77,3.58,62.07s-34.27,26.91-55,31.48-42.24,6.06-62,14.23c-3.17,1.3-6.42,2.9-8.45,5.86-5.39,7.87,1.47,19.32,9.67,23.37s17.85,4.46,25.32,9.93c15.16,11.1,12.8,38.42-.6,52s-33.17,16.2-51.41,15.54a207.69,207.69,0,0,1-56.95-10.44"/><path class="cls-40" d="M4982,3033.26A765.61,765.61,0,0,0,4946.06,2861c-14.27-42.85-33-85.27-63.58-116.37s-74.88-49.11-115-36.58c-28.18,8.79-51.66,31.8-65.88,59.77s-19.72,60.53-19.25,92.51c.12,8.61.73,17.49,4.29,25.18,6.41,13.8,21.1,20.81,35.2,22.48s28.3-.92,42.48-.87c33.93.13,67.58,16.14,90.76,43.18,11.39,13.3,20.73,29.43,35.3,38.28,19.22,11.67,42.79,8,64.69,5.7,7.32-.79,14.93-1.35,21.85,1.38C4991.34,3001.33,4998.17,3018.92,4982,3033.26Z"/><path class="cls-42" d="M4921.59,3049.17c-19.19-43.83-40.72-90.44-79.82-113.67-16.65-9.89-35.45-14.77-54.27-17.25-34.31-4.53-71.58-.5-98.89,22.62s-39.77,69.37-19.78,100.15c8.06,12.41,20.17,21,32.74,27.57a158.41,158.41,0,0,0,50.57,16.43c-8.16,14.33-.3,34.69,13.21,42.87s30.34,6.63,45,1.48,28.33-13.57,43-18.9S4884.77,3103.17,4921.59,3049.17Z"/><path class="cls-42" d="M4879.41,3112.34c-40.1-26.64-89.27-36.57-135.45-27.36-17.56,3.5-35.22,10-48.37,23.2s-20.81,34.15-15.43,52.72c3.57,12.32,12.23,22.1,21.61,30,30.07,25.23,70.69,34.82,107.63,25.39S4878.85,3178.6,4879.41,3112.34Z"/><path class="cls-43" d="M4944.4,3025.82c-25.91-29.48-52.63-60.39-64.06-99.29s-2.56-88.18,30-108.41c12.33-7.68,26.73-10.49,40.9-11.41s29.45.22,41.28,9c20.08,14.84,23.4,45.13,24.59,71.57,1.16,25.95,1.94,52.91-7.36,76.81-8,20.46-22.6,36.79-33.89,55.29S4968.44,3053.16,4944.4,3025.82Z"/><path class="cls-43" d="M4920.62,2954.31c-7.45-16.9-20.11-31-35.43-39.45a81.43,81.43,0,0,0-14.65,32.86c-1.81,9.05-2,19.12,2.62,26.9,2.87,4.86,7.31,8.33,11.73,11.51C4904.89,3000.5,4943.46,3006.15,4920.62,2954.31Z"/><path class="cls-43" d="M5007.23,2892.54l-8.37-7.17c2.18-19.5,18.46-36,36.44-36.83a18.94,18.94,0,0,1,10.41,2c5.62,3.2,8.54,10.1,10.39,16.72,8.07,28.9,2.58,61.89-14.27,85.85-12.12,17.23-29.15,29.35-44.59,43s-30.17,30.42-34.58,51.6"/><path class="cls-43" d="M5007.09,3033c20.77-28.42,32.6-66.06,60.74-85.5,15.69-10.84,34.57-14.5,53-16.92,17.39-2.28,36.93-3,50.26,9.43,17.27,16.09,14.92,47.77.92,67.29s-36.05,29.67-57.33,38.33C5097.14,3052.81,5078.88,3059.57,5007.09,3033Z"/><path class="cls-43" d="M5009,2995.09l23-47.64c3.81-7.9,7.75-16,13.84-21.94s14.89-9.45,22.62-6.51c8.8,3.35,13.64,13.8,15.39,23.79,3.5,19.94-1.85,40.8-11.25,58.32S5050,3033.3,5009,2995.09Z"/><path class="cls-43" d="M4968.13,3042.42a314.13,314.13,0,0,0-47.44-36.77c-6.75-4.26-14.78-8.35-22.06-5.32-4,1.68-7.12,5.34-9.24,9.42-9.69,18.75,1.47,44.06,18.94,54S4946.93,3071.94,4968.13,3042.42Z"/><path class="cls-43" d="M5060.08,3019.31c19.49-25,39.63-50.23,65.24-67.48s57.9-25.65,86.21-14.52a52.51,52.51,0,0,1,15,8.72c10.39,8.87,16.39,22.8,18.77,37,5.4,32.24-6.86,66.1-27.62,89.78s-49.09,38.1-78.18,46.22c-17.74,5-36.56,7.73-54.3,2.78S5051,3102.83,5060.08,3019.31Z"/><path class="cls-43" d="M5091.1,3097.85c14.49,3.41,29.53,2.59,44.24,4.65s30,7.78,38.85,20.78c-7.23,15.21-21.33,26.29-36.84,28.95S5105.31,3149.05,5091.1,3097.85Z"/><path class="cls-43" d="M5051.2,2928.27l44-8.47c5.63-1.08,11.5-2.15,17-.39,7.64,2.45,13.17,10.21,15.2,18.62s1,17.36-1,25.76C5122.79,2978.41,5116.06,2992.29,5051.2,2928.27Z"/><path class="cls-43" d="M5016.86,3057.84c-6.13-36.13-12.46-72.89-28.12-105.41-1.32-2.76-2.79-5.57-5.09-7.4-2.07-1.65-4.63-2.35-7.13-3-16.22-4.19-32.92-7.43-49.51-5.6s-33.22,9.27-43.82,23.32c-16.34,21.62-14.55,55.24,0,78.35s39.32,36.6,64.54,41.87S4998.9,3083.2,5016.86,3057.84Z"/><path class="cls-43" d="M5009.6,2992.09a763.81,763.81,0,0,1,49-92.73c5.92-9.52,12.28-19.15,21.23-25.2,7.85-5.31,17.18-7.48,26.4-8.12,10.51-.74,21.23.42,31.11,4.44,28.78,11.69,45.83,47,44.54,80.53s-18.08,64.48-40,87.94-48.85,40.49-75.45,57.25"/><path class="cls-43" d="M5090.75,2817.63l-13.11,29.48c7,3.6,15.82.2,21.09-6.05s7.68-14.72,9.27-23C5105.67,2815.88,5101.51,2817.08,5090.75,2817.63Z"/><path class="cls-43" d="M5133,2837.51l10.82-12.25,3.05,2.18a11,11,0,0,1-4.66,11.19,9.14,9.14,0,0,1-11.17-1.56,7.16,7.16,0,0,1-1.38-2c-1.84-4,1.46-9,5.43-10.05S5143.2,2825.5,5133,2837.51Z"/><path class="cls-43" d="M4934.35,2784.45l-7.14-34.83c3.43-2.36,7-4.68,11-5.33s8.56.79,10.67,4.55c1.68,3,1.54,6.76,1.11,10.23C4948.79,2768.93,4945.7,2778.51,4934.35,2784.45Z"/><path class="cls-43" d="M4931.36,2755.5a14.7,14.7,0,0,0-19.43,1.77c-4.92,5.52-5,15.52.22,20.7s14.83,3.77,18.16-3C4933.44,2768.58,4930.82,2760.79,4931.36,2755.5Z"/><path class="cls-43" d="M5217.14,2858.74a156.58,156.58,0,0,1,25.9-25.14c3,14.3-6.18,30.32-19.29,33.57a10.68,10.68,0,0,1-6.38,0c-6.06-2.27-6.77-12.17-2.79-17.65S5225.19,2841.92,5217.14,2858.74Z"/><path class="cls-43" d="M5198.06,2897.17a35,35,0,0,1,22.16-6.32c-2.28,11.46-12.92,20.19-23.64,19.39-4.29-3.95-2.69-12.39,2.09-15.6S5209.83,2892.56,5198.06,2897.17Z"/><path class="cls-43" d="M5262.4,2867.33l-3.3,18.26C5263,2881.34,5261.71,2873,5262.4,2867.33Z"/><path class="cls-43" d="M4656.62,3067.32a114.43,114.43,0,0,0-49.78-4.73C4614.51,3078.87,4635.4,3085.69,4656.62,3067.32Z"/><path class="cls-43" d="M4657.89,3039.87a72.39,72.39,0,0,0-34.15-9.91c3.43,6.51,7.33,13.47,13.73,16.22S4653,3044.39,4657.89,3039.87Z"/><path class="cls-43" d="M4660.83,3179.76l-22.18,11.09-.75,7.15c5.52,2.63,12.18,3.29,17.43.07S4663.57,3187,4660.83,3179.76Z"/><path class="cls-43" d="M4692.75,3202.3a44.73,44.73,0,0,0-22.11,19.13,13.23,13.23,0,0,0,16.37,1.45C4692,3219.5,4694.55,3212.39,4692.75,3202.3Z"/><path class="cls-43" d="M4830.23,2891.17a130.92,130.92,0,0,0-31.69-45.41c-8.67,7.26-6.92,23.15.81,31.6S4818.48,2888.57,4830.23,2891.17Z"/><path class="cls-43" d="M4849.4,2881.86a52.92,52.92,0,0,1,6.15-26.05,30,30,0,0,1,1.05,22.23c-.62,1.77-1.57,3.62-3.2,4.27-3.46,1.36-6.32-3.79-5.73-7.75S4850.59,2867,4849.4,2881.86Z"/><path class="cls-43" d="M4860.67,3230.32a52.07,52.07,0,0,0-28.21,14.06c6.38,2.12,13,4.26,19.6,3.39s13.3-5.55,14.69-12.66C4864.4,3234.72,4862.36,3232.64,4860.67,3230.32Z"/><path class="cls-43" d="M4871.36,3256.1l-3.91,24a14.17,14.17,0,0,1-.84-15.08C4869.26,3260.45,4874.73,3258.13,4871.36,3256.1Z"/><path class="cls-43" d="M4715.21,2875.47a154.33,154.33,0,0,0-38.26-34.95c-5.9,9.13-2.21,22.68,5.61,29.88S4701.05,2879.8,4715.21,2875.47Z"/><path class="cls-43" d="M4723.67,2851a242.14,242.14,0,0,1-18.17-35.81c9.24.33,19.24,5,22.68,14.33S4724.21,2851.88,4723.67,2851Z"/><path class="cls-43" d="M4740.64,2865.33l15.81-8.56,3.83,3.19c-2.82,8.58-11.19,14.56-19.52,14C4740.23,2867.53,4743.52,2861,4740.64,2865.33Z"/></g><path class="cls-44" d="M4987.08,3052.46c-53.54-32.48-119.88-38.71-177.72-16.68,27.5,9.61,46,39.24,73.29,49.38,12.8,4.75,26.62,4.84,40.13,4.35,26.74-1,56.77-6,72.49-29.64,1.09-1.65,2.15-3.6,1.82-5.6-.45-2.75-3.16-4.19-5.54-5.21C4987.32,3047.24,4983.09,3045.42,4987.08,3052.46Z"/><path class="cls-44" d="M4996.38,3039.89c-.28-27.45-12.54-54.47-32.38-71.35-10.3-8.76-22.3-14.78-34.18-20.71l-46.71-23.34c19.59,23.21,25.77,56.21,41.09,83,4.05,7.08,8.82,13.8,14.91,18.85C4955.32,3039.75,4977.54,3039.18,4996.38,3039.89Z"/><path class="cls-44" d="M5030.66,3081.65c-9.13-25.75-28.29-47.06-51.71-57.5-24.31-10.84-51.76-10.09-76.61-19.37a419.31,419.31,0,0,1,53.23,53.36c7.4,8.88,15,18.47,25.35,22.42C4995.74,3086.19,5012.52,3078.9,5030.66,3081.65Z"/><path class="cls-44" d="M5006.52,3036.37c-11.73-31.85-23.64-66.81-14.48-99.66,6.38-22.89,22.1-41,37.32-58.24a249.53,249.53,0,0,0,4.24,81.86c2.13,9.64,4.85,19.25,5.07,29.17s-2.48,20.47-9.46,26.83S5011.9,3024.43,5006.52,3036.37Z"/><path class="cls-44" d="M4997.37,3053.44a394.7,394.7,0,0,1,30.58-70.12c2.35-4.21,4.82-8.44,8.18-11.75,4.5-4.44,10.29-6.94,16-9.3q40.31-16.74,81.86-29.58c-21.13,7.07-35.32,28.18-47.42,48.36s-24.85,41.88-45.11,51.52C5028.24,3038.84,5013.41,3039.17,4997.37,3053.44Z"/><path class="cls-44" d="M4998.34,3047.37c42.75-18.76,89.12-37.85,133.77-25.46,17.6,4.88,35.49,14.61,53,9.49-15.73,8.77-31.64,17.62-48.79,22.26-17.48,4.73-35.68,4.94-53.69,5.12-19.12.2-38.9.26-56.42-8.1C5018,3046.75,5010.56,3041.08,4998.34,3047.37Z"/><path class="cls-44" d="M4963.27,3087.2a309.39,309.39,0,0,0-70.24,6.14c-4.35.88-8.75,1.89-12.71,4-6.12,3.34-10.73,9.17-15,15a424.07,424.07,0,0,0-35.72,57.34c27.66-15.62,56.6-31.6,87.74-32.12,9.32-.15,18.81,1.08,27.84-1.42C4963.35,3131.11,4976.2,3109.38,4963.27,3087.2Z"/><path class="cls-44" d="M5007.16,3054.32c-13,12.32-32.8,18.08-39,35.63-2.14,6-2.29,12.6-2.41,19q-.31,16.71-.64,33.42c-.14,7.8-.27,15.79,2,23.19,4.29,13.92,16.1,23.14,27.23,31.4-1.63-14.29-3.24-28.93-.29-43,6.76-32,36.09-55.6,38-88.4.27-4.48-.26-9.56-3.48-12.35-2.26-2-5.32-2.3-8.19-2.43C5013.56,3050.55,5006.7,3051,5007.16,3054.32Z"/><path class="cls-44" d="M5000.09,3088.79c-21.88-2.26-42.46-12.39-64.15-16.18s-47.19.75-59.38,20.71l31.17,0c4.57,0,9.21,0,13.61,1.37,5,1.56,9.43,4.79,13.78,7.92,11.77,8.46,24.52,16.75,38.61,17.25S5003.19,3110.08,5000.09,3088.79Z"/><path class="cls-44" d="M5030.77,3065.63q29.07-9.72,58.55-17.92c4.68-1.3,9.47-2.58,14.27-2.06a39.16,39.16,0,0,1,9.27,2.59l48.66,18c-13.72,5.58-29.26,2.42-43.34,6.83-11,3.44-20.34,11.25-29.9,18.14-12.27,8.85-26,16.59-40.71,16.74s-30.35-9.39-33.9-25C5011.66,3074.16,5015.08,3070.87,5030.77,3065.63Z"/><path class="cls-44" d="M4996,3041.06c36.63,2.51,76.39,6.41,103.38,33.56,17.51,17.62,26.95,42.57,35.87,66.68a136.21,136.21,0,0,0-68.42-27.51c-18.09-1.88-37.25-.17-53.46-9.14-12.64-7-22.16-20.38-25.24-35.48-1.3-6.37-1.46-13.26,1-19.2S4997.17,3039.35,4996,3041.06Z"/><path class="cls-45" d="M5021.93,3163a170.46,170.46,0,0,0-42.44-63.53c-20.74-19.35-45.71-32.36-70.35-45.15,15.75,10.22,23.9,29.95,29.72,48.91s10.61,39.13,22.7,54.15c17.63,21.9,46.26,27.72,72.64,32.25C5032.47,3179.86,5030.75,3170.12,5021.93,3163Z"/><path class="cls-45" d="M5024.38,3175.58c-8.55-23.65-17.22-48-17.11-73.45s11.1-52.49,32.33-63C5023.76,3078.85,5040.65,3127.57,5024.38,3175.58Z"/><path class="cls-45" d="M5005.16,3147c13.51-17.66,22-39.75,37.38-55.51,20.55-21.08,49.91-27.56,77.64-33.16-22.07,11.11-30.11,40.16-44.68,61.4-18.87,27.51-51.58,42.67-82.91,39.18C4995.39,3139.16,5008.78,3121.6,5005.16,3147Z"/><path class="cls-45" d="M4961.34,3188.46a536,536,0,0,1,32.12-46.66c3.2-4.16,6.51-8.3,10.54-11.49,7.24-5.71,16.32-7.92,25.22-8.82,33-3.34,66.3,9.46,99.12,4.32-36.28,38.14-87.24,59.08-137.55,56.55C4980,3181.81,4968.07,3179.61,4961.34,3188.46Z"/><path class="cls-45" d="M5036.45,3154.73c-40.21-19.54-81.43-39.36-125.32-42.8-21.11-1.65-42.31.56-63.29,3.62,17.22,6.52,35,13.39,48.28,27,7.19,7.39,12.77,16.49,20,23.89C4941.29,3192.48,4983.09,3192.15,5036.45,3154.73Z"/><path class="cls-45" d="M4934.64,3141.5c-18.06,0-36.14-5.61-54-2.66-23.14,3.81-42.19,21.16-59.93,37.82,32.84-5.4,61.23,24.89,93.66,32.69C4945.35,3216.81,4979.88,3201,4934.64,3141.5Z"/><path class="cls-45" d="M5009.48,3153.12c-38.44,9.67-79.1,20.66-106.72,51.41A116.27,116.27,0,0,0,4878.4,3248c14-13.22,32.53-19.15,50.63-23.47s36.74-7.52,53.33-16.54S5013.56,3182.68,5009.48,3153.12Z"/><path class="cls-45" d="M4997.87,3180.82c39.1-28.66,89-39.16,135.07-28.42-42.82,1.09-71.3,56.44-114,59.6C5000.47,3213.36,4975.89,3196.92,4997.87,3180.82Z"/><path class="cls-46" d="M4969.42,3189.74c66.91,88.64,88.47,215.57,55.12,324.49-17.13,56-47.18,105.94-71.78,158.48s-44.24,110.82-37.93,169.42l21.55.51c0-54.18,19.88-106,43.8-153.52s52.25-92.52,71.5-142.46C5098.88,3424.15,5084.8,3275.83,4969.42,3189.74Z"/><path class="cls-45" d="M5024.51,3160.47A1360.49,1360.49,0,0,1,5055.68,3351l-16.4-49.94c-8.39-25.54-17-51.47-31.66-73.35-7.18-10.69-15.68-20.21-24.16-29.69q-15.55-17.4-31.12-34.81"/><path class="cls-45" d="M5068.85,3414.5c-5.83-53.69,25.51-103.76,60.7-141.8s76.56-71.18,100.45-118.53a187.74,187.74,0,0,0,19.79-95.34c10.47,36.4,1.21,76.94-17.34,109.28s-45.52,57.75-72.95,81.39c-16.94,14.59-34.49,29-47,48.17C5082.13,3344,5086.14,3409.5,5068.85,3414.5Z"/><path class="cls-46" d="M5084.33,3367.39c26-24.85,60.76-34.83,92.46-49.84s63.77-39.57,70.85-76.48c4.23-22.05-1.16-45.85,6-67,4.38-12.94,13.1-23.61,18.23-36.22,7.53-18.52,6.79-39.64,5.62-59.86-1.23-21.28-2.86-42.92-10.1-62.72s-21-37.83-39.57-44.34a195.88,195.88,0,0,1,14.47,81.55c-.31,8.33-1.31,17.09-5.91,23.74s-13.91,10.06-20.12,5.22c-2.79-2.18-4.73-5.75-8-6.95-9.35-3.48-12.53,12.78-13.19,23.53-2.25,36.64-36.47,58.78-59.79,85.24-33.47,38-46.9,91.34-59.14,142.31C5068.82,3356.12,5062.62,3388.14,5084.33,3367.39Z"/><path class="cls-45" d="M5064.72,3411.49c-1-59.06,24-118,65.79-155.49,15.92-14.29,34.05-25.56,49.17-40.86a146.19,146.19,0,0,0,29.56-43.77c4.83,17.08,2.2,36.49-6.95,51.31a18.5,18.5,0,0,0,15.94-3.38c4.68,22.14-12,42.52-28.45,56.38-27.39,23-58.45,41-83.24,67.25S5063.51,3407.32,5064.72,3411.49Z"/><path class="cls-45" d="M5204.36,3023.29l17.77,32.07,3.82-2.61a38.83,38.83,0,0,0-.42-33.78c-5.28-10.23-15.52-17.2-26.26-17.89C5201.36,3014.92,5207.44,3028,5204.36,3023.29Z"/><path class="cls-45" d="M5206.67,2969.47a23.81,23.81,0,0,0,12.93,1.87c-1.41-2-3.09-4.07-5.37-4.23S5209.85,2970.38,5206.67,2969.47Z"/><path class="cls-45" d="M5280.79,3164.21a89.48,89.48,0,0,0-14.86,54.16,136.26,136.26,0,0,0,17.1-22C5288.83,3187.12,5293.13,3173.31,5280.79,3164.21Z"/><path class="cls-45" d="M5177.23,3090.27a42.54,42.54,0,0,0-4.38,23.1C5181.36,3111.35,5186.15,3099,5177.23,3090.27Z"/><path class="cls-45" d="M5295.35,3118.57c-2.27,1.24,1.93,3.69,4.24,2.56"/></g><g id="Layer_4" data-name="Layer 4"><path class="cls-47" d="M4422.6,3848.51c26.23-63.44,55.11-128.7,105.91-172.93,67.57-58.83,170.25-68.93,247.14-24.32s123,141.06,111,232.14c-4.24,32.16-15.31,63.75-34.65,89.15-20.39,26.78-49.05,45.6-79.26,58.78-67.87,29.63-144.2,32.49-217,21.5-29.38-4.44-59-11.24-84.86-26.45-44.22-26-74.08-76.83-76.2-129.82-.94-23.38,3.46-47.59,16-67S4444.82,3796.46,4422.6,3848.51Z"/><path class="cls-47" d="M4821.39,3781.86c29.37-22.72,49.3-61.15,84.71-70.61,19.33-5.17,39.86-.37,58.52,7,11.81,4.66,23.34,10.4,33.3,18.48,39.24,31.83,44.71,96.74,18.2,140.6S4938,3944,4888.3,3943.62c-22.46-.19-45.84-5-63.38-19.69-13-10.83-21.73-26.13-29.38-41.51-13.18-26.51-24.11-56.47-18.24-85.69S4812.18,3741.85,4821.39,3781.86Z"/><path class="cls-47" d="M4931.84,3895a127.25,127.25,0,0,1,65.75,14.7c-2,20.22-11.32,40.79-28.42,50.5s-42.11,4.46-50.41-13.92c-6.84-15.11-.23-34.57,12.95-44.07S4962.87,3892.34,4931.84,3895Z"/><path class="cls-47" d="M4453.37,3811.37c-35.68-67.5-106.31-117.19-184.53-129.84s-162.09,12.08-219.15,64.6c-28.27,26-50.33,59-58.55,95.59-14.39,64.09,16.34,132.49,67.41,176.39s119.62,65.76,188,73.14a531.2,531.2,0,0,0,235.06-27.84c62.43-22.39,123.34-57.16,190-54.54"/><path class="cls-47" d="M4002.7,3840.18c-95.36,24.78-205-4.51-287.77,50.71-21.5,14.33-41.41,40.65-32.21,65.48,7.45,20.11,30.05,28.4,50.19,33.17,49.38,11.69,100,16.65,150.36,21.58L4157.64,4038"/><path class="cls-47" d="M4061.31,3914.54c-27.78,6.26-59.66-7.63-83.77,8.08-19.13,12.47-24.85,38.42-27.91,61.75-1.75,13.34-3.06,27.59,2.58,39.7,5.54,11.88,16.87,19.64,28.41,25.08,25.65,12.08,56.4,15.21,81.68,2.3S4104.82,4007.29,4061.31,3914.54Z"/><path class="cls-47" d="M3708.54,4000a53.15,53.15,0,0,0-33,3c-2.79,9.68,5.4,20.05,14.92,22a22.22,22.22,0,0,0,11.68-.82c5.06-1.78,9.65-5.69,11.29-11s-.31-11.9-5.07-14.42S3696.7,3999.2,3708.54,4000Z"/><path class="cls-48" d="M4111.2,3950a241.18,241.18,0,0,1,55.85-33.91c13.19,14.84,17.69,38,9.47,56.36s-29.53,29.68-48.21,24.25-31.4-28.28-25.22-47.46c4.47-13.87,18-24,32-23.89,5.66,0,11.21,1.56,16.68,3.07C4157.08,3929.86,4163.64,3933.26,4111.2,3950Z"/><path class="cls-48" d="M4112.62,3790.44c-6.06,8.73-8.66,20.57-2.39,29.15s19.12,11.53,28.51,6.55a608.5,608.5,0,0,1,239-68.95c12.78-1,14.19-21.63,4.07-29.5s-24.28-6.71-37.08-6S4192.84,3674.82,4112.62,3790.44Z"/><path class="cls-48" d="M4203,3874.61a131.71,131.71,0,0,0-27.84,15.84c3.32,13.08,14.21,23.71,26.93,26.31a18.26,18.26,0,0,0,10.59-.53c5.6-2.3,8.95-8.27,11.23-14.08,1.75-4.48,3.14-9.41,2-14.1-1.81-7.72-9.51-12.1-16.65-14.86C4207.35,3872.42,4204.18,3872.53,4203,3874.61Z"/><path class="cls-48" d="M4220.62,3965a14.49,14.49,0,0,1,15.14,4.41c-1.21,5.05-6.28,8.93-11.19,8s-8.46-7-6.51-11.75S4227.3,3959.62,4220.62,3965Z"/><path class="cls-47" d="M4545.7,3799a369.88,369.88,0,0,0-80.72-68.92c-11.57-7.28-23.89-14-37.31-15.7-23.92-3-46.86,10.36-66,25.59-23.79,18.89-45.93,43.35-51.47,74-5.7,31.51,7.52,64.06,27.36,88.54,30,37,76.42,59.65,122.84,57.41s91.5-30.23,113.54-72.93c8.84-17.11,14.06-37.32,9.26-56.11S4561.39,3796,4545.7,3799Z"/><path class="cls-47" d="M4808.25,3934.12c-15.78,8.2-32.89,17.87-38.82,34.64s9.12,40,25.86,34a167.42,167.42,0,0,1,109.85-.84c76.58,26.2,165.35,13.64,231.64-32.78,9.23-6.46,9.46-22.24.43-29a339.07,339.07,0,0,0-152.14-63.26C4985.2,3882.21,4827.4,3924.16,4808.25,3934.12Z"/><path class="cls-47" d="M5194.07,3994.22c-44.25-21.46-99.66-17.86-140.76,9.13-7.78,5.11-6.34,19.16,2.31,22.58a262.74,262.74,0,0,0,144.48,13.73c10.41-2,18.26-12.92,16.79-23.41S5204.19,3999.13,5194.07,3994.22Z"/><path class="cls-47" d="M4057.5,3758.53,3831.62,3868c-13.45,6.51-13.89,27.63-3.28,38.16s27.53,11.91,42.06,8.45,27.76-10.94,41.77-16.13,30-8,43.65-1.9c34.62,15.38,78.89,5,103-24.18S4085,3797.75,4057.5,3758.53Z"/><path class="cls-48" d="M5023.5,3799.05a35.7,35.7,0,0,0,5.59,38.89l103.46,112.69-136.27-6.14c-18.71-.85-32.6-23.7-24.73-40.69C4985.62,3873.41,4999.7,3843,5023.5,3799.05Z"/><path class="cls-48" d="M4554.75,3745.76l-9.47,17.08a496.8,496.8,0,0,1,99.36,164.85c1.4,3.87,8.51,2.84,8.76-1.26a198.87,198.87,0,0,1,15.88-66.73c5.66-13.1.69-28.66-7.9-40S4641,3799.8,4630.65,3790s-19.68-22-20.91-36.25c-1.12-13-12.08-24.55-25-26.31S4560.76,3734.9,4554.75,3745.76Z"/><path class="cls-48" d="M3849,3881.62a200.31,200.31,0,0,0-72.93,38.9l35.78-9.75C3821.88,3899.86,3835.3,3892.08,3849,3881.62Z"/><path class="cls-48" d="M4917,3846c-7.55-9.68-15.5-19.68-26.56-25s-26.17-4.36-33.5,5.48-.17,27.69,12.06,26.61a96.42,96.42,0,0,1,76.2,28.08c7.42,7.56,21.85,3,26.16-6.63s.32-21.45-6.9-29.2S4947.3,3833,4917,3846Z"/><path class="cls-48" d="M4954.93,3923.4c1.28-16.78-23.82-27.87-35.36-15.63s1,36.65,17.67,34.39l36.48-4.94,1.36,12.18C4972.64,3942.53,4970.2,3935.66,4954.93,3923.4Z"/><path class="cls-49" d="M3963.72,3754.81l-1.87,1.17"/><path class="cls-49" d="M3893.88,3753.12l.78,4.19"/><path class="cls-49" d="M3758.3,3754.76a327,327,0,0,0,51,150.73,9.42,9.42,0,0,0,6.55,4.3c7.21,1,10.5-7.26,7.29-12.06-29.09-43.5-49.09-93-60.39-143.66A2.25,2.25,0,0,0,3758.3,3754.76Z"/><path class="cls-49" d="M3762.77,3784.56A142.67,142.67,0,0,0,3697,3705.9a65,65,0,0,0,11.89,58.4C3722,3780.29,3743.21,3789.24,3762.77,3784.56Z"/><path class="cls-49" d="M3789,3839.53c-5.81-34.68,7.48-72,33.93-95.14C3830.81,3778.58,3817.71,3816.76,3789,3839.53Z"/><path class="cls-49" d="M3767.58,3766.48a96,96,0,0,1,12.42-58.2,94.13,94.13,0,0,1-2.53,50.36,19.28,19.28,0,0,1-12,12C3765.4,3769.54,3765.29,3768.49,3767.58,3766.48Z"/><path class="cls-49" d="M4607.91,3567.94c-9.5,62.58-26,142.53-36.07,206.42-.71,4.5.67,9.32,3.46,12.11l2.45,2.44c3.43,3.42,8,1.43,9.14-4,15.55-74.65,39.73-173.24,32.53-249-.43-4.57-5-5.41-5.86-1.08C4611.32,3546.1,4609.53,3557.29,4607.91,3567.94Z"/><path class="cls-49" d="M4610.54,3563.64c-20.91-14-34.8-36.69-42.79-60.55s-10.66-49.14-13.27-74.18a114.91,114.91,0,0,1,56,57.18C4621.41,3511,4623,3540,4610.54,3563.64Z"/><path class="cls-49" d="M4620.45,3591.79c18.56-5.49,34.7-20.5,46.94-38.29s21.06-38.36,29.65-58.79c-32.14,8.18-61.26,34.91-76.24,70C4617,3573.61,4616.46,3584.27,4620.45,3591.79Z"/></g><g id="Layer_6" data-name="Layer 6"><path class="cls-50" d="M4454.57,3414.63a238.83,238.83,0,0,1-20.39,122.27c-16.63,36.18-42.05,67.13-61.12,102s-31.75,76.89-19.7,115c-24.39-1.9-46.27,18.46-70.72,17.87-2.74-.07-5.7-.5-7.67-2.5-1.61-1.65-2.26-4-2.79-6.33-6.44-27.63-6.85-58.5-24-80.61-18.13-23.4-49.25-29.62-74.62-43.95-44.89-25.35-70.72-75.64-92.61-123.76"/><path class="cls-51" d="M4205.54,3444.7q-50.79,22.05-99.81,48.27c-6.7,3.59-13.83,7.72-17,14.87-4.07,9.27.44,20.82,8.24,27s18,7.87,27.79,7.94c17.8.14,35.27-4.49,52.51-9.09,80.58-21.49,161.43-43.07,238.6-75.43,20.14-8.44,42.56-20.76,46.78-43-57.23-17.11-118.82-8.61-176.06,8.44S4174.64,3466.08,4205.54,3444.7Z"/><path class="cls-50" d="M4103.85,3513.62c-20.74-5.24-35.9-24.86-42.54-46s-6.22-43.93-5.73-66.19c.14-6.35.44-13.19,4.2-18.18,2.82-3.74,7.14-5.82,11.32-7.72,65.21-29.64,134.85-46.93,204-64.08l82.15-20.36c14.89-3.69,30.47-7.38,45.33-3.54,16.55,4.27,29.94,17.59,38.32,33.09s12.37,33.11,15.61,50.58c2.75,14.8,4.78,31.23-2.86,44-8.08,13.52-24.26,18.61-39.05,22.57q-160.48,43-323.69,73.68c-6.19,1.17-12.72,2.29-18.64.06s-10.34-7.59-14-13c-21.16-31.1-28.12-72.26-18.43-109,.82-3.13,1.85-6.39,4.18-8.54s5.65-2.85,8.76-3.45q58.26-11.1,115.55-27.13"/><path class="cls-52" d="M4057.09,3381c-45-15.64-75.51-67.91-68.5-117.2.62-4.36,1.61-8.91,4.47-12.13,3-3.42,7.57-4.72,11.88-5.85,100.15-26.35,202.53-44.1,300.43-78.56,27.22-9.58,59.28-19.82,82.71-2.37,18.83,14,24.11,40.73,26,64.93,2.37,30.73-1.76,67.87-27.83,81.92"/><path class="cls-50" d="M4015.47,3251.77c-12.86,3.57-26.68-4.27-34.29-15.28s-10.38-24.58-13-37.73c-4-20.28-6.48-45.15,9.68-58,6.14-4.88,14-6.94,21.57-8.88l168.83-43.23c44.8-11.48,89.67-23,135.28-30.56,20.65-3.44,44.36-5.24,60,8.74,12.11,10.82,15.74,28.06,18.65,44.08,3.59,19.84,6.4,42.61-6.42,58.12"/><path class="cls-50" d="M4330,3071.63c8.3-.53,15.35-7.31,18.62-15.29s3.37-17,2.68-25.61c-1.63-20.35-7.5-40.47-18.13-57.61-3.33-5.38-7.24-10.56-12.43-14-6.31-4.16-14-5.37-21.46-5.73-25-1.19-49.64,6.08-73.69,13.42q-127.68,39-253.9,82.93c-5.8,2-11.92,4.27-15.8,9.19-4.56,5.79-5,13.9-4.95,21.4a294.77,294.77,0,0,0,3.44,42.69c.89,5.75,2,11.64,5,16.58,9.08,15.09,29.9,14.73,46.85,12.58"/><path class="cls-50" d="M4314.42,2973.33c19.86-58-.37-131.38-45.38-132.93-29.6-1-58.69,7.18-86.9,16.14-82.23,26.12-162.48,59.6-235.67,105.09-5.11,3.18-10.35,6.57-13.54,11.65-3.71,5.87-4.15,13.14-4.48,20.07-.59,12.08-1.12,24.56,3.15,35.89,7.08,18.8,28.18,31.3,48.18,28.54"/><path class="cls-50" d="M4294.73,2865c-9.76-27.23-20.42-55.78-42.88-74.55-19.61-16.4-46.21-23.2-72-23.19s-51.14,6.28-75.87,13.41a1035.89,1035.89,0,0,0-106.46,37.12c-19.31,7.93-39,16.89-52.69,32.35-15.1,17.05-21.17,40.33-21.27,62.89s5.23,44.78,10.53,66.76"/><path class="cls-53" d="M4030.22,2810c-38.16.07-75.59,21.43-95.06,54.25s-20.27,75.91-2,109.43c-19.38,27.2-9.74,70.34,19.36,86.7-11.31,30.12-5.11,66.13,15.64,90.73-11,33.42-1.35,72.71,23.82,97.28-8.16,51.29,14.71,106.29,59.14,130.85-17.15,43.66-11.37,95.62,15,134.44l20.49,1.36c13.11,61.55,59.2,115,118.14,137.1,47.95,18,79.44,72,71.41,122.56l19.44-3.31c9.64-57.57-43.46-104.93-92.73-136.24s-106.37-68.27-111.46-126.42c-38.84-33.62-48.43-96.33-21.41-140-44.53-19.1-73.52-69.28-67.84-117.39l12-5.62c-35.75-16.59-47-70.23-20.84-99.76-35.15-17.05-44.13-71.37-16.33-98.82l-14.51,6.27c-24.31-21.11-29-61.26-10.27-87.42-16.2-32.65-15-73.34,3.16-104.95S4008,2807.83,4030.22,2810Z"/><path class="cls-54" d="M4171.64,3242.21a781.61,781.61,0,0,0-111.54,39.54c-2.53,1.12-5.22,2.41-6.57,4.91-3.53,6.56,4.84,13.15,11.83,15,38.15,10.21,78-5,113.86-22,17.53-8.35,36.48-19.09,42.55-38.18C4205.3,3234.07,4187.45,3237.92,4171.64,3242.21Z"/></g><g id="Layer_8" data-name="Layer 8"><path class="cls-54" d="M4161.06,3306.09a105.41,105.41,0,0,0-42.67,21.6,64.22,64.22,0,0,0,58.44-10.91c1.6-1.27,3.22-2.71,3.86-4.7,1.91-5.89-6-10.42-11.83-9S4158.16,3309,4161.06,3306.09Z"/><path class="cls-54" d="M4217.69,3417a656.13,656.13,0,0,0-108.61,45.87c6.49,10.84,19,16.47,31.19,17.46s24.35-2,36.25-5l41.94-10.43c10.63-2.65,21.46-5.37,30.83-11.24s17.24-15.5,18.44-26.84c.21-2,.18-4.17-.91-5.84s-3.11-2.51-5-3.17C4238.35,3409.68,4211.94,3411.07,4217.69,3417Z"/></g></g><g id="room_elements" data-name="room elements"><polygon class="cls-55" points="8330.81 5351.34 8330.81 393.94 6450.33 892.33 6450.33 4888.62 8330.81 5351.34"/><polygon class="cls-56" points="535.84 5343.95 535.84 386.55 2416.32 884.94 2416.32 4881.23 535.84 5343.95"/><polygon class="cls-57" points="5328.9 4062.9 3469.53 4062.9 4462.68 682.9 5328.9 4062.9"/><g id="lamp"><g class="cls-58"><rect class="cls-59" x="3972.77" y="195.79" width="1011.73" height="342.67"/></g><rect class="cls-59" x="4137.53" y="550.46" width="650" height="27"/><rect class="cls-59" x="4400.03" y="161.88" width="125" height="142"/><ellipse class="cls-59" cx="4462.53" cy="161.88" rx="62.5" ry="50"/><g class="cls-60"><ellipse class="cls-61" cx="4462.53" cy="573.12" rx="100" ry="75"/></g></g></g></g></svg>
