<svg xmlns="http://www.w3.org/2000/svg" viewBox="0 0 209.21 336.13"><defs><style>.cls-1{fill:#e9e9e9;}.cls-2{fill:#fff;}.cls-3{fill:#131312;}.cls-4{fill:#ddd;}.cls-5{fill:#b6794f;}.cls-6{fill:#d4956b;}.cls-7{fill:#945e3a;}.cls-8{fill:#232121;}.cls-9{fill:#1b1919;}.cls-10{fill:#e8c027;}.cls-11{fill:#f5efdc;}</style></defs><title>Asset 11</title><g id="Layer_2" data-name="Layer 2"><g id="Layer_1-2" data-name="Layer 1"><path class="cls-1" d="M138.88,255.36h-.41c-4,8.44-17.36,14.65-33.3,14.65s-29.35-6.21-33.31-14.65H70.67l-40.8,14C11.73,275.56.61,286.81.61,298.95v18.92a18.21,18.21,0,0,0,18.17,18.27L188.92,336a18.21,18.21,0,0,0,18.14-18.27V297.58c0-12.44-11.67-23.92-30.54-30Z"/><path class="cls-1" d="M74.57,259.31a16.24,16.24,0,0,1-2.7-3.95H70.67l-40.8,14C11.73,275.56.61,286.81.61,298.95v18.92a18.21,18.21,0,0,0,18.17,18.27h11A96.15,96.15,0,0,1,74.57,259.31Z"/><path class="cls-2" d="M29.8,336.12,188.92,336a18.21,18.21,0,0,0,18.14-18.27V297.58c0-12.44-11.67-23.92-30.54-30l-37.64-12.19h-.41c-4,8.44-17.36,14.65-33.3,14.65-13.32,0-24.86-4.35-30.6-10.7A96.15,96.15,0,0,0,29.8,336.12Z"/><path class="cls-1" d="M99.92,269.78v66.29h8.28V269.94q-1.5.07-3,.08C103.38,270,101.63,269.93,99.92,269.78Z"/><path class="cls-3" d="M106.73,37.94l-2.13,0-1.28,0V142.87c.28-.43.57-.85.84-1.28a107.2,107.2,0,0,0,90.61,49.11q2.65,0,5.27-.13a111.14,111.14,0,0,0,9.16-44.37C209.21,87.13,163.52,39.11,106.73,37.94Z"/><path class="cls-4" d="M105.14,279.69c23,0,42.11-8.64,46.66-20.14l-12.92-4.18h-.41c-4,8.44-17.36,14.65-33.3,14.65s-29.35-6.21-33.3-14.65H70.67l-12.19,4.18C63,271,82.19,279.69,105.14,279.69Z"/><path class="cls-5" d="M191.14,166.56a85.33,85.33,0,1,0-85.33,85.53A85.43,85.43,0,0,0,191.14,166.56Z"/><path class="cls-6" d="M141.33,88.79a85.49,85.49,0,0,0-67.21,81.77c-12.22,1.14-22.83,2.53-27.2,3.28a3.83,3.83,0,0,0-2.24,2.32,3.52,3.52,0,0,0-.1,1.48v24.79a5.42,5.42,0,0,0,2.72,4.26c.13.07.26.14.4.2a80.12,80.12,0,0,0,7.39,3.94c5.28,2.5,12.73,5.42,20.07,6.23a27.28,27.28,0,0,0,11-.79,85.77,85.77,0,0,0,37.69,33.87A85.59,85.59,0,0,0,141.33,88.79Z"/><path class="cls-7" d="M168.48,202v-9.25a.57.57,0,0,0-.18-.65,5,5,0,0,0-2.16-.77h0c-7.89-.53-38.07-1.89-59.57-1.89-4.83,0-10.09.07-15.43.18A85.64,85.64,0,0,0,111.71,81.25c-1.95-.13-3.91-.23-5.89-.23A85.56,85.56,0,0,0,31.48,208.53c1.95.13,3.91.23,5.89.23a85.21,85.21,0,0,0,22-2.89,146.46,146.46,0,0,0,15.79,1.62c7.49.31,14.87-.2,19.73-2.52a18.41,18.41,0,0,0,3.22-2.64,14.64,14.64,0,0,1,8.42-3.38,14.44,14.44,0,0,1,8,3.07l.38.3a18.37,18.37,0,0,0,3.22,2.64c.36.17.74.33,1.12.49,5.32,2.1,13.07,2.4,20.71,1.93a174.37,174.37,0,0,0,25.36-3.69C168.35,203.21,168.48,202,168.48,202Z"/><path class="cls-8" d="M106.73,37.94l-2.13,0-2.14,0C45.68,39.12,0,87.14,0,146.2a111.13,111.13,0,0,0,9.17,44.4c1.46.06,2.92.1,4.39.1a107.2,107.2,0,0,0,90.61-49.11,107.2,107.2,0,0,0,90.61,49.11q2.65,0,5.27-.13a111.14,111.14,0,0,0,9.16-44.37C209.21,87.13,163.52,39.11,106.73,37.94Z"/><path class="cls-3" d="M103.32,37.93h-.86C45.68,39.12,0,87.13,0,146.2a111.13,111.13,0,0,0,9.17,44.4c1.46.06,2.92.1,4.39.1a107.23,107.23,0,0,0,89.77-47.83Z"/><path class="cls-9" d="M200.05,190.57a110.16,110.16,0,0,0,6.31-19.2c-52.37-.42-102.55-42-103-66.26v37.75c.28-.43.57-.85.84-1.28a107.2,107.2,0,0,0,90.61,49.11Q197.43,190.7,200.05,190.57Z"/><path class="cls-3" d="M106.73,21.13l-2.13,0-2.14,0a101.2,101.2,0,0,0-30.63,5.4,33.93,33.93,0,0,1,66.29.28A101.17,101.17,0,0,0,106.73,21.13Z"/><path class="cls-10" d="M82.12,27.12a95.36,95.36,0,0,1,43.67,0,5.78,5.78,0,0,1,4,5.07,3.11,3.11,0,0,1-3.94,3.27,124.69,124.69,0,0,0-43.72,0,3.16,3.16,0,0,1-4-3.3,5.75,5.75,0,0,1,4-5.05Z"/><path class="cls-2" d="M168.3,175.9a3.9,3.9,0,0,0-2.16-2.06h0c-7.89-1.43-38.07-5.05-59.57-5.05s-51.46,3.65-59.61,5.06a3.83,3.83,0,0,0-2.24,2.32,3.52,3.52,0,0,0-.1,1.48v24.79a5.42,5.42,0,0,0,2.72,4.26c.13.07.26.14.4.2a80.12,80.12,0,0,0,7.39,3.94c5.28,2.5,12.73,5.42,20.07,6.23S90,216.54,94.9,210.3a43.64,43.64,0,0,0,3.22-7.08s3.67-8.76,8.42-9.05c3.85.24,7,6,8,8.23.24.51.38.82.38.82a43.52,43.52,0,0,0,3.22,7.08c.36.46.74.89,1.12,1.3,5.32,5.63,13.07,6.42,20.71,5.18,12.85-2.09,25.36-9.89,25.36-9.89a5.38,5.38,0,0,0,3.12-4.46V177.65A3.43,3.43,0,0,0,168.3,175.9Z"/><path class="cls-11" d="M44.76,176c0,.07-.06.13-.08.2a3.52,3.52,0,0,0-.1,1.48v24.79a5.42,5.42,0,0,0,2.72,4.26c.13.07.26.14.4.2a80.12,80.12,0,0,0,7.39,3.94c5.28,2.5,12.73,5.42,20.07,6.23,4.82.53,9.59.15,13.68-1.84C56.36,213.26,47.21,187.31,44.76,176Z"/><path class="cls-11" d="M107.15,186.21c-5.7,0-10.33,8.7-10.33,19.44,0,.28,0,.54,0,.82a24,24,0,0,0,1.27-3.25s3.67-8.76,8.42-9.05c3.85.24,7,6,8,8.23.24.51.38.82.38.82a34.39,34.39,0,0,0,2.39,5.53c.09-1,.14-2,.14-3.11C117.48,194.91,112.86,186.21,107.15,186.21Z"/><path class="cls-11" d="M140,216.78c12.85-2.09,25.36-9.89,25.36-9.89a5.38,5.38,0,0,0,3.12-4.46V177.65a3.43,3.43,0,0,0-.18-1.75,3.16,3.16,0,0,0-.45-.77c-2.16,10.78-10.85,37.77-43.69,40.06C128.85,217.51,134.45,217.68,140,216.78Z"/><path class="cls-8" d="M129.26,203.16a9.81,9.81,0,1,1,9.79-9.81A9.8,9.8,0,0,1,129.26,203.16Zm-44.54,0a9.81,9.81,0,1,1,9.79-9.81A9.8,9.8,0,0,1,84.72,203.16Z"/><path class="cls-5" d="M196.61,210.14a6.78,6.78,0,1,1,6.81-6.78A6.79,6.79,0,0,1,196.61,210.14Zm-180.81,0a6.78,6.78,0,1,1,6.77-6.78A6.77,6.77,0,0,1,15.8,210.14Z"/><path class="cls-6" d="M198.88,197a6.77,6.77,0,0,0,0,12.77,6.76,6.76,0,0,0,0-12.77Z"/><path class="cls-6" d="M18.06,197a6.76,6.76,0,0,0,0,12.77,6.77,6.77,0,0,0,0-12.77Z"/></g></g></svg>