<svg xmlns="http://www.w3.org/2000/svg" viewBox="0 0 214.26 306.6"><defs><style>.cls-1{fill:#fff;}.cls-2{fill:#f3335d;}.cls-3{fill:#794a2a;}.cls-4{fill:#835130;}.cls-5{fill:#613b22;}.cls-6{fill:#232121;}.cls-7{fill:#131312;}.cls-8{fill:#1b1919;}.cls-9{fill:#d99f10;}.cls-10{fill:#e8c027;}.cls-11{fill:#ff426b;}</style></defs><title>Asset 31</title><g id="Layer_2" data-name="Layer 2"><g id="Layer_1-2" data-name="Layer 1"><path class="cls-1" d="M108.43,251c21.77,0,40-9.4,44.45-22l-9.83-3.18h-.41c-4,8.44-17.36,14.65-33.3,14.65S80,234.27,76,225.83H74.85l-10.69,3.66C68.93,241.81,86.94,251,108.43,251Z"/><path class="cls-2" d="M180.69,238l-27.81-9c-4.49,12.56-22.68,22-44.45,22-21.49,0-39.5-9.17-44.27-21.49L34,239.81C15.9,246,4.78,257.28,4.78,269.41v18.92A18.21,18.21,0,0,0,23,306.6l170.13-.14a18.21,18.21,0,0,0,18.14-18.27V268C211.23,255.6,199.56,244.13,180.69,238Z"/><path class="cls-3" d="M192.34,136.34A85.33,85.33,0,1,0,107,221.82,85.4,85.4,0,0,0,192.34,136.34Z"/><path class="cls-4" d="M148.17,61.45a85.55,85.55,0,0,0-23.95,158.63A85.55,85.55,0,0,0,148.17,61.45Z"/><path class="cls-5" d="M130.77,105.54a98.38,98.38,0,0,1,46.81,11.78,100.23,100.23,0,0,0,1.55-17.43q0-5.06-.5-10A85.36,85.36,0,0,0,34.52,181.42,99.17,99.17,0,0,1,130.77,105.54Z"/><path class="cls-6" d="M178.52,182.17a46.83,46.83,0,0,0,7.11-24.52c0-32.62-35.24-59.06-78.72-59.06S28.19,125,28.19,157.65A46.75,46.75,0,0,0,35,181.73C13.51,167.47,0,144.58,0,111.81,0,50.06,48,0,107.13,0S214.26,50.06,214.26,111.81C214.26,144.93,200.44,167.94,178.52,182.17Z"/><path class="cls-7" d="M193.44,127.36c0-63.63-46.41-115.2-103.66-115.2A95.86,95.86,0,0,0,33.46,30.64,113.84,113.84,0,0,0,0,111.81c0,32.77,13.51,55.66,35,69.92a46.75,46.75,0,0,1-6.84-24.08c0-32.62,35.24-59.07,78.72-59.07s78.72,26.45,78.72,59.07a45.3,45.3,0,0,1-2.91,15.92C189.58,161,193.44,145.7,193.44,127.36Z"/><path class="cls-8" d="M130.46,172.92a9.8,9.8,0,1,1,9.79-9.81A9.8,9.8,0,0,1,130.46,172.92Zm-44.53,0a9.8,9.8,0,1,1,9.79-9.81A9.8,9.8,0,0,1,85.92,172.92Z"/><path class="cls-9" d="M194.87,186.46l4.25.74,1.49-9-8.5-1.49-1.49,9Z"/><path class="cls-10" d="M203.14,130.56a1.73,1.73,0,1,1,3.33.58s1.63-2.28,2.58.45l-8.49,47.76-2.59-.45-1.66-.29-1.67-.29-2.58-.45,8.49-47.76S202.19,127.83,203.14,130.56Z"/><path class="cls-7" d="M205.17,120.56a23.47,23.47,0,0,1,2.17-3.94A22.79,22.79,0,0,1,208,121,2.75,2.75,0,0,1,205.17,120.56Z"/><path class="cls-11" d="M195.06,185.76l4.25.74-1.06,6c-.28,1.57-1.6,3.52-4.91,2.95s-3.87-2.86-3.59-4.43l1.06-6Z"/><path class="cls-1" d="M205.17,120.56A2.75,2.75,0,0,0,208,121c.5,4.41,1,10.56,1,10.56s-1-2.19-2.58-.45a2,2,0,0,0-3.33-.58c-.91-2.18-2.58-.45-2.58-.45S203.18,124.54,205.17,120.56Z"/><path class="cls-9" d="M209.07,131.58l-8.49,47.76-2.58-.45,8.49-47.76S208.11,128.84,209.07,131.58Z"/><path class="cls-4" d="M197.81,173.45a6.78,6.78,0,1,1,6.81-6.78A6.79,6.79,0,0,1,197.81,173.45ZM17,173.45a6.78,6.78,0,1,1,6.81-6.78A6.79,6.79,0,0,1,17,173.45Z"/><path class="cls-5" d="M14.8,166.68a6.77,6.77,0,0,1,4.51-6.38,6.78,6.78,0,1,0,0,12.77A6.77,6.77,0,0,1,14.8,166.68Z"/><path class="cls-5" d="M195.57,166.68a6.77,6.77,0,0,1,4.51-6.38,6.78,6.78,0,1,0,0,12.77A6.77,6.77,0,0,1,195.57,166.68Z"/></g></g></svg>