<svg xmlns="http://www.w3.org/2000/svg" viewBox="0 0 206.45 302.9"><defs><style>.cls-1{fill:#e8c027;}.cls-2{fill:#d09021;}.cls-3{fill:#fedb8e;}.cls-4{fill:#ffe8b6;}.cls-5{fill:#ebca7f;}.cls-6{fill:#200c0d;}.cls-7{fill:#3a2315;}.cls-8{fill:#543b1d;}.cls-9{fill:#1b1919;}.cls-10{fill:#ffebbe;}.cls-11{fill:#3494c3;}</style></defs><title>Asset 21</title><g id="Layer_2" data-name="Layer 2"><g id="Layer_1-2" data-name="Layer 1"><path class="cls-1" d="M138.27,222.13h-.41c-4,8.44-17.36,14.65-33.3,14.65s-29.35-6.21-33.3-14.65H70.06l-40.8,14C11.11,242.34,0,253.58,0,265.72v18.92A18.21,18.21,0,0,0,18.17,302.9l170.13-.14a18.21,18.21,0,0,0,18.14-18.27V264.35c0-12.44-11.67-23.92-30.54-30Z"/><path class="cls-2" d="M104.09,247.31c22.17,0,40.69-9.23,45.3-21.58l-11.12-3.6h-.41c-4,8.44-17.36,14.65-33.3,14.65s-29.35-6.21-33.3-14.65H70.06L58.88,226C63.64,238.19,82.07,247.31,104.09,247.31Z"/><path class="cls-3" d="M192.34,132.21A85.33,85.33,0,1,0,107,217.69,85.4,85.4,0,0,0,192.34,132.21Z"/><path class="cls-4" d="M142.52,54.48a85.53,85.53,0,0,0-17.43,161.26A85.53,85.53,0,0,0,142.52,54.48Z"/><path class="cls-5" d="M21.69,132.21a85.18,85.18,0,0,0,11,42c1.95.13,3.91.23,5.89.23A85.5,85.5,0,0,0,112.91,46.95c-1.95-.13-3.91-.23-5.89-.23A85.4,85.4,0,0,0,21.69,132.21Z"/><path class="cls-6" d="M21.45,141.68A87.76,87.76,0,0,1,10.89,99.86c0-43.24,31.2-79.25,72.52-87.21,2.24,1.64,3.67,4.49,3.67,11.26C87.09,75.58,57.56,124.93,21.45,141.68Z"/><path class="cls-7" d="M103,0c-25.45,0-40.8,12-40.8,12S18.59,144.12,194.36,144.12h.24a106.3,106.3,0,0,0,8.06-40.78C202.67,46.27,158.06,0,103,0Z"/><path class="cls-8" d="M202.67,103.34C202.67,46.27,158.06,0,103,0c-25.45,0-40.8,12-40.8,12l-.16.51c-.84,17.8-.27,126,139.83,103.67A108,108,0,0,0,202.67,103.34Z"/><ellipse class="cls-9" cx="131.83" cy="159.11" rx="9.79" ry="9.8"/><ellipse class="cls-9" cx="85.59" cy="158.99" rx="9.79" ry="9.8"/><path class="cls-3" d="M197.8,169.32a6.78,6.78,0,1,1,6.77-6.78A6.77,6.77,0,0,1,197.8,169.32ZM17,169.32a6.78,6.78,0,1,1,6.77-6.78A6.77,6.77,0,0,1,17,169.32Z"/><path class="cls-10" d="M19.28,156.16a6.77,6.77,0,0,0,0,12.77,6.77,6.77,0,0,0,0-12.77Z"/><path class="cls-10" d="M200.07,156.17a6.78,6.78,0,0,0,0,12.76,6.77,6.77,0,0,0,0-12.76Z"/><path class="cls-11" d="M141.68,181c-14.83,0-26.85-10.85-26.85-24.24a22.09,22.09,0,0,1,.2-2.89H101.75a21.92,21.92,0,0,1,.2,2.89c0,13.39-12,24.24-26.84,24.24s-26.85-10.85-26.85-24.24c0-.24.64-5.27.64-5.27,2.67-10.85,13.39-19,26.21-19,10.87,0,20.23,5.83,24.45,14.22h17.67c4.22-8.39,13.58-14.22,24.45-14.22,12.82,0,23.54,8.11,26.21,19,0,0,.64.67.64,5.27C168.53,170.11,156.51,181,141.68,181ZM75.46,138.31c-11.41,0-20.66,8.39-20.66,18.74s9.25,18.74,20.66,18.74S96.12,167.4,96.12,157,86.87,138.31,75.46,138.31Zm66.51,0c-11.41,0-20.66,8.39-20.66,18.74s9.25,18.74,20.66,18.74,20.65-8.39,20.65-18.74S153.38,138.31,142,138.31Z"/></g></g></svg>