<svg xmlns="http://www.w3.org/2000/svg" viewBox="0 0 211.08 300.86"><defs><style>.cls-1{fill:#17425a;}.cls-2{fill:#0c2c3e;}.cls-3{fill:#da234a;}.cls-4{fill:#d4956b;}.cls-5{fill:#e5af8c;}.cls-6{fill:#b27750;}.cls-7{fill:#131312;}.cls-8{fill:#f3335d;}.cls-9{fill:#ff436d;}.cls-10{fill:#1b1919;}</style></defs><title>Asset 41</title><g id="Layer_2" data-name="Layer 2"><g id="Layer_1-2" data-name="Layer 1"><path class="cls-1" d="M138.14,210.92h-.41c-4,7.3-17.35,12.68-33.27,12.68s-29.32-5.37-33.27-12.68H70L29.23,223C11.1,228.4,0,238.13,0,248.63v36.42c0,8.73,8.13,15.81,18.15,15.8l170-.12c10,0,18.13-7.08,18.13-15.8V247.44c0-10.77-11.66-20.69-30.51-26Z"/><path class="cls-2" d="M97.07,245.11h12.07v32.53H97.07Z"/><path class="cls-3" d="M175.74,221.46l-37.6-10.54h-.41c-4,7.3-17.35,12.68-33.27,12.68s-29.32-5.37-33.27-12.68H70L29.23,223c-13.71,4.07-23.4,10.63-27.31,18.13,4.27-3.84,14-9.1,30.44.66,23,13.7,51.38,15.45,76.15,15.45,24.42,0,40.73-4.79,74.11-33.54Q179.37,222.49,175.74,221.46Z"/><path class="cls-3" d="M107,0c57.5,0,104.11,55.75,104.11,124.53S164.47,249.07,107,249.07,2.85,193.31,2.85,124.53,49.47,0,107,0Z"/><path class="cls-4" d="M191.25,126.06a85.33,85.33,0,1,0-85.33,85.48A85.4,85.4,0,0,0,191.25,126.06Z"/><path class="cls-5" d="M141.44,48.33A85.53,85.53,0,0,0,124,209.6,85.53,85.53,0,0,0,141.44,48.33Z"/><path class="cls-6" d="M20.6,126.06a85.34,85.34,0,0,0,6.52,32.8A89.27,89.27,0,0,0,143.19,49.15,85.32,85.32,0,0,0,20.6,126.06Z"/><path class="cls-7" d="M168,129.4c-15.87-8.43-37.05-13.59-60.33-13.59S63.18,121,47.31,129.4C29.62,120,18.53,106.53,18.53,91.57c0-28.4,39.89-51.42,89.11-51.42s89.11,23,89.11,51.42C196.75,106.53,185.66,120,168,129.4Z"/><path class="cls-8" d="M3.35,136.58c-.32-4-.49-8-.49-12C2.85,55.75,49.47,0,107,0a88,88,0,0,1,18.39,2c1,.73,1.57,1.18,1.57,1.18S150.81,136.41,3.35,136.58Z"/><path class="cls-9" d="M211.08,124.53c0,4.07-.18,8.08-.49,12C63.18,136.39,87,3.79,87,3.79a33.18,33.18,0,0,1,3-2.12A88,88,0,0,1,107,0C164.47,0,211.08,55.75,211.08,124.53Z"/><path class="cls-10" d="M129.37,162.64a9.81,9.81,0,1,1,9.79-9.8A9.8,9.8,0,0,1,129.37,162.64Zm-44.53,0a9.81,9.81,0,1,1,9.79-9.8A9.8,9.8,0,0,1,84.84,162.64Z"/></g></g></svg>