<svg xmlns="http://www.w3.org/2000/svg" width="31.276" height="36" viewBox="0 0 31.276 36">
  <path id="Icon_simple-tiktok" data-name="Icon simple-tiktok" d="M18.8.03C20.76,0,22.71.015,24.66,0a9.343,9.343,0,0,0,2.625,6.255,10.578,10.578,0,0,0,6.36,2.685v6.045a16.055,16.055,0,0,1-6.3-1.455,18.533,18.533,0,0,1-2.43-1.4c-.015,4.38.015,8.76-.03,13.125a11.457,11.457,0,0,1-2.025,5.91A11.175,11.175,0,0,1,14,35.985a10.937,10.937,0,0,1-6.12-1.545A11.311,11.311,0,0,1,2.4,25.875c-.03-.75-.045-1.5-.015-2.235a11.292,11.292,0,0,1,13.1-10.02c.03,2.22-.06,4.44-.06,6.66a5.147,5.147,0,0,0-6.57,3.18,5.95,5.95,0,0,0-.21,2.415,5.105,5.105,0,0,0,5.25,4.305,5.039,5.039,0,0,0,4.155-2.415,3.461,3.461,0,0,0,.615-1.59c.15-2.685.09-5.355.1-8.04C18.78,12.09,18.75,6.06,18.8.03Z" transform="translate(-2.369)" fill="#8e8b99"/>
</svg>
