<?xml version="1.0" encoding="utf-8"?>
<!-- Generator: Adobe Adobe Illustrator 24.2.0, SVG Export Plug-In . SVG Version: 6.00 Build 0)  -->
<svg version="1.1" xmlns="http://www.w3.org/2000/svg" xmlns:xlink="http://www.w3.org/1999/xlink" x="0px" y="0px" width="5380px"
	 height="4620px" viewBox="0 0 5380 4620" style="enable-background:new 0 0 5380 4620;" xml:space="preserve">
<style type="text/css">
	.st0{display:none;}
	.st1{display:inline;fill:#5D5B6E;stroke:#5D5B6E;stroke-miterlimit:10;}
	.st2{display:inline;opacity:0.6118;fill:#FFF9D9;stroke:#FFF9D9;stroke-miterlimit:10;}
	.st3{display:inline;fill:#FFF9D9;stroke:#FFF9D9;stroke-miterlimit:10;}
	.st4{fill:#FFFFFF;}
	.st5{opacity:0.251;}
	.st6{fill:#BFD9FF;}
	.st7{display:none;opacity:0.502;fill:#BFD9FF;}
	.st8{display:inline;}
	.st9{fill:#C7B3A5;}
	.st10{fill:#CFD1E3;}
	.st11{fill:#475191;}
	.st12{fill:#AFBBDE;}
	.st13{fill:#D9C39A;}
	.st14{fill:#F7DFB2;}
	.st15{fill:#D6D6D6;}
	.st16{fill:#D4D4D4;stroke:#D4D4D4;stroke-miterlimit:10;}
	.st17{fill:#475191;stroke:#475191;stroke-miterlimit:10;}
	.st18{fill:#646CA1;stroke:#646CA1;stroke-miterlimit:10;}
	.st19{opacity:0.8196;fill:#B2D5ED;stroke:#FFF9D9;stroke-miterlimit:10;}
	.st20{fill:#E8E8E7;}
	.st21{fill:#F6E1CE;}
	.st22{fill:#F6C9A8;}
	.st23{fill:#D5D5D7;}
	.st24{fill:#C4996C;}
	.st25{display:none;fill:#F6C9A8;}
	.st26{fill:#656790;}
	.st27{fill:#F2AF94;}
	.st28{fill:#F5CCAE;}
	.st29{fill:#7B84BF;}
	.st30{fill:#C6CCE2;}
	.st31{fill:#916848;}
	.st32{fill:#C48B60;}
	.st33{fill:#382111;}
	.st34{fill:#E0E0E2;}
	.st35{opacity:0.502;fill:#5D5B6E;}
	.st36{display:none;fill:none;stroke:#E0E0E2;stroke-width:5;stroke-linecap:square;stroke-miterlimit:10;}
	.st37{fill:none;stroke:#E0E0E2;stroke-width:5;stroke-linecap:square;stroke-miterlimit:10;}
	.st38{fill:#E8E8E8;}
	.st39{fill:#EBEBEB;}
	.st40{opacity:0.302;fill:#BFD9FF;}
	.st41{fill:#757575;}
	.st42{fill:#FFF2D9;stroke:#FFF9D9;stroke-miterlimit:10;}
	.st43{fill:#D9C39A;stroke:#FFF9D9;stroke-miterlimit:10;}
	.st44{fill:#D9C39A;stroke:#D9C39A;stroke-miterlimit:10;}
	.st45{display:none;fill:#D9C39A;stroke:#D9C39A;stroke-miterlimit:10;}
	.st46{fill:#656A94;stroke:#656A94;stroke-miterlimit:10;}
	.st47{fill:#656A94;stroke:#FFF9D9;stroke-miterlimit:10;}
	.st48{fill:#B4B8D9;stroke:#6F9E6F;stroke-miterlimit:10;}
	.st49{fill:#B4B8D9;stroke:#B4B8D9;stroke-miterlimit:10;}
	.st50{fill:#B4B8D9;stroke:#FFF9D9;stroke-miterlimit:10;}
	.st51{fill:#A7CFA7;stroke:#A7CFA7;stroke-miterlimit:10;}
	.st52{fill:#6F9E6F;stroke:#6F9E6F;stroke-miterlimit:10;}
	.st53{fill:#6F9E6F;stroke:#FFF9D9;stroke-miterlimit:10;}
	.st54{fill:#B09684;}
	.st55{fill:#857366;}
	.st56{display:inline;fill:#857366;stroke:#857366;stroke-miterlimit:10;}
	.st57{fill:#6F9E6F;}
	.st58{opacity:0.6706;fill:#97B4C7;}
	.st59{opacity:0;fill:#97B4C7;}
	.st60{opacity:0.6784;fill:#97B4C7;}
	.st61{display:none;fill:#FFF2D9;}
	.st62{opacity:0.5882;fill:#FFF8EB;}
	.st63{opacity:0.749;fill:#FFF8EB;}
	.st64{fill:none;}
</style>
<g id="Layer_56" class="st0">
	<rect x="420.26" y="-868.89" class="st1" width="4789.74" height="6430"/>
</g>
<g id="Layer_53" class="st0">
	<path class="st2" d="M2507.02-233.64l3.48,1898.9c0.11,61.75,53.87,111.32,119.07,109.78l4409.65-2.35"/>
	<path class="st3" d="M5074.41,1246.48c-2.41,99.33,2.36,198.85,14.27,297.45c136.14,72.48,295.03,98.04,445.95,71.76
		c-9.4-75.6-18.79-151.2-28.19-226.8c-0.44-3.51-0.92-7.17-2.79-10.13c-3.13-4.95-9.21-6.7-14.76-8.09
		C5349.12,1335.48,5212.48,1286.99,5074.41,1246.48z"/>
	<path class="st3" d="M3169.56,99.04c1.91-1.48,3.83-2.97,5.74-4.45"/>
</g>
<g id="window_glass">
	<rect x="773.49" y="327.14" class="st4" width="3720" height="2098.15"/>
	<g class="st5">
		<rect x="792.32" y="351.95" class="st6" width="3700.95" height="2048.53"/>
	</g>
	<polygon class="st7" points="2704.26,-518.61 2704.26,1433.35 6587.52,1433.35 6587.52,1178.39 3282.42,-518.61 	"/>
</g>
<g id="Layer_54">
	<g class="st0">
		<g class="st8">
			<defs>
				<path id="SVGID_1_" d="M2614.18,1459.02c494.89-419.44,826.46-582.5,1452.82-678.42c645.44-98.84,1216.22-16.9,1655.67,99.99
					c355.19,94.47,712.89,315.01,961.52,569.32"/>
			</defs>
			<clipPath id="SVGID_2_">
				<use xlink:href="#SVGID_1_"  style="overflow:visible;"/>
			</clipPath>
		</g>
	</g>
	<path class="st9" d="M746.21,2441.17c143.7-109.18-52.95-193.52,75.07-271.3c363.8-221.01,700.7-328.7,1217.51-399.65
		c719.98-98.84,1356.66-16.9,1846.86,99.99c217.05,51.75,434.93,141.34,633.19,253.58c163.66,92.65-74.65,173.69,11.36,299.74"/>
</g>
<g id="background_screens">
	<path class="st10" d="M833.95,969.3c-0.74,213.55,3.78,427.12,13.55,640.43c184.07-92.17,376.14-166.94,573.09-223.08
		c-29.78-180.17-46.23-362.73-49.16-545.53C1195.19,864.99,1021.08,905.94,833.95,969.3z"/>
	<path class="st11" d="M835.05,605.07c-2.84,70.9-0.51,142.02,6.96,212.55c102.74-32.11,205.48-64.23,308.23-96.34
		c-7.85-47.36-15.7-94.72-23.55-142.08c-0.55-3.29-1.19-6.8-3.4-9.22c-3.27-3.58-8.65-3.52-13.38-3.2
		c-83.81,5.75-167.29,16.75-249.84,32.93C854.61,600.78,847.51,604.82,835.05,605.07z"/>
	<path class="st12" d="M1408.22,530.11c33.25,250.05,56.23,501.44,79.2,752.74c246.83-6.54,493.87-4.08,740.53,7.36
		c-9.29-239.96,11.7-481.18,62.25-715.48C1997.27,534.8,1700.85,522.82,1408.22,530.11z"/>
	<path class="st13" d="M2531,627.94c-0.69,106.84,2.72,213.71,10.23,320.27c0.55,7.82,1.52,16.5,7.2,21.62
		c5.7,5.14,14.07,4.86,21.58,4.3c159.92-11.85,319.84-23.7,479.76-35.55c0.31-110.63,0.62-221.25,0.93-331.88
		C2874.83,599.54,2698.7,599.02,2531,627.94z"/>
	<path class="st14" d="M2933.13,1013.12c5.16,106.32,6.82,212.82,4.96,319.25c154.98,30.16,310.39,57.85,466.17,83.07
		c-1.58-142.33,2.1-284.72,11.03-426.75c-107.53,16.91-216.58,23.25-325.24,18.89C3021.09,1004.83,2945.48,999.71,2933.13,1013.12z"
		/>
	<path class="st9" d="M3615.21,550.84c-0.85,99.36-1.7,198.72-2.54,298.07c243.11-22.63,486.22-45.27,729.33-67.9
		c-5.84-76.91-11.67-153.83-17.51-230.74c-0.35-4.65-0.99-9.88-4.54-12.72c-2.63-2.11-6.18-2.31-9.5-2.43
		c-201.07-7-402.45-3.96-603.24,9.12C3670.42,546.64,3630.66,550.63,3615.21,550.84z"/>
	<path class="st15" d="M3935.02,923.66c4.84,130.13,9.68,260.26,14.52,390.39c187.41,36.02,373.05,103.27,553.9,200.66
		c13.6-151.43,27.19-302.86,40.79-454.3c0.85-9.46,1.62-19.82-1.02-28.09c-2.91-9.12-8.98-12.71-14.52-15.53
		C4341.16,921.48,4146.02,877.15,3935.02,923.66z"/>
</g>
<g id="DRYLAB">
	<g id="desktop">
		<path class="st16" d="M4356.47,2178.23c0.61,6.49-0.73,0.13-1.38-2.55c-1.12-4.68-1.47-9.57-2.03-14.36
			c-0.3-2.52-0.21-5,0.16-7.42c-9.13-29.22-33.33-53.73-60.59-64.56c-38.44-15.27-83.54-8.54-116.85,17.44
			c-22.71,17.71-42.35,40.48-49.64,54.02c-9.18,17.05-18.35,34.11-27.53,51.16c85.67,15.31,172.97-4.29,257.92-23.8
			c0.24-1.98,0.38-3.96,0.47-5.93C4356.81,2180.9,4356.61,2179.55,4356.47,2178.23z"/>
		<path class="st17" d="M3988.49,1615.12c46.86,82.13,69.28,180.56,63.1,277.06c-30.47-0.81-60.93-1.61-91.4-2.42
			c-1.04,4.88,4.14,8.36,8.43,10.15c52.82,22.04,105.64,44.08,158.47,66.12c54.92,22.92,110.11,45.92,167.61,59.33
			c-30.27-29.77-60.55-59.53-90.82-89.3c-4.09-4.03-8.32-8.26-10.34-13.86c-2.75-7.63-0.86-16.21,1.05-24.14
			c13.65-56.67,27.3-113.34,40.95-170.01"/>
		<path class="st18" d="M3606.21,1168.91c30.71,173.79,51.33,349.08,61.76,524.88c287.23,70.47,566.26,169.07,830.85,293.6
			c49.46-239.9,47.75-485.9,45.13-730.04c-319.35-54.5-640.47-109.17-965.23-114.43c36.74,86.4,54.87,179.44,53.02,272.18"/>
		<path class="st19" d="M3687.17,1259.74c23.08,155.87,38.58,313.08,46.42,470.76c215.9,63.2,425.65,151.64,624.54,263.33
			c37.18-215.16,35.89-435.8,33.93-654.77c-240.05-48.88-481.44-97.92-725.56-102.64c27.62,77.49,41.24,160.94,39.86,244.12"/>
	</g>
	<g id="boyd">
		<path class="st20" d="M3346.65,1740.45c-99.21,231.3-94.74,533.62-79.79,747.04c95.95,15.3,435.35-34.13,531.66-46.62
			c-56.58-112.48-78.02-251.87-98.51-351.07c-18.08-87.56-17.28-140.02-21.84-241.76c-1.14-25.47-17.06-101.35-27.69-124.28
			c-21.28-45.9-12.58-55.69-14.99-55.69c-42.82,0-152.07-49.6-177.47-66.13C3458.02,1601.94,3363.5,1701.15,3346.65,1740.45z"/>
		<path class="st21" d="M4056.87,2111.88c-158.95,11.57-221.23,11.73-380.19,23.3c-28.31,2.06-46.65,39.82-38.87,70.02
			c7.77,30.2,34.46,50.71,62.12,57.67s61.83-4.16,89.95-8.31c102.61-15.16,175.45-23.58,275.38-53.49
			C4106.52,2188.73,4067.85,2172.09,4056.87,2111.88z"/>
		<path class="st21" d="M4013.97,2116.57c43.28-6.85,78.88-37.74,116.3-61.56c41.98-26.73,92.45-45.76,139.9-32.51
			c-15.64,4.22-31.28,8.44-46.92,12.66c-17.22,4.65-35.7,10.12-46.75,24.73c45.24-22.22,92.54-44.91,142.48-43.69
			c-36.78,24.27-75.2,45.82-114.86,64.43c49.51,3.52,93.01-34.91,142.13-42.34c-2.28,14.15-15.64,22.83-27.68,29.66
			c-29.49,16.73-58.98,33.45-87.93,50.92c37.3-5.63,85.87-18.33,119.16-14.76c-35.01,18.98-74.49,32.34-111.76,45.36
			c-67.66,23.65-136.65,43.08-206.5,58.17"/>
		<path class="st21" d="M3518.98,1812.83c-8.68-22.35-37.66-34.18-59.5-24.29c-21.84,9.89-32.07,39.47-21,60.73
			c50.56,97.15,101.13,194.3,151.69,291.45c13.84,26.58,28.15,53.79,50.49,73.76c22.35,19.97,54.81,31.46,82.91,21.02
			c28.09-10.43,45.36-47.84,28.61-72.69c-45.08-66.9-64.33-147.35-95.74-221.66C3625.03,1866.84,3574.6,1792.87,3518.98,1812.83z"/>
		<path class="st22" d="M3576.16,2123.33c1.28,1.83,29,46.71,46.76,72c8.27-8.27,60.68-35.25,89.77-52.13
			c11.61-6.74,18.51-15.26,17.67-17.04c-12.05-25.76-30.51-72.39-44.76-98.08c-41.47,14.31-86.39,38.99-120.38,66.72
			C3565.22,2094.81,3564.8,2107.16,3576.16,2123.33z"/>
		<path class="st23" d="M3707.14,2073.89c-79.07,53.08-130.3,68.42-228.87,64.23c-34.31-50.09-74.24-220.71-71.33-271.18
			c2.54-44.03,9.87,60.21,67.7,173.13C3542.92,2173.37,3668.49,1958.05,3707.14,2073.89z"/>
		<path class="st20" d="M3587.12,1726.09c88.18,84.49,102.99,206.98,158.21,315.9c-70.43,64.1-118.86,86.78-216.98,97.09
			c-41.28-44.52-95.91-209.34-110.32-257.79c-14.4-48.44-12.85-104.93,18.29-144.72S3537.81,1678.85,3587.12,1726.09z"/>
		<path class="st23" d="M3514.86,1712.46c63.52,36.67,117.57,89.59,155.58,152.32C3651.01,1785.81,3580.48,1722.03,3514.86,1712.46z
			"/>
	</g>
	<g id="hea">
		<path class="st24" d="M3822.13,1228.04c5.09,32.87,1.87,66.99-9.28,98.32c15.12-13.28,27.26-34.06,28.31-54.15
			s1.75-40.75-6.76-57.92C3831.19,1219.36,3823.97,1223.44,3822.13,1228.04z"/>
		<path class="st21" d="M3441.01,1252.63c0-98.99,88.42-179.23,197.5-179.23c109.08,0,192.5,75.24,192.5,174.23
			c0,98.99-83.42,184.23-192.5,184.23C3529.44,1431.86,3441.01,1351.61,3441.01,1252.63z"/>
		<path class="st21" d="M3457.19,1352.22c15.34,41.84,43.31,79.53,51.05,123.28c8.27,46.73-9.24,96.99-45.05,129.37
			c48.21,36.89,94.92,60.69,157.84,63.19c10.23-37.72,45.18-120.88,47.97-123.39c4.72-4.25,12.17-3.17,18.47-1.82
			c29.15,6.25,52.42,20.55,86.26,18.31c20.96-29.71-0.4-41.81,15.57-58.6c5.96-6.26,15.39-9.51,19.23-17.17
			c3.72-7.44-0.07-17.52-7.88-20.9c8.45-3.58,18.54-10.14,16.24-18.78c-1.2-4.52-5.52-7.47-8.67-11
			c-10.79-12.07-0.86-25.45,14.33-31.69c7.86-3.23,18.61-6.4,17.04-14.52c-0.63-3.23-7.05-13.52-9.49-15.8
			c-16.39-15.33-18.05-40.27-14.31-62.02c3.73-21.75,15.53-58.49,15.53-58.49s-23.76-63.56-42.09-87.87
			c-8.54-11.33-17.47-22.6-28.82-31.32c-17.01-13.06-38.31-19.54-59.22-25.27c-31.49-8.62-63.59-16.18-96.3-17.3
			s-46.28-0.93-93.63,30.82C3433.02,1173.71,3428.53,1274.09,3457.19,1352.22z"/>
		<path class="st22" d="M3762.08,1322.02c-14.52,1.73-29.17,2.46-43.79,2.2c6.91,6.42,17.41,7.19,26.99,7.56s20.06,1.02,27.1,7.32"
			/>
		<path class="st22" d="M3816.93,1447.43c-4.31-1.21-8.98-0.51-13.19,0.98c-4.21,1.49-8.09,3.72-12.1,5.67
			c-9.43,4.57-19.68,7.56-30.16,8.78c9.93,2.65,20.14,4.33,30.42,5.03c2.63,0.18,5.34,0.28,7.85-0.52c3.39-1.08,5.98-3.68,8.43-6.18
			C3812.06,1457.23,3816.04,1453.11,3816.93,1447.43z"/>
		<path class="st22" d="M3514.48,1434.62c8.1,16.42,16.53,33.27,30.36,45.6c11.6,10.34,26.24,16.8,40.61,23.09
			c23.09,10.11,46.19,20.23,69.28,30.34c3.85,1.69,23.91,7.89,23.42,8.25c-20.09,14.77-45.96,95.43-55.13,126.18
			c-8.17,0.28-9.29-23.21-30.89-59.51c-14.85-24.96-29.7-49.93-44.55-74.89c-21.05-35.38-42.69-72.74-43.39-113.55
			C3510.7,1424.3,3515.04,1431.51,3514.48,1434.62z"/>
		<path class="st22" d="M3807.1,1486.97c-8.51,5.62-18.22,9.54-28.34,11.44c-1.3,0.24-2.73,0.52-3.54,1.54
			c-1.09,1.36-0.55,3.31,0.05,4.93c1.36,3.72,2.71,7.43,4.07,11.15c0.46,1.25,1.59,2.79,2.81,2.19c-0.08-6.93,3.16-13.83,8.62-18.33
			C3796.47,1495.17,3804.65,1492.72,3807.1,1486.97z"/>
		<path class="st22" d="M3836.48,1384.83c-4.44,3.72-9.57,6.65-15.08,8.61c-3.92,1.39-8.03,2.3-11.84,3.95
			c-3.81,1.65-7.43,4.19-9.18,7.86c-1.69,3.55-1.43,7.65-1.13,11.55c0.25,3.24,0.78,6.97,3.63,8.71c0.69-5.5,3.71-10.58,7.82-14.44
			c4.1-3.86,9.24-6.59,14.6-8.55c4.34-1.59,9.13-2.87,12.11-6.31C3839.77,1393.47,3840.59,1389.55,3836.48,1384.83z"/>
		<path class="st25" d="M5347.65,243.23c-19.16,11.78-24.72,38.17-16.13,58.42c8.59,20.25,28.47,34.49,49.85,41.92
			c4.33,1.51,10.69,1.88,12.03-2.36c0.8-2.52-1.03-5.22-3.37-6.6c-2.33-1.38-5.11-1.86-7.69-2.74c-9.09-3.1-15.38-11.03-20.29-19.02
			c-6.24-10.14-11.19-21.17-13.03-32.82S5348.61,256.05,5347.65,243.23z"/>
		<path class="st22" d="M3732.43,1327.86c7.43-1.96,15.1-3.11,22.8-3.4c3.19-0.12,6.43-0.1,9.54,0.6c4.15,0.93,7.9,3.01,11.72,4.83
			c6.68,3.19,13.73,5.67,20.97,7.37c-5.09,1.32-10.5,1.46-15.66,0.42c4.46,5.22,10.26,9.36,16.72,11.96
			c-6.5,2.79-14.2,1.11-20.52-2.04c-6.33-3.15-11.84-7.65-18.1-10.91c-9.83-5.11-21.08-6.94-30.3-10.01
			C3732.54,1325.59,3735.97,1325.8,3732.43,1327.86z"/>
		<path class="st24" d="M3586.38,1311.5c-0.24-84.45,4.93-174.06,59.44-238.56c20.7-24.5,57.21-28.17,112.74,8.3
			c60.63,39.81,77.45,108.02,77.45,140.09C3836.01,1311.44,3586.38,1311.5,3586.38,1311.5z"/>
		<path class="st24" d="M3591.18,1297.62c5.47,13.12,17.68,22.55,17.84,35.61c0.25,19.58,11.59,17.52,21.87,31.75
			c15.93-21.16,25.74-42.76,59.35-63.45C3663.68,1294.47,3612.79,1296.41,3591.18,1297.62z"/>
		<path class="st24" d="M3594.3,1301.99c-50.76,23.68-95.68,59.23-130.06,102.92c-29.7-57.83-26.84-133.02-16.15-196.6
			c4.3-25.55,36.73-118.07,95.68-145.66c39.07-18.29,126.15-34.73,214.49,26.29C3762.08,1083.6,3594.3,1301.99,3594.3,1301.99z"/>
		<path class="st24" d="M3401.72,1215.71c-50.26,84.24-48.72,196.73,3.83,279.57c-20.22-43.62-25.56-92.95-22.7-140.94
			C3385.71,1306.34,3396.44,1259.21,3401.72,1215.71z"/>
		<path class="st22" d="M3566.54,1348.49c-8.92-15.1,16.86-51.31,1.28-53.66c-15.57-2.36-31.26,8.79-36.79,23.54
			c-5.52,14.75-2.07,31.82,6.31,45.16c8.38,13.34,21.17,23.36,34.73,31.37c13.56,8.01,28.09,14.26,42.59,21.57
			c0-0.13,0-0.26,0.83-0.29C3591.24,1380.39,3585.66,1370.96,3566.54,1348.49z"/>
		<path class="st24" d="M3604.06,1388.11c-0.48-3.39-4.21-8.81-1.45-10.18c-25.47,70.82-16.7,153.1,23.14,216.95
			c-39.11-33.6-61.71-86.22-57.16-137.58l12.72-83.47l0.9-1.05l21.55,6.03L3604.06,1388.11z"/>
		<path class="st24" d="M3614.41,1047.13c-104.12-1.53-182.48,78.75-218.45,162.17s8.37,293.62,8.37,293.62
			c83.85,39.61,137.68,62.41,221.54,102.02c-91.19-71.05-40.88-141.03-44.8-253.29c4.89-4.04,9.78-8.08,15.11-11.6
			c-0.88-0.01-1.76-0.03-2.64-0.04L3614.41,1047.13z"/>
		<path class="st21" d="M3618.34,1317.02c-10.68-14.28-24.27-26.83-40.6-29.19c-16.33-2.36-32.78,8.79-38.57,23.54
			c-5.79,14.75-2.17,31.82,6.62,45.16c8.79,13.34,23.31,27.45,37.1,36.12c20.76,13.05,43.27,29.89,44.14,29.86
			C3630.84,1391.19,3636.3,1341.04,3618.34,1317.02z"/>
	</g>
</g>
<g id="WETLAB">
	<g id="hair__x28_back_x29_">
		<path class="st26" d="M2490.87,727.63c-20.03,20.16-40.01,40.9-54.31,65.81c-16.53,28.8-24.78,62.11-28.2,95.49
			c-3.42,33.38-2.21,67.07-0.99,100.62c45.58-79.85,92.1-162.41,104.76-254.41c0.43-3.12,0.78-6.48-0.63-9.26
			c-2.11-4.17-7.58-5.41-11.9-3.99S2491.83,726.65,2490.87,727.63z"/>
		<ellipse class="st26" cx="2630.9" cy="893.32" rx="211.5" ry="204.19"/>
		<path class="st26" d="M2712.21,1095.1c-0.94,50.29,19.02,100.65,54.15,136.65c35.13,36,84.99,57.18,135.29,57.47
			c-7.41-6.72-14.81-13.44-22.22-20.17c25.86,10.85,57.84,5.15,78.36-13.96c-26.86,2.56-53.09-21.78-52.55-48.75
			c0.81-40.18-14.76-80.45-42.39-109.64c-27.63-29.19-66.99-46.94-107.15-48.33C2725.2,1047.32,2698.74,1080.54,2712.21,1095.1z"/>
		<path class="st26" d="M2460.89,1138.57c8.2,15.88,16.4,31.76,24.6,47.64c-30.67-57.65-5.88-131.64-31.48-191.71
			c-3.36-7.89-17.62-6.25-19.11,2.19c-5.3,30.09-1.77,61.69,10.05,89.87L2460.89,1138.57z"/>
		<path class="st26" d="M2915.14,1242.05c6.19,5.56,14.59,8.59,22.9,8.27c8.31-0.33,16.45-4.01,22.18-10.04
			c-9.67,4.56-21.25,3.95-31.17-0.05c-9.91-4-18.31-11.11-25.39-19.11C2903.7,1231.08,2911.14,1238.45,2915.14,1242.05z"/>
		<path class="st26" d="M2781.38,1176.56c1.54,30.25,14.54,59.77,35.8,81.35c21.26,21.57,50.59,34.99,80.82,36.98
			c-32.01-7.62-58.54-34.67-65.53-66.82L2781.38,1176.56z"/>
	</g>
	<g id="face">
		<ellipse class="st27" cx="2616.97" cy="900.02" rx="190.72" ry="205.5"/>
		<path class="st27" d="M2521.32,753.52c-18.86,15.91-44.42,23.56-59.66,43.06c-4.37,5.59-7.7,11.95-10.56,18.47
			c-13.49,30.65-17.06,64.77-18.84,98.29c-1.39,26.13-1.75,52.64,4.16,78.1c6.1,26.26,18.67,50.49,32.63,73.44
			c14.78,24.3,31.26,47.53,49.27,69.46c13.16,16.02,27.36,31.53,44.75,42.62c17.39,11.09,38.45,17.45,58.67,13.77
			c17.79-3.24,33.35-13.78,48.11-24.35c55.16-39.52,110.16-87,130.44-152.39c5.45-17.57,8.17-35.88,10.15-54.18
			c2.84-26.21,4.17-52.97-1.39-78.73c-13.6-63.05-66.96-110.71-125.45-135.96c-34.3-14.81-72.03-23.53-108.98-18.48
			C2537.68,731.71,2501.71,751.95,2521.32,753.52z"/>
		<path class="st27" d="M2581.63,1143.2c12.98,69.53,18.02,140.58,14.98,211.28c-9.96,138.71,34.26,108.98,68.3,105.95
			c34.04-3.03,102.21-115.27,129.87-135.64c-28.54-36.74-46.18-81.35-55.72-127.14c-9.53-45.79-11.25-92.9-10.37-139.7"/>
		<path class="st28" d="M2784.45,985.4c-24.76,40.39-24.88,94.96-57.63,128.98c-9.13,9.49-20.27,16.69-31.29,23.81
			c-20.32,13.11-40.63,26.23-60.95,39.34c-7.87,5.08-16.04,10.28-25.26,11.68c-9.22,1.41-19.84-2.03-24.05-10.48
			c-2.64-5.3-2.38-11.53-3.24-17.4s-3.62-12.3-9.22-14.02c-2.38-0.73-5.08-0.53-7.15-1.94c-8.83-6,9.33-22.94,0.81-29.37
			c-3.81-2.88-9.62,0.06-13.83-2.17c-5.9-3.13-3.38-12.4,0.93-17.56c4.3-5.16,10.06-11.05,8.09-17.5c-1.5-4.93-7-7.38-12.04-8.04
			c-5.04-0.66-10.31-0.19-15.05-2.05c-12.85-5.05-14.16-22.71-13.3-36.68c0.69-11.15,1.38-22.3,2.07-33.45
			c0.94-15.21,1.55-31.73-7-44.27c-7.37-10.8-20.19-16.39-32.81-19.27s-25.71-3.61-38.09-7.43c-3.18-0.98-6.56-2.38-8.19-5.32
			c-1.21-2.2-1.21-4.85-1.17-7.36c0.4-25.64,1.17-51.63,8.38-76.2s21.69-47.95,48.71-63.44c31.58-22.5,69.9-35.11,108.47-35.7
			c52.99-0.81,107.54,22.98,137.39,67.46c9.7,14.46,16.64,30.63,23.09,46.86c8.72,21.95,16.69,44.25,22.51,67.17
			c2.78,10.92,5.07,22.03,5.58,33.3c1,22.5-5.4,45.27-17.95,63.84"/>
		<path class="st28" d="M2786.86,954.2c6.18-8.39,10.48-18.2,17.49-25.88c7.02-7.68,18.2-12.98,27.68-8.85
			c5.05,2.2,8.8,6.74,11.36,11.68c7.89,15.23,5.45,34.37-2.6,49.52c-8.06,15.14-21.02,26.94-34.4,37.5
			c-13.38,10.56-27.54,20.3-39.22,32.77"/>
		<path class="st28" d="M2611.12,1348.63c-0.98-44.58-1.95-89.17-2.93-133.75c-0.07-3.09-0.12-6.27,0.93-9.18
			c2.14-5.92,8.19-9.22,13.76-12c15.28-7.62,30.56-15.24,45.84-22.86c4.58-2.28,9.69-4.62,14.59-3.22
			c6.43,1.84,9.53,9.17,11.18,15.75c6.06,24.19,4.21,49.97-2.54,73.97s-18.25,46.38-31.39,67.47
			c-8.18,13.12-18.73,26.94-33.87,29.15C2619.83,1354.95,2611.18,1351.41,2611.12,1348.63z"/>
		<path class="st27" d="M2553.64,1113.81c2.79-7.56,10.93-11.9,18.83-12.76c7.9-0.86,15.81,1.04,23.66,2.32
			c14.28,2.33,28.88,2.63,43.24,0.88c-19,13.86-36.78,31.51-59.7,36.25c-7.33,1.52-15.41,1.48-21.72-2.6
			c-3.13-2.02-5.64-4.93-7.65-8.11c-3.73-5.88-5.87-12.78-6.12-19.76c-0.03-0.79-0.02-1.64,0.4-2.31c0.44-0.69,1.24-1.05,2.01-1.3
			C2551.39,1104.88,2556.99,1106.23,2553.64,1113.81z"/>
		<path class="st27" d="M2568.01,956.95c6.09-6.08,12.57-12.39,20.82-14.64c3.45-0.94,7.05-1.12,10.61-1.41
			c14.79-1.2,29.41-4.43,43.36-9.58c-3.66,6.79-10.83,11.5-18.42,12.09c0.42,3.09,3.54,5.53,6.59,5.13c-2,3.39-6.03,5.03-9.9,5.39
			c-3.87,0.36-7.76-0.32-11.65-0.42c-9.21-0.24-18.18,2.74-26.93,5.68c-8.35,2.81-16.7,5.63-25.06,8.44
			C2562.7,959.33,2570.24,952.52,2568.01,956.95z"/>
	</g>
	<g id="hair__x28_front_x29_">
		<path class="st29" d="M2454.23,1002.41c-11.76,24.12,14.37,165.75,20.77,195.54c-85.04-156.07-76.25-258.42-64.13-322.51
			c12.13-64.1,51.7-123.38,108.4-154.1c6.16-3.34,12.75-6.41,19.74-6.52c6.99-0.11,14.46,3.46,17.02,10.06
			c2.92,7.51-2.13,56.18-3.15,64.16C2531.36,957.33,2454.23,1002.41,2454.23,1002.41z"/>
		<path id="_x3C_Path_x3E_" class="st29" d="M2543.56,719.18c0.63,19.81-6.36,39.51-3.91,59.17c2.38,19.07,13.36,35.85,25.21,50.84
			c35.12,44.42,80.54,80.17,111.73,127.52c22.73,34.51,37.23,74.56,41.91,115.8c6.66-14.31,11.76-29.35,15.21-44.79
			c6.28,19.02,8.81,39.31,7.4,59.32c20.49-42.01,40.63-84.76,50.5-130.56c9.87-45.8,24.01-63.49,12.88-121.35
			c-6.16-32.03-39.28-92.53-68.15-109.93c-31.48-18.97-58.03-31.55-96.97-35.31c-26.57-2.56-73.82,1.26-98.26,12.07
			c-14.85,6.57-26.59,18.71-36.86,31.43c-21.95,27.2-38.99,58.49-50.02,91.83"/>
		<path class="st29" d="M2736.89,873.13c24.3,99.1,26.92,224.5,9.63,324.82c40.14-68.61,61.42-167.97,66.18-245.6
			c3.37-55.08,10.9-170.3-88.75-198.15L2736.89,873.13z"/>
		<path class="st29" d="M2544.77,740.78c-6.52,32.6,3.64,66.84,21.04,95.02c17.4,28.18,41.57,51.29,65.71,73.78
			c24.14,22.49,48.76,44.96,67.39,72.32c16.46,24.17,27.9,51.83,33.38,80.69c4.1-47.57-1.35-95.66-12.45-142.07
			c-12.26-51.24-32.93-102.96-72.71-136.85c-13.53-11.53-28.89-20.64-44.48-29.07c-15.82-8.55-32.51-16.59-50.39-17.77
			C2547.85,736.54,2541.75,738.59,2544.77,740.78z"/>
	</g>
	<g id="clothing">
		<path class="st29" d="M2596.29,1298.82c24.67,22.67,54.65,27.48,78.89,24.25c18.19-2.42,67.38-30.39,90.05-55.06
			c17.14,21.03,193.07,167.39,210.22,188.42c-41.75,47.72-67.42,257.52-118.09,295.63s-274.1-59.13-413.64-40.15
			C2339.51,1530.7,2523.05,1362.26,2596.29,1298.82z"/>
		<path class="st20" d="M2569.6,1316.35c-72.2-11.46-180.19,19.5-243.35,55.33c-6.49,3.68-24.93,138.77-47.64,237.45
			c-17.93,77.88-37.55,192.85-59.87,307.51c-47.69,245.06-25.22,347.96-28.19,523.58c157.26-27.12,355.15,21.91,509.43-10.77
			c113.74-24.1,285.49-15.04,399.23-39.14c16.45-184.22-4.26-212.08,5.19-482.34c8.12-232.08-50.22-518.96-52.54-523.26
			c-13.32-24.76-82.4-49.32-158.87-63.65c-171.95,139.25-182.57,234.59-311.06,401.13
			C2564.58,1622.18,2566.32,1452.91,2569.6,1316.35z"/>
		<path class="st30" d="M2597.14,1289.22c-16.91,181.65-15.2,260.77-15.2,429.88c-59.22-150.09-65.76-244.52-127.71-396.7
			C2511.58,1304.68,2596.64,1288.52,2597.14,1289.22z"/>
		<path class="st30" d="M2763.29,1267.17c-84.04,155.4-139.04,299.11-181.35,455.18c113.21-114.96,219.85-282.63,336.39-398.45
			C2854.73,1296.52,2764.02,1266.72,2763.29,1267.17z"/>
		<path class="st23" d="M3032.02,1416.41c-94.32,91.54-158.33,213.79-179.84,343.45c35.26-92.91,87.57-179.32,153.56-253.63
			C3029.56,1479.41,3036.8,1438.96,3032.02,1416.41z"/>
		<path class="st23" d="M2361.78,1432.7c12.75,74.84,25.5,149.68,38.25,224.53C2365.67,1596.36,2349.81,1512.41,2361.78,1432.7z"/>
		<path class="st23" d="M2584.56,1734.8c-2.29,175.96-4.59,351.92-6.88,527.88C2574.42,2094.14,2571.16,1925.61,2584.56,1734.8z"/>
		<path class="st23" d="M2857.93,1759.83c22.8-69.03,74.5-128.01,139.95-159.65C2963.12,1664.39,2911.62,1719.46,2857.93,1759.83z"
			/>
	</g>
</g>
<g id="BUSINESS__x26__ETHICS">
	<g id="face_1_">
		<path class="st31" d="M1530.15,1457.8c26.79,69.5,44.96,142.31,53.99,216.23c64.13-0.29,127.96-22.61,178.27-62.36
			c-33.04-81.78-73.13-148.74-80.43-239.99"/>
		<path class="st31" d="M1355.24,1266.01c-0.69,37.69-0.13,76.6,14.86,111.19c11.42,26.35,30.57,48.59,44.02,73.96
			c12.94,24.42,25.53,55.67,52.97,59.1c9.25,1.16,18.53-1.38,27.47-4.06c62.43-18.73,123.56-46.53,170.72-91.49
			c47.17-44.96,78.94-109.02,74.18-173.98c-1.13-15.38-4.34-30.88-11.88-44.33c-7.84-13.99-19.91-25.07-32.21-35.36
			c-57.94-48.48-128.57-85.89-204.09-88.8c-25.39-0.98-54.96-2.15-73.7,15.02C1346.4,1152.48,1356.21,1212.65,1355.24,1266.01z"/>
		<circle class="st31" cx="1547.49" cy="1214.99" r="193.32"/>
		<path class="st32" d="M1427.47,1081.3c-34.66,25.12-56.7,66.82-57.9,109.59c-0.2,7.12,0.2,14.51,3.39,20.88
			c2.82,5.65,7.6,10.04,11.48,15.02c16.17,20.75,15.63,50.66,6.06,75.15c-4.14,10.61-9.82,20.7-12.33,31.8
			c-2.51,11.11-1.23,23.98,6.9,31.95c4.93,4.84,11.7,7.27,17.35,11.25c5.65,3.98,10.44,10.9,8.28,17.46
			c-1.87,5.68-8.58,10.52-6.36,16.07c1.73,4.36,7.94,5.25,10.23,9.34c3.01,5.38-2.55,12.25-0.58,18.09
			c1.26,3.73,5.15,5.78,7.94,8.56c9.45,9.38,5.49,25.13,8.11,38.17c3.89,19.42,26.02,33.05,45.13,27.79
			c5.97-1.64,11.4-4.78,16.73-7.93c47.01-27.88,91.39-60.19,132.37-96.35c25.94-22.89,51.87-49.84,57.14-84.02
			c1.33-8.62,0.74-18.67-5.94-24.28c-14.93-12.54-18.77-15.7-36.86-22.99c-13.85-5.58-9.65-8.88-3.63-22.53s-8.02-15.45-3.99-29.82
			c3.96-14.1,0.6-29.46-6.08-42.49c-6.68-13.04-16.48-24.17-26.17-35.16c-10.31-11.69-20.77-23.51-33.68-32.24
			c-20.87-14.11-46.42-19.05-71.19-23.68c-17.11-3.2-34.63-9.72-48.58-12.84C1440.89,1077.11,1436.37,1076.49,1427.47,1081.3z"/>
		<path class="st33" d="M1635.77,1025.47c75.66,39.99,125.37,124.74,123.35,210.29s-57.87,145.71-74.83,158.55
			c-0.18-0.03-3.68-10.17-2.31-13.1c45.6-97.11,19.31-115.38,19.31-115.38c3.52-36.87-34.12,63.35-44.93,39.95
			c-10.81-23.39-24.91-48.58-17.84-73.37C1657.47,1165.94,1655.15,1093.58,1635.77,1025.47z"/>
		<path class="st32" d="M1544.17,1496.47c15.97-5.37,25.69-10.21,35.84-14.89s19.15-11.59,29.31-16.25c1.83-1.1,4.03-1.96,5.99-1.21
			c1.38,0.75,2.24,2.18,2.9,3.59c14.23,31.42,22.95,65.91,19.72,100.14c-3.22,34.23-19.52,68.14-47.74,87.81
			c-2.31,1.72-5.92,2.41-7.5,0.11c-7.74-15.2,0.03-4.87-22.35-104.78"/>
		<path class="st31" d="M1406.88,1414.53c6.5-1.94,12.43-6.43,19.21-6.21c3.16,0.1,6.17,1.23,9.16,2.26
			c14.03,4.83,28.76,7.63,43.58,8.28c-4.43,0.1-8.33,2.72-12.22,4.84c-16.9,9.24-36.98,10.02-56.24,10.59
			c-1.07-4.63-2.13-9.27-3.2-13.9c-0.32-1.4-0.65-2.81-1.32-4.07c-1.14-2.16-3.28-3.95-3.37-6.4
			C1403.57,1409.95,1404.66,1409.98,1406.88,1414.53z"/>
		<path class="st31" d="M1431.79,1273.52c-0.81,0.64-1.69,1.39-1.82,2.42c-0.25,2.11,2.58,3.06,4.7,3.01
			c6.06-0.12,30.34-11.09,56.64-12.17c16.96-0.69,28.96-0.04,41.49-11.48c-22.69-0.32-45.37-0.64-68.06-0.95
			c-2.9-0.04-5.83-0.08-8.64,0.62C1447.16,1257.19,1437.99,1268.64,1431.79,1273.52z"/>
		<path class="st33" d="M1351.16,1161.93c65.95-59.17,156.94-48.1,215.35-11.32s61.96,79.2,50.89,149.2
			c3.22,2.03,15.23,3.1,15.23,3.1s98.95-132.65,70.96-197.54c-33.26-77.11-121.08-124.2-200.89-107.73
			S1336.61,1093.99,1351.16,1161.93z"/>
		<path class="st32" d="M1625.38,1311.93c6.38-11.27,22.92-38.74,32.48-47.47c9.57-8.73,22.85-14.4,35.52-11.7
			c12.67,2.7,22.77,37.51,19.92,50.14c-9.69,43.03-40.27,58.85-80.68,76.52C1636.08,1352.16,1629.53,1340.91,1625.38,1311.93z"/>
	</g>
	<g id="Layer_55">
		<path class="st33" d="M1366.06,1150.69c-8.94,18.76-36.36,21.61-54.3,11.13c-17.94-10.49-28.59-29.74-38.37-48.07
			c14.08,6.19,32.16,1.3,41.19-11.15c-12.4-7.62-30.73-20.09-34.53-34.13c40.58,5.41,109.43-69.75,174.88-90.11
			c48.67-15.14,183.37-26.14,203.83,61.05l-263.79,64.42L1366.06,1150.69z"/>
		<path class="st33" d="M1322.13,1083.65c-6.35,6.26-16.4,7.76-24.95,5.24s-15.71-8.55-21.26-15.52c2.24,9.2,7.86,17.55,15.54,23.09
			c7.69,5.54,17.38,8.23,27.21,7.13c4.18-0.43,8.47-1.52,11.64-4.29c3.16-2.76,4.86-7.53,3.06-11.33
			S1325.72,1082.69,1322.13,1083.65z"/>
	</g>
	<path class="st34" d="M1279.53,1560.54c-139.16,19.95-274.33,67.36-395.46,138.71c-50.91,29.98-77.99,90.33-82.1,149.26
		s11.43,117.35,28.55,173.9c17.13,56.55,11.18,119.75,39.25,172.36c155.9-111.23,331.81-194.32,512.32-246.85
		c-16.03-132.79-32.06-265.57-47.71-398.41C1313.79,1553.99,1293.22,1558.58,1279.53,1560.54z"/>
	<path class="st35" d="M1369.53,1603.9c-171.11,5.85-372.24,64.73-493.8,184.26c-10.76,93.18,17.4,223.93,51.1,311.46
		c143.32-94.87,309.21-168.68,475.65-211.57C1387.64,1799.98,1383.15,1691.91,1369.53,1603.9z"/>
	<path class="st34" d="M1416.78,1984.54c-200.45,36.37-388.8,136.65-530.87,282.65c56.54,5.98,91.22,10.94,168.91,24.13
		c129.13-154.7,279.49-229.18,482.35-260.07C1497.51,2016.82,1457.86,2002.38,1416.78,1984.54z"/>
	<path class="st36" d="M971.54,1438.04c119.84-152.15,304.09-251.8,497.01-268.83"/>
	<path class="st36" d="M1020.09,1449.96c104.87-145.27,273.38-242.81,451.57-261.42"/>
	<path class="st36" d="M1053.52,1466.85c122.59-127.54,280.47-220.81,451.33-266.63"/>
	<g id="clothes">
		<path class="st38" d="M1402.48,2454.22c186.16-0.73,398.74,17,546.7-11.98c13.02-334.49-3.15-458.15-58.84-669.42
			c-10.81-41.01-18.55-83.51-38.16-121.12c-19.61-37.61-69.86-71.28-73.67-69.47c-18.99,9.02-65.79,28.75-84.78,37.76
			c-20.97,9.96-41.62,14.13-68.34,19.27c-22.8,4.39-45.77,4.55-65.58,16.65C1539.99,1668.01,1411.35,2409.46,1402.48,2454.22z"/>
		<path class="st23" d="M1813.7,1619.99c-24.12,19.77-54.98,31.23-73.84,56.49c-10.18,13.63-15.97,30.19-21.6,46.45
			c-11.32,32.68-22.64,65.36-33.96,98.04c15.64-32.7,31.28-65.39,46.92-98.09c9.89-20.67,20.15-41.87,36.64-57.27
			C1786.2,1648.44,1812.26,1638.25,1813.7,1619.99z"/>
		<path class="st23" d="M1840.07,1693.72c39.23,84.76,70,173.43,91.69,264.28c-61.84,88.3-176.27,68.37-235.48,31.87
			c-5.21-94.42,22.09-190.32,76.23-267.85C1787.01,1701.25,1812.91,1689.02,1840.07,1693.72z"/>
		<path class="st32" d="M1859.4,1824.08c-43.46-14.45-95.52,23.35-95.23,69.15c1.42,228.27,5.74,289.88,7.16,518.16
			c0.24,39.29,59.41,61.58,85.52,32.22C1897.22,2182.66,1900.91,2083.15,1859.4,1824.08z"/>
		<path class="st31" d="M1767.94,1938.99c0,23.32-3.46,98.57-1.81,120.12c0.25,3.22,29.9,14.92,55.86,14.05
			c27.47-0.92,64.19-20.23,64.04-22.98c-4.09-70.47-14.52-163.55-32.33-143.47C1835.58,1927.14,1775.47,1942.12,1767.94,1938.99z"/>
		<path class="st38" d="M1852.22,1656.72c39.23,84.76,70,173.43,91.69,264.28c-61.84,88.3-176.27,68.37-235.48,31.87
			c-5.21-94.42,22.09-190.32,76.23-267.85C1799.17,1664.25,1825.07,1652.02,1852.22,1656.72z"/>
	</g>
</g>
<g id="window_frame">
	<g>
		<rect x="460.44" y="2651.76" class="st39" width="350" height="350"/>
		<rect x="830.36" y="2651.76" class="st39" width="350" height="350"/>
		<rect x="460.44" y="3020.45" class="st39" width="350" height="350"/>
		<rect x="830.36" y="3020.45" class="st39" width="350" height="350"/>
		<rect x="460.44" y="3391.35" class="st39" width="350" height="350"/>
		<rect x="830.36" y="3391.35" class="st39" width="350" height="350"/>
		<rect x="1197.87" y="2651.76" class="st39" width="350" height="350"/>
		<rect x="1567.79" y="2651.76" class="st39" width="350" height="350"/>
		<rect x="1197.87" y="3020.45" class="st39" width="350" height="350"/>
		<rect x="1567.79" y="3020.45" class="st39" width="350" height="350"/>
		<rect x="1197.87" y="3391.35" class="st39" width="350" height="350"/>
		<rect x="1567.79" y="3391.35" class="st39" width="350" height="350"/>
		<rect x="1938.76" y="2651.76" class="st39" width="350" height="350"/>
		<rect x="2308.68" y="2651.76" class="st39" width="350" height="350"/>
		<rect x="1938.76" y="3020.45" class="st39" width="350" height="350"/>
		<rect x="2308.68" y="3020.45" class="st39" width="350" height="350"/>
		<rect x="1938.76" y="3391.35" class="st39" width="350" height="350"/>
		<rect x="2308.68" y="3391.35" class="st39" width="350" height="350"/>
		<rect x="2678.9" y="2651.76" class="st39" width="350" height="350"/>
		<rect x="3048.82" y="2651.76" class="st39" width="350" height="350"/>
		<rect x="2678.9" y="3020.45" class="st39" width="350" height="350"/>
		<rect x="3048.82" y="3020.45" class="st39" width="350" height="350"/>
		<rect x="2678.9" y="3391.35" class="st39" width="350" height="350"/>
		<rect x="3048.82" y="3391.35" class="st39" width="350" height="350"/>
		<rect x="3419.53" y="2651.76" class="st39" width="350" height="350"/>
		<rect x="3789.44" y="2651.76" class="st39" width="350" height="350"/>
		<rect x="3419.53" y="3020.45" class="st39" width="350" height="350"/>
		<rect x="3789.44" y="3020.45" class="st39" width="350" height="350"/>
		<rect x="3419.53" y="3391.35" class="st39" width="350" height="350"/>
		<rect x="3789.44" y="3391.35" class="st39" width="350" height="350"/>
		<rect x="4159.64" y="2651.76" class="st39" width="350" height="350"/>
		<rect x="4529.56" y="2651.76" class="st39" width="350" height="350"/>
		<rect x="4159.64" y="3020.45" class="st39" width="350" height="350"/>
		<rect x="4529.56" y="3020.45" class="st39" width="350" height="350"/>
		<rect x="4159.64" y="3391.35" class="st39" width="350" height="350"/>
		<rect x="4529.56" y="3391.35" class="st39" width="350" height="350"/>
	</g>
	<g id="Layer_31">
		<polygon class="st40" points="4571.55,1237.2 2793.74,276.21 2920.19,276.21 4591.34,1156.69 		"/>
		<polygon class="st40" points="4542.85,1090.24 3253.17,407.43 4122.69,407.43 4542.85,632.84 		"/>
		<polygon class="st40" points="825.87,415.87 825.87,2367.82 4479.19,2367.82 4479.19,1533.44 2358.24,415.87 		"/>
	</g>
	<g>
		<path class="st41" d="M4442.26,405.47V2337.9H845.43V405.47H4442.26 M4482.26,365.47H805.43V2377.9h3676.82V365.47L4482.26,365.47
			z"/>
	</g>
	<g>
		<g>
			<path class="st15" d="M4484.69,365.85v2011.68H807.84V365.85H4484.69 M4584.69,265.85h-100H807.84h-100v100v2011.68v100h100
				h3676.85h100v-100V365.85V265.85L4584.69,265.85z"/>
		</g>
	</g>
</g>
<g id="foreground">
	<ellipse class="st15" cx="2638.22" cy="4029.53" rx="1474.84" ry="145"/>
	<g id="Layer_1">
		<g id="Layer_10">
			<path class="st42" d="M1833.93,3070.65c-75.48,60.96-143.52,131.95-201.97,210.7c404.45,6.07,808.9,12.15,1213.35,18.22
				c232.16,3.49,465.79,6.87,694.88-32.59c-62.16-59.8-124.32-119.6-186.48-179.41c-17.77-17.1-36.11-34.57-58.64-43.7
				c-20.66-8.38-43.33-9.11-65.49-9.33c-141.43-1.39-282.43,14.18-423.51,24.6C2494.66,3082.14,2181.54,3080.04,1833.93,3070.65z"/>
			<path class="st43" d="M1634.62,3247.16c-0.88,40.68-1.77,81.36-2.65,122.04c632.06-1.23,1264.12-2.46,1896.19-3.69
				c0.27-40.97,0.54-81.94,0.8-122.91c-588.72,9.12-1177.7,8.38-1766.09-14.61C1713.92,3226.07,1658.54,3226.67,1634.62,3247.16z"/>
			<path class="st44" d="M1709.76,3321.94c50.74,264.73,125.7,460.82,133.55,748.21c37.68,16.69,67.72,5.62,105.87,2.68
				c-1.58-292.27-74.11-515.88-126.54-743.06C1784.32,3322.96,1752.19,3316.15,1709.76,3321.94z"/>
			<path class="st44" d="M3449.28,3320.8c-50.74,264.73-125.7,460.82-133.55,748.21c-37.68,16.69-67.72,5.62-105.87,2.68
				c1.58-292.27,74.11-515.88,126.54-743.06C3374.73,3321.82,3406.85,3315.02,3449.28,3320.8z"/>
			<path class="st45" d="M3653.37,3777.97c3.31,282.64,4.51,565.49,3.58,848.27c38.75,2.16,77.53,0.35,116.24-5.44
				c-0.56-289.86,1.12-579.76,5.04-869.41C3738.28,3744.39,3698.23,3741.77,3653.37,3777.97z"/>
		</g>
		<g id="Layer_2">
			<path class="st46" d="M3122.38,2225.34c-33.21-74.68-88.96-137.15-156.48-175.35c-10.99-6.22-22.51-11.89-34.8-13.56
				c-24.56-3.34-48.52,9.62-68.84,25.05c-38.59,29.3-72.34,74.44-70.7,125.71c0.36,11.24,2.52,22.66,8,32.19
				c5.44,9.47,13.86,16.56,22.98,21.67c21.89,12.28,48.68,13.66,71.53,3.68c11.51-5.03,25.53-12.47,35.04-3.79
				c3.39,3.09,5.28,7.68,8.08,11.42c8.76,11.73,25.08,13.28,38.33,8.83c13.25-4.45,24.67-13.62,37.02-20.49
				C3052.48,2218.48,3103.5,2222.27,3122.38,2225.34z"/>
			<path class="st47" d="M3037.22,2226.83c-43.6-7.82-87.79-15.4-131.8-11.05c-44.01,4.35-88.49,21.95-118.36,57.48
				c-16.01,19.04-27.44,47.47-16.58,70.44c9.3,19.66,31.66,27.7,51.93,27.6c20.27-0.11,40.16-6.4,60.43-7
				c2.33-0.07,4.75-0.04,6.84,1.08c5.64,3.01,5.8,11.45,6.55,18.25c3.27,29.64,37.77,49.22,61.88,35.13
				c14.17-8.28,22.72-24.41,30.54-39.73c12.75-24.96,25.5-49.93,38.24-74.89c8.68-17,17.63-34.37,31.07-47.17
				C3071.39,2244.18,3090.47,2236.38,3037.22,2226.83z"/>
			<path class="st46" d="M3091.63,2221.68c-33.04,22.74-66.47,45.83-93.2,76.92c-26.73,31.09-46.45,71.6-46.05,114.23
				c0.16,17.36,4.54,36.21,17.35,46.51c15.33,12.33,38.07,7.73,52.82-5.42s23.14-32.84,29.97-52.24c3.17-9,6.22-18.31,11.98-25.62
				s14.99-12.26,23.48-9.6c1.61,12.49,18.29,16.25,27.69,8.91s12.9-20.61,15.31-32.95
				C3136.07,2316.3,3136.83,2283.74,3091.63,2221.68z"/>
			<path class="st46" d="M3138.88,2191c-12.22-55.35-24.52-111.68-21.46-168.51s23.78-115.28,66.01-148.7
				c10.27-8.13,22.85-14.86,35.27-12.01c19.79,4.53,28.56,29.9,31.04,51.81c6.08,53.8-4.98,107.95-15.98,160.81
				c20.31-24.28,52.94-35.42,82.3-28.09c21.57,5.38,42.7,23.58,43.54,47.72c0.71,20.56-13.48,38.61-29.86,48.78
				s-35.16,14.61-52.65,22.26C3246.49,2178.44,3219.73,2202.02,3138.88,2191z"/>
			<path class="st48" d="M3176.09,2231.59c33.55-21.7,67.37-43.54,104.19-57.56c36.82-14.01,77.3-19.82,114.95-8.76
				c5.82,1.71,11.81,4,15.86,8.87c7.65,9.2,5.24,24.63-2.3,33.93c-7.55,9.3-18.75,13.87-29.6,17.64
				c-38.06,13.26-77.72,21.06-117.63,23.14c13.01,8.78,28.77,11.05,42.84,17.6c14.06,6.55,27.6,20.49,26,37.09
				c-2.15,22.35-28.54,30.82-48.97,28c-37.94-5.23-73.95-33.1-85.96-72.73c-8.55-28.19-7.83-64.74-31.57-79.24
				C3149.97,2171.07,3132.73,2174.21,3176.09,2231.59z"/>
			<path class="st46" d="M3110.02,2210.52c42.55-26.65,81.37-60.63,126.26-82.23c50.66-24.38,108.03-31.86,162.53-21.22
				c8.46,1.65,17.13,3.86,24.05,9.43c17.04,13.71,16.5,43.77,3.58,62.07c-12.92,18.3-34.27,26.91-55.02,31.48
				s-42.24,6.06-62.04,14.23c-3.16,1.31-6.42,2.9-8.45,5.86c-5.39,7.87,1.47,19.32,9.67,23.38c8.2,4.05,17.85,4.46,25.32,9.93
				c15.16,11.1,12.79,38.42-0.61,51.94s-33.16,16.2-51.4,15.54c-19.29-0.7-38.46-4.39-56.95-10.44"/>
			<path class="st47" d="M3164.49,2219.4c-5.34-58.76-17.44-116.78-35.92-172.28c-14.27-42.85-33.03-85.27-63.58-116.37
				c-30.54-31.1-74.89-49.11-115.05-36.58c-28.18,8.79-51.66,31.8-65.88,59.77s-19.72,60.53-19.25,92.51
				c0.12,8.61,0.73,17.49,4.3,25.18c6.41,13.8,21.1,20.82,35.2,22.48c14.09,1.66,28.3-0.92,42.48-0.86
				c33.93,0.13,67.58,16.13,90.76,43.18c11.39,13.29,20.73,29.42,35.3,38.27c19.22,11.68,42.79,8.03,64.69,5.7
				c7.33-0.78,14.93-1.34,21.85,1.38C3173.84,2187.47,3180.68,2205.06,3164.49,2219.4z"/>
			<path class="st50" d="M3104.1,2235.32c-19.19-43.83-40.72-90.45-79.81-113.67c-16.65-9.89-35.45-14.77-54.27-17.26
				c-34.31-4.53-71.58-0.49-98.89,22.62c-27.32,23.11-39.76,69.37-19.78,100.15c8.06,12.41,20.18,21,32.75,27.57
				c15.93,8.33,33.06,13.89,50.57,16.43c-8.16,14.33-0.3,34.69,13.21,42.87c13.52,8.18,30.33,6.63,45.05,1.48
				s28.33-13.57,42.99-18.9C3050.57,2291.28,3067.28,2289.31,3104.1,2235.32z"/>
			<path class="st50" d="M3061.92,2298.48c-40.1-26.64-89.27-36.57-135.46-27.36c-17.56,3.5-35.22,10.02-48.36,23.2
				s-20.82,34.15-15.43,52.72c3.57,12.32,12.23,22.1,21.61,29.98c30.07,25.24,70.69,34.82,107.63,25.4
				C3028.84,2392.99,3061.36,2364.74,3061.92,2298.48z"/>
			<path class="st49" d="M3126.91,2211.96c-25.92-29.48-52.63-60.39-64.07-99.29c-11.43-38.9-2.56-88.18,29.96-108.41
				c12.34-7.68,26.73-10.49,40.91-11.41c14.26-0.93,29.44,0.22,41.27,8.97c20.08,14.85,23.4,45.13,24.59,71.57
				c1.17,25.95,1.95,52.91-7.36,76.81c-7.96,20.45-22.6,36.79-33.88,55.29C3147.05,2223.99,3150.95,2239.3,3126.91,2211.96z"/>
			<path class="st49" d="M3103.13,2140.45c-7.44-16.89-20.1-30.99-35.43-39.44c-7.17,9.49-12.23,20.85-14.64,32.86
				c-1.82,9.04-1.98,19.12,2.62,26.9c2.87,4.86,7.31,8.33,11.73,11.51C3087.4,2186.64,3125.97,2192.29,3103.13,2140.45z"/>
			<path class="st49" d="M3189.74,2078.68c-2.79-2.39-5.58-4.78-8.37-7.17c2.18-19.5,18.46-35.95,36.44-36.83
				c3.56-0.17,7.25,0.23,10.42,2.03c5.62,3.2,8.54,10.1,10.39,16.72c8.07,28.9,2.58,61.89-14.27,85.86
				c-12.12,17.23-29.14,29.35-44.59,43.04s-30.17,30.42-34.57,51.6"/>
			<path class="st49" d="M3189.6,2219.18c20.76-28.42,32.6-66.06,60.74-85.5c15.69-10.84,34.57-14.5,53-16.92
				c17.39-2.28,36.93-2.98,50.25,9.43c17.27,16.09,14.93,47.77,0.92,67.29c-14,19.52-36.05,29.68-57.33,38.33
				C3279.65,2238.95,3261.39,2245.71,3189.6,2219.18z"/>
			<path class="st49" d="M3191.52,2181.23c7.67-15.88,15.33-31.76,23-47.64c3.81-7.9,7.75-15.98,13.85-21.94s14.89-9.45,22.62-6.51
				c8.8,3.35,13.64,13.8,15.39,23.8c3.5,19.94-1.85,40.8-11.25,58.32C3245.72,2204.77,3232.52,2219.44,3191.52,2181.23z"/>
			<path class="st49" d="M3150.64,2228.56c-14.72-13.83-30.62-26.16-47.44-36.77c-6.75-4.26-14.78-8.35-22.06-5.32
				c-4.02,1.67-7.12,5.33-9.23,9.42c-9.7,18.74,1.46,44.06,18.94,54.03S3129.44,2258.08,3150.64,2228.56z"/>
			<path class="st49" d="M3242.59,2205.45c19.49-25.02,39.63-50.23,65.23-67.48s57.91-25.65,86.21-14.51
				c5.35,2.1,10.52,4.89,15,8.72c10.4,8.87,16.39,22.8,18.77,36.97c5.41,32.24-6.86,66.1-27.62,89.77
				c-20.76,23.68-49.09,38.1-78.18,46.22c-17.74,4.95-36.55,7.73-54.3,2.78C3249.97,2302.96,3233.48,2288.97,3242.59,2205.45z"/>
			<path class="st49" d="M3273.61,2284c14.49,3.41,29.53,2.58,44.24,4.65c14.7,2.07,30.02,7.77,38.85,20.77
				c-7.23,15.21-21.33,26.29-36.84,28.95C3304.35,2341.02,3287.82,2335.19,3273.61,2284z"/>
			<path class="st49" d="M3233.71,2114.42c14.66-2.82,29.31-5.65,43.97-8.47c5.63-1.08,11.5-2.16,16.99-0.4
				c7.64,2.45,13.17,10.22,15.2,18.62s1.01,17.36-1.02,25.76C3305.3,2164.56,3298.57,2178.43,3233.71,2114.42z"/>
			<path class="st49" d="M3199.37,2243.98c-6.13-36.13-12.46-72.88-28.12-105.41c-1.33-2.76-2.79-5.56-5.09-7.4
				c-2.07-1.65-4.63-2.35-7.13-3c-16.22-4.2-32.92-7.43-49.51-5.6c-16.59,1.83-33.22,9.27-43.82,23.31
				c-16.33,21.63-14.54,55.24-0.02,78.35s39.32,36.6,64.54,41.87C3155.44,2271.38,3181.4,2269.34,3199.37,2243.98z"/>
			<path class="st49" d="M3192.11,2178.24c14.28-32.14,30.69-63.16,49.05-92.73c5.91-9.52,12.27-19.15,21.23-25.2
				c7.85-5.31,17.18-7.48,26.39-8.12c10.51-0.74,21.24,0.43,31.11,4.44c28.78,11.7,45.84,47.04,44.55,80.54
				s-18.09,64.48-40.03,87.94c-21.94,23.46-48.85,40.48-75.44,57.25"/>
			<path class="st49" d="M3273.26,2003.77c-4.37,9.83-8.74,19.65-13.11,29.48c7.04,3.6,15.82,0.2,21.09-6.05
				c5.27-6.25,7.68-14.72,9.27-23.03C3288.18,2002.02,3284.02,2003.22,3273.26,2003.77z"/>
			<path class="st49" d="M3315.52,2023.65c3.61-4.08,7.21-8.17,10.82-12.25c1.02,0.73,2.03,1.46,3.05,2.19
				c0.83,4.29-1.15,9.05-4.66,11.18c-3.51,2.13-8.26,1.47-11.17-1.56c-0.55-0.57-1.03-1.22-1.38-1.96
				c-1.84-3.99,1.46-8.95,5.42-10.06C3321.57,2010.1,3325.71,2011.64,3315.52,2023.65z"/>
			<path class="st49" d="M3116.86,1970.59c-2.38-11.61-4.76-23.22-7.14-34.83c3.43-2.35,7.01-4.68,11.02-5.33
				c4-0.65,8.56,0.79,10.67,4.55c1.68,2.99,1.53,6.76,1.11,10.23C3131.3,1955.07,3128.2,1964.65,3116.86,1970.59z"/>
			<path class="st49" d="M3113.87,1941.64c-5.84-4.32-14.5-3.75-19.43,1.77c-4.93,5.52-5,15.52,0.22,20.7s14.83,3.76,18.16-3.03
				C3115.95,1954.72,3113.33,1946.94,3113.87,1941.64z"/>
			<path class="st49" d="M3399.65,2044.89c7.71-9.43,16.42-17.88,25.89-25.15c3.03,14.3-6.17,30.32-19.29,33.57
				c-2.1,0.52-4.34,0.74-6.38-0.02c-6.06-2.27-6.77-12.17-2.79-17.65C3401.08,2030.17,3407.7,2028.06,3399.65,2044.89z"/>
			<path class="st49" d="M3380.57,2083.31c6.54-4.57,14.41-6.81,22.16-6.32c-2.28,11.46-12.93,20.19-23.65,19.39
				c-4.29-3.95-2.69-12.39,2.09-15.6S3392.34,2078.71,3380.57,2083.31z"/>
			<path class="st49" d="M3444.91,2053.47c-1.1,6.09-2.2,12.17-3.31,18.26C3445.52,2067.48,3444.22,2059.11,3444.91,2053.47z"/>
			<path class="st49" d="M2839.13,2253.47c-16.07-5.23-33.12-6.85-49.78-4.73C2797.02,2265.01,2817.91,2271.83,2839.13,2253.47z"/>
			<path class="st49" d="M2840.4,2226.01c-10.48-6.11-22.28-9.53-34.16-9.9c3.44,6.51,7.33,13.47,13.74,16.22
				C2826.39,2235.07,2835.55,2230.53,2840.4,2226.01z"/>
			<path class="st49" d="M2843.34,2365.9c-7.39,3.7-14.79,7.39-22.18,11.09c-0.25,2.38-0.5,4.77-0.75,7.15
				c5.52,2.63,12.18,3.29,17.43,0.07C2843.09,2380.99,2846.08,2373.18,2843.34,2365.9z"/>
			<path class="st49" d="M2875.26,2388.44c-9.03,3.48-16.94,10.33-22.11,19.14c4.41,4.22,11.39,4.83,16.37,1.45
				C2874.49,2405.64,2877.06,2398.53,2875.26,2388.44z"/>
			<path class="st49" d="M3012.74,2077.31c-7.35-17.42-18.25-33.05-31.69-45.41c-8.67,7.27-6.92,23.16,0.81,31.6
				C2989.58,2071.94,3000.99,2074.72,3012.74,2077.31z"/>
			<path class="st49" d="M3031.91,2068c-0.21-9.08,1.94-18.21,6.15-26.05c3.18,6.81,3.57,15.1,1.06,22.23
				c-0.63,1.77-1.57,3.62-3.21,4.27c-3.46,1.36-6.32-3.79-5.73-7.75C3030.77,2056.74,3033.1,2053.18,3031.91,2068z"/>
			<path class="st49" d="M3043.17,2416.47c-10.39,1.54-20.33,6.5-28.2,14.06c6.38,2.11,12.98,4.25,19.6,3.39
				c6.62-0.86,13.3-5.56,14.69-12.67C3046.91,2420.86,3044.87,2418.78,3043.17,2416.47z"/>
			<path class="st49" d="M3053.87,2442.24c-1.3,7.99-2.61,15.98-3.91,23.97c-3.14-4.15-3.5-10.54-0.84-15.08
				C3051.77,2446.59,3057.24,2444.27,3053.87,2442.24z"/>
			<path class="st49" d="M2897.72,2061.62c-10.85-13.87-23.84-25.74-38.26-34.95c-5.9,9.13-2.21,22.68,5.61,29.88
				S2883.56,2065.94,2897.72,2061.62z"/>
			<path class="st49" d="M2906.18,2037.14c-7-11.33-13.08-23.33-18.17-35.81c9.24,0.33,19.24,4.96,22.68,14.33
				S2906.72,2038.02,2906.18,2037.14z"/>
			<path class="st49" d="M2923.14,2051.47c5.27-2.85,10.54-5.7,15.81-8.56c1.28,1.06,2.56,2.13,3.83,3.19
				c-2.82,8.58-11.19,14.56-19.52,13.96C2922.74,2053.67,2926.03,2047.09,2923.14,2051.47z"/>
		</g>
		<g id="Layer_3">
		</g>
		<path class="st51" d="M3169.59,2238.6c-53.54-32.48-119.88-38.7-177.72-16.68c27.49,9.61,45.96,39.25,73.29,49.39
			c12.8,4.75,26.62,4.84,40.12,4.35c26.74-0.97,56.77-6.01,72.49-29.64c1.1-1.65,2.15-3.6,1.82-5.6c-0.45-2.74-3.16-4.19-5.53-5.21
			C3169.83,2233.38,3165.6,2231.56,3169.59,2238.6z"/>
		<path class="st51" d="M3178.89,2226.03c-0.29-27.45-12.55-54.47-32.38-71.35c-10.3-8.77-22.3-14.78-34.18-20.72
			c-15.57-7.78-31.14-15.56-46.71-23.34c19.59,23.21,25.77,56.21,41.09,82.97c4.05,7.08,8.82,13.8,14.92,18.85
			C3137.83,2225.89,3160.05,2225.32,3178.89,2226.03z"/>
		<path class="st51" d="M3213.17,2267.79c-9.13-25.75-28.29-47.06-51.71-57.5c-24.31-10.84-51.76-10.09-76.61-19.37
			c19.16,16,37,33.88,53.23,53.36c7.4,8.88,14.96,18.47,25.35,22.42C3178.25,2272.33,3195.03,2265.04,3213.17,2267.79z"/>
		<path class="st51" d="M3189.03,2222.52c-11.73-31.85-23.63-66.82-14.48-99.67c6.38-22.89,22.1-41.02,37.32-58.24
			c-3.11,27.27-1.67,55.14,4.23,81.85c2.13,9.64,4.86,19.25,5.07,29.17s-2.49,20.47-9.46,26.84
			C3204.85,2208.75,3194.41,2210.57,3189.03,2222.52z"/>
		<path class="st51" d="M3179.87,2239.59c7.96-24.44,18.22-47.97,30.58-70.12c2.35-4.22,4.82-8.44,8.18-11.75
			c4.51-4.44,10.3-6.95,15.97-9.31c26.87-11.16,54.19-21.03,81.86-29.57c-21.13,7.06-35.32,28.17-47.42,48.35
			c-12.1,20.18-24.85,41.88-45.11,51.52C3210.75,2224.98,3195.92,2225.31,3179.87,2239.59z"/>
		<path class="st51" d="M3180.85,2233.51c42.75-18.76,89.12-37.85,133.77-25.46c17.6,4.88,35.48,14.61,53.02,9.48
			c-15.73,8.77-31.64,17.62-48.79,22.26c-17.48,4.73-35.68,4.94-53.69,5.13c-19.12,0.2-38.9,0.25-56.42-8.1
			C3200.51,2232.89,3193.07,2227.22,3180.85,2233.51z"/>
		<path class="st51" d="M3145.78,2273.34c-23.52-0.64-47.11,1.42-70.24,6.13c-4.35,0.89-8.75,1.89-12.71,4.05
			c-6.12,3.34-10.73,9.17-15.03,14.98c-13.33,18-25.29,37.2-35.72,57.34c27.66-15.62,56.6-31.6,87.74-32.12
			c9.32-0.15,18.81,1.08,27.84-1.42C3145.85,2317.26,3158.71,2295.52,3145.78,2273.34z"/>
		<path class="st51" d="M3189.67,2240.46c-13.04,12.32-32.8,18.08-39.04,35.63c-2.14,6-2.29,12.6-2.41,19.04
			c-0.21,11.14-0.42,22.28-0.63,33.42c-0.15,7.8-0.27,15.79,2.01,23.19c4.29,13.92,16.1,23.14,27.23,31.4
			c-1.63-14.29-3.24-28.93-0.28-42.96c6.75-32.04,36.08-55.6,38.04-88.41c0.27-4.47-0.26-9.56-3.48-12.34
			c-2.26-1.95-5.32-2.3-8.19-2.43C3196.07,2236.69,3189.21,2237.16,3189.67,2240.46z"/>
		<path class="st51" d="M3182.6,2274.93c-21.88-2.26-42.45-12.39-64.15-16.18c-21.7-3.79-47.19,0.76-59.38,20.71
			c10.39-0.01,20.78-0.02,31.16-0.03c4.57,0,9.22,0,13.62,1.37c5.01,1.56,9.43,4.79,13.78,7.92c11.77,8.46,24.52,16.75,38.61,17.25
			C3170.32,2306.47,3185.7,2296.22,3182.6,2274.93z"/>
		<path class="st51" d="M3213.27,2251.77c19.39-6.48,38.91-12.45,58.56-17.92c4.67-1.3,9.47-2.58,14.26-2.06
			c3.18,0.35,6.24,1.47,9.27,2.59c16.22,6,32.44,11.99,48.66,17.99c-13.72,5.59-29.26,2.42-43.34,6.83
			c-11.01,3.45-20.34,11.26-29.9,18.15c-12.27,8.85-26,16.59-40.71,16.74c-14.71,0.15-30.35-9.39-33.91-24.96
			C3194.17,2260.31,3197.59,2257.01,3213.27,2251.77z"/>
		<path class="st51" d="M3178.47,2227.2c36.63,2.51,76.39,6.41,103.38,33.57c17.51,17.62,26.95,42.57,35.87,66.68
			c-20.12-15.4-43.95-24.98-68.41-27.51c-18.09-1.87-37.25-0.17-53.46-9.14c-12.64-6.99-22.16-20.37-25.24-35.47
			c-1.3-6.37-1.45-13.26,1.03-19.2C3174.11,2230.18,3179.68,2225.5,3178.47,2227.2z"/>
		<path class="st52" d="M3204.44,2349.11c-9.35-24.4-24.01-46.36-42.43-63.54c-20.75-19.35-45.71-32.36-70.35-45.15
			c15.75,10.22,23.9,29.95,29.72,48.91s10.61,39.12,22.71,54.15c17.63,21.9,46.26,27.72,72.64,32.25
			C3214.98,2366,3213.26,2356.26,3204.44,2349.11z"/>
		<path class="st52" d="M3206.89,2361.72c-8.55-23.65-17.22-48.02-17.11-73.45c0.11-25.42,11.1-52.49,32.33-62.96
			C3206.27,2264.99,3223.15,2313.71,3206.89,2361.72z"/>
		<path class="st52" d="M3187.66,2333.17c13.52-17.66,22.02-39.75,37.39-55.51c20.55-21.08,49.91-27.56,77.64-33.16
			c-22.07,11.11-30.1,40.16-44.68,61.4c-18.88,27.51-51.58,42.67-82.91,39.19C3177.9,2325.3,3191.29,2307.74,3187.66,2333.17z"/>
		<path class="st52" d="M3143.85,2374.61c9.92-16.18,20.65-31.76,32.12-46.66c3.2-4.16,6.5-8.31,10.54-11.49
			c7.24-5.72,16.32-7.92,25.22-8.82c33.01-3.34,66.31,9.46,99.12,4.32c-36.28,38.13-87.24,59.08-137.55,56.54
			C3162.46,2367.95,3150.58,2365.75,3143.85,2374.61z"/>
		<path class="st52" d="M3218.95,2340.87c-40.2-19.53-81.43-39.36-125.32-42.79c-21.11-1.65-42.31,0.55-63.29,3.61
			c17.22,6.52,35,13.4,48.28,27.03c7.2,7.39,12.78,16.49,19.96,23.9C3123.8,2378.62,3165.6,2378.29,3218.95,2340.87z"/>
		<path class="st52" d="M3117.15,2327.65c-18.06-0.05-36.14-5.61-54-2.67c-23.14,3.81-42.19,21.16-59.93,37.82
			c32.84-5.4,61.23,24.9,93.66,32.7C3127.86,2402.95,3162.39,2387.18,3117.15,2327.65z"/>
		<path class="st52" d="M3191.99,2339.27c-38.44,9.67-79.1,20.66-106.72,51.4c-10.98,12.23-19.38,27.21-24.36,43.46
			c14.03-13.22,32.53-19.15,50.63-23.47c18.1-4.32,36.74-7.51,53.33-16.53C3181.46,2385.11,3196.07,2368.82,3191.99,2339.27z"/>
		<path class="st52" d="M3180.38,2366.96c39.11-28.66,89.01-39.16,135.07-28.42c-42.82,1.09-71.3,56.44-114.03,59.59
			C3182.98,2399.5,3158.4,2383.06,3180.38,2366.96z"/>
		<path class="st53" d="M3151.93,2375.89c66.9,88.63,88.46,215.57,55.12,324.49c-17.13,55.96-47.18,105.94-71.78,158.48
			c-24.6,52.54-44.25,110.81-37.93,169.42c7.18,0.17,14.36,0.34,21.55,0.51c-0.04-54.18,19.88-106.05,43.8-153.52
			c23.92-47.48,52.25-92.51,71.49-142.46C3281.39,2610.29,3267.31,2461.97,3151.93,2375.89z"/>
		<path class="st52" d="M3207.02,2346.61c14.86,62.51,25.3,126.28,31.18,190.54c-5.47-16.65-10.94-33.3-16.41-49.94
			c-8.39-25.54-16.97-51.47-31.66-73.35c-7.17-10.68-15.68-20.2-24.15-29.69c-10.37-11.6-20.75-23.21-31.12-34.81"/>
		<path class="st52" d="M3251.36,2600.64c-5.83-53.69,25.51-103.76,60.7-141.8c35.19-38.04,76.56-71.17,100.45-118.53
			c14.6-28.94,21.85-62.38,19.79-95.34c10.47,36.4,1.21,76.94-17.34,109.28c-18.55,32.33-45.52,57.75-72.96,81.39
			c-16.94,14.59-34.49,29.01-47.04,48.17C3264.64,2530.11,3268.65,2595.64,3251.36,2600.64z"/>
		<path class="st53" d="M3266.84,2553.53c25.99-24.84,60.77-34.83,92.46-49.84c31.7-15.01,63.77-39.57,70.85-76.48
			c4.23-22.05-1.16-45.85,5.99-66.98c4.38-12.94,13.1-23.61,18.23-36.22c7.54-18.52,6.8-39.63,5.63-59.86
			c-1.23-21.28-2.87-42.92-10.1-62.72c-7.23-19.81-20.97-37.83-39.57-44.34c10.51,25.47,15.51,53.64,14.47,81.55
			c-0.31,8.32-1.31,17.09-5.91,23.74c-4.6,6.65-13.91,10.05-20.12,5.21c-2.79-2.17-4.73-5.74-7.97-6.95
			c-9.35-3.48-12.53,12.78-13.19,23.53c-2.25,36.64-36.47,58.77-59.79,85.24c-33.47,37.98-46.9,91.33-59.14,142.31
			C3251.33,2542.26,3245.13,2574.28,3266.84,2553.53z"/>
		<path class="st52" d="M3247.23,2597.63c-0.96-59.06,23.98-117.99,65.78-155.49c15.92-14.28,34.06-25.56,49.17-40.86
			c12.25-12.4,22.33-27.33,29.56-43.76c4.83,17.08,2.21,36.49-6.95,51.31c5.43,1.42,11.4,0.16,15.94-3.39
			c4.68,22.14-11.95,42.52-28.45,56.38c-27.39,23.01-58.45,40.97-83.23,67.25C3264.27,2555.35,3246.02,2593.47,3247.23,2597.63z"/>
		<path class="st52" d="M3386.87,2209.43c5.92,10.69,11.84,21.38,17.76,32.07c1.27-0.87,2.55-1.74,3.82-2.61
			c5.02-10.39,4.86-23.55-0.42-33.78s-15.51-17.2-26.25-17.89C3383.87,2201.06,3389.95,2214.15,3386.87,2209.43z"/>
		<path class="st52" d="M3389.18,2155.61c4.07,1.82,8.57,2.47,12.93,1.87c-1.41-1.95-3.1-4.07-5.37-4.23
			S3392.36,2156.52,3389.18,2155.61z"/>
		<path class="st52" d="M3463.3,2350.35c-10.49,15.45-15.84,34.97-14.86,54.17c6.38-6.66,12.12-14.04,17.1-21.99
			C3471.34,2373.26,3475.64,2359.45,3463.3,2350.35z"/>
		<path class="st52" d="M3359.74,2276.41c-3.57,6.97-5.12,15.15-4.38,23.1C3363.87,2297.5,3368.66,2285.16,3359.74,2276.41z"/>
		<path class="st52" d="M3477.86,2304.71c-2.27,1.24,1.92,3.69,4.24,2.56"/>
	</g>
	<g id="Layer_4">
		<path class="st54" d="M2605.11,3034.65c26.23-63.44,55.11-128.7,105.91-172.92c67.58-58.83,170.25-68.94,247.14-24.32
			s123.01,141.06,111.02,232.14c-4.23,32.16-15.31,63.75-34.64,89.15c-20.39,26.78-49.05,45.6-79.27,58.78
			c-67.87,29.62-144.2,32.49-216.99,21.5c-29.38-4.44-58.98-11.25-84.86-26.45c-44.22-25.97-74.08-76.84-76.2-129.82
			c-0.94-23.39,3.47-47.59,16.03-66.96C2605.81,2996.37,2627.33,2982.61,2605.11,3034.65z"/>
		<path class="st54" d="M3003.9,2968c29.37-22.72,49.3-61.14,84.71-70.61c19.33-5.17,39.86-0.37,58.52,6.99
			c11.81,4.66,23.34,10.4,33.3,18.48c39.24,31.82,44.7,96.74,18.19,140.6c-26.51,43.86-78.12,66.72-127.81,66.29
			c-22.46-0.19-45.84-5.05-63.38-19.69c-12.97-10.83-21.73-26.12-29.38-41.51c-13.18-26.51-24.11-56.47-18.23-85.69
			S2994.69,2927.99,3003.9,2968z"/>
		<path class="st54" d="M3114.35,3081.09c22.64-1.15,45.54,3.97,65.75,14.7c-1.96,20.21-11.32,40.79-28.42,50.5
			c-17.1,9.71-42.11,4.46-50.42-13.92c-6.83-15.12-0.22-34.57,12.95-44.08C3127.39,3078.79,3145.38,3078.48,3114.35,3081.09z"/>
		<path class="st54" d="M2635.88,2997.51c-35.68-67.5-106.31-117.2-184.53-129.84c-78.22-12.64-162.1,12.08-219.16,64.59
			c-28.26,26.01-50.33,58.99-58.55,95.6c-14.39,64.09,16.34,132.49,67.41,176.39c51.07,43.9,119.62,65.76,187.98,73.13
			c79.19,8.55,160.47-1.08,235.06-27.83c62.43-22.4,123.34-57.17,190-54.54"/>
		<path class="st54" d="M2185.21,3026.33c-95.35,24.78-204.97-4.52-287.77,50.7c-21.5,14.34-41.41,40.65-32.21,65.48
			c7.45,20.11,30.04,28.4,50.19,33.17c49.37,11.69,99.95,16.65,150.36,21.58c91.46,8.94,182.91,17.89,274.37,26.83"/>
		<path class="st54" d="M2243.82,3100.68c-27.78,6.26-59.66-7.63-83.76,8.08c-19.14,12.47-24.86,38.42-27.91,61.75
			c-1.75,13.34-3.06,27.59,2.58,39.7c5.53,11.88,16.87,19.64,28.41,25.08c25.64,12.08,56.4,15.21,81.67,2.3
			C2270.08,3224.69,2287.33,3193.43,2243.82,3100.68z"/>
		<path class="st54" d="M1891.05,3186.14c-10.94-2.55-22.62-1.49-32.97,3c-2.8,9.68,5.4,20.05,14.92,21.95
			c3.87,0.77,7.94,0.49,11.68-0.82c5.06-1.77,9.65-5.69,11.3-10.99c1.64-5.3-0.32-11.89-5.08-14.42
			C1886.12,3182.32,1879.21,3185.34,1891.05,3186.14z"/>
		<path class="st55" d="M2293.71,3136.12c17.06-13.83,35.89-25.26,55.84-33.91c13.19,14.83,17.7,38.03,9.47,56.36
			c-8.23,18.33-29.53,29.68-48.21,24.25c-18.68-5.44-31.4-28.27-25.22-47.46c4.47-13.87,18.01-23.97,32.03-23.89
			c5.66,0.03,11.21,1.56,16.68,3.07C2339.59,3116,2346.15,3119.4,2293.71,3136.12z"/>
		<path class="st55" d="M2295.12,2976.58c-6.06,8.73-8.66,20.57-2.38,29.15c6.28,8.58,19.12,11.53,28.51,6.55
			c73.78-39.11,155.71-62.75,238.98-68.95c12.78-0.95,14.18-21.63,4.07-29.5c-10.12-7.87-24.28-6.71-37.08-5.96
			C2514.43,2908.63,2375.34,2860.96,2295.12,2976.58z"/>
		<path class="st55" d="M2385.53,3060.75c-9.84,4.1-19.21,9.43-27.85,15.84c3.32,13.08,14.21,23.71,26.94,26.31
			c3.52,0.72,7.25,0.84,10.59-0.53c5.6-2.3,8.95-8.27,11.23-14.09c1.75-4.48,3.14-9.4,2.04-14.1c-1.81-7.72-9.51-12.1-16.64-14.86
			C2389.86,3058.56,2386.69,3058.67,2385.53,3060.75z"/>
		<path class="st55" d="M2403.13,3151.1c5.29-1.7,11.46,0.09,15.14,4.41c-1.21,5.04-6.28,8.93-11.19,8.04
			c-4.91-0.89-8.46-6.96-6.51-11.75C2402.51,3147.02,2409.8,3145.76,2403.13,3151.1z"/>
		<path class="st54" d="M2728.21,2985.14c-23.57-26.84-50.84-50.13-80.72-68.92c-11.57-7.28-23.89-14.01-37.31-15.7
			c-23.92-3.02-46.87,10.36-66.03,25.59c-23.78,18.89-45.93,43.35-51.47,74.01c-5.7,31.51,7.53,64.06,27.36,88.54
			c30,37.03,76.42,59.65,122.84,57.41c46.42-2.25,91.5-30.23,113.54-72.93c8.84-17.12,14.05-37.32,9.26-56.11
			C2760.89,2998.24,2743.9,2982.11,2728.21,2985.14z"/>
		<g id="Layer_5" class="st0">
			<path class="st56" d="M2689.48,2189.7c-8.98-0.81-17.99-1.33-27.01-1.56c-6.98-0.18-15.24,0.48-19.18,6.55
				c-3.46,5.32-1.84,12.39,0.92,17.92c6.58,13.2,20.91,23.33,35.3,20.06c6.19-1.41,11.79-5.12,16.33-9.75
				c5.07-5.18,9.1-12.17,8.51-19.35C2703.76,2196.39,2696.96,2190.38,2689.48,2189.7z"/>
			<path class="st56" d="M2662.43,2275.11c4.65,4.99,8.56,10.7,11.56,16.9c-3.81,0.18-7.78,0.32-11.2-1.28
				c-3.42-1.6-6.07-5.52-5.01-9.31c0.94-3.36,4.57-5.49,7.94-5.39C2669.09,2276.13,2672.14,2278.05,2662.43,2275.11z"/>
			<path class="st56" d="M2698.47,2340.81c5.53-10.85,14.07-20.14,24.32-26.44c7.07,4.89,14.79,10.87,15.57,19.69
				c0.42,4.72-1.31,9.45-3.58,13.67c-4.25,7.91-11.21,15.12-19.83,16.38c-3.44,0.5-6.94,0.02-10.18-1.1
				c-10.18-3.54-17.57-14-17.49-25.15c0.08-11.15,7.81-22.13,18.25-25.56C2715.96,2308.86,2728.2,2313.46,2698.47,2340.81z"/>
			<path class="st56" d="M2765.24,2346.34c0.32,2.72,0.64,5.44,0.96,8.16c3.33-1.88,4.83-6.6,3.18-9.99
				C2767.73,2341.12,2764.42,2339.34,2765.24,2346.34z"/>
			<path class="st56" d="M3284.73,2255.39c14.7-0.42,29.39,0.45,43.87,2.59c0.68,10.73-2.89,21.83-9.74,30.24
				c-2.21,2.71-4.98,5.27-8.34,5.79c-2.94,0.45-5.79-0.74-8.48-1.91c-10.86-4.73-23.39-12.17-23.07-24.43
				c0.16-6.33,3.97-12.78,2.01-18.71c-1.11-3.36-3.87-5.77-5.96-8.57c-2.09-2.8-3.54-6.78-1.71-9.9c3.07-5.23,10.74-2.52,15.53,0.78
				c4.74,3.27,9.49,6.53,14.23,9.79c5.02,3.46,10.24,7.13,13.02,12.66C3318.85,2259.24,3318.22,2267.19,3284.73,2255.39z"/>
			<path class="st56" d="M3333.86,2317.95c-6.52-5.44-15.19-8.11-23.72-7.32c-3.52,6.46-2.3,14.97,2.41,20.27
				c4.71,5.3,12.43,7.35,19.41,5.73c4.14-0.96,8.18-3.24,10.55-6.9c2.76-4.26,2.79-10.15,0.08-14.25
				S3334.58,2309.28,3333.86,2317.95z"/>
			<path class="st56" d="M3177.43,2359.65c5.6,4.19,9.81,10.29,11.82,17.15c-4.1,4.76-10.92,6.1-16.91,5.19
				c-7.27-1.11-14.32-5.56-16.85-12.6c-2.54-7.04,0.82-16.44,7.88-18.95c4.12-1.46,8.62-0.5,12.61,1.04
				c4.9,1.88,9.7,4.86,12.01,9.66C3190.31,2365.95,3189.18,2372.85,3177.43,2359.65z"/>
			<path class="st56" d="M3208.8,2409.78c2.48,2.47,3.21,6.61,1.77,9.94c-3.77,0.56-7.22-3.18-6.99-7.07
				c0.23-3.89,3.56-7.26,7.3-8.04c5.05-1.05,10.43,2.56,11.43,7.68C3223.3,2417.41,3219.75,2423.16,3208.8,2409.78z"/>
		</g>
		<path class="st54" d="M2990.76,3120.26c-15.78,8.2-32.89,17.87-38.81,34.64c-5.93,16.77,9.12,39.98,25.86,33.96
			c35.12-12.63,74.54-12.93,109.85-0.84c76.57,26.2,165.34,13.64,231.64-32.78c9.22-6.46,9.46-22.24,0.43-28.97
			c-44.48-33.17-97.26-55.11-152.15-63.26C3167.71,3068.35,3009.91,3110.3,2990.76,3120.26z"/>
		<path class="st54" d="M3376.58,3180.36c-44.25-21.46-99.66-17.86-140.77,9.13c-7.78,5.11-6.34,19.15,2.32,22.58
			c45.59,18.02,96.31,22.84,144.47,13.73c10.41-1.97,18.27-12.91,16.8-23.41S3386.7,3185.27,3376.58,3180.36z"/>
		<path class="st54" d="M2240.01,2944.67c-75.29,36.47-150.59,72.94-225.88,109.42c-13.45,6.51-13.89,27.64-3.28,38.16
			c10.61,10.53,27.53,11.91,42.06,8.45c14.54-3.46,27.76-10.94,41.77-16.13c14.01-5.19,30-7.97,43.65-1.9
			c34.62,15.38,78.88,4.99,103.05-24.18S2267.51,2983.89,2240.01,2944.67z"/>
		<path class="st55" d="M3206.01,2985.19c-6.14,12.49-3.82,28.64,5.59,38.9c34.49,37.56,68.97,75.12,103.46,112.69
			c-45.43-2.05-90.85-4.1-136.28-6.15c-18.71-0.84-32.59-23.7-24.72-40.69C3168.13,3059.55,3182.21,3029.16,3206.01,2985.19z"/>
		<path class="st55" d="M2737.25,2931.9c-3.16,5.69-6.31,11.39-9.47,17.08c43.45,47.77,77.41,104.13,99.36,164.85
			c1.4,3.87,8.51,2.84,8.75-1.26c1.38-22.94,6.78-45.63,15.89-66.72c5.65-13.1,0.69-28.66-7.91-40.05s-20.39-19.86-30.73-29.68
			c-10.34-9.83-19.68-22.03-20.91-36.25c-1.12-13.03-12.09-24.55-25.05-26.32C2754.25,2911.78,2743.27,2921.04,2737.25,2931.9z"/>
		<path class="st55" d="M2031.46,3067.76c-26.66,7.71-51.68,21.05-72.93,38.9c11.93-3.25,23.86-6.5,35.79-9.75
			C2004.39,3086,2017.8,3078.22,2031.46,3067.76z"/>
		<path class="st55" d="M3099.45,3032.13c-7.55-9.68-15.49-19.68-26.55-25s-26.17-4.37-33.5,5.48c-7.33,9.84-0.17,27.69,12.06,26.61
			c27.86-2.47,56.61,8.12,76.2,28.08c7.42,7.56,21.86,3.05,26.16-6.63c4.31-9.68,0.32-21.44-6.9-29.2
			C3139.69,3023.71,3129.81,3019.09,3099.45,3032.13z"/>
		<path class="st55" d="M3137.44,3109.54c1.28-16.78-23.82-27.87-35.37-15.62s1,36.65,17.67,34.39c12.16-1.65,24.32-3.3,36.48-4.94
			c0.46,4.06,0.91,8.12,1.36,12.18C3155.15,3128.67,3152.71,3121.8,3137.44,3109.54z"/>
		<path class="st57" d="M2146.23,2940.95c-0.62,0.39-1.25,0.78-1.87,1.17"/>
		<path class="st57" d="M2076.39,2939.26c0.26,1.4,0.52,2.8,0.78,4.19"/>
		<g>
			<path class="st57" d="M1940.81,2940.9c4.28,53.4,21.89,105.73,50.99,150.73c1.48,2.29,3.85,3.93,6.55,4.3
				c7.21,1,10.5-7.26,7.29-12.06c-29.09-43.51-49.09-93.04-60.4-143.67C1944.63,2937.48,1940.58,2938.12,1940.81,2940.9z"/>
			<path class="st57" d="M1945.28,2970.7c-11.16-33.15-35.13-61.81-65.78-78.66c-5.8,19.84-1.2,42.41,11.89,58.4
				C1904.49,2966.43,1925.72,2975.38,1945.28,2970.7z"/>
			<path class="st57" d="M1971.48,3025.68c-5.81-34.68,7.48-71.96,33.93-95.14C2013.32,2964.73,2000.22,3002.9,1971.48,3025.68z"/>
			<path class="st57" d="M1950.09,2952.62c-2.16-20.06,2.26-40.78,12.42-58.21c3.76,16.6,2.88,34.23-2.53,50.37
				c-1.86,5.54-6.42,10.1-11.96,11.95C1947.91,2955.68,1947.8,2954.63,1950.09,2952.62z"/>
		</g>
		<g>
			<path class="st57" d="M2790.42,2754.08c-9.5,62.58-26.04,142.53-36.07,206.42c-0.71,4.5,0.68,9.32,3.47,12.1l2.44,2.44
				c3.43,3.43,8.01,1.43,9.14-3.98c15.55-74.65,39.74-173.24,32.53-249.01c-0.43-4.57-5.01-5.4-5.87-1.08
				C2793.83,2732.24,2792.04,2743.43,2790.42,2754.08z"/>
			<path class="st57" d="M2793.05,2749.78c-20.92-14-34.8-36.68-42.79-60.55c-7.99-23.87-10.66-49.14-13.27-74.17
				c24.69,11.53,44.96,32.24,55.95,57.18C2803.92,2697.17,2805.53,2726.11,2793.05,2749.78z"/>
			<path class="st57" d="M2802.96,2777.94c18.57-5.5,34.7-20.5,46.94-38.29c12.24-17.79,21.06-38.36,29.65-58.8
				c-32.14,8.18-61.27,34.91-76.24,69.97C2799.5,2759.75,2798.97,2770.41,2802.96,2777.94z"/>
		</g>
	</g>
	<g id="Layer_6">
		<path class="st58" d="M2637.08,2600.77c4.11,41.68-3.03,84.5-20.4,122.28c-16.63,36.18-42.05,67.13-61.12,101.97
			c-19.07,34.84-31.74,76.89-19.7,114.99c-24.39-1.91-46.26,18.46-70.71,17.87c-2.74-0.07-5.7-0.5-7.67-2.5
			c-1.62-1.64-2.26-4.04-2.79-6.33c-6.44-27.63-6.85-58.5-23.98-80.61c-18.13-23.4-49.25-29.62-74.62-43.95
			c-44.89-25.36-70.73-75.64-92.62-123.77"/>
		<path class="st59" d="M2388.05,2630.84c-33.87,14.7-67.17,30.81-99.81,48.27c-6.7,3.59-13.84,7.72-16.98,14.87
			c-4.07,9.27,0.44,20.82,8.24,26.97c7.8,6.15,18.02,7.87,27.79,7.94c17.8,0.13,35.27-4.5,52.51-9.09
			c80.58-21.49,161.43-43.07,238.6-75.43c20.14-8.44,42.56-20.76,46.78-42.98c-57.23-17.11-118.82-8.61-176.07,8.44
			C2411.88,2626.88,2357.15,2652.22,2388.05,2630.84z"/>
		<path class="st58" d="M2286.36,2699.76c-20.74-5.23-35.9-24.85-42.54-46.02c-6.64-21.16-6.22-43.93-5.74-66.19
			c0.14-6.35,0.44-13.19,4.2-18.18c2.82-3.74,7.14-5.82,11.32-7.72c65.21-29.64,134.85-46.94,204.06-64.09
			c27.38-6.79,54.77-13.57,82.15-20.36c14.89-3.69,30.47-7.38,45.32-3.55c16.55,4.28,29.94,17.6,38.33,33.09
			s12.37,33.11,15.61,50.58c2.75,14.8,4.78,31.23-2.87,44.03c-8.08,13.52-24.26,18.61-39.05,22.57
			c-106.99,28.66-214.98,53.24-323.68,73.69c-6.19,1.16-12.73,2.29-18.64,0.05c-5.97-2.26-10.35-7.59-14.02-13
			c-21.16-31.1-28.12-72.26-18.43-109.04c0.82-3.13,1.86-6.39,4.18-8.54c2.36-2.19,5.65-2.85,8.76-3.45
			c38.85-7.4,77.41-16.46,115.55-27.13"/>
		<path class="st60" d="M2239.6,2567.1c-44.96-15.64-75.51-67.91-68.5-117.2c0.62-4.36,1.61-8.91,4.46-12.14
			c3.03-3.42,7.58-4.72,11.88-5.85c100.15-26.35,202.53-44.1,300.43-78.56c27.22-9.58,59.28-19.82,82.71-2.37
			c18.83,14.03,24.11,40.73,25.98,64.94c2.36,30.72-1.77,67.87-27.83,81.92"/>
		<path class="st58" d="M2197.97,2437.91c-12.85,3.57-26.68-4.27-34.29-15.28c-7.61-11.01-10.38-24.57-12.99-37.72
			c-4.01-20.28-6.48-45.16,9.67-57.97c6.15-4.87,13.98-6.94,21.57-8.88c56.28-14.41,112.55-28.82,168.83-43.23
			c44.8-11.47,89.67-22.96,135.29-30.55c20.65-3.44,44.35-5.24,59.99,8.74c12.1,10.82,15.74,28.06,18.64,44.08
			c3.6,19.84,6.41,42.61-6.42,58.12"/>
		<path class="st58" d="M2512.53,2257.77c8.3-0.53,15.35-7.31,18.62-15.29s3.37-16.97,2.68-25.62c-1.63-20.35-7.5-40.47-18.13-57.61
			c-3.34-5.38-7.24-10.56-12.43-13.98c-6.32-4.16-14-5.37-21.47-5.72c-25.03-1.19-49.64,6.08-73.68,13.42
			c-85.13,25.97-169.78,53.62-253.91,82.93c-5.8,2.02-11.91,4.27-15.8,9.2c-4.56,5.79-5,13.9-4.95,21.4
			c0.11,14.29,1.26,28.58,3.44,42.69c0.89,5.76,2.01,11.64,4.98,16.58c9.08,15.09,29.9,14.73,46.85,12.59"/>
		<path class="st58" d="M2496.93,2159.47c19.86-58.02-0.38-131.38-45.38-132.93c-29.6-1.02-58.69,7.18-86.9,16.14
			c-82.23,26.12-162.48,59.6-235.67,105.09c-5.11,3.17-10.35,6.57-13.54,11.64c-3.7,5.88-4.14,13.15-4.48,20.07
			c-0.59,12.08-1.12,24.56,3.15,35.89c7.08,18.8,28.18,31.3,48.19,28.55"/>
		<path class="st58" d="M2477.23,2051.1c-9.75-27.23-20.41-55.78-42.87-74.55c-19.62-16.4-46.21-23.2-72.01-23.19
			c-25.8,0.01-51.14,6.27-75.87,13.41c-36.16,10.44-71.72,22.83-106.46,37.11c-19.3,7.93-38.99,16.9-52.69,32.36
			c-15.11,17.05-21.17,40.33-21.27,62.89c-0.1,22.56,5.23,44.78,10.53,66.75"/>
		<g id="Layer_8">
			<path class="st61" d="M2380.3,1612.45c-38.04,10.32-75.35,23.54-111.54,39.54c-2.53,1.12-5.23,2.41-6.57,4.91
				c-3.53,6.57,4.84,13.15,11.83,15.02c38.15,10.21,78.03-4.98,113.86-22.04c17.53-8.35,36.48-19.08,42.55-38.17
				C2413.96,1604.31,2396.12,1608.16,2380.3,1612.45z"/>
			<path class="st61" d="M2369.72,1676.33c-15.53,3.76-30.23,11.2-42.67,21.61c19.66,6.22,42.06,2.04,58.43-10.91
				c1.6-1.27,3.22-2.72,3.86-4.7c1.91-5.89-6.04-10.42-11.83-8.97C2371.73,1674.79,2366.83,1679.24,2369.72,1676.33z"/>
			<path class="st61" d="M2426.36,1787.25c-37.39,11.95-73.78,27.32-108.61,45.87c6.49,10.83,18.99,16.46,31.19,17.45
				s24.35-1.99,36.25-4.96c13.98-3.48,27.96-6.96,41.94-10.43c10.63-2.65,21.46-5.37,30.83-11.24c9.37-5.87,17.24-15.5,18.44-26.83
				c0.21-2,0.18-4.18-0.91-5.84c-1.12-1.71-3.1-2.52-4.98-3.17C2447.02,1779.92,2420.6,1781.31,2426.36,1787.25z"/>
			<path class="st62" d="M2354.15,2428.35c-38.04,10.32-75.35,23.54-111.53,39.54c-2.53,1.12-5.23,2.41-6.57,4.91
				c-3.53,6.57,4.84,13.15,11.83,15.02c38.15,10.21,78.03-4.98,113.86-22.04c17.53-8.35,36.48-19.08,42.55-38.17
				C2387.81,2420.21,2369.96,2424.06,2354.15,2428.35z"/>
			<path class="st62" d="M2343.57,2492.23c-15.53,3.76-30.23,11.2-42.67,21.61c19.66,6.22,42.06,2.04,58.43-10.91
				c1.6-1.27,3.22-2.72,3.86-4.7c1.91-5.89-6.04-10.42-11.83-8.97C2345.58,2490.69,2340.67,2495.13,2343.57,2492.23z"/>
			<path class="st62" d="M2400.2,2603.15c-37.39,11.95-73.78,27.32-108.61,45.87c6.49,10.83,18.99,16.46,31.19,17.45
				s24.35-1.99,36.25-4.96c13.98-3.48,27.96-6.96,41.94-10.43c10.63-2.65,21.46-5.37,30.83-11.24c9.37-5.87,17.24-15.5,18.44-26.83
				c0.21-2,0.18-4.18-0.91-5.84c-1.12-1.71-3.1-2.52-4.98-3.17C2420.86,2595.82,2394.45,2597.21,2400.2,2603.15z"/>
			<path class="st63" d="M2212.73,1996.16c-38.16,0.07-75.59,21.44-95.06,54.26c-19.47,32.82-20.27,75.91-2.04,109.43
				c-19.38,27.19-9.75,70.33,19.36,86.7c-11.32,30.12-5.11,66.13,15.63,90.72c-10.97,33.43-1.35,72.71,23.82,97.29
				c-8.17,51.29,14.71,106.29,59.14,130.85c-17.15,43.66-11.37,95.62,14.97,134.44c6.83,0.45,13.66,0.9,20.48,1.36
				c13.11,61.55,59.21,115.04,118.15,137.11c47.94,17.95,79.44,72,71.41,122.56c6.48-1.1,12.96-2.21,19.44-3.31
				c9.64-57.57-43.46-104.94-92.73-136.24s-106.37-68.27-111.46-126.42c-38.84-33.62-48.43-96.33-21.42-140.02
				c-44.52-19.1-73.52-69.27-67.83-117.38c4.01-1.87,8.01-3.74,12.02-5.62c-35.75-16.6-46.96-70.24-20.85-99.76
				c-35.15-17.05-44.13-71.38-16.33-98.83c-4.84,2.09-9.67,4.18-14.51,6.27c-24.3-21.1-29.02-61.25-10.27-87.42
				c-16.2-32.65-14.97-73.34,3.16-104.95C2155.97,2015.57,2190.48,1993.98,2212.73,1996.16z"/>
		</g>
	</g>
</g>
<g id="REFERENCES">
	<g id="Layer_58">
	</g>
</g>
</svg>
