<?xml version="1.0" encoding="utf-8"?>
<!-- Generator: Adobe Adobe Illustrator 24.2.0, SVG Export Plug-In . SVG Version: 6.00 Build 0)  -->
<svg version="1.1" xmlns="http://www.w3.org/2000/svg" xmlns:xlink="http://www.w3.org/1999/xlink" x="0px" y="0px" width="612px"
	 height="792px" viewBox="0 0 612 792" style="enable-background:new 0 0 612 792;" xml:space="preserve">
<style type="text/css">
	.st0{fill:#9AB5D5;stroke:#9AB5D5;stroke-miterlimit:10;}
	.st1{fill:#91C2DD;stroke:#91C2DD;stroke-miterlimit:10;}
	.st2{fill:#A7C4DE;stroke:#A7C4DE;stroke-miterlimit:10;}
	.st3{fill:#9DA0C7;stroke:#9DA0C7;stroke-miterlimit:10;}
	.st4{fill:#8AB1D4;stroke:#8AB1D4;stroke-miterlimit:10;}
	.st5{fill:#8CA1CD;stroke:#8CA1CD;stroke-miterlimit:10;}
	.st6{fill:#8B97C4;stroke:#8B97C4;stroke-miterlimit:10;}
	.st7{fill:#6A7CB9;stroke:#6A7CB9;stroke-miterlimit:10;}
	.st8{fill:#8182BC;stroke:#8182BC;stroke-miterlimit:10;}
	.st9{fill:#A2AED4;stroke:#A2AED4;stroke-miterlimit:10;}
	.st10{fill:#B5D6E8;stroke:#B5D6E8;stroke-miterlimit:10;}
	.st11{fill:#B6C2DE;stroke:#B6C2DE;stroke-miterlimit:10;}
	.st12{fill:#9DC2DD;stroke:#9DC2DD;stroke-miterlimit:10;}
	.st13{fill:#95A9D1;stroke:#95A9D1;stroke-miterlimit:10;}
	.st14{fill:#96A1CD;stroke:#96A1CD;stroke-miterlimit:10;}
	.st15{fill:#B2ABD1;stroke:#B2ABD1;stroke-miterlimit:10;}
	.st16{fill:#ABB2D6;stroke:#ABB2D6;stroke-miterlimit:10;}
	.st17{fill:#96A9D1;stroke:#96A9D1;stroke-miterlimit:10;}
	.st18{fill:#718FC3;stroke:#718FC3;stroke-miterlimit:10;}
	.st19{fill:#7671AF;stroke:#7671AF;stroke-miterlimit:10;}
	.st20{fill:#AEB1D5;stroke:#AEB1D5;stroke-miterlimit:10;}
	.st21{fill:#848AC2;stroke:#848AC2;stroke-miterlimit:10;}
	.st22{fill:#7473B3;stroke:#7473B3;stroke-miterlimit:10;}
	.st23{fill:#837FB2;stroke:#7671AF;stroke-miterlimit:10;}
	.st24{fill:#5C629D;stroke:#5C629D;stroke-miterlimit:10;}
	.st25{fill:#6868A5;stroke:#6868A5;stroke-miterlimit:10;}
	.st26{fill:#526199;stroke:#526199;stroke-miterlimit:10;}
	.st27{fill:#B5B2D2;stroke:#B5B2D2;stroke-miterlimit:10;}
	.st28{fill:#ADAECF;stroke:#ADAECF;stroke-miterlimit:10;}
	.st29{fill:#D6D4E8;stroke:#D6D4E8;stroke-miterlimit:10;}
	.st30{fill:#D6DDE9;stroke:#D6DDE9;stroke-miterlimit:10;}
	.st31{fill:#8B88C1;stroke:#8B88C1;stroke-miterlimit:10;}
	.st32{fill:#AAC5DE;stroke:#AAC5DE;stroke-miterlimit:10;}
</style>
<g id="Layer_1">
	<path class="st0" d="M248.73,281.56c-0.22-0.01-0.44-0.03-0.66-0.05c-0.91-0.08-1.83-0.19-2.74-0.31
		c-2.41,0.27-4.83,0.51-7.24,0.68c-4.66,0.32-9.35,0.27-14.02,0.07l27.56,30.25l0.88-30.44
		C251.24,281.72,249.98,281.66,248.73,281.56z"/>
	<path class="st1" d="M277.92,281.72c-6.63,0.52-13.23,0.97-19.82,1.01l-0.88,34.83l40.16-37
		C290.89,280.87,284.41,281.21,277.92,281.72z"/>
	<path class="st2" d="M315.67,376.1l14.13-95.97c-7.59,0.56-15.18,1.33-22.77,0.79l-41.58,32.96l47.35,62.28
		C313.75,376.14,314.71,376.12,315.67,376.1z"/>
	<polygon class="st3" points="271.87,330.41 215.19,373.34 306.33,376.16 	"/>
	<path class="st4" d="M341.07,375.55l38.82-9.32l-30.98-86.87c-4.09,0.09-8.18,0.2-12.27,0.36c-1.02,0.04-2.03,0.09-3.05,0.15
		l-14.15,96.15C326.66,375.88,333.86,375.71,341.07,375.55z"/>
	<path class="st5" d="M353.03,279.28l20.25,56.78l22.96-57.33C381.84,279.06,367.43,279.03,353.03,279.28z"/>
	<path class="st6" d="M218.77,281.53c-0.15,0.21-0.29,0.42-0.44,0.64c-0.15,0.34-0.26,0.57-0.33,0.72
		c-0.54,1.13-1.15,2.21-1.64,3.42c-0.34,0.85-1.01,3.46-0.32,0.72c-0.22,0.89-0.57,1.75-0.83,2.62c-0.95,3.19-1.72,6.49-2.37,9.83
		c-0.33,1.67-0.61,3.34-0.89,5.03c0,0.01,0,0.01,0,0.02c-0.01,0.05-0.01,0.09-0.02,0.15c-0.09,0.62-0.18,1.24-0.26,1.87
		c-0.55,4.14-0.99,8.29-1.15,12.48c-0.05,1.42-0.08,2.85-0.08,4.27c0,0.47,0.01,0.94,0.01,1.4c0,0.07,0.01,0.14,0.01,0.22
		c0.12,2.15,0.22,4.28,0.42,6.41c0.22,2.36,0.51,4.7,0.86,7.01c0.15,0.97,0.31,1.94,0.48,2.91c0.09,0.48,0.17,0.96,0.26,1.44
		c0.01,0.03,0.12,0.62,0.2,1.03c0.1,0.46,0.24,1.13,0.27,1.26c0.02,0.11,0.05,0.21,0.07,0.32l38.99-25.4L218.77,281.53z"/>
	<path class="st7" d="M417.67,351.21c0.04-0.28,0.27-1.86,0.4-2.76c0.09-0.76,0.33-2.77,0.37-3.1c0.31-2.89,0.56-5.78,0.74-8.68
		c0.36-5.85,0.44-11.72,0.18-17.58c-0.15-3.23-0.41-6.45-0.75-9.67c-0.11-0.99-0.22-1.98-0.33-2.97c-0.06-0.31-0.24-1.5-0.37-2.28
		c-0.87-5.23-2.05-10.41-3.57-15.48c-0.76-2.53-1.6-5.03-2.52-7.49c-0.28-0.74-1.85-4.35-0.42-1.12c-0.22-0.5-0.44-1-0.66-1.5
		c-3.31-0.07-6.61-0.03-9.92,0.04l-24.37,60.85l41.08,12.54C417.58,351.75,417.63,351.48,417.67,351.21z"/>
	<path class="st8" d="M416.79,356.54l-40.31-12.48l8.31,21.73l28.54,8.04C414.61,368.09,415.79,362.34,416.79,356.54z"/>
	<path class="st9" d="M263.79,197.71c-0.89,0.83-1.67,1.75-2.48,2.62c-3.76,4.06-7.28,8.26-10.56,12.57
		c-0.18,0.23-0.34,0.47-0.52,0.7l13.05,12.6l0.95-28.93C263.16,198.29,262.04,199.35,263.79,197.71z"/>
	<path class="st10" d="M271.13,191.49c-0.88,0.65-1.75,1.3-2.62,1.96l-0.58,17.76l29.28-20.9c-4.73,0.18-9.46,0.37-14.19,0.65
		C279.04,191.2,275.08,191.41,271.13,191.49z"/>
	<path class="st10" d="M314.59,272.09l13.42-82.15c-7.21,0.48-14.42,1.14-21.64,0.68l-39.51,28.21l44.99,53.31
		C312.76,272.12,313.68,272.11,314.59,272.09z"/>
	<path class="st11" d="M305.78,272.23l-35.49-42.06l1.64,42.18C283.21,272.47,294.5,272.4,305.78,272.23z"/>
	<path class="st12" d="M338.72,271.62l36.89-7.97l-29.43-74.36c-3.89,0.08-7.77,0.17-11.66,0.31c-0.96,0.03-1.93,0.08-2.89,0.13
		l-13.45,82.3C325.02,271.9,331.87,271.75,338.72,271.62z"/>
	<path class="st11" d="M376.43,198.33c-2.32-3.14-5.21-6.18-7.85-9.32c-6.16,0.05-12.33,0.1-18.49,0.2l19.24,48.61l13.53-30.45
		C380.78,204.33,378.63,201.32,376.43,198.33z"/>
	<path class="st3" d="M241.6,226.15c-1.45,2.32-2.84,4.67-4.18,7.03c-0.52,0.92-1.08,1.86-1.57,2.8c0.31-0.59,0.65-1.23-0.04,0.12
		c-0.26,0.51-0.53,1.01-0.78,1.52c-4.98,9.77-9.07,19.79-12.49,29.96l44.93-32.03l-19.52-18.85
		C245.71,219.81,243.6,222.96,241.6,226.15z"/>
	<path class="st13" d="M248.14,271.76c6.61,0.27,13.22,0.44,19.83,0.54l-0.89-32.22l-41.1,30.63
		C233.37,271.1,240.76,271.46,248.14,271.76z"/>
	<path class="st14" d="M400.65,243.31c-3.39-7.91-6.74-15.83-10.12-23.74c-0.03-0.05-0.04-0.09-0.07-0.13
		c-0.21-0.38-0.42-0.75-0.65-1.13c-0.55-0.93-1.12-1.85-1.68-2.77c-0.88-1.43-1.78-2.86-2.7-4.27l-13.1,29.47l30.53,8.4
		C402.39,247.14,401.48,245.24,400.65,243.31z"/>
	<path class="st15" d="M405.36,259.23c-0.62-1.41-1.11-2.87-1.44-4.42c-0.1-0.47-0.19-0.95-0.28-1.42l-31.28-8.72l7.9,18.6
		l27.12,6.88c0.04-0.17,0.08-0.34,0.12-0.52c-0.11-0.65-0.22-1.3-0.34-1.94C406.63,264.86,406.01,262.04,405.36,259.23z"/>
	<path class="st16" d="M255.25,386.62c-0.31-0.02-0.62-0.04-0.93-0.07c-1.29-0.11-2.58-0.26-3.87-0.43
		c-3.41,0.37-6.83,0.71-10.25,0.94c-6.6,0.45-13.23,0.37-19.84,0.1l38.99,41.89l1.24-42.14
		C258.8,386.84,257.02,386.76,255.25,386.62z"/>
	<path class="st7" d="M280.89,386.25c-5.27,0.36-10.52,0.66-15.77,0.7l-0.7,23.89l31.95-25.38
		C291.21,385.67,286.05,385.9,280.89,386.25z"/>
	<path class="st17" d="M315.35,484.73l14.65-99.72c-7.87,0.58-15.74,1.38-23.61,0.82l-43.12,34.24l49.09,64.71
		C313.35,484.77,314.35,484.75,315.35,484.73z"/>
	<path class="st18" d="M341.68,484.16l40.25-9.68l-32.12-90.26c-4.24,0.09-8.48,0.21-12.72,0.37c-1.05,0.04-2.11,0.1-3.16,0.16
		l-14.68,99.9C326.73,484.49,334.2,484.32,341.68,484.16z"/>
	<path class="st13" d="M354.08,384.13l21,59l23.81-59.57C383.95,383.9,369.01,383.86,354.08,384.13z"/>
	<path class="st19" d="M215.04,386.73c-0.17,0.26-0.34,0.54-0.5,0.81c-0.16,0.43-0.29,0.72-0.38,0.91c-0.61,1.42-1.3,2.79-1.84,4.3
		c-0.38,1.06-1.1,4.33-0.36,0.9c-0.24,1.11-0.63,2.19-0.91,3.28c-1.03,3.99-1.85,8.12-2.54,12.28c-0.34,2.08-0.63,4.17-0.92,6.27
		c0,0.01,0,0.01,0,0.02c-0.01,0.06-0.01,0.12-0.02,0.18c-0.09,0.77-0.17,1.55-0.26,2.32c-0.54,5.16-0.95,10.33-1.03,15.53
		c-0.03,1.77-0.02,3.54,0.02,5.3c0.01,0.58,0.03,1.16,0.05,1.74c0.01,0.08,0.01,0.17,0.02,0.27c0.19,2.66,0.37,5.31,0.66,7.94
		c0.32,2.93,0.73,5.82,1.2,8.68c0.2,1.2,0.41,2.4,0.64,3.59c0.11,0.6,0.23,1.19,0.35,1.78c0.01,0.03,0.16,0.76,0.27,1.27
		c0.13,0.57,0.32,1.39,0.35,1.55c0.03,0.13,0.06,0.26,0.09,0.39l45.35-32.8L215.04,386.73z"/>
	<polygon class="st20" points="210.88,469.15 213.45,482.76 270.29,437.79 265.92,429.03 	"/>
	<path class="st21" d="M421.1,458.87c0.04-0.29,0.28-1.93,0.42-2.87c0.09-0.79,0.35-2.88,0.38-3.22c0.32-3,0.58-6.01,0.77-9.02
		c0.38-6.08,0.46-12.18,0.19-18.27c-0.15-3.36-0.42-6.7-0.78-10.05c-0.11-1.03-0.22-2.06-0.35-3.09c-0.06-0.32-0.25-1.56-0.38-2.37
		c-0.9-5.44-2.13-10.82-3.7-16.09c-0.78-2.62-1.65-5.22-2.61-7.79c-0.29-0.77-1.91-4.51-0.44-1.16c-0.23-0.52-0.45-1.04-0.68-1.55
		c-3.43-0.07-6.86-0.04-10.28,0.04l-25.26,63.22l42.6,13.03C421.01,459.42,421.06,459.15,421.1,458.87z"/>
	<path class="st7" d="M420.19,464.4l-41.8-12.97l8.62,22.58l29.6,8.35C417.93,476.41,419.15,470.42,420.19,464.4z"/>
	<path class="st22" d="M255.33,495.83c-0.32-0.02-0.63-0.05-0.95-0.09c-1.31-0.13-2.62-0.31-3.94-0.51
		c-3.47,0.43-6.94,0.83-10.41,1.1c-6.7,0.52-13.44,0.44-20.16,0.11l39.62,49.13l1.26-49.43
		C258.95,496.08,257.14,495.99,255.33,495.83z"/>
	<path class="st7" d="M281.39,495.39c-5.36,0.42-10.7,0.78-16.02,0.82l-0.71,28.02l32.47-29.76
		C291.88,494.71,286.64,494.98,281.39,495.39z"/>
	<path class="st16" d="M316.41,610.9l14.89-116.96c-8,0.68-16,1.62-23.99,0.96l-43.82,40.16l49.89,75.9
		C314.38,610.94,315.39,610.92,316.41,610.9z"/>
	<path class="st23" d="M306.64,611.1l-39.36-59.88l1.82,60.05C281.61,611.44,294.13,611.33,306.64,611.1z"/>
	<path class="st5" d="M343.17,610.23l40.91-11.35L351.43,493c-4.31,0.11-8.62,0.24-12.93,0.44c-1.07,0.05-2.14,0.11-3.21,0.19
		l-14.91,117.18C327.98,610.62,335.57,610.42,343.17,610.23z"/>
	<path class="st7" d="M355.77,492.9l21.34,69.2l24.19-69.88C386.12,492.63,370.94,492.59,355.77,492.9z"/>
	<path class="st24" d="M214.03,496.75c-0.19,0.37-0.37,0.76-0.56,1.14c-0.17,0.6-0.31,1.01-0.4,1.28c-0.66,2.01-1.41,3.93-1.98,6.05
		c-0.4,1.49-1.1,6.05-0.38,1.26c-0.23,1.55-0.64,3.06-0.92,4.59c-1.04,5.58-1.81,11.33-2.43,17.13c-0.31,2.9-0.55,5.81-0.8,8.72
		c0,0.01,0,0.02,0,0.03c-0.01,0.08-0.01,0.16-0.02,0.25c-0.07,1.08-0.13,2.15-0.19,3.23c-0.39,7.17-0.64,14.34-0.48,21.55
		c0.05,2.45,0.15,4.9,0.28,7.34c0.04,0.8,0.1,1.6,0.14,2.41c0.01,0.11,0.02,0.24,0.04,0.38c0.36,3.67,0.7,7.32,1.17,10.95
		c0.28,2.14,0.59,4.27,0.92,6.39c0.48,1.95,0.86,3.94,1.1,5.88c0.1,0.28,0.2,0.57,0.3,0.86c1.22,2.1,2.59,4.1,4.22,5.89
		c0.39,0.42,0.85,0.9,1.37,1.4l48.73-44.6L214.03,496.75z"/>
	<path class="st4" d="M263.73,565.31l-43.76,41.87c0.65,0.45,1.31,0.88,1.99,1.27c1.83,0.48,3.71,0.85,5.62,1.07
		c5.05,0.33,10.1,0.64,15.15,0.9c7.33,0.38,14.66,0.62,21.99,0.76L263.73,565.31z"/>
	<path class="st25" d="M423.87,580.57c0.05-0.34,0.28-2.27,0.42-3.36c0.09-0.93,0.35-3.38,0.39-3.78c0.33-3.52,0.59-7.05,0.78-10.58
		c0.38-7.13,0.47-14.29,0.19-21.43c-0.15-3.94-0.43-7.86-0.79-11.78c-0.11-1.21-0.23-2.41-0.35-3.62c-0.06-0.38-0.25-1.83-0.39-2.78
		c-0.91-6.38-2.16-12.69-3.76-18.87c-0.8-3.08-1.68-6.13-2.65-9.13c-0.29-0.9-1.95-5.3-0.44-1.36c-0.23-0.61-0.46-1.22-0.69-1.82
		c-3.48-0.08-6.97-0.04-10.45,0.05l-25.67,74.16l43.29,15.29C423.78,581.22,423.83,580.89,423.87,580.57z"/>
	<path class="st26" d="M414.77,604.7c1.77-1.55,3.37-3.25,4.74-5.13c0.71-1.1,1.41-2.21,1.98-3.4c0.52-3.03,1.01-6.06,1.47-9.1
		l-42.48-15.21l8.76,26.49l23.32,7.6C413.31,605.55,414.04,605.14,414.77,604.7z"/>
	<path class="st27" d="M289.25,130.41c-0.15-0.01-0.3-0.01-0.44-0.02c-0.61-0.04-1.23-0.09-1.84-0.14c-1.62,0.12-3.25,0.23-4.88,0.3
		c-3.14,0.14-6.29,0.12-9.44,0.03l18.55,13.54l0.59-13.63C290.95,130.48,290.1,130.45,289.25,130.41z"/>
	<path class="st28" d="M301.45,130.29c-2.51,0.12-5.01,0.21-7.5,0.22l-0.33,7.72l15.2-8.2C306.36,130.1,303.91,130.17,301.45,130.29
		z"/>
	<path class="st29" d="M317.85,162.13l6.97-32.24c-3.74,0.19-7.49,0.45-11.23,0.27l-20.51,11.07l23.36,20.92
		C316.9,162.14,317.37,162.13,317.85,162.13z"/>
	<path class="st30" d="M313.27,162.18l-18.43-16.51l0.85,16.55C301.56,162.28,307.41,162.25,313.27,162.18z"/>
	<path class="st15" d="M330.37,161.94l19.15-3.13l-15.28-29.18c-2.02,0.03-4.03,0.07-6.05,0.12c-0.5,0.01-1,0.03-1.5,0.05
		l-6.98,32.3C323.26,162.05,326.82,161.99,330.37,161.94z"/>
	<path class="st27" d="M336.27,129.6l9.99,19.08l11.33-19.26C350.48,129.53,343.38,129.52,336.27,129.6z"/>
	<path class="st8" d="M269.92,130.66c-0.09,0.1-0.18,0.21-0.26,0.32c-0.08,0.17-0.14,0.28-0.19,0.35c-0.31,0.55-0.66,1.08-0.93,1.67
		c-0.19,0.41-0.51,1.67-0.18,0.35c-0.11,0.43-0.3,0.84-0.43,1.27c-0.49,1.54-0.85,3.12-1.14,4.72c-0.14,0.8-0.26,1.6-0.37,2.4
		c0,0,0,0.01,0,0.01c0,0.02,0,0.04-0.01,0.07c-0.03,0.3-0.06,0.59-0.09,0.89c-0.18,1.98-0.3,3.95-0.22,5.94
		c0.02,0.68,0.07,1.35,0.13,2.02c0.02,0.22,0.04,0.44,0.07,0.66c0.01,0.03,0.01,0.07,0.02,0.1c0.17,1.01,0.33,2.02,0.55,3.02
		c0.25,1.11,0.54,2.21,0.87,3.29c0.14,0.46,0.29,0.91,0.44,1.36c0.08,0.23,0.15,0.45,0.23,0.67c0,0.01,0.11,0.29,0.18,0.48
		c0.08,0.21,0.21,0.53,0.23,0.59c0.02,0.05,0.04,0.1,0.06,0.15l24.51-13.21L269.92,130.66z"/>
	<path class="st20" d="M283.35,162c3.43,0.1,6.86,0.17,10.29,0.21l-0.46-12.65l-21.34,12.02C275.68,161.74,279.51,161.88,283.35,162
		z"/>
	<path class="st31" d="M368.16,153.77c0.02-0.09,0.13-0.63,0.2-0.93c0.04-0.26,0.16-0.93,0.18-1.04c0.15-0.97,0.28-1.94,0.37-2.92
		c0.18-1.97,0.22-3.94,0.09-5.91c-0.07-1.09-0.2-2.17-0.37-3.25c-0.05-0.33-0.11-0.67-0.16-1c-0.03-0.1-0.12-0.5-0.18-0.77
		c-0.43-1.76-1.01-3.5-1.76-5.2c-0.37-0.85-0.79-1.69-1.24-2.52c-0.14-0.25-0.91-1.46-0.21-0.37c-0.11-0.17-0.22-0.33-0.32-0.5
		c-1.63-0.02-3.26-0.01-4.89,0.01l-12.02,20.44l20.27,4.21C368.11,153.94,368.14,153.86,368.16,153.77z"/>
	<path class="st30" d="M367.73,155.56l-19.89-4.19l4.1,7.3l14.08,2.7C366.65,159.44,367.23,157.5,367.73,155.56z"/>
	<polygon class="st32" points="378.28,266.35 348.83,271.71 406.49,271.71 	"/>
	<polygon class="st13" points="350.18,160.01 336.22,162.3 363.55,162.3 	"/>
	<polygon class="st11" points="382.48,369.64 353.04,374.99 410.69,374.99 	"/>
	<polygon class="st6" points="385.28,477.51 355.84,482.87 413.5,482.87 	"/>
	<path class="st2" d="M402.83,608.93c1.5-0.34,3.01-0.71,4.5-1.13l-21.35-4.05l-29.45,5.36h45.77
		C402.48,609.04,402.64,608.98,402.83,608.93z"/>
	<path class="st30" d="M289.09,168.64c-0.15,0-0.3-0.01-0.46-0.01c-0.63-0.02-1.26-0.04-1.89-0.06c-1.67,0.05-3.34,0.1-5.01,0.14
		c-3.22,0.07-6.46,0.06-9.69,0.01l19.05,6.17l0.61-6.21C290.83,168.67,289.96,168.66,289.09,168.64z"/>
	<path class="st7" d="M301.62,168.58c-2.58,0.05-5.14,0.1-7.7,0.1l-0.34,3.52l15.61-3.74C306.66,168.5,304.14,168.53,301.62,168.58z
		"/>
	<path class="st16" d="M318.86,182.19l6.75-13.79c-3.63,0.08-7.26,0.19-10.89,0.11l-19.88,4.74l22.63,8.95
		C317.94,182.2,318.4,182.2,318.86,182.19z"/>
	<path class="st15" d="M313.76,183.13l-18.92-7.53l0.87,7.55C301.73,183.17,307.74,183.16,313.76,183.13z"/>
	<path class="st5" d="M331.32,183.02l19.67-1.43l-15.69-13.31c-2.07,0.01-4.14,0.03-6.21,0.05c-0.51,0.01-1.03,0.01-1.54,0.02
		l-7.17,14.73C324.02,183.07,327.67,183.04,331.32,183.02z"/>
	<path class="st7" d="M337.38,168.27l10.26,8.7l11.63-8.78C351.97,168.24,344.68,168.23,337.38,168.27z"/>
	<path class="st12" d="M268.74,169.05c-0.03,0.03-0.07,0.06-0.1,0.08c0.01,0.5-0.04,1.04-0.05,1.53c-0.03,0.97-0.03,1.93-0.05,2.89
		c-0.05,2.72,0.18,5.8-0.05,8.65l21.75-5.81l-21.09-7.64c-0.08,0.05-0.16,0.09-0.23,0.14C268.83,168.97,268.78,169.02,268.74,169.05
		z"/>
	<path class="st4" d="M283.03,183.04c3.52,0.05,7.05,0.08,10.57,0.1l-0.47-5.77l-21.91,5.48
		C275.15,182.92,279.09,182.99,283.03,183.04z"/>
	<path class="st31" d="M367.7,169.03c-0.18-0.15-0.35-0.31-0.54-0.46c-0.14-0.11-0.94-0.67-0.21-0.17
		c-0.11-0.08-0.22-0.15-0.33-0.23c-1.68-0.01-3.35-0.01-5.02,0.01l-12.34,9.32l18.46,1.7V169.03z"/>
	<polygon class="st27" points="367.73,179.88 349.26,178.45 353.47,181.2 367.73,182.2 	"/>
	<path class="st32" d="M216.26,365.08l52.23-36.32l-4.95-11.2l-51.16,32.99C213.7,355.4,214.84,360.26,216.26,365.08z"/>
	<polygon class="st7" points="273.16,440.7 213.46,487.25 307.68,485.51 	"/>
</g>
<g id="Layer_2">
</g>
</svg>
