<?xml version="1.0" encoding="utf-8"?>
<!-- Generator: Adobe Adobe Illustrator 24.2.0, SVG Export Plug-In . SVG Version: 6.00 Build 0)  -->
<svg version="1.1" xmlns="http://www.w3.org/2000/svg" xmlns:xlink="http://www.w3.org/1999/xlink" x="0px" y="0px" width="267px"
	 height="517px" viewBox="0 0 267 517" style="enable-background:new 0 0 267 517;" xml:space="preserve">
<style type="text/css">
	.st0{display:none;fill:#7473B3;}
	.st1{fill:#7473B3;}
	.st2{fill:#6A7CB9;}
	.st3{fill:#ABB2D6;}
	.st4{display:none;fill:#837FB2;}
	.st5{display:none;fill:#8AB1D4;}
	.st6{fill:#8CA1CD;}
	.st7{fill:#5C629D;}
	.st8{fill:#6868A5;}
	.st9{fill:#526199;}
	.st10{fill:#A7C4DE;}
	.st11{fill:#8B97C4;}
	.st12{display:none;fill:#6A7CB9;}
	.st13{fill:#96A9D1;}
	.st14{fill:#718FC3;}
	.st15{fill:#95A9D1;}
	.st16{fill:#7671AF;}
	.st17{display:none;fill:#AEB1D5;}
	.st18{fill:#848AC2;}
	.st19{fill:#B6C2DE;}
	.st20{fill:#AAC5DE;}
	.st21{display:none;fill:#9AB5D5;}
	.st22{fill:#91C2DD;}
	.st23{fill:#9DA0C7;}
	.st24{fill:#8AB1D4;}
	.st25{fill:#8182BC;}
	.st26{display:none;fill:#A2AED4;}
	.st27{fill:#B5D6E8;}
	.st28{fill:#9DC2DD;}
	.st29{display:none;fill:#95A9D1;}
	.st30{fill:#96A1CD;}
	.st31{fill:#B2ABD1;}
	.st32{display:none;fill:#B5B2D2;}
	.st33{display:none;fill:#D6DDE9;}
	.st34{display:none;fill:#B2ABD1;}
	.st35{fill:#8B88C1;}
	.st36{fill:#B5B2D2;}
	.st37{fill:#ADAECF;}
	.st38{fill:#D6D4E8;}
	.st39{fill:#AEB1D5;}
</style>
<g id="Layer_1">
	<path class="st0" d="M81.76,307.13c-0.32-0.02-0.63-0.05-0.95-0.09c-1.31-0.13-2.62-0.31-3.94-0.51c-3.47,0.43-6.94,0.83-10.41,1.1
		c-6.7,0.52-13.44,0.44-20.16,0.11l39.62,49.13l1.26-49.43C85.38,307.39,83.57,307.29,81.76,307.13z"/>
	<path class="st1" d="M90.89,439.74c-17.2,16.45-36.23,33.26-53.51,49.79c-1.56,6.12,59.26,7.55,89.21,5.28
		C113.53,472.15,90.89,439.74,90.89,439.74z"/>
	<path class="st2" d="M57.37,379.92l22.79,35.3l39.97-36.51C120.13,378.71,62.7,379.89,57.37,379.92z"/>
	<path class="st3" d="M134.41,494.9l14.89-116.96c-8,0.68-16,1.62-23.99,0.96l-43.82,40.16l49.89,75.9
		C132.38,494.94,133.39,494.92,134.41,494.9z"/>
	<path class="st4" d="M133.07,422.4l-39.36-59.88l1.82,60.05C108.04,422.75,120.56,422.64,133.07,422.4z"/>
	<path class="st5" d="M90.16,376.62l-43.76,41.87c0.65,0.45,1.31,0.88,1.99,1.27c1.83,0.48,3.71,0.85,5.62,1.07
		c5.05,0.33,10.1,0.64,15.15,0.9c7.33,0.38,14.66,0.62,21.99,0.76L90.16,376.62z"/>
	<path class="st6" d="M161.17,494.23l40.91-11.35L169.43,377c-4.31,0.11-8.62,0.24-12.93,0.44c-1.07,0.05-2.14,0.11-3.21,0.19
		l-14.91,117.18C145.98,494.62,153.57,494.42,161.17,494.23z"/>
	<path class="st2" d="M173.77,376.9l21.34,69.2l24.19-69.88C204.12,376.63,188.94,376.59,173.77,376.9z"/>
	<path class="st7" d="M32.03,380.75c-0.19,0.37-0.37,0.76-0.56,1.14c-0.17,0.6-0.31,1.01-0.4,1.28c-0.66,2.01-1.41,3.93-1.98,6.05
		c-0.4,1.49-1.1,6.05-0.38,1.26c-0.23,1.55-0.64,3.06-0.92,4.59c-1.04,5.58-1.81,11.33-2.43,17.13c-0.31,2.9-0.55,5.81-0.8,8.72
		c0,0.01,0,0.02,0,0.03c-0.01,0.08-0.01,0.16-0.02,0.25c-0.07,1.08-0.13,2.15-0.19,3.23c-0.39,7.17-0.64,14.34-0.48,21.55
		c0.05,2.45,0.15,4.9,0.28,7.34c0.04,0.8,0.1,1.6,0.14,2.41c0.01,0.11,0.02,0.24,0.04,0.38c0.36,3.67,0.7,7.32,1.17,10.95
		c0.28,2.14,0.59,4.27,0.92,6.39c0.48,1.95,0.86,3.94,1.1,5.88c0.1,0.28,0.2,0.57,0.3,0.86c1.22,2.1,2.59,4.1,4.22,5.89
		c0.39,0.42,0.85,0.9,1.37,1.4l54.88-49.85l-34.44-57.71L32.03,380.75z"/>
	<path class="st8" d="M241.87,464.57c0.05-0.34,0.28-2.27,0.42-3.36c0.09-0.93,0.35-3.38,0.39-3.78c0.33-3.52,0.59-7.05,0.78-10.58
		c0.38-7.13,0.47-14.29,0.19-21.43c-0.15-3.94-0.43-7.86-0.79-11.78c-0.11-1.21-0.23-2.41-0.35-3.62c-0.06-0.38-0.25-1.83-0.39-2.78
		c-0.91-6.38-2.16-12.69-3.76-18.87c-0.8-3.08-1.68-6.13-2.65-9.13c-0.29-0.9-1.95-5.3-0.44-1.36c-0.23-0.61-0.46-1.22-0.69-1.82
		c-3.48-0.08-6.97-0.04-10.45,0.05l-25.67,74.16l43.29,15.29C241.78,465.22,241.83,464.89,241.87,464.57z"/>
	<path class="st9" d="M232.77,488.7c1.77-1.55,3.37-3.25,4.74-5.13c0.71-1.1,1.41-2.21,1.98-3.4c0.52-3.03,1.01-6.06,1.47-9.1
		l-42.48-15.21l8.76,26.49l23.32,7.6C231.31,489.55,232.04,489.14,232.77,488.7z"/>
	<path class="st10" d="M220.83,492.93c1.5-0.34,3.01-0.71,4.5-1.13l-21.35-4.05l-29.45,5.36h45.77
		C220.48,493.04,220.64,492.98,220.83,492.93z"/>
</g>
<g id="Layer_2">
	<polygon class="st11" points="203.28,361.51 173.84,366.87 231.5,366.87 	"/>
	<polygon class="st2" points="91.11,325.28 33.96,370.5 125.68,369.44 	"/>
	<path class="st3" d="M57.37,270.12l20.7,29.67l41.52-29.64C117.8,270.09,65.44,268.98,57.37,270.12z"/>
	<path class="st12" d="M107.32,197.55c-5.27,0.36-10.52,0.66-15.77,0.7l-0.7,23.89l31.95-25.38
		C117.64,196.97,112.48,197.2,107.32,197.55z"/>
	<path class="st13" d="M133.35,368.73l14.65-99.72c-7.87,0.58-15.74,1.38-23.61,0.82l-44.37,32.99l50.34,65.96
		C131.35,368.77,132.35,368.75,133.35,368.73z"/>
	<path class="st14" d="M159.68,368.16l40.25-9.68l-32.12-90.26c-4.24,0.09-8.48,0.21-12.72,0.37c-1.05,0.04-2.11,0.1-3.16,0.16
		l-14.68,99.9C144.73,368.49,152.2,368.32,159.68,368.16z"/>
	<path class="st15" d="M172.08,268.13l21,59l23.81-59.57C201.95,267.9,187.01,267.86,172.08,268.13z"/>
	<path class="st16" d="M33.04,270.73c-0.17,0.26-0.34,0.54-0.5,0.81c-0.16,0.43-0.29,0.72-0.38,0.91c-0.61,1.42-1.3,2.79-1.84,4.3
		c-0.38,1.06-1.1,4.33-0.36,0.9c-0.24,1.11-0.63,2.19-0.91,3.28c-1.03,3.99-1.85,8.12-2.54,12.28c-0.34,2.08-0.63,4.17-0.92,6.27
		c0,0.01,0,0.01,0,0.02c-0.01,0.06-0.01,0.12-0.02,0.18c-0.09,0.77-0.17,1.55-0.26,2.32c-0.54,5.16-0.95,10.33-1.03,15.53
		c-0.03,1.77-0.02,3.54,0.02,5.3c0.01,0.58,0.03,1.16,0.05,1.74c0.01,0.08,0.01,0.17,0.02,0.27c0.19,2.66,0.37,5.31,0.66,7.94
		c0.32,2.93,0.89,5.8,1.2,8.68c2.97,26.95,4.6,27.52,4.7,27.95c0.03,0.13,57.81-47.41,57.81-47.41l-35.98-51.91L33.04,270.73z"/>
	<polygon class="st17" points="37.31,280.45 39.88,294.07 96.72,249.09 92.35,240.34 	"/>
	<path class="st18" d="M239.1,342.87c0.04-0.29,0.28-1.93,0.42-2.87c0.09-0.79,0.35-2.88,0.38-3.22c0.32-3,0.58-6.01,0.77-9.02
		c0.38-6.08,0.46-12.18,0.19-18.27c-0.15-3.36-0.42-6.7-0.78-10.05c-0.11-1.03-0.22-2.06-0.35-3.09c-0.06-0.32-0.25-1.56-0.38-2.37
		c-0.9-5.44-2.13-10.82-3.7-16.09c-0.78-2.62-1.65-5.22-2.61-7.79c-0.29-0.77-1.91-4.51-0.44-1.16c-0.23-0.52-0.45-1.04-0.68-1.55
		c-3.43-0.07-6.86-0.04-10.28,0.04l-25.26,63.22l42.6,13.03C239.01,343.42,239.06,343.15,239.1,342.87z"/>
	<path class="st2" d="M238.19,348.4l-41.8-12.97l8.62,22.58l29.6,8.35C235.93,360.41,237.15,354.42,238.19,348.4z"/>
</g>
<g id="Layer_3">
	<polygon class="st19" points="200.48,253.64 171.04,258.99 228.69,258.99 	"/>
	<path class="st20" d="M34.26,249.08l52.23-36.32l-4.95-11.2l-51.16,32.99C31.7,239.4,32.84,244.26,34.26,249.08z"/>
	<path class="st21" d="M75.16,92.86c-0.22-0.01-0.44-0.03-0.66-0.05c-0.91-0.08-1.83-0.19-2.74-0.31c-2.41,0.27-4.83,0.51-7.24,0.68
		c-4.66,0.32-9.35,0.27-14.02,0.07l27.56,30.25l0.88-30.44C77.67,93.02,76.42,92.96,75.16,92.86z"/>
	<path class="st22" d="M58.43,159.73l24.29,35.08l38.66-30.68C101.46,164.13,67.85,159.73,58.43,159.73z"/>
	<path class="st10" d="M133.67,260.1l14.13-95.97c-7.59,0.56-13.21,0.4-22.77,0.79c0,0-40.86,30.55-40.17,31.71
		c16.18,26.88,45.93,63.53,45.93,63.53C131.75,260.14,132.71,260.12,133.67,260.1z"/>
	<polygon class="st23" points="91.12,213.41 33.19,257.34 126.58,260.16 	"/>
	<path class="st24" d="M159.07,259.55l38.82-9.32l-30.98-86.87c-4.09,0.09-8.18,0.2-12.27,0.36c-1.02,0.04-2.03,0.09-3.05,0.15
		l-14.15,96.15C144.66,259.88,151.86,259.71,159.07,259.55z"/>
	<path class="st6" d="M171.03,163.28l20.25,56.78l22.96-57.33C199.84,163.06,185.43,163.03,171.03,163.28z"/>
	<path class="st11" d="M39.27,158.28c-0.2,0.28-5.8,14.5-6.06,15.37c-0.95,3.19-1.72,6.49-2.37,9.83c-0.33,1.67-0.61,3.34-0.89,5.03
		c0,0.01,0,0.01,0,0.02c-0.01,0.05-0.01,0.09-0.02,0.15c-0.09,0.62-0.18,1.24-0.26,1.87c-0.55,4.14-0.99,8.29-1.15,12.48
		c-0.05,1.42-0.08,2.85-0.08,4.27c0,0.47,0.01,0.94,0.01,1.4c0,0.07,0.01,0.14,0.01,0.22c0.13,2.48-0.87,31.38,3.74,44.72
		c0.36,1.06,57.35-43.44,57.35-43.44l-35.22-51.02L39.27,158.28z"/>
	<path class="st2" d="M235.67,235.21c0.04-0.28,0.27-1.86,0.4-2.76c0.09-0.76,0.33-2.77,0.37-3.1c0.31-2.89,0.56-5.78,0.74-8.68
		c0.36-5.85,0.44-11.72,0.18-17.58c-0.15-3.23-0.41-6.45-0.75-9.67c-0.11-0.99-0.22-1.98-0.33-2.97c-0.06-0.31-0.24-1.5-0.37-2.28
		c-0.87-5.23-2.05-10.41-3.57-15.48c-0.76-2.53-1.6-5.03-2.52-7.49c-0.28-0.74-1.85-4.35-0.42-1.12c-0.22-0.5-0.44-1-0.66-1.5
		c-3.31-0.07-6.61-0.03-9.92,0.04l-24.37,60.85l41.08,12.54C235.58,235.75,235.63,235.48,235.67,235.21z"/>
	<path class="st25" d="M234.79,240.54l-40.31-12.48l8.31,21.73l28.54,8.04C232.61,252.09,233.79,246.34,234.79,240.54z"/>
</g>
<g id="Layer_4">
	<polygon class="st20" points="196.28,150.35 166.83,155.71 224.49,155.71 	"/>
	<path class="st26" d="M90.22,9.02c-0.89,0.83-1.67,1.75-2.48,2.62c-3.76,4.06-7.28,8.26-10.56,12.57c-0.18,0.23-0.34,0.47-0.52,0.7
		l13.05,12.6l0.95-28.93C89.59,9.59,88.47,10.65,90.22,9.02z"/>
	<path class="st27" d="M89.13,75.49c-0.88,0.65-4.18,3.55-5.05,4.21l3.91,17.72l32.72-22.86c-4.73,0.18-14.96,0.12-19.69,0.4
		C97.04,75.2,93.08,75.41,89.13,75.49z"/>
	<path class="st27" d="M132.59,156.09l13.42-82.15c-7.21,0.48-14.42,1.14-21.64,0.68L89.21,99.96l3.19,16.31l35.82,39.75
		C129.14,156.01,131.68,156.11,132.59,156.09z"/>
	<path class="st19" d="M123.78,156.23l-33.12-37.06l-48.23,34.97C70.54,156.91,110.32,157.55,123.78,156.23z"/>
	<path class="st28" d="M156.72,155.62l36.89-7.97l-29.43-74.36c-3.89,0.08-7.77,0.17-11.66,0.31c-0.96,0.03-1.93,0.08-2.89,0.13
		l-13.45,82.3C143.02,155.9,149.87,155.75,156.72,155.62z"/>
	<path class="st19" d="M194.43,82.33c-2.32-3.14-5.21-6.18-7.85-9.32c-6.16,0.05-12.33,0.1-18.49,0.2l19.24,48.61l13.53-30.45
		C198.78,88.33,196.63,85.32,194.43,82.33z"/>
	<path class="st23" d="M55.42,117.18c-0.52,0.92-1.08,1.86-1.57,2.8c0.31-0.59,0.65-1.23-0.04,0.12c-0.26,0.51-0.53,1.01-0.78,1.52
		c-4.98,9.77-9.07,19.79-12.49,29.96l49.01-34.93l-7.32-35.7C63.87,99.31,56.76,114.82,55.42,117.18z"/>
	<path class="st29" d="M74.57,83.07c6.61,0.27,13.22,0.44,19.83,0.54l-0.89-32.22l-41.1,30.63C59.8,82.4,67.19,82.77,74.57,83.07z"
		/>
	<path class="st30" d="M218.65,127.31c-3.39-7.91-6.74-15.83-10.12-23.74c-0.03-0.05-0.04-0.09-0.07-0.13
		c-0.21-0.38-0.42-0.75-0.65-1.13c-0.55-0.93-1.12-1.85-1.68-2.77c-0.88-1.43-1.78-2.86-2.7-4.27l-13.1,29.47l30.53,8.4
		C220.39,131.14,219.48,129.24,218.65,127.31z"/>
	<path class="st31" d="M223.36,143.23c-0.62-1.41-1.11-2.87-1.44-4.42c-0.1-0.47-0.19-0.95-0.28-1.42l-31.28-8.72l7.9,18.6
		l27.12,6.88c0.04-0.17,0.08-0.34,0.12-0.52c-0.11-0.65-0.22-1.3-0.34-1.94C224.63,148.86,224.01,146.04,223.36,143.23z"/>
</g>
<g id="Layer_5">
	<path class="st24" d="M101.03,67.04c3.52,0.05,29.8,0.03,33.32,0.05l-21.97-6.47l-23.16,6.23C93.15,66.92,97.09,66.99,101.03,67.04
		z"/>
	<path class="st28" d="M86.74,53.05c-0.03,0.03-0.07,0.06-0.1,0.08c0.02,0.58-1.16,8.28-0.15,13.07l23.75-6.06l-23.09-7.39
		c-0.08,0.05-0.16,0.09-0.23,0.14C86.83,52.97,86.78,53.02,86.74,53.05z"/>
	<path class="st2" d="M155.38,52.27l10.26,8.7l11.63-8.78C169.97,52.24,162.68,52.23,155.38,52.27z"/>
	<path class="st3" d="M136.86,66.19l6.75-13.79c-3.94,0.09-53.29,0.35-53.29,0.35l45.16,13.45C135.94,66.2,136.4,66.2,136.86,66.19z
		"/>
	<path class="st6" d="M149.32,67.02l19.67-1.43L153.3,52.28c-2.07,0.01-4.14,0.03-6.21,0.05c-0.51,0.01-1.03,0.01-1.54,0.02
		l-7.17,14.73C142.02,67.07,145.67,67.04,149.32,67.02z"/>
	<path class="st35" d="M185.7,53.03c-0.18-0.15-0.35-0.31-0.54-0.46c-0.14-0.11-0.94-0.67-0.21-0.17c-0.11-0.08-0.22-0.15-0.33-0.23
		c-1.68-0.01-3.35-0.01-5.02,0.01l-12.84,9.82l4.93,3.57l14.04,0.65L185.7,53.03z"/>
</g>
<g id="Layer_6">
	<path class="st15" d="M163.43,34.01l-12.96,12.2l32.57-0.08c0,0,2.79-3.47,2.68-6.66C185.72,39.24,163.43,34.01,163.43,34.01z"/>
	<path class="st36" d="M107.25,14.41c-0.15-0.01-0.3-0.01-0.44-0.02c-0.61-0.04-1.23-0.09-1.84-0.14c-1.62,0.12-3.25,0.23-4.88,0.3
		c-3.14,0.14-6.29,0.12-9.44,0.03l18.55,13.54l0.59-13.63C108.95,14.48,108.1,14.45,107.25,14.41z"/>
	<path class="st37" d="M111.95,14.51l-0.17,8.53l17.29-8.8C126.61,14.31,114.45,14.5,111.95,14.51z"/>
	<path class="st38" d="M135.85,46.13l6.97-32.24c-3.74,0.19-7.49,0.45-11.23,0.27l-19.8,10.82l0.89,21.13
		C113.15,46.09,135.37,46.13,135.85,46.13z"/>
	<path class="st31" d="M148.37,45.94c0,0,13.09-11.32,16.52-15.93c0.24-0.32-12.65-16.38-12.65-16.38
		c-2.02,0.03-4.03,0.07-6.05,0.12c-0.5,0.01-1,0.03-1.5,0.05l-6.98,32.3C141.26,46.05,144.82,45.99,148.37,45.94z"/>
	<path class="st36" d="M154.27,13.6c0,0,11.13,14.95,11.3,14.77c2.94-2.94,10.66-15.02,10.66-15.02
		C169.13,13.46,161.38,13.52,154.27,13.6z"/>
	<path class="st25" d="M87.92,14.66c-0.09,0.1-0.18,0.21-0.26,0.32c-0.08,0.17-0.14,0.28-0.19,0.35c-0.31,0.55-0.66,1.08-0.93,1.67
		c-0.19,0.41-0.51,1.67-0.18,0.35c-0.11,0.43-0.3,0.84-0.43,1.27c-0.49,1.54-0.85,3.12-1.14,4.72c-0.14,0.8-0.26,1.6-0.37,2.4
		c0,0,0,0.01,0,0.01c0,0.02,0,0.04-0.01,0.07c-0.03,0.3-0.06,0.59-0.09,0.89c-0.18,1.98-0.3,3.95-0.22,5.94
		c0.02,0.68,0.07,1.35,0.13,2.02c0.02,0.22,0.04,0.44,0.07,0.66c0.01,0.03,0.01,0.07,0.02,0.1c0.17,1.01,0.33,2.02,0.55,3.02
		c0.25,1.11,0.54,2.21,0.87,3.29c0.14,0.46,0.28,0.91,0.44,1.36c0.08,0.23,0.15,0.45,0.23,0.67c0,0.01,0.11,0.29,0.18,0.48
		c0.08,0.21,0.21,0.53,0.23,0.59c0.02,0.05,0.04,0.1,0.06,0.15l23.37-12.96v-17.8L87.92,14.66z"/>
	<path class="st39" d="M111.64,46.21l-0.96-12.65L88.1,45.58C90.88,46.21,108.21,46.17,111.64,46.21z"/>
	<path class="st35" d="M186.16,37.77c0.02-0.09,0.13-0.63,0.2-0.93c0.04-0.26,0.16-0.93,0.18-1.04c0.15-0.97,0.28-1.94,0.37-2.92
		c0.18-1.97,0.22-3.94,0.09-5.91c-0.07-1.09-0.2-2.17-0.37-3.25c-0.05-0.33-0.11-0.67-0.16-1c-0.03-0.1-0.12-0.5-0.18-0.77
		c-0.43-1.76-1.01-3.5-1.76-5.2c-0.37-0.85-0.79-1.69-1.24-2.52c-0.14-0.25-0.91-1.46-0.21-0.37c-0.11-0.17-0.22-0.33-0.32-0.5
		c-1.63-0.02-3.26-0.01-4.89,0.01l-13.52,19.44l21.77,5.21C186.11,37.94,186.14,37.86,186.16,37.77z"/>
</g>
</svg>
