<?xml version="1.0" encoding="utf-8"?>
<!-- Generator: Adobe Adobe Illustrator 24.2.0, SVG Export Plug-In . SVG Version: 6.00 Build 0)  -->
<svg version="1.1" xmlns="http://www.w3.org/2000/svg" xmlns:xlink="http://www.w3.org/1999/xlink" x="0px" y="0px"
	 viewBox="0 0 1500 2200" style="enable-background:new 0 0 1500 2200;" xml:space="preserve">
<style type="text/css">
	.st0{fill:#7C84C0;}
	.st1{fill:#F9CDAE;}
	.st2{fill:#73CEE7;}
	.st3{fill:#F8E187;}
	.st4{fill:#F1F1F3;stroke:#000000;stroke-miterlimit:10;}
	.st5{fill:#194058;stroke:#000000;stroke-miterlimit:10;}
	.st6{fill:#42BA87;}
	.st7{fill:#D5D4D8;}
	.st8{fill:none;stroke:#916747;stroke-width:70;stroke-linecap:round;stroke-miterlimit:10;}
	.st9{fill:#916747;}
	.st10{fill:#A37451;}
	.st11{fill:#C2885F;}
	.st12{fill:none;stroke:#A37451;stroke-width:18;stroke-linecap:round;stroke-miterlimit:10;}
	.st13{fill:#666691;}
	.st14{clip-path:url(#SVGID_2_);fill:#666691;}
	.st15{clip-path:url(#SVGID_4_);fill:#916747;}
	.st16{clip-path:url(#SVGID_6_);fill:#916747;}
	.st17{fill:#E6E7E8;}
	.st18{clip-path:url(#SVGID_8_);fill:#D5D4D8;}
	.st19{clip-path:url(#SVGID_10_);fill:#D5D4D8;}
	.st20{fill:#E0E1E2;}
	.st21{fill:#9D9FA1;}
	.st22{fill:#3B2213;}
	.st23{opacity:0.8;fill:#73CEE7;}
	.st24{fill:none;stroke:#FFFFFF;stroke-width:10;stroke-linecap:round;stroke-miterlimit:10;}
	.st25{fill:#594A41;}
	.st26{fill:none;stroke:#BB7D6E;stroke-width:70;stroke-linecap:round;stroke-miterlimit:10;}
	.st27{fill:#E4A38A;}
	.st28{fill:#F5AF93;stroke:#BB7D6E;stroke-width:18;stroke-linecap:round;stroke-miterlimit:10;}
	.st29{fill:#F5AF93;}
	.st30{fill:#BB7D6E;}
	.st31{clip-path:url(#SVGID_12_);fill:#D5D4D8;}
	.st32{clip-path:url(#SVGID_14_);}
	.st33{clip-path:url(#SVGID_16_);fill:#BB7D6E;}
	.st34{clip-path:url(#SVGID_18_);fill:#BB7D6E;}
	.st35{clip-path:url(#SVGID_20_);fill:#66B1C3;}
	.st36{opacity:0.6784;fill:#404041;}
	.st37{fill:#D3C174;}
	.st38{clip-path:url(#SVGID_22_);}
	.st39{opacity:0.302;fill:#73CEE7;}
	.st40{fill:#66B1C3;}
	.st41{clip-path:url(#SVGID_24_);fill:#666691;}
	.st42{clip-path:url(#SVGID_26_);fill:#666691;}
	.st43{clip-path:url(#SVGID_28_);fill:#666691;}
	.st44{fill:#262161;}
	.st45{fill:none;stroke:#F5AF93;stroke-width:70;stroke-linecap:round;stroke-miterlimit:10;}
	.st46{fill:#8A5D3B;}
	.st47{fill:#194058;}
	.st48{fill:#A7A9AC;stroke:#A7A9AC;stroke-width:20;stroke-miterlimit:10;}
	.st49{fill:#FFFFFF;stroke:#A7A9AC;stroke-width:20;stroke-miterlimit:10;}
	.st50{fill:#A1DCEF;}
	.st51{fill:#A7A9AC;}
	.st52{opacity:0.0392;}
	.st53{fill:#FDE1CE;}
	.st54{fill:none;stroke:#FAC9A7;stroke-width:70;stroke-linecap:round;stroke-miterlimit:10;}
	.st55{fill:#C49A6B;}
	.st56{fill:#FAC9A7;}
	.st57{fill:#4F4E6D;}
	.st58{clip-path:url(#SVGID_30_);fill:#4F4E6D;}
	.st59{clip-path:url(#SVGID_32_);fill:#4F4E6D;}
	.st60{clip-path:url(#SVGID_34_);fill:#D5D4D8;}
	.st61{clip-path:url(#SVGID_36_);fill:#4F4E6D;}
	.st62{clip-path:url(#SVGID_38_);fill:#4F4E6D;}
	.st63{clip-path:url(#SVGID_40_);fill:#C8CCE7;}
	.st64{fill:#F5AF93;stroke:#F5AF93;stroke-width:18;stroke-linecap:round;stroke-miterlimit:10;}
	.st65{fill:#C8CCE7;}
	.st66{fill:#8B8AC3;}
	.st67{fill:#FFFFFF;stroke:#73CEE7;stroke-width:5;stroke-miterlimit:10;}
	.st68{clip-path:url(#SVGID_42_);fill:#66B1C3;}
	.st69{fill:#73CEE7;stroke:#73CEE7;stroke-width:5;stroke-miterlimit:10;}
	.st70{clip-path:url(#SVGID_44_);fill:#66B1C3;}
	.st71{fill:#F1F1F3;}
	.st72{clip-path:url(#SVGID_46_);fill:#4F4E6D;}
	.st73{clip-path:url(#SVGID_48_);fill:#4F4E6D;}
	.st74{clip-path:url(#SVGID_50_);fill:#C8CCE7;}
	.st75{clip-path:url(#SVGID_52_);fill:#66B1C3;}
	.st76{clip-path:url(#SVGID_54_);fill:#66B1C3;}
	.st77{clip-path:url(#SVGID_56_);fill:#666691;}
	.st78{clip-path:url(#SVGID_58_);fill:#916747;}
	.st79{clip-path:url(#SVGID_60_);fill:#916747;}
	.st80{clip-path:url(#SVGID_62_);fill:#D5D4D8;}
	.st81{clip-path:url(#SVGID_64_);fill:#D5D4D8;}
	.st82{clip-path:url(#SVGID_66_);fill:#D5D4D8;}
	.st83{clip-path:url(#SVGID_68_);}
	.st84{clip-path:url(#SVGID_70_);fill:#BB7D6E;}
	.st85{clip-path:url(#SVGID_72_);fill:#BB7D6E;}
	.st86{clip-path:url(#SVGID_74_);fill:#66B1C3;}
	.st87{clip-path:url(#SVGID_76_);}
	.st88{clip-path:url(#SVGID_78_);fill:#4F4E6D;}
	.st89{clip-path:url(#SVGID_80_);fill:#4F4E6D;}
	.st90{clip-path:url(#SVGID_82_);fill:#D5D4D8;}
	.st91{clip-path:url(#SVGID_84_);fill:#666691;}
	.st92{clip-path:url(#SVGID_86_);fill:#666691;}
	.st93{clip-path:url(#SVGID_88_);fill:#666691;}
	.st94{fill:#E6E7E8;stroke:#A7A9AC;stroke-width:20;stroke-linecap:square;stroke-miterlimit:10;}
	.st95{fill:#FFFFFF;}
	.st96{fill:#BCBEC0;}
	.st97{fill:none;stroke:#FFFFFF;stroke-width:10;stroke-miterlimit:10;}
	.st98{opacity:0.2;}
	.st99{clip-path:url(#SVGID_90_);fill:#58595B;}
	.st100{fill-rule:evenodd;clip-rule:evenodd;fill:#F8E187;}
	.st101{opacity:0.1098;}
	.st102{clip-path:url(#SVGID_92_);}
	.st103{opacity:0.0196;}
	.st104{clip-path:url(#SVGID_94_);fill:#4F4E6D;}
	.st105{clip-path:url(#SVGID_96_);fill:#4F4E6D;}
	.st106{clip-path:url(#SVGID_98_);fill:#D5D4D8;}
	.st107{display:none;opacity:0.0314;}
	.st108{display:inline;}
	.st109{stroke:#A7A9AC;stroke-width:20;stroke-miterlimit:10;}
	.st110{display:inline;opacity:0.1216;}
	.st111{stroke:#FAC9A7;stroke-width:70;stroke-linecap:round;stroke-miterlimit:10;}
	.st112{clip-path:url(#SVGID_100_);}
	.st113{clip-path:url(#SVGID_102_);}
	.st114{clip-path:url(#SVGID_104_);}
	.st115{clip-path:url(#SVGID_106_);fill:#4F4E6D;}
	.st116{clip-path:url(#SVGID_108_);fill:#4F4E6D;}
	.st117{clip-path:url(#SVGID_110_);fill:#C8CCE7;}
	.st118{clip-path:url(#SVGID_112_);fill:#66B1C3;}
	.st119{clip-path:url(#SVGID_114_);fill:#66B1C3;}
	.st120{clip-path:url(#SVGID_116_);}
	.st121{clip-path:url(#SVGID_118_);}
	.st122{clip-path:url(#SVGID_120_);}
	.st123{stroke:#F5AF93;stroke-width:70;stroke-linecap:round;stroke-miterlimit:10;}
	.st124{stroke:#F5AF93;stroke-width:18;stroke-linecap:round;stroke-miterlimit:10;}
	.st125{display:inline;stroke:#73CEE7;stroke-width:5;stroke-miterlimit:10;}
	.st126{clip-path:url(#SVGID_122_);}
	.st127{clip-path:url(#SVGID_124_);}
	.st128{clip-path:url(#SVGID_126_);fill:#666691;}
	.st129{clip-path:url(#SVGID_128_);fill:#916747;}
	.st130{clip-path:url(#SVGID_130_);fill:#916747;}
	.st131{clip-path:url(#SVGID_132_);fill:#D5D4D8;}
	.st132{clip-path:url(#SVGID_134_);fill:#D5D4D8;}
	.st133{fill:#808284;}
	.st134{fill-rule:evenodd;clip-rule:evenodd;fill:#F0BF4F;}
	.st135{fill:none;stroke:#808284;stroke-width:60;stroke-miterlimit:10;}
	.st136{fill:none;stroke:#808284;stroke-width:60;stroke-linecap:round;stroke-miterlimit:10;}
	.st137{display:none;}
	.st138{display:inline;opacity:0.2706;}
</style>
<g id="Layer_2">
</g>
<g id="Business">
	<g id="Layer_65">
		<ellipse class="st7" cx="750.88" cy="1876.94" rx="632.86" ry="79"/>
	</g>
	<g>
		<line class="st8" x1="849.07" y1="693.04" x2="850.86" y2="760.98"/>
		<g>
			<g>
				<circle class="st9" cx="720.67" cy="612.18" r="35.25"/>
				<circle class="st9" cx="964.67" cy="610.18" r="35.25"/>
				<circle class="st10" cx="964.67" cy="610.18" r="35.25"/>
				<ellipse class="st11" cx="842.97" cy="564.24" rx="129" ry="154.5"/>
			</g>
			<circle cx="790.88" cy="581.26" r="12.38"/>
			<circle cx="912.81" cy="581.26" r="12.38"/>
			<line class="st12" x1="856.06" y1="598.83" x2="856.27" y2="649.83"/>
		</g>
	</g>
	<g id="Layer_15">
		<path class="st13" d="M430.47,1355.17c0,0-12.01-70.15,13-87.11c59.27-40.2,368.88-58.75,368.88-58.75s65.49,84.5,44.12,105.87
			C787.53,1384.11,430.47,1355.17,430.47,1355.17z"/>
		<path class="st0" d="M764.73,1355.98c-3.63-14.37-8.31-92.18,1.11-100.59c37.94-33.89,271.17-54.08,271.17-54.08
			s10.61,97.62,1.64,118.59C1027.02,1347.07,770.31,1378.04,764.73,1355.98z"/>
		<g>
			<defs>
				<path id="SVGID_1_" d="M764.73,1355.98c-3.63-14.37-8.31-92.18,1.11-100.59c37.94-33.89,271.17-54.08,271.17-54.08
					s10.61,97.62,1.64,118.59C1027.02,1347.07,770.31,1378.04,764.73,1355.98z"/>
			</defs>
			<clipPath id="SVGID_2_">
				<use xlink:href="#SVGID_1_"  style="overflow:visible;"/>
			</clipPath>
			<path class="st14" d="M1071.37,1164.31c-94.62,24.39-192.84,34.75-290.46,30.64c-11.44-0.48-22.48,8.64-24.17,19.96
				s6.21,23.27,17.29,26.15c93.83,24.38,196.1,14.82,283.78-26.53C1077.98,1205.02,1087.05,1177.35,1071.37,1164.31z"/>
			<path class="st14" d="M833.15,1363.97c5.52,7.91,16.67,11.33,25.67,7.87c9-3.46,14.99-13.48,13.78-23.04
				c-2.18-17.28-2.86-34.76-5.92-51.9s-8.72-34.26-19.66-47.81c-10.94-13.55-27.83-23.09-45.21-22.01s-34.14,14.58-35.93,31.9
				c-2.73,26.41,0.38,53.4,9.03,78.49L833.15,1363.97z"/>
		</g>
		<path class="st11" d="M825.13,1783.68c-6.13-2.16-90.45-477.2-64.48-522.03c12.4-21.42,44.56-18.8,66.38-7.11
			c44.98,24.12,55.74,509.79,53.48,515.03C872.78,1787.51,849.72,1792.32,825.13,1783.68z"/>
		<g>
			<defs>
				<path id="SVGID_3_" d="M825.13,1783.68c-6.13-2.16-90.45-477.2-64.48-522.03c12.4-21.42,44.56-18.8,66.38-7.11
					c44.98,24.12,55.74,509.79,53.48,515.03C872.78,1787.51,849.72,1792.32,825.13,1783.68z"/>
			</defs>
			<clipPath id="SVGID_4_">
				<use xlink:href="#SVGID_3_"  style="overflow:visible;"/>
			</clipPath>
			<path class="st15" d="M878.14,1777.68c-12.14-209.26-35.37-529.91-86.96-522.86c-28.1,3.84-29.12,6.15-39,43.49
				c-4.88,18.44-15.11-54.14,30.34-60.67c20.26-2.91,48.39,2.28,56.59,15.51c16.92,27.29,56.94,509.66,56.58,514.68
				C894.44,1785.06,878.43,1782.7,878.14,1777.68z"/>
		</g>
		<path class="st11" d="M437.78,1803.97c-5.85-2.83-28.01-476.34-5.52-525.97c10.22-22.54,54.25-2.12,71.75,15.38
			c35.46,35.46-6.8,497.83-9.63,502.78C484.7,1813.13,461.24,1815.32,437.78,1803.97z"/>
		<g>
			<defs>
				<path id="SVGID_5_" d="M437.78,1803.97c-5.85-2.83-28.01-476.34-5.52-525.97c10.22-22.54,54.25-2.12,71.75,15.38
					c35.46,35.46-6.8,497.83-9.63,502.78C484.7,1813.13,461.24,1815.32,437.78,1803.97z"/>
			</defs>
			<clipPath id="SVGID_6_">
				<use xlink:href="#SVGID_5_"  style="overflow:visible;"/>
			</clipPath>
			<path class="st16" d="M470.25,1811.02c-2.02-2.83,86.33-525.36-30.73-534.96c-73.03-5.99,70.7-51.96,76.74-34.46
				c12.22,35.46-5.34,549.62-6.32,554.57C506.59,1813.13,478.34,1822.37,470.25,1811.02z"/>
		</g>
		<path d="M804.61,1701.13c9.48-5.74-1.46,32.1,33.92,28.57c35.47-3.54,35.9-51.52,46.3-42.58
			c15.71,13.51,33.09,105.09,33.09,105.09s-19.04,80.19-35.79,104.57c-2,2.9-156.96,1.37-157.27-0.12
			c-12.21-58.92,52.06-88.62,72.98-112.31C802.75,1778.78,789.78,1710.11,804.61,1701.13z"/>
		<path d="M724.08,1898.28l158.04-0.69c0,0-17.09-91.67-90.73-85.91C705.25,1818.43,724.08,1898.28,724.08,1898.28z"/>
		<path d="M503.18,1708.02c29.12-16.99,20.44,168.92,20.44,168.92l-265.27-0.09c0,0,4.93-56.24,14.93-68.49
			c25.38-31.07,123.75-23.85,145.2-58.78c5.77-9.39,11.64-43.44,12.67-41.58c1.77,3.19,1.61,25.93,13.72,33.77
			C476.62,1762.31,498.39,1710.81,503.18,1708.02z"/>
	</g>
	<g id="Layer_14">
		<path class="st9" d="M1103.75,1064.93c-12.93-18.86-99.01-197.51-99.01-197.51l74.41-34.45c0,0,77.46,162.69,77.46,214.13
			C1156.62,1063.8,1118.27,1086.1,1103.75,1064.93z"/>
		<path class="st17" d="M1019.09,775.22c65.88,11.16,84.73,82.14,84.67,82.49c-4.95,25.89-61,52.47-88.22,56.88
			C1015.37,914.61,935.04,754.51,1019.09,775.22z"/>
		<g>
			<defs>
				<path id="SVGID_7_" d="M1019.09,775.22c65.88,11.16,84.73,82.14,84.67,82.49c-4.95,25.89-61,52.47-88.22,56.88
					C1015.37,914.61,935.04,754.51,1019.09,775.22z"/>
			</defs>
			<clipPath id="SVGID_8_">
				<use xlink:href="#SVGID_7_"  style="overflow:visible;"/>
			</clipPath>
			<path class="st18" d="M1030.23,926.63c-6.86-24.45-10.5-66.26-7.42-91.47c0.77-6.35,1.32-24.38,3.56-30.37
				c2.42-6.49,15.33-1.36,20.53,2.36c5.13,3.66,10.17,13.67,10.68,20.04C1060.51,864.24,1051.3,907.66,1030.23,926.63z"/>
		</g>
		<g>
			<path class="st9" d="M501.06,1132.4c-2.06-3.71,137.3-288.65,137.3-288.65l72.98,37.38c0,0-144.86,279.91-150.3,280.65
				C544.5,1164.03,509.17,1147,501.06,1132.4z"/>
			<g>
				<defs>
					<path id="SVGID_9_" d="M695.75,785.22c-62.78,11.16-80.75,82.14-80.69,82.49c4.71,25.89,58.14,52.47,84.08,56.88
						C699.3,924.61,775.85,764.51,695.75,785.22z"/>
				</defs>
				<use xlink:href="#SVGID_9_"  style="overflow:visible;fill:#E6E7E8;"/>
				<clipPath id="SVGID_10_">
					<use xlink:href="#SVGID_9_"  style="overflow:visible;"/>
				</clipPath>
				<path class="st19" d="M650.24,826.9c10.59,34.3,27.94,79.43,45.71,110.61c3.72-33.88-1.25-80.38-8.79-113.62
					c-2-8.83-11.09-15.45-20.11-14.66C658.04,810.04,647.66,818.54,650.24,826.9z"/>
			</g>
		</g>
		<g>
			<path class="st17" d="M694.97,785.39L815.52,754c0,0,7.37,22.52,39.05,20.72c30.27-1.72,31.08-26.68,31.08-26.68l134.72,28.06
				c0,0,28.41,429.18,21.88,433.2c-63.73,39.26-303.89,24.55-351.37,9.71C684.84,1217.13,694.97,785.39,694.97,785.39z"/>
			<path class="st17" d="M914.6,886.03c-15.45-10.75-98.21,165.03-118.98,258.24c-2.44,10.94,7.79,21.89,18.96,22.85
				s21.85-5.91,28.49-14.94c6.64-9.03,10-19.99,13.25-30.72C880.21,1042.46,930.96,897.41,914.6,886.03z"/>
		</g>
		<path class="st11" d="M1116.4,922.69c25.08-79.34,40.19-172.53,73.03-167.58c35.3,5.32,4.96,140.81-10.72,224.13
			c-15.67,83.31-30.68,98.6-52.03,94.58C1105.33,1069.8,1090.85,1003.53,1116.4,922.69z"/>
		<g id="Layer_45">
			<path class="st11" d="M1193.9,808.87c13.78,0,21.7-1.59,39.79-49.36c8.75-23.11,9.5-65.76-21.25-35.01
				c-17.32,17.32-43.17-76.06-75.6-18.52c-15.41,27.34-18.15,34.42-7.49,56.47C1141.75,788.13,1146,808.87,1193.9,808.87z"/>
			<path class="st11" d="M1117.05,719.89c-1.26,27.09,9.13,54.54,28.01,74.01c6.75,6.96,18.21,8.79,26.8,4.27
				c8.58-4.52,13.57-15,11.66-24.51c-2.3-11.45-5.05-22.95-10.38-33.35s-13.52-19.7-24.23-24.35S1124.79,712.03,1117.05,719.89z"/>
			<path class="st11" d="M1182.89,590.38c-1.98-4.91-16.69-4.31-18.11,4.09c-5.14,30.51-9.5,76.91-16.93,97.54
				c4.9,4.02,10.4,7.89,16.72,8.37s13.74-3.76,13.74-10.1C1178.31,649.72,1186.9,600.31,1182.89,590.38z"/>
			<path class="st9" d="M1194.9,680.6c-5.43-0.75-11.38,0.1-15.98,3.09c-4.6,2.98-7.53,8.39-7.52,13.87
				c0.01,10.02-1.06,20.06-0.37,30.06s3.32,20.24,9.79,27.9c6.47,7.65,17.15,18.83,26.63,15.57c19.43-6.69,32.17-35.91,27.61-55.95
				S1209.77,682.64,1194.9,680.6z"/>
			<path class="st11" d="M1198.9,679.1c-5.43-0.75-11.38,0.1-15.98,3.09c-4.6,2.98-7.53,8.39-7.52,13.87
				c0.01,10.02-1.06,20.06-0.37,30.06s3.32,20.24,9.79,27.9c6.47,7.65,17.15,18.83,26.63,15.57c19.43-6.69,32.17-35.91,27.61-55.95
				S1213.77,681.14,1198.9,679.1z"/>
			<path class="st9" d="M1120.2,720.06c0-9.11,12.51-13.06,30.7-17.17c17.65-3.99,35.82-5.31,36.38-2.37
				c2.52,13.25-17.38,23.37-34.69,29.67C1135.06,736.55,1120.2,742.25,1120.2,720.06z"/>
			<path class="st11" d="M1116.79,716.56c0-9.11,12.51-13.06,30.7-17.17c17.65-3.99,35.82-5.31,36.38-2.37
				c2.52,13.25-17.38,23.37-34.69,29.67C1131.65,733.05,1116.79,738.75,1116.79,716.56z"/>
		</g>
	</g>
	<g id="Layer_18">
		<polygon class="st20" points="710.7,1268.06 711.35,1239.91 854.28,1203.93 854.35,1230.58 		"/>
		<polygon class="st21" points="697.35,1245.62 854.35,1203.82 542.35,1203.82 		"/>
		<rect x="409.2" y="1241.58" class="st20" width="302.15" height="26.48"/>
		<polygon class="st20" points="409.08,1241.58 303.08,1066.58 606.2,1066.58 711.35,1241.58 		"/>
	</g>
	<g id="Layer_13">
		<path class="st22" d="M713.67,577.53c-30.44-72.87,1.49-198,129-198c145.31,0,149.85,118.46,129,196.25
			c-0.26,0.98-5.33-131.25-125-131.25C717.17,444.53,716.25,583.71,713.67,577.53z"/>
		<path class="st22" d="M960.21,446.51c22.86,0.88,45.86-4.02,66.97-14.26c-1.51,18.75-10.83,36.43-24.51,46.51
			s-31.41,12.3-46.62,5.87c-7-2.96-11.71-11.95-10.76-20.54S952.62,446.22,960.21,446.51z"/>
		<path class="st22" d="M814.44,382.03c52.45-58.03,167.53,22.55,215.79,10.98c-7.69,28.03-29.07,51.95-56.06,62.73
			c-26.99,10.78-58.97,8.17-83.85-6.84c-10.25-6.18-16.72-18.17-16.26-30.13C874.52,406.82,811.82,384.93,814.44,382.03z"/>
	</g>
	<g id="Layer_66">
		<path class="st23" d="M821.68,1111.3V871.24c0-17.44,10.94-31.59,24.43-31.59h369.43c13.49,0,24.43,14.14,24.43,31.59v240.06
			c0,17.44-10.94,31.59-24.43,31.59H846.11C832.62,1142.88,821.68,1128.74,821.68,1111.3"/>
		<g>
			<polyline class="st24" points="871.29,888.71 867.45,1034.27 1022.89,1033.98 			"/>
			<path class="st24" d="M871.29,1033.98c6.12-33.85,19.42-66.39,38.79-94.82c4.92-7.23,16.64-6.28,23.17-0.45s9.26,14.68,11.94,23
				c2.69,8.33,6,17.12,13.13,22.18c7.14,5.06,19.19,3.92,22.38-4.23c10.87-27.72,21.75-55.43,32.62-83.15"/>
		</g>
		<g>
			<line class="st24" x1="1075.36" y1="897.39" x2="1203.38" y2="898.08"/>
			<line class="st24" x1="1075.36" y1="927.39" x2="1203.38" y2="928.08"/>
			<line class="st24" x1="1075.36" y1="962.3" x2="1203.38" y2="962.99"/>
			<line class="st24" x1="1075.36" y1="991.5" x2="1203.38" y2="992.19"/>
			<line class="st24" x1="1075.36" y1="1027.21" x2="1203.38" y2="1027.9"/>
			<line class="st24" x1="871.36" y1="1086.62" x2="1198.36" y2="1087.32"/>
		</g>
	</g>
</g>
<g id="Exec">
	<g id="Layer_17">
		<g id="Layer_39">
		</g>
		<g id="Layer_53">
		</g>
	</g>
	<g id="Layer_21">
		<g id="Layer_47">
		</g>
		<g id="Layer_46">
		</g>
	</g>
	<g id="Layer_20">
		<g id="Layer_16">
		</g>
	</g>
</g>
<g id="graphic">
	<g id="Layer_61">
	</g>
	<g id="Layer_35">
		<g id="Layer_50">
		</g>
		<g id="Layer_49">
		</g>
	</g>
	<g id="Layer_36">
	</g>
	<g id="Layer_32">
		<g id="Layer_33">
		</g>
		<g id="Layer_38">
			<g id="Layer_34">
			</g>
		</g>
	</g>
	<g id="Layer_28">
		<g id="Layer_30">
		</g>
		<g id="Layer_29">
		</g>
	</g>
</g>
<g id="drylab">
	<g id="Layer_58">
	</g>
	<g id="Layer_26">
	</g>
	<g id="Layer_22">
	</g>
	<g id="Layer_23">
	</g>
	<g id="Layer_25">
	</g>
	<g id="Layer_24">
	</g>
	<g id="Layer_48">
	</g>
</g>
<g id="wetlab">
	<g id="Layer_57">
	</g>
	<g id="Layer_40">
	</g>
	<g id="Layer_51">
	</g>
	<g id="Layer_41">
	</g>
	<g id="Layer_44">
	</g>
	<g id="Layer_7">
	</g>
	<g id="skin">
	</g>
	<g id="Layer_52">
	</g>
	<g id="Hair">
	</g>
	<g id="Layer_54">
	</g>
	<g id="Layer_6">
	</g>
	<g id="Layer_37">
	</g>
	<g id="Layer_8">
	</g>
	<g id="Layer_9">
	</g>
</g>
<g id="segmented_ver.">
	<g id="Segment_wetlab">
	</g>
	<g id="Segment_business_e">
	</g>
	<g id="Segment_exec">
	</g>
	<g id="Layer_59">
	</g>
	<g id="Layer_60">
	</g>
</g>
<g id="Subteams_Graphic">
	<g id="Layer_67">
	</g>
	<g id="Layer_63">
	</g>
	<g id="Layer_64">
	</g>
	<g id="Layer_62">
	</g>
</g>
<g id="Layer_69">
</g>
<g id="Layer_68">
</g>
<g id="Layer_1" class="st137">
</g>
</svg>
