<?xml version="1.0" encoding="utf-8"?>
<!-- Generator: Adobe Adobe Illustrator 24.2.0, SVG Export Plug-In . SVG Version: 6.00 Build 0)  -->
<svg version="1.1" xmlns="http://www.w3.org/2000/svg" xmlns:xlink="http://www.w3.org/1999/xlink" x="0px" y="0px"
	 viewBox="0 0 1500 2200" style="enable-background:new 0 0 1500 2200;" xml:space="preserve">
<style type="text/css">
	.st0{fill:#7C84C0;}
	.st1{fill:#F9CDAE;}
	.st2{fill:#73CEE7;}
	.st3{fill:#F8E187;}
	.st4{fill:#F1F1F3;stroke:#000000;stroke-miterlimit:10;}
	.st5{fill:#194058;stroke:#000000;stroke-miterlimit:10;}
	.st6{fill:#42BA87;}
	.st7{fill:#D5D4D8;}
	.st8{fill:none;stroke:#916747;stroke-width:70;stroke-linecap:round;stroke-miterlimit:10;}
	.st9{fill:#916747;}
	.st10{fill:#A37451;}
	.st11{fill:#C2885F;}
	.st12{fill:none;stroke:#A37451;stroke-width:18;stroke-linecap:round;stroke-miterlimit:10;}
	.st13{fill:#666691;}
	.st14{clip-path:url(#SVGID_2_);fill:#666691;}
	.st15{clip-path:url(#SVGID_4_);fill:#916747;}
	.st16{clip-path:url(#SVGID_6_);fill:#916747;}
	.st17{fill:#E6E7E8;}
	.st18{clip-path:url(#SVGID_8_);fill:#D5D4D8;}
	.st19{clip-path:url(#SVGID_10_);fill:#D5D4D8;}
	.st20{fill:#E0E1E2;}
	.st21{fill:#9D9FA1;}
	.st22{fill:#3B2213;}
	.st23{opacity:0.8;fill:#73CEE7;}
	.st24{fill:none;stroke:#FFFFFF;stroke-width:10;stroke-linecap:round;stroke-miterlimit:10;}
	.st25{fill:#594A41;}
	.st26{fill:none;stroke:#BB7D6E;stroke-width:70;stroke-linecap:round;stroke-miterlimit:10;}
	.st27{fill:#E4A38A;}
	.st28{fill:#F5AF93;stroke:#BB7D6E;stroke-width:18;stroke-linecap:round;stroke-miterlimit:10;}
	.st29{fill:#F5AF93;}
	.st30{fill:#BB7D6E;}
	.st31{clip-path:url(#SVGID_12_);fill:#D5D4D8;}
	.st32{clip-path:url(#SVGID_14_);}
	.st33{clip-path:url(#SVGID_16_);fill:#BB7D6E;}
	.st34{clip-path:url(#SVGID_18_);fill:#BB7D6E;}
	.st35{clip-path:url(#SVGID_20_);fill:#66B1C3;}
	.st36{opacity:0.6784;fill:#404041;}
	.st37{fill:#D3C174;}
	.st38{clip-path:url(#SVGID_22_);}
	.st39{opacity:0.302;fill:#73CEE7;}
	.st40{fill:#66B1C3;}
	.st41{clip-path:url(#SVGID_24_);fill:#666691;}
	.st42{clip-path:url(#SVGID_26_);fill:#666691;}
	.st43{clip-path:url(#SVGID_28_);fill:#666691;}
	.st44{fill:#262161;}
	.st45{fill:none;stroke:#F5AF93;stroke-width:70;stroke-linecap:round;stroke-miterlimit:10;}
	.st46{fill:#8A5D3B;}
	.st47{fill:#194058;}
	.st48{fill:#A7A9AC;stroke:#A7A9AC;stroke-width:20;stroke-miterlimit:10;}
	.st49{fill:#FFFFFF;stroke:#A7A9AC;stroke-width:20;stroke-miterlimit:10;}
	.st50{fill:#A1DCEF;}
	.st51{fill:#A7A9AC;}
	.st52{opacity:0.0392;}
	.st53{fill:#FDE1CE;}
	.st54{fill:none;stroke:#FAC9A7;stroke-width:70;stroke-linecap:round;stroke-miterlimit:10;}
	.st55{fill:#C49A6B;}
	.st56{fill:#FAC9A7;}
	.st57{fill:#4F4E6D;}
	.st58{clip-path:url(#SVGID_30_);fill:#4F4E6D;}
	.st59{clip-path:url(#SVGID_32_);fill:#4F4E6D;}
	.st60{clip-path:url(#SVGID_34_);fill:#D5D4D8;}
	.st61{clip-path:url(#SVGID_36_);fill:#4F4E6D;}
	.st62{clip-path:url(#SVGID_38_);fill:#4F4E6D;}
	.st63{clip-path:url(#SVGID_40_);fill:#C8CCE7;}
	.st64{fill:#F5AF93;stroke:#F5AF93;stroke-width:18;stroke-linecap:round;stroke-miterlimit:10;}
	.st65{fill:#C8CCE7;}
	.st66{fill:#8B8AC3;}
	.st67{fill:#FFFFFF;stroke:#73CEE7;stroke-width:5;stroke-miterlimit:10;}
	.st68{clip-path:url(#SVGID_42_);fill:#66B1C3;}
	.st69{fill:#73CEE7;stroke:#73CEE7;stroke-width:5;stroke-miterlimit:10;}
	.st70{clip-path:url(#SVGID_44_);fill:#66B1C3;}
	.st71{fill:#F1F1F3;}
	.st72{clip-path:url(#SVGID_46_);fill:#4F4E6D;}
	.st73{clip-path:url(#SVGID_48_);fill:#4F4E6D;}
	.st74{clip-path:url(#SVGID_50_);fill:#C8CCE7;}
	.st75{clip-path:url(#SVGID_52_);fill:#66B1C3;}
	.st76{clip-path:url(#SVGID_54_);fill:#66B1C3;}
	.st77{clip-path:url(#SVGID_56_);fill:#666691;}
	.st78{clip-path:url(#SVGID_58_);fill:#916747;}
	.st79{clip-path:url(#SVGID_60_);fill:#916747;}
	.st80{clip-path:url(#SVGID_62_);fill:#D5D4D8;}
	.st81{clip-path:url(#SVGID_64_);fill:#D5D4D8;}
	.st82{clip-path:url(#SVGID_66_);fill:#D5D4D8;}
	.st83{clip-path:url(#SVGID_68_);}
	.st84{clip-path:url(#SVGID_70_);fill:#BB7D6E;}
	.st85{clip-path:url(#SVGID_72_);fill:#BB7D6E;}
	.st86{clip-path:url(#SVGID_74_);fill:#66B1C3;}
	.st87{clip-path:url(#SVGID_76_);}
	.st88{clip-path:url(#SVGID_78_);fill:#4F4E6D;}
	.st89{clip-path:url(#SVGID_80_);fill:#4F4E6D;}
	.st90{clip-path:url(#SVGID_82_);fill:#D5D4D8;}
	.st91{clip-path:url(#SVGID_84_);fill:#666691;}
	.st92{clip-path:url(#SVGID_86_);fill:#666691;}
	.st93{clip-path:url(#SVGID_88_);fill:#666691;}
	.st94{fill:#E6E7E8;stroke:#A7A9AC;stroke-width:20;stroke-linecap:square;stroke-miterlimit:10;}
	.st95{fill:#FFFFFF;}
	.st96{fill:#BCBEC0;}
	.st97{fill:none;stroke:#FFFFFF;stroke-width:10;stroke-miterlimit:10;}
	.st98{opacity:0.2;}
	.st99{clip-path:url(#SVGID_90_);fill:#58595B;}
	.st100{fill-rule:evenodd;clip-rule:evenodd;fill:#F8E187;}
	.st101{opacity:0.1098;}
	.st102{clip-path:url(#SVGID_92_);}
	.st103{opacity:0.0196;}
	.st104{clip-path:url(#SVGID_94_);fill:#4F4E6D;}
	.st105{clip-path:url(#SVGID_96_);fill:#4F4E6D;}
	.st106{clip-path:url(#SVGID_98_);fill:#D5D4D8;}
	.st107{display:none;opacity:0.0314;}
	.st108{display:inline;}
	.st109{stroke:#A7A9AC;stroke-width:20;stroke-miterlimit:10;}
	.st110{display:inline;opacity:0.1216;}
	.st111{stroke:#FAC9A7;stroke-width:70;stroke-linecap:round;stroke-miterlimit:10;}
	.st112{clip-path:url(#SVGID_100_);}
	.st113{clip-path:url(#SVGID_102_);}
	.st114{clip-path:url(#SVGID_104_);}
	.st115{clip-path:url(#SVGID_106_);fill:#4F4E6D;}
	.st116{clip-path:url(#SVGID_108_);fill:#4F4E6D;}
	.st117{clip-path:url(#SVGID_110_);fill:#C8CCE7;}
	.st118{clip-path:url(#SVGID_112_);fill:#66B1C3;}
	.st119{clip-path:url(#SVGID_114_);fill:#66B1C3;}
	.st120{clip-path:url(#SVGID_116_);}
	.st121{clip-path:url(#SVGID_118_);}
	.st122{clip-path:url(#SVGID_120_);}
	.st123{stroke:#F5AF93;stroke-width:70;stroke-linecap:round;stroke-miterlimit:10;}
	.st124{stroke:#F5AF93;stroke-width:18;stroke-linecap:round;stroke-miterlimit:10;}
	.st125{display:inline;stroke:#73CEE7;stroke-width:5;stroke-miterlimit:10;}
	.st126{clip-path:url(#SVGID_122_);}
	.st127{clip-path:url(#SVGID_124_);}
	.st128{clip-path:url(#SVGID_126_);fill:#666691;}
	.st129{clip-path:url(#SVGID_128_);fill:#916747;}
	.st130{clip-path:url(#SVGID_130_);fill:#916747;}
	.st131{clip-path:url(#SVGID_132_);fill:#D5D4D8;}
	.st132{clip-path:url(#SVGID_134_);fill:#D5D4D8;}
	.st133{fill:#808284;}
	.st134{fill-rule:evenodd;clip-rule:evenodd;fill:#F0BF4F;}
	.st135{fill:none;stroke:#808284;stroke-width:60;stroke-miterlimit:10;}
	.st136{fill:none;stroke:#808284;stroke-width:60;stroke-linecap:round;stroke-miterlimit:10;}
	.st137{display:none;}
	.st138{display:inline;opacity:0.2706;}
</style>
<g id="Layer_2">
</g>
<g id="Business">
	<g id="Layer_65">
	</g>
	<g id="Layer_15">
	</g>
	<g id="Layer_14">
		<g id="Layer_45">
		</g>
	</g>
	<g id="Layer_18">
	</g>
	<g id="Layer_13">
	</g>
	<g id="Layer_66">
	</g>
</g>
<g id="Exec">
	<g id="Layer_17">
		<g id="Layer_39">
		</g>
		<g id="Layer_53">
		</g>
	</g>
	<g id="Layer_21">
		<g id="Layer_47">
		</g>
		<g id="Layer_46">
		</g>
	</g>
	<g id="Layer_20">
		<g id="Layer_16">
		</g>
	</g>
</g>
<g id="graphic">
	<g id="Layer_61">
	</g>
	<g id="Layer_35">
		<g id="Layer_50">
		</g>
		<g id="Layer_49">
		</g>
	</g>
	<g id="Layer_36">
	</g>
	<g id="Layer_32">
		<g id="Layer_33">
		</g>
		<g id="Layer_38">
			<g id="Layer_34">
			</g>
		</g>
	</g>
	<g id="Layer_28">
		<g id="Layer_30">
		</g>
		<g id="Layer_29">
		</g>
	</g>
</g>
<g id="drylab">
	<g id="Layer_58">
		<ellipse class="st7" cx="790.53" cy="1838.06" rx="557" ry="89.01"/>
		<g>
			<g>
				<path class="st48" d="M834.3,876c0,9.52,0.56,16.08,0.56,24.44c0,8.23,1.03,17.39-4.94,23.38c-5.66,5.68-14.7,6.63-22.94,7.23
					l-87.13,6.32c-7.18,0.52-14.78,1.18-20.59,5.2c-5.81,4.02-8.65,12.67-3.86,17.74c118.14-0.37,236.28-0.74,354.42-1.11
					c0.89,0.66,2.53-5.08,2.63-6.16c0.25-2.6,1.18-9.19-5.32-14.05c-4-3-9.46-3.4-14.56-3.68c-36-2-72.01-4-108.01-6
					c-7.51-0.42-16.06-1.36-20.38-7.17c-2.73-3.68-3.02-8.46-3.22-12.95c-0.49-11.3-0.97-22.6-1.25-33.87"/>
				<path class="st49" d="M540.1,845.32V471.21c0-16.57,13.43-30,30-30h601.4c16.57,0,30,13.43,30,30v374.11c0,16.57-13.43,30-30,30
					H570.1C553.53,875.32,540.1,861.89,540.1,845.32"/>
			</g>
			<g>
				<path class="st40" d="M918.2,620.12c-4.05,2.44-5.37,5.95-6.82,9.16c-5.22,11.55-14.56,19.56-24.4,26.52
					c-5.74,4.06-13.85,4.15-20.31,7.82c-2.7,1.53-6.3,0.6-8.8-1.07c-8.86-5.9-19.58-8.36-27.72-15.7c-5.15-4.64-9.31-9.4-10.8-16.4
					c-1.51-7.09-3.65-14.05-5.64-21.58c-5.12,3.19-8.18,7.4-11.19,11.43c-4.25,5.67-9.29,10.29-14.78,14.75
					c-6.18,5.02-12.62,5.79-19.68,3.91c-8.25-2.2-16.43-4.58-24.76-6.51c-12.65-2.93-23.68-16.46-24.57-29.39
					c-0.57-8.34-2.14-9.7-10.2-7.33c-17.19,5.06-31.82,0.67-44.6-11.29c-4.31-4.04-7.78-8.58-8.61-14.7
					c-1.07-7.81-2.63-15.58-3.27-23.42c-0.35-4.35-1.2-8.5-2.6-12.48c-2.12-6.05-8.44-8.32-14.03-5.32
					c-8.91,4.78-17.73,9.71-22.22,19.55c-0.37,0.82-0.93,1.64-1.61,2.21c-1.7,1.44-3.75,2.57-5.79,1.04
					c-1.9-1.42-2.13-3.72-1.15-5.81c0.76-1.63,2.05-2.99,2.98-4.55c6.43-10.79,17.59-15.68,27.6-21.9
					c4.38-2.72,15.91,1.38,19.63,6.33c3.21,4.27,4.65,9.05,5.04,14.43c0.73,10,1.75,19.97,4.71,29.66
					c1.51,4.93,3.11,9.52,9.09,10.02c5.68,0.47,9.59-1.93,12.67-7.07c4.67-7.8,9.61-15.34,13.87-23.46
					c8.46-16.12,31.48-26.06,47.51-16.06c3.75,2.34,8.11,2.92,12.18,3.78c9.02,1.9,12.51,7.66,10.78,17.89
					c-2.19,12.99-2.21,26.1-3.07,39.17c-0.06,0.86-0.25,1.84,1.36,2.74c5.68-2.91,10.26-7.42,14.23-12.84
					c5.94-8.09,11.88-16.2,18.36-23.84c9.11-10.74,14.49-12.06,27.25-6.45c8.9,3.92,17.31,8.95,26.09,13.19
					c5.11,2.47,7.01,6.53,7.11,11.78c0.18,10.33,0.27,20.66,0.4,30.99c0.02,1.52-0.1,3.06,0.12,4.55
					c1.27,8.41,5.33,10.08,12.46,5.03c2.23-1.58,4.55-3.33,6.08-5.52c7.25-10.41,18.57-15.56,28.41-22.65c4.6-3.31,9.56-2,14.12-1
					c12.47,2.75,23.64,9.23,32.93,17.33c9.63,8.41,13.55,20.58,11.67,33.87c-0.51,3.62-1,7.24-1.48,10.86
					c-0.24,1.8-0.75,3.9,1.23,4.92c2.46,1.27,5.63,0.43,6.66-1.41c3.59-6.42,10.48-8.93,15.27-13.89c3.59-3.72,8.13-6.17,13.06-8.16
					c12.39-5.02,23.45-0.58,34.04,4.77c11.12,5.62,21.84,12.01,31.02,20.79c7.46,7.14,9.13,15.58,3.61,24.62
					c-3.01,4.93-7.19,9.04-9.83,14.29c-3.37,6.72-0.2,13.42,7.26,14.7c6.21,1.06,12.09-1.12,17.33-3.46
					c7.37-3.29,15.06-5.14,22.74-6.75c13.13-2.76,26.53,8.76,28.12,22.15c0.9,7.57-0.67,14.43-2.24,21.56
					c-2.9,13.09-7.28,25.65-12.39,37.99c-0.83,2-2.09,3.65-4.06,4.8c-3.68,2.14-7.43,4.23-10.85,6.74c-8.06,5.92-16,4.57-23.93-0.01
					c-7.39-4.26-15.33-5.75-23.73-5.15c-5.58,0.4-8.57,3.55-9.02,9.34c-0.47,5.93,1.72,9.73,6.94,10.75
					c3.04,0.6,5.73,1.32,5.39,4.78c-0.37,3.78-3.45,4.64-6.81,4.51c-6.58-0.25-12.91-6.48-13.85-13.65
					c-0.08-0.6-0.05-1.22-0.07-1.82c-0.49-16.98,7.13-24.15,24.15-22.25c7.28,0.81,14.55,2.13,20.7,6.68
					c3.45,2.56,7.13,3.11,11.23,1.59c8.32-3.08,16.61-5.62,18.49-16.48c0.73-4.26,3.98-8.11,4.68-12.76
					c1.73-11.6-2.31-17.37-13.73-19.27c-12.01-2-22.88,2.12-33.58,6.59c-2.83,1.18-5.6,2.5-8.59,2.97
					c-7.16,1.14-12.42-2.64-15.89-9.54c-6.96-13.84-13.82-27.86-24.27-39.49c-7.01-7.8-11-15.95-7.88-26.56
					c0.51-1.71,0.32-3.63,0.47-5.45c0.17-2.08,1.06-4.55-1.58-5.58c-2.18-0.85-4.15,0.34-5.8,1.82
					c-7.04,6.27-13.58,13.04-21.15,18.81c-11.3,8.62-24.74,10.45-37.56,3.81c-3.78-1.96-7.18-4.6-11.47-5.64
					c-3.18-0.78-4.78-3.62-6.46-6.18c-6.1-9.31-9.73-19.2-10.71-30.6C922.92,638.13,923.46,628.92,918.2,620.12 M727.23,605.55
					c1.46,3.39,1.38,6.87,4.25,9.35c6.05,5.22,12.09,9.89,20.66,10.47c8.48,0.57,8.43,0.99,7.01-7.79
					c-0.24-1.49-0.41-3.02-0.38-4.52c0.41-20.07,0.97-40.16,4.15-60.01c0.83-5.21-0.91-7.16-5.33-8.52
					c-4.64-1.43-9.47-2.71-13.65-5.07c-6.8-3.84-13.45-3.15-20.25-0.86c-4.94,1.67-5.83,3.61-3.4,8.13
					c3.28,6.09,4.42,12.46,4.37,19.3C724.56,579.38,725.61,592.67,727.23,605.55 M853.25,578.44c-0.2-3.64-3.23-6.67-7.55-7.99
					c-6.54-2.01-12.03-5.89-17.89-9.12c-2.68-1.48-5.28-3.05-8.41-3.44c-1.56-0.2-3.17-0.44-4.27,0.83
					c-1.16,1.34-0.47,2.81,0.3,4.19c5.87,10.49,5.27,22.27,6.31,33.62c0.89,9.68,1.28,19.45,4.08,28.74
					c2,6.62,5.68,12.29,11.52,17.02c7.15,5.78,16.45,6.29,23.61,11.6c1.88,1.39,4.18-0.92,3.34-3.36c-0.68-1.97-1.92-3.77-3.02-5.58
					c-3.22-5.27-5.6-10.92-6.17-17.04c-0.69-7.54-0.57-15.15-1.12-22.71C853.38,596.71,855.08,588.18,853.25,578.44 M1027.18,645.01
					c0.15,3.48,0.48,6.2,0.33,8.88c-0.41,7.29-0.71,14.57-1.82,21.82c-1.08,7.08-0.56,14.01,4.96,19.58
					c7.58,7.66,12.73,16.99,17.9,26.3c3.53,6.37,7.26,12.63,10.86,18.96c1.1,1.94,2.67,2.32,4.62,1.65c2.18-0.75,2.61-2.48,2.02-4.4
					c-0.54-1.72-1.29-3.41-2.21-4.95c-3.27-5.48-6.67-10.87-9.97-16.34c-3.92-6.5-4.59-13.05-0.44-19.81
					c3.51-5.72,6.86-11.54,10.15-17.39c3.45-6.16,3.01-9.77-1.97-14.64c-3.47-3.4-6.85-7.18-10.98-9.57
					C1043.47,650.98,1037.31,644.15,1027.18,645.01 M957.41,680.99c-0.71-7.72-1.07-14.01-0.09-20.39c1.24-8.1,2.3-16.29,2.63-24.47
					c0.43-10.61-3.16-19.85-12.22-26.04c-5.28-3.61-11.02-6.54-16.58-9.72c-1.84-1.05-3.83-2.41-5.92-0.88
					c-2.24,1.64-0.91,3.9-0.45,5.89c1.5,6.53,3.77,12.96,4.51,19.57c1.48,13.31,2.99,26.6,7.37,39.3
					C939.87,673.6,946.9,678.81,957.41,680.99"/>
				<g>
					<path class="st50" d="M727.23,605.55c-1.61-12.88-2.67-26.17-2.57-39.51c0.05-6.84-1.09-13.21-4.37-19.3
						c-2.44-4.52-1.55-6.47,3.4-8.13c6.8-2.29,13.45-2.98,20.25,0.86c4.18,2.36,9.01,3.64,13.65,5.06c4.42,1.36,6.17,3.31,5.33,8.52
						c-3.18,19.85-3.73,39.94-4.15,60.01c-0.03,1.51,0.14,3.03,0.38,4.52c1.42,8.79,1.47,8.36-7.01,7.79
						c-8.56-0.58-14.61-5.25-20.66-10.47C728.61,612.42,728.68,608.94,727.23,605.55"/>
					<path class="st50" d="M853.25,578.44c1.83,9.73,0.13,18.27,0.74,26.76c0.55,7.56,0.43,15.17,1.12,22.71
						c0.56,6.12,2.95,11.77,6.17,17.04c1.1,1.81,2.34,3.6,3.02,5.58c0.84,2.44-1.47,4.74-3.34,3.36c-7.16-5.3-16.46-5.81-23.61-11.6
						c-5.85-4.73-9.53-10.4-11.52-17.02c-2.8-9.29-3.19-19.06-4.08-28.74c-1.04-11.35-0.44-23.14-6.31-33.62
						c-0.77-1.38-1.46-2.85-0.3-4.19c1.09-1.26,2.7-1.02,4.27-0.83c3.13,0.4,5.73,1.96,8.41,3.44c5.86,3.23,11.34,7.11,17.89,9.12
						C850.01,571.78,853.05,574.8,853.25,578.44"/>
					<path class="st50" d="M1027.18,645.01c10.12-0.86,16.29,5.97,23.45,10.11c4.13,2.39,7.51,6.17,10.98,9.57
						c4.98,4.88,5.42,8.48,1.97,14.64c-3.28,5.85-6.63,11.67-10.14,17.39c-4.15,6.76-3.49,13.31,0.44,19.81
						c3.29,5.46,6.7,10.85,9.97,16.33c0.92,1.55,1.68,3.24,2.21,4.95c0.6,1.92,0.16,3.65-2.02,4.4c-1.95,0.67-3.52,0.29-4.62-1.65
						c-3.59-6.33-7.32-12.59-10.86-18.96c-5.17-9.32-10.32-18.65-17.9-26.31c-5.52-5.57-6.05-12.51-4.96-19.58
						c1.11-7.25,1.41-14.53,1.82-21.82C1027.67,651.21,1027.33,648.49,1027.18,645.01"/>
					<path class="st50" d="M957.41,680.99c-10.51-2.18-17.54-7.4-20.75-16.73c-4.38-12.7-5.89-25.99-7.37-39.3
						c-0.73-6.61-3-13.04-4.51-19.57c-0.46-1.98-1.79-4.24,0.45-5.89c2.09-1.53,4.08-0.17,5.92,0.88c5.56,3.18,11.3,6.11,16.58,9.72
						c9.06,6.2,12.66,15.43,12.22,26.04c-0.33,8.18-1.39,16.36-2.63,24.47C956.34,666.99,956.7,673.28,957.41,680.99"/>
				</g>
			</g>
		</g>
		<polygon class="st51" points="633.72,1073.19 674.33,1017.19 1204.38,1022.27 1165,1073.19 		"/>
		<path class="st52" d="M556.6,712.59c0-99.83,2.22-186.75,78.97-186.75S788.74,655.33,750,747.34
			c-14.01,33.27-15.99,101.13,3.93,115.22c66.39,46.94,126.88,158.64,126.88,158.64l139.91-4l-139.49,130.47
			c0,0-257.35-213.25-289.65-213.25C514.82,934.42,556.6,812.42,556.6,712.59z"/>
	</g>
	<g id="Layer_26">
		<g>
			<path class="st53" d="M455.09,688.15c0-85.33,57.76-154.5,129-154.5s129,69.17,129,154.5s-60.76,145.77-132,145.77
				S455.09,773.48,455.09,688.15z"/>
			<line class="st54" x1="570.79" y1="800.61" x2="557.39" y2="867.24"/>
		</g>
		<path class="st55" d="M648.79,723.09c3.13,87.46,26.25,120.05,26.25,120.05l-263.26-16.23c0,0,32.23-64.09,28.8-121.44
			c-0.48-8.09-2.9-32.53,4.1-39.23c26.42-25.33,106.94-32.36,106.94-32.36S647.68,692.09,648.79,723.09z"/>
		<path class="st56" d="M613.54,713.09c0-19.47,15.78-35.25,35.25-35.25s27.78,14.28,27.78,33.75c0,19.47-8.78,35.75-28.25,35.75
			C628.86,747.34,613.54,732.56,613.54,713.09z"/>
		<path class="st55" d="M439.09,677.84c0-85.33,61.34-154.5,137-154.5c54.28,0,107.08,19.26,132.89,90.07
			c1.61,4.41-26.66,28.03-26.66,89.18c0,0.32-6.19,0.3-6.25,0.21c-34.87-54.65-63.82,15.9-45.97,32.21
			c6.79,6.21,20.88,11.96,20.19,12.33c-26.11,13.75-36.47,50.31-51.2,82.5c-4.01-0.76-22.05-33.42-37.11-33.42
			c-17.76,0-30.94,29.76-34.03,29.36C473.87,818.83,439.09,737.29,439.09,677.84z"/>
	</g>
	<g id="Layer_22">
		<path d="M702.68,1838.06l60.37-49.2c0,0-24.12-54.23-47.62-47.33c-33.59,9.87-66.29,0.05-77.19,16.12
			c-9.25,13.64-1.45,65.88-1.45,65.88L702.68,1838.06z"/>
		<path d="M945.9,1830.72l-76.46,37.01l-83.91-16.57c0,0,4.1-59.63,40.22-83.99c10.11-6.82,62.93,21.56,83.23,17.91
			C946.65,1778.32,945.9,1830.72,945.9,1830.72z"/>
		<path class="st57" d="M596.92,1784.07c-2.27-4.94-93.63-455.53-95.47-463.88c-5.27-23.89,42.48-63.36,75.2-31.34
			c35.64,34.88,84.23,482.41,81.44,491.15C648.94,1808.65,602.08,1795.29,596.92,1784.07z"/>
		<g>
			<path class="st13" d="M790.53,1797.24c0-5.29,105.07-439.04,106.88-447.14c5.19-23.17,69.95-39.45,81.28,3.97
				c14.07,53.96-141.57,452.68-138.99,458.14C854.81,1844.12,790.53,1809.24,790.53,1797.24z"/>
			<g>
				<defs>
					<path id="SVGID_29_" d="M790.53,1797.24c0-5.29,105.07-439.04,106.88-447.14c5.19-23.17,69.95-39.45,81.28,3.97
						c14.07,53.96-141.57,452.68-138.99,458.14C854.81,1844.12,790.53,1809.24,790.53,1797.24z"/>
				</defs>
				<clipPath id="SVGID_2_">
					<use xlink:href="#SVGID_29_"  style="overflow:visible;"/>
				</clipPath>
				<path style="clip-path:url(#SVGID_2_);fill:#4F4E6D;" d="M923.14,1483.39c29.8-17.47,51.56-48.09,58.25-81.98
					c6.69-33.89-1.79-70.48-22.71-97.97c-11.33-14.88-35.35-17.87-49.97-6.21c-23.67,18.87-40.46,46.18-46.62,75.82
					c-6.16,29.64-1.63,61.38,12.57,88.11C883.3,1477.41,904.31,1494.43,923.14,1483.39z"/>
			</g>
		</g>
		<g>
			<path class="st13" d="M698.43,1433.9c-31,4.38-50.36-120.47-19.54-126c85.67-15.36,254.01-4.77,270.83,7
				c19.87,13.9,42.86,58.22,20.67,68C923.86,1403.43,765.8,1424.39,698.43,1433.9z"/>
			<g>
				<defs>
					<path id="SVGID_31_" d="M698.43,1433.9c-31,4.38-50.36-120.47-19.54-126c85.67-15.36,254.01-4.77,270.83,7
						c19.87,13.9,42.86,58.22,20.67,68C923.86,1403.43,765.8,1424.39,698.43,1433.9z"/>
				</defs>
				<clipPath id="SVGID_4_">
					<use xlink:href="#SVGID_31_"  style="overflow:visible;"/>
				</clipPath>
				<path style="clip-path:url(#SVGID_4_);fill:#4F4E6D;" d="M670.06,1436.84c107.86,4.91,216.58-9.93,319.17-43.58
					c22.54-7.39,36.57-34.28,29.75-57c-6.83-22.72-34-43.7-56.09-52.35c-52.68-20.64-153.59-29.97-237.36-7.07
					c-21.53,5.89-44.32,70.65-53.7,90.91S666.21,1413.66,670.06,1436.84z"/>
			</g>
		</g>
		<path class="st13" d="M406.4,1393.9v-70c0-22.09,17.91-40,40-40h247c22.09,0,40,17.91,40,40v70c0,22.09-17.91,40-40,40h-247
			C424.31,1433.9,406.4,1416,406.4,1393.9z"/>
	</g>
	<g id="Layer_23">
		<path d="M798.19,1746.14c-13.4,4.28-39.03,88.02-39.03,109.29c0,2.67,111.1,12.31,111.1,12.31s3.44-106.74-7.01-107.09
			c-11.53-0.38-15.16,24.6-36.63,19.95C793.68,1773.45,808.91,1742.72,798.19,1746.14z"/>
		<path d="M579.62,1749.95c-10.77,7.06,7.52,106.08,7.52,106.08l115.83-16.93c0,0-12.48-99.67-39.98-103.98
			c-12.69-1.99-7.39,30.34-36.43,36.22C592.34,1778.27,591.33,1742.28,579.62,1749.95z"/>
	</g>
	<g id="Layer_25">
		<path class="st56" d="M302.48,1161.4c12.46-28.66,118.09-61.57,145.55-58.37c15.89,1.85,31.18,21.32,17.89,30.23
			c-30.16,20.23-109.56,77.16-141.04,73.4C309,1204.77,296.1,1176.07,302.48,1161.4z"/>
		<path class="st53" d="M289.51,1178.91c2.19-56.9,60.15-186.93,95.3-241.95c10.36-16.22,76.59,14.52,69.79,32.53
			c-28.97,76.67-100.07,221.36-112.34,231.52C325.71,1214.71,288.73,1199.23,289.51,1178.91z"/>
		<path class="st7" d="M316.23,1001.39c-1.2-2.61,67.93-124.28,110.19-129.43c26.3-3.21,66.45,14.87,69.91,41.14
			c5.56,42.21-76.05,146.62-80.19,147.43C390.14,1065.67,330.91,1033.28,316.23,1001.39z"/>
	</g>
	<path class="st17" d="M422.59,872.73c68.97-20.72,316.91,4.13,314.79,19.38c-19.9,142.59,2.56,427.58-1.92,431.47
		c-48.86,42.43-267.63,65.01-343.58,1.46C386.71,1320.72,417.25,874.34,422.59,872.73z"/>
	<g>
		<defs>
			<path id="SVGID_33_" d="M422.59,872.73c68.97-20.72,316.91,4.13,314.79,19.38c-19.9,142.59,2.56,427.58-1.92,431.47
				c-48.86,42.43-267.63,65.01-343.58,1.46C386.71,1320.72,417.25,874.34,422.59,872.73z"/>
		</defs>
		<clipPath id="SVGID_6_">
			<use xlink:href="#SVGID_33_"  style="overflow:visible;"/>
		</clipPath>
		<path style="clip-path:url(#SVGID_6_);fill:#D5D4D8;" d="M673.67,926.04c-18.19,19.72-17.93,44.78-13.78,70.63
			c3.29,20.49,22.97,53.89,43.91,70.69c20.94,16.8,48.18,23.02,74.35,12.99c26.18-10.03,34.71-33.35,29.73-59
			c-4.15-21.4-8.48-43-17.88-62.74c-9.4-19.74-24.49-37.75-45.34-46.99C723.79,902.39,698.76,898.85,673.67,926.04z"/>
		<path style="clip-path:url(#SVGID_6_);fill:#D5D4D8;" d="M460.99,854.9c-48.04,170.07-42.4,353.13-42.4,531.17
			c-39.18,12.47-67.43-27.29-66.35-68.39c4.08-154.57,26.27-308.64,65.95-458.08C434.38,858.93,440.58,857.26,460.99,854.9z"/>
	</g>
	<g id="Layer_24">
		<path class="st56" d="M860.3,1145.77c1.62-31.21,89.95-76.79,116.29-92.96c13.63-8.37,33.24,20.38,29.91,23.3
			c-27.32,23.92-78.55,96.68-109.34,104.2C881.62,1184.1,859.48,1161.75,860.3,1145.77z"/>
		<path class="st53" d="M881.88,1179.01c-49.78-27.65-139.62-138.09-172.83-194.29c-9.79-16.57,47.55-61.78,60.54-47.58
			c55.32,60.47,152.31,189.25,155.83,204.79C930.18,1162.88,899.66,1188.88,881.88,1179.01z"/>
		<path class="st17" d="M751.03,1069.28c-3.47,1.28-80.39-76.9-85.55-111.4c-4.27-28.58,30.58-69.03,58.31-70.51
			c38.03-2.03,109.93,103.51,108.94,106.71C824.51,1020.63,792.1,1054.15,751.03,1069.28z"/>
	</g>
	<g id="Layer_48">
		<path class="st56" d="M998.96,1017.34c-13.64-1.09-27.91,4.09-36.8,14.49c-8.89,10.41-11.68,26-5.91,38.41
			s20.32,20.43,33.72,17.64c46.7-9.74,39.99-11.07,59.81-38.03C1058.3,1038.26,1020.88,1019.09,998.96,1017.34z"/>
		<path class="st56" d="M977.86,1016.04c13.18-6.58,32.1-19.25,46.85-24.21c4.65-1.56,26.77,12.49,35.26,25.53
			s14.66,45.3-0.83,43.81c-4.46-0.43-3.94-8.04-5.91-12.07c-2.31,1.15-13.51,11.4-15.43,13.75c-8.34,10.21-32.14-1.67-39.35-9.04
			c-6.59-6.73-11.4-14.95-16.15-23.08C980.18,1027.1,973.93,1018,977.86,1016.04z"/>
		<path class="st56" d="M964.38,993.85c8.37-7.38,37.73-15.69,32.48-5.31c-3.64,7.21-7.05,8.6-11.65,11.3
			c-4.6,2.7-7.99,5.08-13.07,6.33c-2.95,0.73-6.17-0.6-7.75-3.2S962.02,995.94,964.38,993.85z"/>
		<path class="st56" d="M963.05,995.32c-2.38,4.1-3.84,8.65-4.46,13.75c-1.76,14.54-3.51,29.09-5.27,43.63
			c-0.81,6.73,3.89,13.21,9.06,13.77c5.16,0.56,10.13-3.77,12.85-9.57s3.49-12.84,3.48-19.66s-0.76-13.6-0.82-20.41
			c-0.04-4.67,0.23-9.41-0.6-13.95s-3.06-8.98-6.45-10.34C967.43,991.19,964.65,992.57,963.05,995.32z"/>
	</g>
</g>
<g id="wetlab">
	<g id="Layer_57">
	</g>
	<g id="Layer_40">
	</g>
	<g id="Layer_51">
	</g>
	<g id="Layer_41">
	</g>
	<g id="Layer_44">
	</g>
	<g id="Layer_7">
	</g>
	<g id="skin">
	</g>
	<g id="Layer_52">
	</g>
	<g id="Hair">
	</g>
	<g id="Layer_54">
	</g>
	<g id="Layer_6">
	</g>
	<g id="Layer_37">
	</g>
	<g id="Layer_8">
	</g>
	<g id="Layer_9">
	</g>
</g>
<g id="segmented_ver.">
	<g id="Segment_wetlab">
	</g>
	<g id="Segment_business_e">
	</g>
	<g id="Segment_exec">
	</g>
	<g id="Layer_59">
	</g>
	<g id="Layer_60">
	</g>
</g>
<g id="Subteams_Graphic">
	<g id="Layer_67">
	</g>
	<g id="Layer_63">
	</g>
	<g id="Layer_64">
	</g>
	<g id="Layer_62">
	</g>
</g>
<g id="Layer_69">
</g>
<g id="Layer_68">
</g>
<g id="Layer_1" class="st137">
</g>
</svg>
