<?xml version="1.0" encoding="utf-8"?>
<!-- Generator: Adobe Adobe Illustrator 24.2.0, SVG Export Plug-In . SVG Version: 6.00 Build 0)  -->
<svg version="1.1" id="Layer_1" xmlns="http://www.w3.org/2000/svg" xmlns:xlink="http://www.w3.org/1999/xlink" x="0px" y="0px"
	 width="2000px" height="2000px" viewBox="0 0 2000 2000" style="enable-background:new 0 0 2000 2000;" xml:space="preserve">
<style type="text/css">
	.st0{fill:#19415A;}
</style>
<path class="st0" d="M867.38,1636.49c-31.43,0-62.86,0-94.29,0c0.91-24.76,0.19-49.7,3.05-74.23
	c7.28-62.34,28.28-119.46,69.11-168.29c82.48-98.64,164.94-197.29,247.15-296.15c8.43-10.14,15.1-21.73,23.65-34.21
	c-75.61,0-147.74,0-222.84,0c8.05,11.96,14.22,22.58,21.79,32.09c15.2,19.07,31.09,37.59,46.86,56.2c3.68,4.34,6.9,7.8,1.89,13.68
	c-20.09,23.57-39.82,47.43-60.49,72.13c-18.41-21.99-35.93-43.35-53.92-64.3c-25.38-29.57-43.84-63.03-55.92-99.9
	c-2.92-8.9-7.33-10.9-15.92-10.83c-47.56,0.37-95.14-0.72-142.67,0.54c-25.13,0.67-44.42-5.71-55.3-29.72c0-59.55,0-119.11,0-178.66
	c10.36-24.14,28.86-32.52,54.51-30.48c19.31,1.54,38.86-0.09,58.27,0.48c8.15,0.24,11.65-2.94,13.89-10.37
	c8.8-29.23,17.92-58.38,27.23-87.45c11.43-35.67,39.63-56.12,77.17-56.18c44.66-0.08,89.32,0,133.97-0.05
	c4.76-0.01,9.52-0.43,13.73-0.63c0.68-2.42,1.1-3.21,1.1-4.01c-0.06-98.39-0.15-196.79-0.23-295.18c28.95,0,57.9,0,86.85,0
	c0.13,6.19,0.38,12.39,0.38,18.58c0.03,87.2-0.02,174.4,0.04,261.6c0.01,21.86-2.06,19.6,20.24,19.65
	c43.39,0.09,86.79-0.04,130.18,0.05c37.9,0.07,66.21,20.65,77.9,57.03c9.07,28.25,18.1,56.53,26.1,85.1
	c2.68,9.55,7.11,12.2,16.43,11.89c19.4-0.64,38.92,0.93,58.24-0.46c26.23-1.89,43.94,7.78,52.62,32.93c0,57.9,0,115.8,0,173.7
	c-9.04,25.26-27.72,32.79-53.36,32.17c-47.92-1.15-95.9-0.12-143.85-0.53c-8.39-0.07-12.1,2.26-14.85,10.47
	c-13.25,39.59-34.34,74.59-61.37,106.61c-80.24,95.05-159.68,190.77-239.38,286.27c-3.21,3.85-5.83,8.2-9.37,13.23
	c66.73,0,131.22,0,198.67,0c-22.18-26.76-42.64-51.46-63.74-76.91c21.51-25.79,42.79-51.31,64.99-77.92
	c19.1,22.85,36.83,44.54,55.08,65.79c31.61,36.78,51.51,79.28,63.72,125.92c10.36,39.56,12.11,79.86,12.38,120.37
	c-32.26,0-64.52,0-96.78,0c0-22.49,0-44.98,0-67.76c-6.77-0.68-9.99-1.27-13.21-1.28c-81.66-0.05-163.32,0.11-244.97-0.24
	c-9.67-0.04-12.14,4.39-12.45,12.47C868.98,1598.62,868.16,1617.55,867.38,1636.49z M1340.82,899.36c-7.56,0-12.89,0-18.23,0
	c-212.56,0-425.12,0-637.69,0c-2.48,0-5,0.26-7.44-0.04c-8.53-1.07-11.64,2.25-11.4,11.07c0.55,20.25,0.17,40.52,0.17,60.79
	c0,17.25,0.01,17.27,17.54,17.27c213.39,0,426.78,0,640.17,0c3.31,0,6.96,0.81,9.82-0.34c2.77-1.11,6.71-4.23,6.75-6.52
	C1340.99,954.81,1340.82,928.03,1340.82,899.36z M804.64,823.3c133.59,0,265.06,0,397.76,0c-6.7-20.78-13.49-39.81-18.83-59.23
	c-2.49-9.07-6.89-11.39-15.69-11.3c-39.27,0.41-78.54,0.18-117.81,0.18c-69.86,0-139.72-0.12-209.58,0.27
	c-4.78,0.03-12.49,2.77-13.83,6.2C818.63,780.04,812.06,801.24,804.64,823.3z"/>
</svg>
