<?xml version="1.0" encoding="utf-8"?>
<!-- Generator: Adobe Adobe Illustrator 24.2.0, SVG Export Plug-In . SVG Version: 6.00 Build 0)  -->
<svg version="1.1" xmlns="http://www.w3.org/2000/svg" xmlns:xlink="http://www.w3.org/1999/xlink" x="0px" y="0px" width="4500px"
	 height="3000px" viewBox="0 0 4500 3000" style="enable-background:new 0 0 4500 3000;" xml:space="preserve">
<style type="text/css">
	.st0{fill:#E98325;}
	.st1{fill:#F5DB5D;}
	.st2{fill:#F2D22F;}
	.st3{fill:#F3B025;}
	.st4{fill:#EAEAEA;}
	.st5{fill:#C2C2C2;}
	.st6{fill:#B4B3B3;}
	.st7{fill:#EFB96E;}
	.st8{fill:#ED9D4C;}
	.st9{fill:#F3DB5D;}
	.st10{fill:#EFB02D;}
	.st11{fill:none;stroke:#FFFFFF;stroke-width:20;stroke-linecap:round;stroke-miterlimit:10;}
	.st12{fill:#F4DB5D;}
	.st13{display:none;}
	.st14{display:inline;}
	.st15{display:inline;clip-path:url(#SVGID_2_);fill:#F4DB5D;}
	.st16{fill:#F1B029;}
	.st17{fill:none;stroke:#F4DB5D;stroke-width:60;stroke-linecap:round;stroke-miterlimit:10;}
	.st18{fill:none;stroke:#F1B029;stroke-width:80;stroke-linecap:round;stroke-miterlimit:10;}
	.st19{fill:#EAE9E9;}
	.st20{fill:#B4B2B3;}
	.st21{font-family:'AvenirNext-Bold';}
	.st22{font-size:338.7406px;}
	.st23{letter-spacing:16;}
	.st24{fill:none;stroke:#EAE9E9;stroke-width:80;stroke-linecap:round;stroke-miterlimit:10;}
	.st25{fill:#E88326;}
	.st26{fill:#E78326;}
	.st27{fill:none;stroke:#EFB96E;stroke-width:60;stroke-linecap:round;stroke-miterlimit:10;}
	.st28{fill:none;stroke:#E68225;stroke-width:40;stroke-miterlimit:10;}
</style>
<g id="Layer_1">
</g>
<g id="REFERENCES">
</g>
<g id="COLOUR">
</g>
<g id="GOLD">
	<g id="Layer_8">
	</g>
	<g id="Layer_5">
	</g>
	<g id="Layer_6">
	</g>
</g>
<g id="SILVER">
	<g id="Layer_9">
		<g>
			<polygon class="st19" points="3942.5,2697.44 3232.5,2697.44 3443.62,2067.44 3942.5,2067.44 			"/>
			<polygon class="st20" points="3646.87,2318.33 3232.5,2318.33 3232.5,2697.44 			"/>
			<polygon class="st19" points="3942.5,2382.44 4222.5,2067.44 3942.5,2067.44 			"/>
			<polygon class="st19" points="3942.5,2382.44 4222.5,2697.44 3942.5,2697.44 			"/>
		</g>
		<g>
			<polygon class="st19" points="557.5,2697.44 1267.5,2697.44 1056.38,2067.44 557.5,2067.44 			"/>
			<polygon class="st20" points="853.13,2318.33 1267.5,2318.33 1267.5,2697.44 			"/>
			<polygon class="st19" points="557.5,2382.44 277.5,2067.44 557.5,2067.44 			"/>
			<polygon class="st19" points="557.5,2382.44 277.5,2697.44 557.5,2697.44 			"/>
		</g>
		<g>
			<g>
				<path class="st19" d="M3210.84,1688.33c-179.03,317.39-542.37,534.57-961.48,534.57s-782.45-217.18-961.48-534.57H876.87v630
					h2770v-630H3210.84z"/>
			</g>
		</g>
		<text transform="matrix(1 0 0 1 1646.552 2671.7175)" class="st20 st21 st22 st23">SILVER</text>
		<line class="st11" x1="953.15" y1="1760.33" x2="953.15" y2="2246.33"/>
		<line class="st11" x1="3573.15" y1="1760.33" x2="3573.15" y2="2246.33"/>
	</g>
	<circle class="st19" cx="2250" cy="1146.16" r="982.5"/>
	<circle class="st20" cx="2250" cy="1146.16" r="840"/>
	<path class="st11" d="M1358.82,872.06c13.79-18.4,84.14-335.07,439.08-549.54"/>
	<path class="st11" d="M3157.9,1412.52c-13.79,18.4-84.14,335.07-439.08,549.54"/>
	<g id="Layer_10">
		<circle class="st19" cx="2250" cy="1183.66" r="350"/>
		<g>
			<line class="st24" x1="2104.27" y1="1791.33" x2="2223.65" y2="1293.52"/>
			<line class="st24" x1="1717.26" y1="1510.3" x2="2153.68" y2="1242.71"/>
			<line class="st24" x1="1642.32" y1="1037.93" x2="2140.13" y2="1157.31"/>
			<line class="st24" x1="1923.35" y1="650.92" x2="2190.94" y2="1087.34"/>
			<line class="st24" x1="2395.73" y1="575.98" x2="2276.35" y2="1073.79"/>
			<line class="st24" x1="2782.74" y1="857.01" x2="2346.32" y2="1124.6"/>
			<line class="st24" x1="2857.68" y1="1329.38" x2="2359.87" y2="1210"/>
			<line class="st24" x1="2576.65" y1="1716.39" x2="2309.06" y2="1279.97"/>
		</g>
		<g>
			<line class="st24" x1="2313.55" y1="1668.46" x2="2261.49" y2="1271.31"/>
			<line class="st24" x1="1952.13" y1="1571.4" x2="2196.15" y2="1253.76"/>
			<line class="st24" x1="1765.2" y1="1247.21" x2="2162.35" y2="1195.15"/>
			<line class="st24" x1="1862.25" y1="885.79" x2="2179.9" y2="1129.8"/>
			<line class="st24" x1="2186.45" y1="698.85" x2="2238.51" y2="1096.01"/>
			<line class="st24" x1="2547.87" y1="795.91" x2="2303.85" y2="1113.55"/>
			<line class="st24" x1="2734.8" y1="1120.1" x2="2337.65" y2="1172.17"/>
			<line class="st24" x1="2637.75" y1="1481.52" x2="2320.1" y2="1237.51"/>
		</g>
		<circle class="st20" cx="2195" cy="1066.16" r="117.5"/>
		<circle class="st20" cx="2144.37" cy="1351.16" r="25"/>
		<circle class="st20" cx="2047.5" cy="1274.55" r="50"/>
		<circle class="st20" cx="2397.5" cy="1351.16" r="79.5"/>
		<circle class="st20" cx="2447.5" cy="1082.05" r="50"/>
	</g>
</g>
<g id="BRONZE">
	<g id="Layer_12">
	</g>
</g>
</svg>
