<svg xmlns="http://www.w3.org/2000/svg" xmlns:xlink="http://www.w3.org/1999/xlink" viewBox="0 0 7826.31 4975.17"><defs><style>.cls-1{isolation:isolate;}.cls-2,.cls-3{fill:#fff9d9;}.cls-17,.cls-2,.cls-3,.cls-37,.cls-40,.cls-41,.cls-44,.cls-46,.cls-50{stroke:#fff9d9;}.cls-14,.cls-15,.cls-16,.cls-17,.cls-2,.cls-3,.cls-37,.cls-40,.cls-41,.cls-42,.cls-43,.cls-44,.cls-45,.cls-46,.cls-47,.cls-48,.cls-49,.cls-50{stroke-miterlimit:10;}.cls-2{mix-blend-mode:overlay;}.cls-4{fill:#fff;}.cls-5{opacity:0.25;}.cls-34,.cls-5{mix-blend-mode:multiply;}.cls-34,.cls-6{fill:#bfd9ff;}.cls-7{fill:#c7b3a5;}.cls-8{fill:#cfd1e3;}.cls-15,.cls-9{fill:#475191;}.cls-10{fill:#afbbde;}.cls-11,.cls-41,.cls-42{fill:#d9c39a;}.cls-12{fill:#f7dfb2;}.cls-13{fill:#d6d6d6;}.cls-14{fill:#d4d4d4;stroke:#d4d4d4;}.cls-15{stroke:#475191;}.cls-16{fill:#646ca1;stroke:#646ca1;}.cls-17{fill:#b2d5ed;opacity:0.82;}.cls-18{fill:#e8e8e7;}.cls-19{fill:#f6e1ce;}.cls-20{fill:#f6c9a8;}.cls-21{fill:#d5d5d7;}.cls-22{fill:#c4996c;}.cls-23{fill:#656790;}.cls-24{fill:#f2af94;}.cls-25{fill:#f5ccae;}.cls-26{fill:#7b84bf;}.cls-27{fill:#c6cce2;}.cls-28{fill:#916848;}.cls-29{fill:#c48b60;}.cls-30{fill:#382111;}.cls-31{fill:#e0e0e2;}.cls-32{fill:#5d5b6e;opacity:0.5;}.cls-33{fill:#e8e8e8;}.cls-34{opacity:0.3;}.cls-35{fill:#757575;}.cls-36{fill:#ff0;fill-rule:evenodd;opacity:0.17;}.cls-37{fill:#aeafb8;}.cls-38{fill:url(#linear-gradient);}.cls-39{fill:url(#linear-gradient-2);}.cls-40{fill:#fff2d9;}.cls-42{stroke:#d9c39a;}.cls-43,.cls-44{fill:#656a94;}.cls-43{stroke:#656a94;}.cls-45,.cls-46,.cls-47{fill:#b4b8d9;}.cls-45,.cls-49{stroke:#6f9e6f;}.cls-47{stroke:#b4b8d9;}.cls-48{fill:#a7cfa7;stroke:#a7cfa7;}.cls-49,.cls-50,.cls-53{fill:#6f9e6f;}.cls-51{fill:#b09684;}.cls-52{fill:#857366;}.cls-54,.cls-55,.cls-56{fill:#97b4c7;}.cls-54{opacity:0.67;}.cls-55{opacity:0;}.cls-56{opacity:0.68;}.cls-57,.cls-58{fill:#fff8eb;}.cls-57{opacity:0.59;}.cls-58{opacity:0.75;}</style><linearGradient id="linear-gradient" y1="2496.47" x2="1880.48" y2="2496.47" gradientUnits="userSpaceOnUse"><stop offset="0.01" stop-color="#6b6b6b"/><stop offset="0.02" stop-color="#6f6f6f"/><stop offset="0.14" stop-color="#919191"/><stop offset="0.27" stop-color="#adadad"/><stop offset="0.41" stop-color="#c3c3c3"/><stop offset="0.57" stop-color="#d2d2d2"/><stop offset="0.74" stop-color="#dbdbdb"/><stop offset="1" stop-color="#dedede"/></linearGradient><linearGradient id="linear-gradient-2" x1="-993.8" y1="2496.47" x2="886.68" y2="2496.47" gradientTransform="matrix(-1, 0, 0, 1, 6832.51, 0)" xlink:href="#linear-gradient"/></defs><g class="cls-1"><g id="Layer_53" data-name="Layer 53"><path class="cls-2" d="M6341.45,1497.76a2064.13,2064.13,0,0,0,14.27,297.45c136.15,72.48,295,98,445.95,71.76l-28.19-226.79c-.44-3.52-.92-7.17-2.8-10.13-3.13-5-9.21-6.7-14.76-8.1C6616.16,1586.77,6479.52,1538.27,6341.45,1497.76Z"/><path class="cls-3" d="M4436.6,350.32l5.75-4.45"/></g><g id="window_glass" data-name="window glass"><rect class="cls-4" x="2040.53" y="578.42" width="3720" height="2098.15"/><g class="cls-5"><rect class="cls-6" x="2059.36" y="603.23" width="3700.95" height="2048.53"/></g></g><g id="Layer_54" data-name="Layer 54"><path class="cls-7" d="M2013.25,2692.45c143.69-109.18-53-193.52,75.07-271.29,363.8-221,700.7-328.7,1217.51-399.66,720-98.84,1356.67-16.89,1846.86,100,217.05,51.75,434.93,141.34,633.2,253.58,163.66,92.65-74.65,173.68,11.36,299.74"/></g><g id="background_screens" data-name="background screens"><path class="cls-8" d="M2101,1220.59q-1.11,320.33,13.55,640.43a3304,3304,0,0,1,573.09-223.09,3712,3712,0,0,1-49.16-545.53C2462.24,1116.27,2288.12,1157.22,2101,1220.59Z"/><path class="cls-9" d="M2102.09,856.35a1463.34,1463.34,0,0,0,7,212.56l308.22-96.35-23.55-142.07c-.55-3.3-1.19-6.8-3.4-9.22-3.27-3.58-8.66-3.52-13.38-3.2A2017,2017,0,0,0,2127.1,851C2121.65,852.07,2114.55,856.1,2102.09,856.35Z"/><path class="cls-10" d="M2675.26,781.4c33.25,250,56.23,501.44,79.2,752.74q370.24-9.81,740.53,7.36A2871.64,2871.64,0,0,1,3557.24,826C3264.31,786.09,2967.89,774.1,2675.26,781.4Z"/><path class="cls-11" d="M3798,879.23q-1,160.26,10.23,320.26c.56,7.83,1.52,16.5,7.21,21.63s14.07,4.86,21.58,4.3l479.76-35.55.93-331.88C4141.87,850.83,3965.75,850.3,3798,879.23Z"/><path class="cls-12" d="M4200.17,1264.41q7.74,159.46,5,319.25,232.46,45.24,466.17,83.07-2.37-213.49,11-426.75a1665.8,1665.8,0,0,1-325.24,18.9C4288.13,1256.11,4212.52,1251,4200.17,1264.41Z"/><path class="cls-7" d="M4882.25,802.12l-2.54,298.08L5609,1032.3l-17.5-230.74c-.36-4.66-1-9.88-4.54-12.72-2.63-2.11-6.18-2.31-9.5-2.43q-301.59-10.5-603.24,9.12C4937.46,797.92,4897.7,801.92,4882.25,802.12Z"/><path class="cls-13" d="M5202.06,1174.94l14.51,390.39c187.42,36,373.06,103.27,553.9,200.66l40.79-454.29c.85-9.46,1.61-19.82-1-28.09-2.91-9.13-9-12.72-14.53-15.53C5608.2,1172.76,5413.06,1128.43,5202.06,1174.94Z"/></g><g id="DRYLAB"><g id="desktop"><path class="cls-14" d="M5623.51,2429.51c.62,6.49-.73.13-1.37-2.55-1.13-4.67-1.47-9.56-2-14.35a27.11,27.11,0,0,1,.16-7.43c-9.14-29.22-33.34-53.72-60.6-64.55-38.43-15.28-83.54-8.54-116.85,17.44-22.71,17.71-42.35,40.48-49.64,54l-27.53,51.16c85.67,15.31,173-4.28,257.92-23.79.24-2,.38-4,.47-5.94C5623.85,2432.18,5623.66,2430.83,5623.51,2429.51Z"/><path class="cls-15" d="M5255.53,1866.41c46.87,82.12,69.29,180.56,63.11,277.06l-91.4-2.42c-1.05,4.88,4.14,8.36,8.43,10.15l158.46,66.12c54.92,22.92,110.11,45.92,167.62,59.33l-90.82-89.3c-4.1-4-8.33-8.26-10.34-13.86-2.75-7.63-.87-16.21,1-24.15q20.47-85,41-170"/><path class="cls-16" d="M4873.26,1420.2A4572.7,4572.7,0,0,1,4935,1945.07c287.23,70.47,566.26,169.08,830.85,293.61,49.46-239.9,47.75-485.9,45.14-730-319.35-54.5-640.48-109.17-965.24-114.43a663,663,0,0,1,53,272.18"/><path class="cls-17" d="M4954.21,1511c23.08,155.87,38.58,313.09,46.42,470.76,215.9,63.2,425.65,151.64,624.54,263.33,37.18-215.16,35.89-435.8,33.93-654.77-240.05-48.88-481.44-97.92-725.56-102.64a696,696,0,0,1,39.86,244.12"/></g><g id="boyd"><path class="cls-18" d="M4613.69,1991.74c-99.21,231.3-94.75,533.61-79.79,747,95.94,15.29,435.34-34.13,531.66-46.62-56.58-112.48-78-251.87-98.51-351.07-18.08-87.56-17.28-140-21.84-241.76-1.15-25.47-17.06-101.35-27.69-124.28-21.29-45.9-12.59-55.69-15-55.69-42.82,0-152.07-49.61-177.47-66.14C4725.06,1853.22,4630.54,1952.44,4613.69,1991.74Z"/><path class="cls-19" d="M5323.91,2363.17c-158.95,11.57-221.23,11.73-380.19,23.3-28.3,2.06-46.64,39.83-38.87,70s34.46,50.7,62.12,57.67,61.83-4.16,89.95-8.31c102.61-15.17,175.45-23.59,275.38-53.5C5373.56,2440,5334.89,2423.37,5323.91,2363.17Z"/><path class="cls-19" d="M5281,2367.85c43.29-6.85,78.89-37.74,116.3-61.56,42-26.73,92.45-45.76,139.9-32.52l-46.92,12.66c-17.22,4.65-35.7,10.12-46.75,24.73,45.24-22.21,92.54-44.91,142.48-43.69a913.74,913.74,0,0,1-114.87,64.44c49.51,3.52,93-34.92,142.13-42.35-2.28,14.15-15.65,22.83-27.68,29.66-29.49,16.73-59,33.45-87.94,50.92,37.3-5.63,85.87-18.33,119.16-14.76-35,19-74.49,32.34-111.75,45.37a1736.74,1736.74,0,0,1-206.51,58.16"/><path class="cls-19" d="M4786,2064.11c-8.68-22.34-37.66-34.17-59.5-24.28s-32.06,39.47-21,60.73q75.84,145.72,151.69,291.45c13.83,26.58,28.14,53.79,50.49,73.75s54.81,31.46,82.9,21,45.36-47.84,28.62-72.7c-45.08-66.9-64.33-147.35-95.75-221.66S4841.64,2044.16,4786,2064.11Z"/><path class="cls-20" d="M4843.2,2374.62c1.28,1.83,29,46.71,46.76,72,8.27-8.27,60.68-35.25,89.77-52.13,11.61-6.73,18.51-15.26,17.67-17-12-25.75-30.5-72.38-44.76-98.08-41.47,14.32-86.38,39-120.38,66.73C4832.26,2346.1,4831.84,2358.44,4843.2,2374.62Z"/><path class="cls-21" d="M4974.19,2325.18c-79.07,53.08-130.3,68.41-228.87,64.22-34.31-50.08-74.24-220.71-71.33-271.17,2.54-44,9.87,60.2,67.7,173.12C4810,2424.65,4935.54,2209.33,4974.19,2325.18Z"/><path class="cls-18" d="M4854.16,1977.37c88.18,84.49,103,207,158.21,315.91-70.43,64.09-118.86,86.78-217,97.09-41.28-44.52-95.91-209.34-110.31-257.79s-12.86-104.93,18.29-144.73S4804.86,1930.13,4854.16,1977.37Z"/><path class="cls-21" d="M4781.91,1963.74a440.41,440.41,0,0,1,155.58,152.32C4918.05,2037.1,4847.52,1973.32,4781.91,1963.74Z"/></g><g id="hea"><path class="cls-22" d="M5089.18,1479.32a202.35,202.35,0,0,1-9.28,98.32c15.12-13.28,27.26-34.06,28.31-54.15s1.75-40.75-6.76-57.93C5098.23,1470.65,5091,1474.73,5089.18,1479.32Z"/><path class="cls-19" d="M4708.06,1503.91c0-99,88.42-179.23,197.5-179.23s192.5,75.25,192.5,174.23-83.43,184.23-192.5,184.23S4708.06,1602.9,4708.06,1503.91Z"/><path class="cls-19" d="M4724.23,1603.51c15.34,41.84,43.31,79.53,51.05,123.28,8.27,46.73-9.24,97-45.05,129.37,48.21,36.9,94.92,60.69,157.84,63.19,10.23-37.72,45.18-120.87,48-123.38,4.73-4.25,12.17-3.18,18.47-1.83,29.15,6.25,52.42,20.55,86.26,18.31,21-29.7-.4-41.8,15.58-58.59,6-6.26,15.39-9.51,19.22-17.17,3.73-7.45-.07-17.52-7.87-20.91,8.45-3.58,18.54-10.13,16.24-18.78-1.2-4.52-5.52-7.47-8.67-11-10.79-12.07-.86-25.45,14.32-31.69,7.87-3.23,18.61-6.4,17-14.52-.62-3.23-7.05-13.51-9.49-15.8-16.4-15.33-18.05-40.27-14.31-62s15.53-58.49,15.53-58.49-23.76-63.57-42.1-87.87c-8.54-11.33-17.47-22.6-28.82-31.32-17-13.06-38.31-19.54-59.22-25.27-31.49-8.62-63.59-16.18-96.3-17.3s-46.27-.93-93.63,30.82C4700.06,1425,4695.57,1525.37,4724.23,1603.51Z"/><path class="cls-20" d="M5029.12,1573.3a320.38,320.38,0,0,1-43.79,2.2c6.91,6.43,17.41,7.2,27,7.56s20.06,1,27.1,7.32"/><path class="cls-20" d="M5084,1698.71c-4.3-1.21-9-.51-13.19,1s-8.09,3.73-12.1,5.67a94.44,94.44,0,0,1-30.16,8.78,159.55,159.55,0,0,0,30.42,5,20.9,20.9,0,0,0,7.85-.52c3.38-1.08,6-3.67,8.43-6.18C5079.1,1708.52,5083.09,1704.39,5084,1698.71Z"/><path class="cls-20" d="M4781.52,1685.9c8.1,16.42,16.53,33.27,30.36,45.6,11.6,10.33,26.24,16.8,40.61,23.09l69.28,30.34c3.86,1.69,23.92,7.89,23.43,8.25-20.1,14.77-46,95.43-55.13,126.17-8.17.29-9.3-23.2-30.9-59.51L4814.62,1785c-21.05-35.38-42.69-72.74-43.39-113.55C4777.75,1675.59,4782.08,1682.8,4781.52,1685.9Z"/><path class="cls-20" d="M5074.14,1738.25a77.59,77.59,0,0,1-28.34,11.44c-1.3.25-2.73.53-3.54,1.54-1.09,1.35-.55,3.31,0,4.93l4.07,11.15c.46,1.25,1.59,2.79,2.81,2.18a23.75,23.75,0,0,1,8.62-18.32C5063.52,1746.45,5071.69,1744,5074.14,1738.25Z"/><path class="cls-20" d="M5103.52,1636.12a49.09,49.09,0,0,1-15.08,8.61c-3.92,1.39-8,2.3-11.85,4s-7.43,4.19-9.18,7.86-1.43,7.65-1.13,11.55c.25,3.24.78,7,3.63,8.7a24.45,24.45,0,0,1,7.81-14.44,42.44,42.44,0,0,1,14.6-8.55c4.34-1.59,9.13-2.87,12.11-6.31C5106.81,1644.75,5107.64,1640.83,5103.52,1636.12Z"/><path class="cls-20" d="M4999.47,1579.14a105.74,105.74,0,0,1,22.8-3.4,37.57,37.57,0,0,1,9.54.6c4.15.94,7.9,3,11.72,4.84a103.75,103.75,0,0,0,21,7.36,35.09,35.09,0,0,1-15.66.42,43.37,43.37,0,0,0,16.72,12c-6.5,2.8-14.2,1.11-20.52-2s-11.84-7.65-18.11-10.91c-9.83-5.1-21.08-6.94-30.29-10C4999.58,1576.87,5003,1577.09,4999.47,1579.14Z"/><path class="cls-22" d="M4853.42,1562.78c-.24-84.45,4.93-174.06,59.44-238.56,20.7-24.49,57.2-28.17,112.74,8.3,60.63,39.8,77.46,108,77.46,140.08C5103.06,1562.73,4853.42,1562.78,4853.42,1562.78Z"/><path class="cls-22" d="M4858.22,1548.9c5.47,13.12,17.68,22.55,17.84,35.61.25,19.58,11.6,17.52,21.87,31.75,15.93-21.16,25.74-42.76,59.35-63.45C4930.72,1545.75,4879.84,1547.69,4858.22,1548.9Z"/><path class="cls-22" d="M4861.34,1553.28a359.46,359.46,0,0,0-130.06,102.91c-29.71-57.83-26.85-133-16.15-196.59,4.3-25.55,36.73-118.07,95.68-145.66,39.08-18.29,126.15-34.73,214.49,26.29C5029.12,1334.89,4861.34,1553.28,4861.34,1553.28Z"/><path class="cls-22" d="M4668.76,1467c-50.26,84.25-48.72,196.73,3.83,279.57-20.22-43.62-25.57-93-22.7-140.94S4663.48,1510.49,4668.76,1467Z"/><path class="cls-20" d="M4833.58,1599.78c-8.92-15.11,16.85-51.31,1.28-53.67s-31.26,8.8-36.79,23.55-2.07,31.82,6.31,45.15,21.17,23.36,34.74,31.37,28.08,14.26,42.59,21.57c0-.12,0-.25.83-.29C4858.28,1631.67,4852.7,1622.24,4833.58,1599.78Z"/><path class="cls-22" d="M4871.1,1639.39c-.49-3.39-4.21-8.81-1.45-10.18-25.47,70.81-16.7,153.1,23.14,217-39.1-33.6-61.71-86.22-57.15-137.58l12.71-83.48.91-1,21.54,6Z"/><path class="cls-22" d="M4881.46,1298.41c-104.12-1.53-182.49,78.75-218.45,162.17s8.36,293.62,8.36,293.62c83.86,39.61,137.69,62.41,221.54,102-91.19-71-40.88-141-44.8-253.29a177.79,177.79,0,0,1,15.11-11.59l-2.64,0Z"/><path class="cls-19" d="M4885.38,1568.3c-10.68-14.28-24.28-26.83-40.6-29.19s-32.78,8.8-38.58,23.55-2.17,31.82,6.62,45.15,23.31,27.45,37.09,36.12c20.77,13.06,43.28,29.9,44.14,29.86C4897.88,1642.48,4903.34,1592.33,4885.38,1568.3Z"/></g></g><g id="WETLAB"><g id="hair_back_" data-name="hair (back)"><path class="cls-23" d="M3757.91,978.91c-20,20.16-40,40.9-54.31,65.81-16.53,28.8-24.78,62.11-28.2,95.5s-2.21,67.07-1,100.61c45.58-79.85,92.1-162.41,104.76-254.41.43-3.11.79-6.47-.62-9.26-2.12-4.17-7.59-5.41-11.9-4A24,24,0,0,0,3757.91,978.91Z"/><ellipse class="cls-23" cx="3897.94" cy="1144.61" rx="211.5" ry="204.19"/><path class="cls-23" d="M3979.25,1346.38a190.56,190.56,0,0,0,189.43,194.13l-22.22-20.17c25.86,10.85,57.84,5.15,78.36-14-26.85,2.56-53.09-21.78-52.55-48.75a154.94,154.94,0,0,0-149.54-158C3992.24,1298.6,3965.78,1331.82,3979.25,1346.38Z"/><path class="cls-23" d="M3727.94,1389.85l24.59,47.64c-30.67-57.65-5.87-131.64-31.48-191.71-3.36-7.89-17.62-6.25-19.11,2.19a161.46,161.46,0,0,0,10.06,89.87Z"/><path class="cls-23" d="M4182.18,1493.33a32.35,32.35,0,0,0,45.08-1.77c-9.67,4.56-21.25,3.94-31.16-.06s-18.31-11.1-25.39-19.11C4170.75,1482.37,4178.18,1489.74,4182.18,1493.33Z"/><path class="cls-23" d="M4048.43,1427.84A125,125,0,0,0,4165,1546.17c-32-7.62-58.54-34.68-65.54-66.83Z"/></g><g id="face"><ellipse class="cls-24" cx="3884.02" cy="1151.31" rx="190.72" ry="205.5"/><path class="cls-24" d="M3788.36,1004.81c-18.86,15.91-44.42,23.55-59.66,43.06a85.46,85.46,0,0,0-10.56,18.47c-13.49,30.65-17.07,64.77-18.85,98.29-1.38,26.13-1.75,52.64,4.16,78.1,6.1,26.26,18.67,50.5,32.63,73.45a603.85,603.85,0,0,0,49.28,69.45c13.15,16,27.35,31.54,44.75,42.62s38.45,17.46,58.67,13.78c17.78-3.24,33.34-13.78,48.11-24.36,55.16-39.52,110.16-87,130.44-152.39,5.44-17.56,8.17-35.88,10.15-54.18,2.84-26.21,4.17-53-1.39-78.73-13.6-63-67-110.7-125.45-136-34.3-14.81-72-23.53-109-18.47S3768.75,1003.24,3788.36,1004.81Z"/><path class="cls-24" d="M3848.67,1394.48a934,934,0,0,1,15,211.28c-10,138.7,34.27,109,68.3,105.94s102.22-115.27,129.87-135.64c-28.54-36.74-46.18-81.35-55.71-127.14s-11.26-92.9-10.37-139.7"/><path class="cls-25" d="M4051.49,1236.69c-24.76,40.38-24.87,95-57.62,129-9.14,9.49-20.27,16.69-31.3,23.81l-60.94,39.34c-7.87,5.08-16.05,10.28-25.27,11.69s-19.84-2-24.05-10.49c-2.64-5.29-2.38-11.53-3.24-17.4s-3.62-12.3-9.21-14c-2.38-.72-5.09-.53-7.15-1.93-8.83-6,9.33-22.94.81-29.37-3.81-2.88-9.62.06-13.83-2.17-5.9-3.13-3.38-12.41.93-17.56s10.05-11,8.09-17.5c-1.51-4.93-7-7.38-12-8s-10.31-.19-15.05-2.06c-12.86-5-14.16-22.71-13.3-36.68l2.07-33.44c.94-15.22,1.55-31.74-7-44.27-7.37-10.8-20.19-16.39-32.81-19.27s-25.71-3.61-38.09-7.42c-3.18-1-6.56-2.38-8.19-5.33-1.21-2.19-1.2-4.84-1.16-7.36.4-25.64,1.17-51.63,8.38-76.2s21.69-48,48.71-63.45a193.32,193.32,0,0,1,108.47-35.7c53-.81,107.54,23,137.39,67.46,9.7,14.46,16.63,30.63,23.09,46.86,8.72,21.95,16.68,44.25,22.51,67.17,2.78,10.92,5.07,22,5.58,33.3a106.53,106.53,0,0,1-17.95,63.84"/><path class="cls-25" d="M4053.9,1205.48c6.19-8.39,10.48-18.2,17.5-25.88s18.19-13,27.68-8.85c5.05,2.2,8.8,6.74,11.36,11.68,7.89,15.23,5.45,34.37-2.61,49.51s-21,27-34.4,37.51-27.54,20.29-39.21,32.77"/><path class="cls-25" d="M3878.16,1599.91l-2.93-133.75c-.07-3.09-.12-6.27.93-9.18,2.14-5.91,8.2-9.22,13.77-12l45.84-22.85c4.57-2.29,9.68-4.63,14.59-3.22,6.43,1.84,9.53,9.16,11.18,15.74,6.06,24.19,4.21,50-2.54,74s-18.25,46.38-31.39,67.47c-8.18,13.12-18.74,26.94-33.87,29.14C3886.87,1606.23,3878.22,1602.7,3878.16,1599.91Z"/><path class="cls-24" d="M3820.68,1365.1c2.79-7.56,10.93-11.9,18.84-12.76s15.8,1,23.65,2.32a153.18,153.18,0,0,0,43.24.88c-19,13.86-36.78,31.51-59.7,36.25-7.33,1.51-15.42,1.48-21.72-2.6a26,26,0,0,1-7.66-8.1,39.77,39.77,0,0,1-6.12-19.77,4,4,0,0,1,.4-2.3,3.53,3.53,0,0,1,2-1.3C3818.43,1356.16,3824,1357.52,3820.68,1365.1Z"/><path class="cls-24" d="M3835.05,1208.24c6.09-6.08,12.57-12.4,20.82-14.65a58.09,58.09,0,0,1,10.61-1.41,163.83,163.83,0,0,0,43.35-9.57,23.43,23.43,0,0,1-18.42,12.09,6.15,6.15,0,0,0,6.59,5.14c-2,3.38-6,5-9.9,5.39s-7.76-.32-11.65-.42c-9.21-.25-18.18,2.74-26.93,5.68l-25.06,8.44C3829.74,1210.62,3837.29,1203.8,3835.05,1208.24Z"/></g><g id="hair_front_" data-name="hair (front)"><path class="cls-26" d="M3721.27,1253.7c-11.76,24.12,14.37,165.74,20.77,195.54-85-156.08-76.25-258.42-64.12-322.52s51.69-123.38,108.39-154.1c6.17-3.34,12.76-6.41,19.74-6.52s14.46,3.46,17,10.06c2.92,7.52-2.13,56.18-3.15,64.16C3798.41,1208.62,3721.27,1253.7,3721.27,1253.7Z"/><path id="_Path_" data-name="&lt;Path&gt;" class="cls-26" d="M3810.61,970.47c.63,19.8-6.36,39.51-3.91,59.17,2.38,19.07,13.36,35.85,25.21,50.84,35.13,44.41,80.54,80.17,111.73,127.52a266,266,0,0,1,41.91,115.8,219.41,219.41,0,0,0,15.21-44.79,155.09,155.09,0,0,1,7.4,59.32c20.49-42,40.63-84.76,50.5-130.56s24-63.49,12.88-121.35c-6.17-32-39.28-92.53-68.16-109.93-31.47-19-58-31.55-97-35.31-26.57-2.56-73.82,1.26-98.26,12.08-14.85,6.57-26.59,18.7-36.86,31.42a293.17,293.17,0,0,0-50,91.84"/><path class="cls-26" d="M4003.93,1124.42c24.3,99.1,26.93,224.5,9.64,324.82,40.14-68.61,61.42-168,66.17-245.61,3.38-55.08,10.9-170.3-88.75-198.15Z"/><path class="cls-26" d="M3811.81,992.06c-6.52,32.6,3.64,66.84,21,95s41.57,51.29,65.71,73.78,48.76,45,67.39,72.32a215.2,215.2,0,0,1,33.38,80.69c4.1-47.57-1.35-95.66-12.45-142.07-12.27-51.24-32.93-103-72.71-136.85-13.53-11.53-28.89-20.64-44.48-29.07-15.82-8.54-32.51-16.59-50.39-17.77C3814.9,987.82,3808.8,989.88,3811.81,992.06Z"/></g><g id="clothing"><path class="cls-26" d="M3863.33,1550.11c24.67,22.67,54.65,27.48,78.9,24.25,18.18-2.42,67.38-30.39,90.05-55.06,17.14,21,193.07,167.4,210.21,188.42-41.75,47.72-67.41,257.53-118.09,295.63s-274.1-59.13-413.64-40.15C3606.55,1782,3790.09,1613.55,3863.33,1550.11Z"/><path class="cls-18" d="M3836.64,1567.64c-72.2-11.46-180.19,19.5-243.35,55.33-6.48,3.68-24.92,138.77-47.64,237.45-17.93,77.88-37.56,192.85-59.87,307.51-47.69,245.07-25.22,348-28.19,523.59,157.26-27.12,355.15,21.91,509.43-10.78,113.74-24.1,285.49-15,399.23-39.13,16.45-184.23-4.26-212.08,5.19-482.35,8.12-232.08-50.21-519-52.53-523.26-13.32-24.76-82.4-49.32-158.87-63.65-172,139.25-182.58,234.59-311.06,401.13C3831.62,1873.47,3833.36,1704.19,3836.64,1567.64Z"/><path class="cls-27" d="M3864.18,1540.51c-16.91,181.64-15.2,260.77-15.2,429.88-59.22-150.09-65.76-244.52-127.71-396.7C3778.62,1556,3863.69,1539.81,3864.18,1540.51Z"/><path class="cls-27" d="M4030.34,1518.46c-84.05,155.4-139,299.1-181.36,455.18,113.21-115,219.85-282.64,336.39-398.46C4121.77,1547.8,4031.06,1518,4030.34,1518.46Z"/><path class="cls-21" d="M4299.06,1667.7c-94.32,91.53-158.34,213.79-179.84,343.45a822.31,822.31,0,0,1,153.56-253.63C4296.6,1730.7,4303.84,1690.25,4299.06,1667.7Z"/><path class="cls-21" d="M3628.82,1684l38.24,224.53C3632.72,1847.64,3616.86,1763.7,3628.82,1684Z"/><path class="cls-21" d="M3851.61,1986.08,3844.72,2514C3841.46,2345.43,3838.2,2176.89,3851.61,1986.08Z"/><path class="cls-21" d="M4125,2011.11c22.8-69,74.5-128,139.95-159.65C4230.16,1915.68,4178.66,1970.74,4125,2011.11Z"/></g></g><g id="BUSINESS_ETHICS" data-name="BUSINESS &amp; ETHICS"><g id="face-2" data-name="face"><path class="cls-28" d="M2797.2,1709.09a908,908,0,0,1,54,216.23A292.21,292.21,0,0,0,3029.45,1863c-33-81.77-73.13-148.74-80.43-240"/><path class="cls-28" d="M2622.28,1517.3c-.69,37.68-.13,76.6,14.86,111.19,11.42,26.34,30.57,48.58,44,74,12.94,24.42,25.53,55.67,53,59.09,9.25,1.16,18.53-1.38,27.46-4.06,62.43-18.72,123.56-46.53,170.73-91.48s78.94-109,74.18-174c-1.13-15.38-4.34-30.88-11.88-44.34-7.84-14-19.91-25.07-32.21-35.36-57.94-48.48-128.57-85.89-204.08-88.8-25.4-1-55-2.15-73.7,15C2613.44,1403.76,2623.25,1463.94,2622.28,1517.3Z"/><circle class="cls-28" cx="2814.53" cy="1466.27" r="193.32"/><path class="cls-29" d="M2694.51,1332.59c-34.66,25.12-56.69,66.82-57.9,109.59-.2,7.13.2,14.51,3.39,20.88,2.82,5.65,7.6,10,11.48,15,16.17,20.75,15.63,50.66,6.06,75.16-4.15,10.6-9.82,20.69-12.33,31.8s-1.23,24,6.9,32c4.93,4.84,11.71,7.27,17.35,11.25s10.44,10.9,8.28,17.46c-1.87,5.67-8.57,10.52-6.36,16.07,1.73,4.35,7.94,5.24,10.23,9.34,3,5.38-2.56,12.25-.58,18.09,1.26,3.73,5.14,5.78,7.94,8.55,9.45,9.38,5.49,25.13,8.11,38.18,3.89,19.42,26,33,45.13,27.79,6-1.64,11.4-4.78,16.73-7.94a874.23,874.23,0,0,0,132.37-96.35c25.94-22.89,51.86-49.84,57.14-84,1.33-8.61.74-18.66-5.94-24.27-14.93-12.55-18.77-15.71-36.86-23-13.85-5.58-9.65-8.88-3.62-22.53s-8-15.45-4-29.82c4-14.11.61-29.46-6.08-42.49s-16.48-24.18-26.17-35.17c-10.31-11.68-20.77-23.51-33.68-32.24-20.87-14.11-46.42-19.05-71.19-23.68-17.11-3.2-34.63-9.72-48.58-12.84C2707.94,1328.4,2703.41,1327.78,2694.51,1332.59Z"/><path class="cls-30" d="M2902.81,1276.75c75.66,40,125.37,124.74,123.35,210.29s-57.86,145.71-74.82,158.55c-.19,0-3.69-10.17-2.32-13.09,45.6-97.11,19.32-115.39,19.32-115.39,3.52-36.87-34.12,63.35-44.93,40s-24.91-48.59-17.85-73.37C2924.51,1417.23,2922.19,1344.86,2902.81,1276.75Z"/><path class="cls-29" d="M2811.21,1747.75c16-5.36,25.69-10.21,35.84-14.89s19.15-11.59,29.31-16.25c1.84-1.11,4-2,6-1.22a7.44,7.44,0,0,1,2.9,3.6c14.23,31.42,22.95,65.91,19.72,100.14s-19.52,68.14-47.73,87.8c-2.32,1.73-5.92,2.41-7.5.11-7.74-15.2,0-4.87-22.35-104.78"/><path class="cls-28" d="M2673.92,1665.81c6.5-1.94,12.43-6.42,19.21-6.21,3.16.1,6.17,1.23,9.16,2.26a154.92,154.92,0,0,0,43.58,8.28c-4.43.1-8.33,2.72-12.22,4.85-16.9,9.24-37,10-56.24,10.58l-3.2-13.9a16.85,16.85,0,0,0-1.32-4.07c-1.15-2.16-3.29-4-3.37-6.4C2670.61,1661.23,2671.7,1661.27,2673.92,1665.81Z"/><path class="cls-28" d="M2698.83,1524.81a4,4,0,0,0-1.82,2.42c-.25,2.1,2.59,3,4.71,3,6.05-.12,30.34-11.09,56.63-12.17,17-.69,29,0,41.49-11.48l-68.06-1a34.22,34.22,0,0,0-8.64.62C2714.21,1508.47,2705,1519.93,2698.83,1524.81Z"/><path class="cls-30" d="M2618.2,1413.21c66-59.17,157-48.1,215.35-11.32s62,79.2,50.89,149.19c3.22,2,15.23,3.1,15.23,3.1s99-132.65,71-197.54c-33.26-77.11-121.08-124.2-200.88-107.73S2603.65,1345.28,2618.2,1413.21Z"/><path class="cls-29" d="M2892.42,1563.21c6.38-11.27,22.92-38.74,32.49-47.47s22.85-14.4,35.51-11.7,22.77,37.51,19.93,50.14c-9.69,43-40.27,58.86-80.68,76.52C2903.12,1603.45,2896.57,1592.2,2892.42,1563.21Z"/></g><g id="Layer_55" data-name="Layer 55"><path class="cls-30" d="M2633.1,1402c-8.94,18.76-36.36,21.62-54.3,11.13s-28.59-29.74-38.37-48.07c14.08,6.19,32.16,1.3,41.19-11.15-12.4-7.62-30.72-20.09-34.53-34.13,40.58,5.4,109.43-69.76,174.88-90.11,48.68-15.14,183.38-26.15,203.83,61L2662,1355.11Z"/><path class="cls-30" d="M2589.17,1334.94c-6.34,6.26-16.39,7.76-24.94,5.24s-15.71-8.55-21.26-15.52a40.59,40.59,0,0,0,15.54,23.08,39.17,39.17,0,0,0,27.21,7.13c4.18-.43,8.47-1.53,11.64-4.29s4.86-7.53,3.06-11.33S2592.76,1334,2589.17,1334.94Z"/></g><path class="cls-31" d="M2546.57,1811.83a1085,1085,0,0,0-395.46,138.71c-50.91,30-78,90.32-82.1,149.26s11.42,117.35,28.55,173.9,11.18,119.75,39.25,172.36c155.9-111.23,331.82-194.32,512.32-246.85q-24-199.18-47.71-398.41C2580.83,1805.27,2560.26,1809.86,2546.57,1811.83Z"/><path class="cls-32" d="M2636.57,1855.19c-171.12,5.84-372.24,64.72-493.8,184.25-10.76,93.19,17.39,223.93,51.1,311.47,143.32-94.87,309.21-168.68,475.65-211.58C2654.68,2051.27,2650.2,1943.2,2636.57,1855.19Z"/><path class="cls-31" d="M2683.82,2235.82C2483.38,2272.19,2295,2372.47,2153,2518.47c56.54,6,91.23,11,168.91,24.14,129.13-154.7,279.49-229.18,482.35-260.07C2764.56,2268.1,2724.91,2253.67,2683.82,2235.82Z"/><g id="clothes"><path class="cls-33" d="M2669.52,2705.51c186.16-.73,398.74,17,546.7-12,13-334.48-3.15-458.15-58.84-669.41-10.81-41-18.55-83.51-38.17-121.12s-69.85-71.29-73.67-69.48c-19,9-65.79,28.75-84.78,37.76-21,10-41.62,14.13-68.34,19.27-22.8,4.39-45.77,4.55-65.58,16.65S2678.39,2660.75,2669.52,2705.51Z"/><path class="cls-21" d="M3080.74,1871.27c-24.12,19.78-55,31.24-73.84,56.49-10.18,13.63-16,30.19-21.61,46.45q-17,49-33.95,98l46.92-98.09c9.89-20.67,20.15-41.87,36.63-57.27C3053.25,1899.73,3079.3,1889.53,3080.74,1871.27Z"/><path class="cls-21" d="M3107.11,1945a1407.47,1407.47,0,0,1,91.68,264.27c-61.84,88.31-176.27,68.37-235.48,31.88-5.2-94.42,22.09-190.33,76.24-267.85A68.29,68.29,0,0,1,3107.11,1945Z"/><path class="cls-29" d="M3126.44,2075.37c-43.46-14.45-95.52,23.35-95.23,69.15,1.42,228.27,5.73,289.89,7.16,518.16.24,39.29,59.41,61.58,85.52,32.21C3164.26,2433.94,3168,2334.44,3126.44,2075.37Z"/><path class="cls-28" d="M3035,2190.27c0,23.32-3.45,98.57-1.81,120.12.25,3.22,29.91,14.92,55.86,14.05,27.47-.91,64.2-20.23,64-23-4.09-70.47-14.52-163.55-32.33-143.47C3102.62,2178.42,3042.51,2193.4,3035,2190.27Z"/><path class="cls-33" d="M3119.27,1908A1408.18,1408.18,0,0,1,3211,2172.28c-61.84,88.31-176.27,68.37-235.48,31.88-5.2-94.42,22.09-190.33,76.24-267.85A68.29,68.29,0,0,1,3119.27,1908Z"/></g></g><g id="window_frame" data-name="window frame"><g id="Layer_31" data-name="Layer 31"><polygon class="cls-34" points="5838.59 1488.48 4060.78 527.5 4187.23 527.5 5858.38 1407.97 5838.59 1488.48"/><polygon class="cls-34" points="5809.89 1341.52 4520.22 658.72 5389.73 658.72 5809.89 884.13 5809.89 1341.52"/><polygon class="cls-34" points="2092.91 667.15 2092.91 2619.11 5746.23 2619.11 5746.23 1784.73 3625.28 667.15 2092.91 667.15"/></g><path class="cls-35" d="M5709.3,656.76V2589.18H2112.48V656.76H5709.3m40-40H2072.48V2629.18H5749.3V616.76Z"/><path class="cls-13" d="M5751.73,617.13V2628.81H2074.88V617.13H5751.73m100-100H1974.88V2728.81H5851.73V517.13Z"/></g><g id="REFERENCES"><g id="Layer_58" data-name="Layer 58"><polygon class="cls-36" points="4796 3496.16 2936.63 3496.16 3875.2 345.87 4796 3496.16"/><polygon class="cls-37" points="3875.04 257.52 3887.52 257.64 3887.51 217.19 3875.03 217.07 3875.04 257.52"/><polygon class="cls-37" points="3827.11 216.6 3827.11 257.05 3839.59 257.18 3839.59 216.72 3827.11 216.6"/><path class="cls-37" d="M3970.89,218v40.45l11.36.11c1.77-1.72,3.5-3.48,5.16-5.3v-35.1Z"/><path class="cls-37" d="M3987.41,152.46A107.42,107.42,0,0,0,3881.25,45.29a104.89,104.89,0,0,0-106.13,105.12v30.24l34.22.33h.06l178,1.72Z"/><path class="cls-37" d="M3791.66,256.71V216.26l-16.53-.16v39.36c.36.37.71.74,1.07,1.1Z"/><polygon class="cls-37" points="3935.45 258.1 3935.45 217.65 3922.97 217.53 3922.97 257.98 3935.45 258.1"/><path class="cls-37" d="M3739.67,150.06v0Z"/><path class="cls-37" d="M3857.33,292.8h0l-10.72-.11a127.25,127.25,0,0,0,19.75,1.54h27.81a127.26,127.26,0,0,0,15.34-.93Z"/><path class="cls-37" d="M3782.16,49.36c9.73-7.85,46.93-35.91,101.91-34.37,51.42,1.44,86,27.87,96.26,36.29.34.34.7.66,1,1a142.23,142.23,0,0,1,39.45,76.45v-2.06A126.67,126.67,0,0,0,3894.15,0h-27.81a126.67,126.67,0,0,0-126.67,126.67v23.39a139.28,139.28,0,0,1,41.46-99.73C3781.46,50,3781.82,49.69,3782.16,49.36Z"/></g><polygon class="cls-38" points="0 4975.17 0 17.77 1880.48 516.16 1880.48 4512.45 0 4975.17"/><polygon class="cls-39" points="7826.31 4975.17 7826.31 17.77 5945.83 516.16 5945.83 4512.45 7826.31 4975.17"/></g><g id="foreground"><ellipse class="cls-13" cx="3905.26" cy="4280.81" rx="1474.84" ry="145"/><g id="Layer_1" data-name="Layer 1"><g id="Layer_10" data-name="Layer 10"><path class="cls-40" d="M3101,3321.94a1158,1158,0,0,0-202,210.7l1213.35,18.22c232.16,3.49,465.79,6.86,694.88-32.59l-186.48-179.4c-17.77-17.1-36.11-34.57-58.64-43.71-20.66-8.37-43.33-9.11-65.49-9.33-141.43-1.39-282.43,14.18-423.51,24.6C3761.7,3333.42,3448.58,3331.32,3101,3321.94Z"/><path class="cls-41" d="M2901.66,3498.44l-2.65,122,1896.18-3.69.81-122.91c-588.72,9.12-1177.7,8.38-1766.09-14.61C2981,3477.36,2925.59,3478,2901.66,3498.44Z"/><path class="cls-42" d="M2976.81,3573.22C3027.55,3838,3102.5,4034,3110.36,4321.43c37.67,16.69,67.72,5.62,105.86,2.68-1.58-292.27-74.1-515.88-126.54-743.06C3051.36,3574.24,3019.24,3567.44,2976.81,3573.22Z"/><path class="cls-42" d="M4716.33,3572.08c-50.75,264.73-125.7,460.82-133.55,748.21-37.68,16.69-67.72,5.62-105.87,2.68,1.58-292.27,74.1-515.88,126.54-743.06C4641.77,3573.11,4673.9,3566.3,4716.33,3572.08Z"/></g><g id="Layer_2" data-name="Layer 2"><path class="cls-43" d="M4389.42,2476.63c-33.21-74.68-89-137.16-156.48-175.35-11-6.22-22.51-11.89-34.8-13.56-24.56-3.34-48.52,9.62-68.84,25.05-38.58,29.3-72.33,74.43-70.7,125.71.36,11.24,2.52,22.66,8,32.19s13.86,16.56,23,21.67a80.91,80.91,0,0,0,71.52,3.68c11.52-5,25.53-12.47,35-3.79,3.39,3.1,5.28,7.68,8.07,11.42,8.76,11.74,25.08,13.28,38.33,8.83s24.67-13.62,37-20.49C4319.53,2469.77,4370.54,2473.56,4389.42,2476.63Z"/><path class="cls-44" d="M4304.26,2478.12c-43.6-7.82-87.79-15.4-131.8-11S4084,2489,4054.1,2524.56c-16,19-27.45,47.47-16.59,70.44,9.3,19.66,31.66,27.7,51.93,27.59s40.16-6.4,60.43-7c2.32-.07,4.75,0,6.84,1.08,5.64,3,5.8,11.45,6.55,18.25,3.27,29.64,37.77,49.23,61.88,35.13,14.17-8.28,22.72-24.41,30.54-39.73l38.25-74.89c8.68-17,17.63-34.37,31.06-47.17S4357.51,2487.67,4304.26,2478.12Z"/><path class="cls-43" d="M4358.67,2473c-33,22.74-66.48,45.83-93.2,76.92s-46.46,71.6-46.06,114.23c.16,17.37,4.54,36.21,17.35,46.51,15.33,12.33,38.07,7.73,52.82-5.42s23.13-32.83,30-52.24c3.17-9,6.23-18.31,12-25.62s15-12.26,23.48-9.6c1.61,12.49,18.29,16.26,27.69,8.92s12.89-20.61,15.31-33C4403.11,2567.59,4403.87,2535,4358.67,2473Z"/><path class="cls-43" d="M4405.92,2442.28c-12.21-55.35-24.52-111.68-21.46-168.51s23.78-115.28,66-148.7c10.27-8.13,22.85-14.86,35.26-12,19.8,4.53,28.57,29.89,31.05,51.8,6.08,53.8-5,107.95-16,160.81,20.31-24.28,52.94-35.42,82.3-28.09,21.57,5.38,42.71,23.59,43.54,47.72.71,20.56-13.48,38.61-29.86,48.78s-35.16,14.62-52.65,22.27C4513.54,2429.72,4486.77,2453.3,4405.92,2442.28Z"/><path class="cls-45" d="M4443.13,2482.88c33.55-21.7,67.38-43.54,104.2-57.56s77.3-19.82,114.95-8.76c5.82,1.71,11.81,4,15.86,8.87,7.65,9.2,5.24,24.63-2.31,33.93s-18.75,13.87-29.59,17.65a425.5,425.5,0,0,1-117.63,23.13c13,8.78,28.77,11.05,42.83,17.61s27.6,20.49,26,37.09c-2.15,22.35-28.55,30.82-49,28-37.94-5.23-73.95-33.1-86-72.73-8.55-28.2-7.83-64.74-31.57-79.25C4417,2422.35,4399.77,2425.5,4443.13,2482.88Z"/><path class="cls-43" d="M4377.07,2461.8c42.54-26.65,81.37-60.63,126.26-82.22a260.75,260.75,0,0,1,162.52-21.22c8.47,1.65,17.13,3.87,24,9.44,17,13.71,16.51,43.77,3.58,62.06s-34.27,26.92-55,31.49-42.24,6.06-62,14.23c-3.17,1.3-6.42,2.9-8.45,5.85-5.39,7.87,1.47,19.33,9.67,23.38s17.85,4.46,25.32,9.93c15.16,11.1,12.8,38.42-.6,51.94s-33.16,16.21-51.41,15.55a207.71,207.71,0,0,1-56.95-10.45"/><path class="cls-44" d="M4431.53,2470.68a765.53,765.53,0,0,0-35.92-172.27c-14.27-42.85-33-85.27-63.57-116.37s-74.89-49.11-115.05-36.58c-28.18,8.79-51.66,31.8-65.88,59.77s-19.72,60.52-19.25,92.51c.12,8.61.73,17.49,4.29,25.17,6.41,13.81,21.11,20.82,35.2,22.48s28.3-.91,42.48-.86c33.93.13,67.58,16.13,90.76,43.18,11.39,13.29,20.73,29.42,35.3,38.27,19.22,11.68,42.79,8,64.69,5.7,7.32-.78,14.93-1.34,21.85,1.38C4440.89,2438.75,4447.72,2456.35,4431.53,2470.68Z"/><path class="cls-46" d="M4371.14,2486.6c-19.19-43.83-40.72-90.45-79.81-113.67-16.65-9.9-35.46-14.77-54.28-17.26-34.31-4.53-71.58-.49-98.89,22.62s-39.76,69.37-19.78,100.15c8.06,12.42,20.17,21,32.75,27.58a158.25,158.25,0,0,0,50.56,16.42c-8.16,14.33-.3,34.7,13.22,42.87s30.33,6.64,45.05,1.49,28.32-13.57,43-18.9S4334.32,2540.6,4371.14,2486.6Z"/><path class="cls-46" d="M4329,2549.77c-40.11-26.64-89.28-36.58-135.46-27.36-17.56,3.5-35.22,10-48.36,23.19s-20.82,34.15-15.44,52.73c3.57,12.31,12.23,22.1,21.61,30,30.07,25.24,70.69,34.82,107.63,25.4S4328.4,2616,4329,2549.77Z"/><path class="cls-47" d="M4394,2463.25c-25.92-29.48-52.64-60.39-64.07-99.3s-2.56-88.17,30-108.41c12.33-7.67,26.73-10.49,40.9-11.41s29.45.23,41.28,9c20.08,14.85,23.4,45.13,24.59,71.58,1.16,25.94,1.94,52.9-7.36,76.81-8,20.45-22.6,36.79-33.89,55.29S4418,2490.59,4394,2463.25Z"/><path class="cls-47" d="M4370.17,2391.73c-7.44-16.89-20.11-31-35.43-39.44a81.22,81.22,0,0,0-14.64,32.86c-1.82,9-2,19.11,2.61,26.89,2.87,4.87,7.31,8.34,11.73,11.52C4354.44,2437.93,4393,2443.57,4370.17,2391.73Z"/><path class="cls-47" d="M4456.78,2330l-8.37-7.17c2.18-19.5,18.46-35.95,36.44-36.83a19,19,0,0,1,10.41,2c5.63,3.2,8.54,10.1,10.39,16.72,8.07,28.9,2.58,61.9-14.27,85.86-12.12,17.23-29.15,29.35-44.59,43s-30.17,30.42-34.57,51.6"/><path class="cls-47" d="M4456.64,2470.47c20.77-28.42,32.61-66.06,60.74-85.5,15.69-10.84,34.57-14.51,53-16.93,17.39-2.28,36.94-3,50.26,9.44,17.27,16.09,14.93,47.77.92,67.28s-36.05,29.68-57.33,38.34C4546.69,2490.24,4528.43,2497,4456.64,2470.47Z"/><path class="cls-47" d="M4458.56,2432.51l23-47.64c3.81-7.9,7.75-16,13.84-21.94s14.9-9.45,22.62-6.5c8.8,3.35,13.64,13.8,15.39,23.79,3.5,19.94-1.85,40.8-11.25,58.32S4499.56,2470.73,4458.56,2432.51Z"/><path class="cls-47" d="M4417.68,2479.85a314.13,314.13,0,0,0-47.44-36.77c-6.75-4.26-14.77-8.35-22.06-5.32-4,1.67-7.12,5.33-9.23,9.42-9.7,18.74,1.46,44.06,18.93,54S4396.49,2509.37,4417.68,2479.85Z"/><path class="cls-47" d="M4509.63,2456.73c19.49-25,39.63-50.23,65.24-67.48s57.9-25.65,86.21-14.51a52.48,52.48,0,0,1,15,8.71c10.39,8.88,16.39,22.8,18.77,37,5.4,32.24-6.86,66.1-27.62,89.78s-49.09,38.1-78.18,46.22c-17.74,4.95-36.55,7.73-54.3,2.78S4500.53,2540.26,4509.63,2456.73Z"/><path class="cls-47" d="M4540.65,2535.28c14.5,3.41,29.53,2.58,44.24,4.65s30,7.77,38.85,20.77c-7.23,15.21-21.33,26.3-36.84,29S4554.86,2586.47,4540.65,2535.28Z"/><path class="cls-47" d="M4500.75,2365.7l44-8.47c5.63-1.08,11.5-2.16,17-.4,7.64,2.45,13.18,10.22,15.2,18.63s1,17.35-1,25.76C4572.34,2415.84,4565.62,2429.72,4500.75,2365.7Z"/><path class="cls-47" d="M4466.41,2495.26c-6.13-36.13-12.46-72.88-28.12-105.41-1.32-2.75-2.78-5.56-5.09-7.39-2.07-1.65-4.63-2.35-7.13-3-16.22-4.2-32.92-7.43-49.51-5.6s-33.22,9.27-43.82,23.31c-16.33,21.63-14.55,55.24,0,78.35s39.32,36.6,64.54,41.87S4448.45,2520.63,4466.41,2495.26Z"/><path class="cls-47" d="M4459.15,2429.52a763.88,763.88,0,0,1,49.06-92.73c5.91-9.52,12.27-19.15,21.23-25.21,7.85-5.3,17.17-7.47,26.39-8.12a69.6,69.6,0,0,1,31.11,4.44c28.78,11.7,45.83,47,44.54,80.54s-18.08,64.48-40,87.94-48.85,40.48-75.45,57.25"/><path class="cls-47" d="M4540.3,2255.05l-13.11,29.48c7.05,3.6,15.82.2,21.09-6.05s7.68-14.72,9.27-23C4555.22,2253.31,4551.06,2254.51,4540.3,2255.05Z"/><path class="cls-47" d="M4582.56,2274.94l10.82-12.26,3.05,2.19a11,11,0,0,1-4.66,11.18,9.12,9.12,0,0,1-11.17-1.55,7.54,7.54,0,0,1-1.38-2c-1.84-4,1.46-9,5.43-10.06S4592.75,2262.92,4582.56,2274.94Z"/><path class="cls-47" d="M4383.9,2221.88l-7.13-34.84c3.42-2.35,7-4.68,11-5.33s8.56.79,10.67,4.56c1.68,3,1.54,6.76,1.11,10.23C4398.34,2206.36,4395.25,2215.94,4383.9,2221.88Z"/><path class="cls-47" d="M4380.91,2192.93c-5.84-4.32-14.5-3.75-19.43,1.77s-5,15.52.22,20.7,14.83,3.76,18.17-3C4383,2206,4380.37,2198.22,4380.91,2192.93Z"/><path class="cls-47" d="M4666.69,2296.17a156.18,156.18,0,0,1,25.9-25.14c3,14.3-6.18,30.31-19.29,33.57a10.84,10.84,0,0,1-6.38,0c-6.06-2.28-6.77-12.18-2.79-17.65S4674.74,2279.34,4666.69,2296.17Z"/><path class="cls-47" d="M4647.62,2334.59a35,35,0,0,1,22.15-6.32c-2.27,11.47-12.92,20.2-23.64,19.39-4.29-3.95-2.69-12.38,2.09-15.59S4659.38,2330,4647.62,2334.59Z"/><path class="cls-47" d="M4712,2304.75l-3.31,18.26C4712.56,2318.76,4711.26,2310.39,4712,2304.75Z"/><path class="cls-47" d="M4106.17,2504.75a114.43,114.43,0,0,0-49.78-4.73C4064.07,2516.3,4085,2523.12,4106.17,2504.75Z"/><path class="cls-47" d="M4107.45,2477.29a72.57,72.57,0,0,0-34.16-9.9c3.43,6.51,7.33,13.47,13.73,16.22S4102.59,2481.81,4107.45,2477.29Z"/><path class="cls-47" d="M4110.39,2617.19l-22.18,11.08-.75,7.16c5.51,2.63,12.17,3.29,17.42.06S4113.12,2624.47,4110.39,2617.19Z"/><path class="cls-47" d="M4142.3,2639.72a44.69,44.69,0,0,0-22.1,19.14,13.23,13.23,0,0,0,16.36,1.45C4141.54,2656.92,4144.1,2649.81,4142.3,2639.72Z"/><path class="cls-47" d="M4279.78,2328.6a131.06,131.06,0,0,0-31.69-45.42c-8.66,7.27-6.91,23.16.81,31.6S4268,2326,4279.78,2328.6Z"/><path class="cls-47" d="M4299,2319.29a52.94,52.94,0,0,1,6.15-26.06,30,30,0,0,1,1,22.24c-.62,1.77-1.56,3.62-3.2,4.26-3.46,1.36-6.32-3.79-5.73-7.75S4300.14,2304.47,4299,2319.29Z"/><path class="cls-47" d="M4310.22,2667.75a52.07,52.07,0,0,0-28.21,14.06c6.38,2.11,13,4.25,19.6,3.39s13.3-5.56,14.69-12.67C4314,2672.14,4311.91,2670.06,4310.22,2667.75Z"/><path class="cls-47" d="M4320.91,2693.52l-3.91,24a14.17,14.17,0,0,1-.84-15.08C4318.82,2697.88,4324.28,2695.55,4320.91,2693.52Z"/><path class="cls-47" d="M4164.76,2312.9a154.14,154.14,0,0,0-38.26-35c-5.9,9.12-2.21,22.67,5.61,29.87S4150.6,2317.23,4164.76,2312.9Z"/><path class="cls-47" d="M4173.22,2288.42a241.16,241.16,0,0,1-18.17-35.81c9.24.33,19.24,5,22.68,14.33S4173.76,2289.3,4173.22,2288.42Z"/><path class="cls-47" d="M4190.19,2302.75l15.81-8.55,3.83,3.19c-2.81,8.57-11.19,14.56-19.52,14C4189.78,2305,4193.07,2298.38,4190.19,2302.75Z"/></g><path class="cls-48" d="M4436.63,2489.88c-53.54-32.48-119.88-38.7-177.72-16.68,27.5,9.61,46,39.25,73.3,49.39,12.79,4.75,26.61,4.84,40.12,4.35,26.74-1,56.77-6,72.49-29.64,1.09-1.65,2.15-3.6,1.82-5.61-.45-2.74-3.16-4.19-5.53-5.21C4436.87,2484.66,4432.64,2482.84,4436.63,2489.88Z"/><path class="cls-48" d="M4445.94,2477.32c-.29-27.45-12.55-54.47-32.38-71.35-10.31-8.77-22.31-14.78-34.19-20.72l-46.71-23.33c19.59,23.21,25.77,56.2,41.09,83,4.05,7.08,8.82,13.8,14.92,18.85C4404.87,2477.17,4427.1,2476.6,4445.94,2477.32Z"/><path class="cls-48" d="M4480.21,2519.08c-9.13-25.76-28.29-47.06-51.71-57.5-24.31-10.84-51.76-10.09-76.61-19.37a418.66,418.66,0,0,1,53.23,53.36c7.4,8.88,15,18.47,25.35,22.41C4445.29,2523.61,4462.07,2516.32,4480.21,2519.08Z"/><path class="cls-48" d="M4456.07,2473.8c-11.73-31.85-23.63-66.82-14.48-99.66,6.38-22.9,22.1-41,37.33-58.24a249.2,249.2,0,0,0,4.23,81.85c2.13,9.65,4.85,19.26,5.07,29.17s-2.48,20.48-9.45,26.84S4461.46,2461.85,4456.07,2473.8Z"/><path class="cls-48" d="M4446.92,2490.87a394.38,394.38,0,0,1,30.58-70.12c2.35-4.22,4.82-8.44,8.18-11.75,4.5-4.44,10.3-6.95,16-9.31q40.31-16.74,81.86-29.57c-21.13,7.06-35.32,28.17-47.42,48.35s-24.85,41.89-45.11,51.52C4477.8,2476.27,4463,2476.6,4446.92,2490.87Z"/><path class="cls-48" d="M4447.89,2484.79c42.75-18.76,89.12-37.84,133.78-25.45,17.59,4.88,35.48,14.61,53,9.48-15.73,8.78-31.64,17.62-48.79,22.27-17.48,4.73-35.68,4.94-53.69,5.12-19.12.2-38.9.25-56.42-8.1C4467.55,2484.17,4460.12,2478.51,4447.89,2484.79Z"/><path class="cls-48" d="M4412.83,2524.63a310,310,0,0,0-70.25,6.13c-4.35.89-8.75,1.89-12.71,4-6.11,3.34-10.73,9.18-15,15a425.07,425.07,0,0,0-35.72,57.34c27.66-15.62,56.6-31.61,87.74-32.12,9.32-.16,18.81,1.08,27.84-1.43C4412.9,2568.54,4425.75,2546.81,4412.83,2524.63Z"/><path class="cls-48" d="M4456.71,2491.75c-13,12.32-32.8,18.08-39,35.63-2.14,6-2.29,12.6-2.41,19l-.63,33.42c-.15,7.8-.28,15.79,2,23.18,4.29,13.92,16.1,23.14,27.23,31.4-1.63-14.29-3.24-28.93-.28-43,6.75-32,36.08-55.6,38-88.41.27-4.47-.26-9.56-3.48-12.34-2.25-1.95-5.31-2.3-8.19-2.43C4463.11,2488,4456.25,2488.44,4456.71,2491.75Z"/><path class="cls-48" d="M4449.64,2526.22c-21.88-2.27-42.45-12.39-64.15-16.19s-47.19.76-59.38,20.72l31.17,0c4.57,0,9.21,0,13.61,1.37,5,1.56,9.43,4.79,13.78,7.92,11.77,8.46,24.53,16.75,38.61,17.25S4452.74,2547.5,4449.64,2526.22Z"/><path class="cls-48" d="M4480.32,2503.06q29.07-9.72,58.55-17.92c4.68-1.3,9.47-2.59,14.27-2.06a39.16,39.16,0,0,1,9.27,2.59l48.66,18c-13.72,5.59-29.26,2.42-43.34,6.83-11,3.45-20.34,11.26-29.89,18.15-12.28,8.85-26,16.59-40.71,16.73s-30.36-9.38-33.91-25C4461.21,2511.59,4464.63,2508.3,4480.32,2503.06Z"/><path class="cls-48" d="M4445.51,2478.48c36.63,2.51,76.39,6.42,103.38,33.57,17.52,17.62,26.95,42.57,35.87,66.68a136.23,136.23,0,0,0-68.42-27.52c-18.09-1.87-37.25-.17-53.46-9.14-12.64-7-22.16-20.37-25.24-35.47-1.3-6.37-1.46-13.27,1-19.2S4446.72,2476.78,4445.51,2478.48Z"/><path class="cls-49" d="M4471.48,2600.4a170.49,170.49,0,0,0-42.44-63.54c-20.74-19.35-45.71-32.36-70.35-45.14,15.75,10.21,23.9,29.94,29.72,48.91s10.61,39.12,22.7,54.15c17.63,21.9,46.26,27.72,72.64,32.25C4482,2617.28,4480.3,2607.54,4471.48,2600.4Z"/><path class="cls-49" d="M4473.93,2613c-8.55-23.65-17.22-48-17.11-73.44s11.1-52.49,32.33-63C4473.31,2516.27,4490.2,2565,4473.93,2613Z"/><path class="cls-49" d="M4454.71,2584.45c13.52-17.65,22-39.74,37.38-55.5,20.55-21.08,49.92-27.56,77.64-33.16-22.07,11.11-30.1,40.16-44.68,61.39-18.87,27.51-51.58,42.67-82.9,39.19C4444.94,2576.58,4458.33,2559,4454.71,2584.45Z"/><path class="cls-49" d="M4410.89,2625.89a534.51,534.51,0,0,1,32.12-46.66c3.21-4.16,6.51-8.31,10.54-11.49,7.24-5.72,16.32-7.93,25.22-8.83,33-3.33,66.3,9.47,99.12,4.33-36.28,38.13-87.24,59.08-137.55,56.54C4429.5,2619.24,4417.62,2617,4410.89,2625.89Z"/><path class="cls-49" d="M4486,2592.15c-40.2-19.53-81.43-39.36-125.32-42.79-21.11-1.65-42.31.55-63.29,3.61,17.22,6.52,35,13.4,48.28,27,7.2,7.39,12.78,16.49,20,23.9C4390.85,2629.91,4432.64,2629.58,4486,2592.15Z"/><path class="cls-49" d="M4384.19,2578.93c-18.06,0-36.14-5.61-54-2.67-23.13,3.82-42.19,21.16-59.93,37.82,32.85-5.4,61.23,24.9,93.66,32.7C4394.9,2654.23,4429.43,2638.46,4384.19,2578.93Z"/><path class="cls-49" d="M4459,2590.55c-38.44,9.67-79.1,20.66-106.72,51.4a116.42,116.42,0,0,0-24.36,43.46c14-13.22,32.53-19.14,50.63-23.47s36.74-7.51,53.33-16.53S4463.12,2620.11,4459,2590.55Z"/><path class="cls-49" d="M4447.42,2618.24c39.1-28.66,89-39.16,135.07-28.41-42.82,1.09-71.3,56.44-114,59.59C4450,2650.78,4425.44,2634.35,4447.42,2618.24Z"/><path class="cls-50" d="M4419,2627.17c66.9,88.63,88.46,215.57,55.11,324.49-17.13,56-47.17,105.94-71.78,158.48s-44.24,110.81-37.92,169.41l21.54.52c0-54.19,19.88-106.05,43.8-153.53s52.25-92.51,71.5-142.46C4548.43,2861.58,4534.35,2713.25,4419,2627.17Z"/><path class="cls-49" d="M4474.06,2597.89a1360.63,1360.63,0,0,1,31.17,190.55l-16.4-49.94c-8.39-25.54-17-51.48-31.66-73.36-7.17-10.68-15.68-20.2-24.15-29.68l-31.12-34.81"/><path class="cls-49" d="M4518.4,2851.92c-5.83-53.68,25.51-103.76,60.7-141.8s76.56-71.17,100.45-118.53a187.68,187.68,0,0,0,19.79-95.33c10.47,36.39,1.21,76.94-17.34,109.27s-45.52,57.76-72.95,81.39c-16.94,14.59-34.49,29-47,48.17C4531.68,2781.4,4535.7,2846.92,4518.4,2851.92Z"/><path class="cls-50" d="M4533.88,2804.81c26-24.84,60.77-34.83,92.46-49.83s63.77-39.57,70.85-76.49c4.23-22-1.16-45.84,6-67,4.38-12.95,13.1-23.62,18.23-36.23,7.53-18.52,6.8-39.63,5.62-59.85-1.23-21.28-2.86-42.92-10.1-62.72s-21-37.84-39.57-44.34a195.85,195.85,0,0,1,14.47,81.55c-.31,8.33-1.31,17.09-5.91,23.74s-13.91,10-20.12,5.21c-2.79-2.17-4.73-5.74-8-7-9.35-3.47-12.53,12.78-13.19,23.54-2.25,36.64-36.47,58.77-59.79,85.24-33.47,38-46.9,91.33-59.14,142.3C4518.37,2793.54,4512.17,2825.56,4533.88,2804.81Z"/><path class="cls-49" d="M4514.27,2848.91c-1-59,24-118,65.79-155.49,15.92-14.28,34.06-25.56,49.17-40.86a146.15,146.15,0,0,0,29.56-43.76c4.83,17.08,2.2,36.49-6.95,51.31a18.49,18.49,0,0,0,15.94-3.39c4.68,22.14-12,42.53-28.45,56.39-27.39,23-58.45,41-83.23,67.25S4513.06,2844.75,4514.27,2848.91Z"/><path class="cls-49" d="M4653.92,2460.72l17.76,32.07,3.82-2.61a38.83,38.83,0,0,0-.42-33.78c-5.28-10.24-15.51-17.21-26.25-17.9C4650.91,2452.35,4657,2465.44,4653.92,2460.72Z"/><path class="cls-49" d="M4656.22,2406.9a24,24,0,0,0,12.94,1.87c-1.42-2-3.1-4.08-5.38-4.24S4659.4,2407.81,4656.22,2406.9Z"/><path class="cls-49" d="M4730.34,2601.63a89.51,89.51,0,0,0-14.86,54.17,136.7,136.7,0,0,0,17.1-22C4738.38,2624.55,4742.68,2610.73,4730.34,2601.63Z"/><path class="cls-49" d="M4626.79,2527.69a42.51,42.51,0,0,0-4.39,23.11C4630.91,2548.78,4635.71,2536.44,4626.79,2527.69Z"/><path class="cls-49" d="M4744.9,2556c-2.27,1.24,1.93,3.69,4.25,2.56"/></g><g id="Layer_4" data-name="Layer 4"><path class="cls-51" d="M3872.15,3285.93c26.23-63.44,55.11-128.7,105.91-172.92,67.57-58.83,170.25-68.94,247.14-24.32s123,141,111,232.13c-4.23,32.16-15.31,63.76-34.64,89.16-20.4,26.78-49.06,45.59-79.27,58.78-67.87,29.62-144.2,32.49-217,21.5-29.38-4.44-59-11.25-84.86-26.45-44.22-26-74.08-76.84-76.2-129.82-.94-23.39,3.46-47.59,16-67S3894.37,3233.89,3872.15,3285.93Z"/><path class="cls-51" d="M4270.94,3219.28c29.37-22.71,49.3-61.14,84.71-70.6,19.33-5.17,39.86-.38,58.53,7,11.8,4.66,23.33,10.41,33.3,18.49,39.24,31.82,44.7,96.73,18.19,140.6s-78.12,66.71-127.82,66.29c-22.46-.19-45.84-5-63.38-19.69-13-10.83-21.73-26.12-29.38-41.51-13.17-26.5-24.1-56.46-18.23-85.69S4261.73,3179.28,4270.94,3219.28Z"/><path class="cls-51" d="M4381.4,3332.38a127,127,0,0,1,65.74,14.7c-2,20.21-11.31,40.79-28.42,50.5s-42.11,4.46-50.41-13.92c-6.83-15.12-.23-34.57,12.95-44.08S4412.42,3329.77,4381.4,3332.38Z"/><path class="cls-51" d="M3902.92,3248.8c-35.68-67.5-106.31-117.2-184.52-129.84s-162.1,12.08-219.16,64.59c-28.26,26-50.33,59-58.55,95.6-14.39,64.09,16.34,132.49,67.41,176.39s119.63,65.76,188,73.13a531.19,531.19,0,0,0,235.06-27.83c62.43-22.39,123.34-57.17,190-54.54"/><path class="cls-51" d="M3452.25,3277.61c-95.36,24.78-205-4.52-287.77,50.7-21.5,14.34-41.41,40.65-32.21,65.49,7.45,20.1,30.05,28.4,50.19,33.17,49.38,11.69,99.95,16.65,150.36,21.58l274.37,26.83"/><path class="cls-51" d="M3510.86,3352c-27.78,6.26-59.66-7.63-83.76,8.08-19.14,12.47-24.86,38.42-27.92,61.75-1.75,13.34-3,27.58,2.59,39.69,5.53,11.89,16.86,19.65,28.4,25.08,25.65,12.09,56.4,15.21,81.68,2.31S3554.37,3444.71,3510.86,3352Z"/><path class="cls-51" d="M3158.09,3437.42a53,53,0,0,0-33,3c-2.8,9.68,5.39,20,14.91,21.95a22.21,22.21,0,0,0,11.68-.83c5.06-1.77,9.65-5.68,11.3-11s-.32-11.89-5.08-14.42S3146.25,3436.63,3158.09,3437.42Z"/><path class="cls-52" d="M3560.76,3387.41a240.56,240.56,0,0,1,55.84-33.91c13.19,14.84,17.7,38,9.47,56.36s-29.53,29.68-48.21,24.24-31.39-28.27-25.22-47.46c4.47-13.87,18-24,32-23.88,5.66,0,11.21,1.56,16.68,3.07C3606.63,3367.28,3613.19,3370.69,3560.76,3387.41Z"/><path class="cls-52" d="M3562.17,3227.86c-6.06,8.74-8.66,20.58-2.39,29.16s19.12,11.52,28.51,6.54a608.84,608.84,0,0,1,239-68.95c12.78-1,14.19-21.62,4.07-29.49s-24.28-6.71-37.08-6S3642.39,3112.24,3562.17,3227.86Z"/><path class="cls-52" d="M3652.58,3312a130.67,130.67,0,0,0-27.85,15.84c3.32,13.07,14.21,23.71,26.94,26.31a18.32,18.32,0,0,0,10.58-.53c5.61-2.3,9-8.27,11.23-14.09,1.75-4.47,3.14-9.4,2-14.1-1.81-7.71-9.51-12.09-16.65-14.86C3656.9,3309.85,3653.73,3310,3652.58,3312Z"/><path class="cls-52" d="M3670.17,3402.39a14.45,14.45,0,0,1,15.14,4.41c-1.21,5-6.28,8.93-11.19,8s-8.46-7-6.51-11.74S3676.85,3397,3670.17,3402.39Z"/><path class="cls-51" d="M3995.25,3236.43a369.38,369.38,0,0,0-80.72-68.92c-11.57-7.28-23.89-14-37.31-15.7-23.91-3-46.86,10.36-66,25.59-23.79,18.89-45.93,43.35-51.47,74-5.7,31.51,7.52,64.06,27.36,88.54,30,37,76.42,59.65,122.84,57.41s91.5-30.24,113.55-72.93c8.83-17.12,14.05-37.32,9.26-56.11S4010.94,3233.39,3995.25,3236.43Z"/><path class="cls-51" d="M4257.8,3371.54c-15.78,8.2-32.89,17.88-38.81,34.65s9.12,40,25.85,34a167.45,167.45,0,0,1,109.86-.85c76.57,26.21,165.34,13.65,231.63-32.78,9.23-6.46,9.46-22.24.44-29a339.26,339.26,0,0,0-152.15-63.26C4434.75,3319.63,4277,3361.59,4257.8,3371.54Z"/><path class="cls-51" d="M4643.62,3431.65c-44.25-21.46-99.66-17.86-140.76,9.13-7.78,5.11-6.34,19.15,2.31,22.58a262.73,262.73,0,0,0,144.48,13.72c10.41-2,18.26-12.91,16.79-23.41S4653.74,3436.56,4643.62,3431.65Z"/><path class="cls-51" d="M3507.05,3196l-225.88,109.42c-13.45,6.52-13.89,27.64-3.28,38.17s27.53,11.9,42.06,8.45,27.76-10.94,41.77-16.13,30-8,43.66-1.91c34.62,15.38,78.88,5,103-24.18S3534.55,3235.18,3507.05,3196Z"/><path class="cls-52" d="M4473.05,3236.47a35.71,35.71,0,0,0,5.59,38.9l103.46,112.69-136.27-6.15c-18.71-.84-32.6-23.69-24.73-40.69C4435.18,3310.83,4449.25,3280.44,4473.05,3236.47Z"/><path class="cls-52" d="M4004.3,3183.18l-9.47,17.08a496.84,496.84,0,0,1,99.36,164.86c1.4,3.87,8.51,2.84,8.76-1.27a198.53,198.53,0,0,1,15.89-66.72c5.65-13.1.68-28.66-7.91-40.05s-20.39-19.86-30.73-29.68-19.68-22-20.91-36.25c-1.12-13-12.08-24.55-25-26.32S4010.31,3172.33,4004.3,3183.18Z"/><path class="cls-52" d="M3298.5,3319a200.33,200.33,0,0,0-72.93,38.91l35.78-9.75C3271.43,3337.29,3284.85,3329.51,3298.5,3319Z"/><path class="cls-52" d="M4366.5,3283.41c-7.55-9.67-15.5-19.68-26.56-25s-26.17-4.37-33.5,5.48-.16,27.69,12.06,26.6a96.45,96.45,0,0,1,76.2,28.08c7.42,7.57,21.86,3,26.16-6.63s.32-21.44-6.9-29.19S4396.85,3270.37,4366.5,3283.41Z"/><path class="cls-52" d="M4404.48,3360.82c1.28-16.77-23.82-27.86-35.36-15.62s1,36.65,17.67,34.39l36.48-5,1.36,12.18C4422.19,3380,4419.75,3373.08,4404.48,3360.82Z"/><path class="cls-53" d="M3413.27,3192.24l-1.87,1.17"/><path class="cls-53" d="M3343.43,3190.54l.78,4.2"/><path class="cls-53" d="M3207.85,3192.19a327,327,0,0,0,51,150.73,9.45,9.45,0,0,0,6.55,4.3c7.22,1,10.5-7.26,7.29-12.06-29.09-43.51-49.09-93-60.39-143.67A2.25,2.25,0,0,0,3207.85,3192.19Z"/><path class="cls-53" d="M3212.32,3222a142.56,142.56,0,0,0-65.78-78.66,65,65,0,0,0,11.89,58.4C3171.53,3217.72,3192.76,3226.67,3212.32,3222Z"/><path class="cls-53" d="M3238.53,3277c-5.82-34.68,7.48-72,33.92-95.14C3280.36,3216,3267.26,3254.19,3238.53,3277Z"/><path class="cls-53" d="M3217.13,3203.91a96.1,96.1,0,0,1,12.42-58.21,94.16,94.16,0,0,1-2.53,50.37,19.25,19.25,0,0,1-12,11.95C3215,3207,3214.84,3205.91,3217.13,3203.91Z"/><path class="cls-53" d="M4057.46,3005.37c-9.5,62.57-26,142.53-36.07,206.42-.71,4.5.68,9.32,3.47,12.11l2.44,2.44c3.43,3.42,8,1.43,9.14-4,15.55-74.65,39.74-173.25,32.53-249-.43-4.57-5-5.4-5.86-1.07C4060.87,2983.52,4059.08,2994.72,4057.46,3005.37Z"/><path class="cls-53" d="M4060.1,3001.06c-20.92-14-34.8-36.68-42.8-60.55s-10.66-49.14-13.27-74.17a114.87,114.87,0,0,1,55.95,57.18C4071,2948.46,4072.57,2977.39,4060.1,3001.06Z"/><path class="cls-53" d="M4070,3029.22c18.56-5.5,34.7-20.5,46.94-38.29s21.06-38.36,29.66-58.8c-32.14,8.18-61.27,34.92-76.25,70C4066.54,3011,4066,3021.69,4070,3029.22Z"/></g><g id="Layer_6" data-name="Layer 6"><path class="cls-54" d="M3904.13,2852.05a238.88,238.88,0,0,1-20.4,122.28c-16.63,36.17-42.05,67.13-61.12,102s-31.75,76.88-19.7,115c-24.39-1.91-46.27,18.45-70.71,17.87-2.75-.07-5.71-.51-7.67-2.51-1.62-1.64-2.26-4-2.8-6.32-6.44-27.63-6.85-58.5-24-80.61-18.13-23.4-49.25-29.63-74.61-43.95-44.9-25.36-70.73-75.64-92.62-123.77"/><path class="cls-55" d="M3655.1,2882.13q-50.8,22-99.81,48.27c-6.71,3.59-13.84,7.72-17,14.87-4.07,9.27.44,20.82,8.24,27s18,7.87,27.79,7.94c17.8.13,35.27-4.5,52.51-9.09,80.58-21.49,161.43-43.08,238.6-75.43,20.14-8.44,42.56-20.76,46.78-43-57.22-17.11-118.82-8.61-176.06,8.43S3624.2,2903.5,3655.1,2882.13Z"/><path class="cls-54" d="M3553.4,2951c-20.74-5.23-35.9-24.85-42.53-46s-6.22-43.93-5.74-66.2c.14-6.34.44-13.18,4.2-18.17,2.82-3.74,7.14-5.82,11.32-7.72,65.21-29.64,134.85-46.94,204-64.09l82.16-20.35c14.88-3.69,30.46-7.38,45.32-3.55,16.55,4.28,29.94,17.6,38.32,33.09s12.37,33.12,15.62,50.59c2.75,14.8,4.77,31.23-2.87,44-8.08,13.52-24.26,18.6-39.05,22.56q-160.48,43-323.68,73.69c-6.19,1.16-12.73,2.29-18.64.05s-10.35-7.59-14-13c-21.16-31.1-28.12-72.26-18.43-109,.82-3.13,1.86-6.39,4.18-8.54s5.65-2.86,8.76-3.45q58.28-11.1,115.55-27.13"/><path class="cls-56" d="M3506.64,2818.39c-45-15.64-75.51-67.91-68.5-117.2.62-4.36,1.61-8.91,4.47-12.14,3-3.41,7.57-4.71,11.88-5.85,100.15-26.35,202.53-44.1,300.43-78.55,27.22-9.58,59.28-19.83,82.71-2.38,18.83,14,24.11,40.74,26,64.94,2.37,30.72-1.76,67.87-27.83,81.92"/><path class="cls-54" d="M3465,2689.19c-12.86,3.57-26.68-4.27-34.29-15.28s-10.38-24.57-13-37.72c-4-20.28-6.48-45.16,9.68-58,6.15-4.87,14-6.93,21.57-8.88l168.83-43.23c44.8-11.47,89.67-23,135.28-30.55,20.65-3.44,44.36-5.24,60,8.74,12.1,10.82,15.73,28.06,18.64,44.07,3.6,19.84,6.4,42.61-6.42,58.12"/><path class="cls-54" d="M3779.57,2509.06c8.3-.54,15.35-7.31,18.62-15.29s3.37-17,2.68-25.61c-1.63-20.35-7.5-40.47-18.13-57.61-3.33-5.38-7.23-10.56-12.43-14-6.31-4.16-14-5.37-21.46-5.72-25-1.2-49.64,6.08-73.69,13.41q-127.68,39-253.9,82.93c-5.8,2-11.91,4.27-15.8,9.2-4.56,5.79-5,13.9-4.95,21.39a294.54,294.54,0,0,0,3.44,42.69c.89,5.76,2,11.64,5,16.58,9.08,15.09,29.9,14.74,46.85,12.59"/><path class="cls-54" d="M3764,2410.76c19.86-58-.38-131.38-45.39-132.93-29.6-1-58.69,7.17-86.9,16.14-82.23,26.11-162.48,59.59-235.67,105.09-5.11,3.17-10.35,6.57-13.54,11.64-3.7,5.88-4.15,13.15-4.48,20.08-.59,12.08-1.12,24.56,3.15,35.88,7.08,18.81,28.18,31.3,48.18,28.55"/><path class="cls-54" d="M3744.28,2302.39c-9.76-27.23-20.42-55.78-42.87-74.56-19.62-16.39-46.22-23.19-72-23.18s-51.14,6.27-75.87,13.41a1035.83,1035.83,0,0,0-106.46,37.11c-19.3,7.93-39,16.9-52.69,32.36-15.1,17-21.17,40.33-21.27,62.89s5.23,44.78,10.53,66.75"/><g id="Layer_8" data-name="Layer 8"><path class="cls-57" d="M3621.19,2679.63a783.51,783.51,0,0,0-111.53,39.54c-2.53,1.12-5.23,2.41-6.58,4.91-3.53,6.57,4.84,13.15,11.83,15,38.15,10.22,78-5,113.86-22,17.53-8.35,36.48-19.08,42.55-38.17C3654.85,2671.49,3637,2675.34,3621.19,2679.63Z"/><path class="cls-57" d="M3610.61,2743.51a105.43,105.43,0,0,0-42.67,21.61,64.22,64.22,0,0,0,58.44-10.91c1.6-1.27,3.22-2.72,3.86-4.71,1.91-5.88-6-10.42-11.83-9S3607.71,2746.42,3610.61,2743.51Z"/><path class="cls-57" d="M3667.25,2854.44a655.87,655.87,0,0,0-108.62,45.87c6.49,10.83,19,16.46,31.19,17.45s24.35-2,36.25-5l41.94-10.44c10.64-2.64,21.46-5.37,30.83-11.24s17.24-15.49,18.44-26.83c.21-2,.18-4.18-.91-5.84s-3.11-2.52-5-3.17C3687.91,2847.1,3661.49,2848.5,3667.25,2854.44Z"/><path class="cls-58" d="M3479.77,2247.44c-38.16.08-75.59,21.44-95.05,54.26s-20.28,75.91-2,109.43c-19.38,27.19-9.74,70.33,19.36,86.7-11.31,30.11-5.1,66.13,15.64,90.72-11,33.43-1.35,72.71,23.82,97.29-8.16,51.29,14.71,106.29,59.14,130.85-17.15,43.66-11.37,95.62,15,134.43l20.49,1.36c13.11,61.55,59.2,115.05,118.14,137.11,47.95,17.95,79.44,72,71.41,122.56l19.44-3.31c9.64-57.57-43.46-104.94-92.73-136.24s-106.37-68.27-111.46-126.42c-38.84-33.63-48.43-96.33-21.41-140-44.53-19.1-73.52-69.27-67.84-117.38l12-5.62c-35.75-16.6-47-70.24-20.85-99.76-35.15-17-44.13-71.38-16.33-98.83l-14.51,6.27c-24.31-21.1-29-61.25-10.27-87.41-16.2-32.65-15-73.34,3.16-105S3457.52,2245.26,3479.77,2247.44Z"/></g></g></g></g></svg>