<?xml version="1.0" encoding="utf-8"?>
<!-- Generator: Adobe Adobe Illustrator 24.2.0, SVG Export Plug-In . SVG Version: 6.00 Build 0)  -->
<svg version="1.1" xmlns="http://www.w3.org/2000/svg" xmlns:xlink="http://www.w3.org/1999/xlink" x="0px" y="0px"
	 viewBox="0 0 5000 5000" style="enable-background:new 0 0 5000 5000;" xml:space="preserve">
<style type="text/css">
	.st0{display:none;}
	.st1{display:inline;fill:none;stroke:#662C91;stroke-width:100;stroke-linecap:round;stroke-miterlimit:10;}
	.st2{display:inline;fill:#662C91;}
	.st3{display:inline;}
	.st4{fill:none;stroke:#7687C0;stroke-width:100;stroke-linecap:round;stroke-miterlimit:10;}
	.st5{fill:#7687C0;}
	.st6{fill:#66C8DE;stroke:#7687C0;stroke-width:25;stroke-linecap:round;stroke-miterlimit:10;}
	.st7{fill:#66C8DE;stroke:#7687C0;stroke-width:25;stroke-miterlimit:10;}
	.st8{fill:none;stroke:#49BFD8;stroke-width:50;stroke-linecap:round;stroke-miterlimit:10;}
	.st9{fill:none;stroke:#66C8DE;stroke-width:50;stroke-linecap:round;stroke-miterlimit:10;}
	.st10{fill:none;stroke:#662C91;stroke-width:100;stroke-linecap:round;stroke-miterlimit:10;}
	.st11{fill:#662C91;}
	.st12{clip-path:url(#SVGID_2_);}
	.st13{clip-path:url(#SVGID_4_);}
	.st14{fill:#F6E684;}
	.st15{display:inline;fill:#F6E684;}
	.st16{clip-path:url(#SVGID_6_);}
	.st17{clip-path:url(#SVGID_8_);}
	.st18{display:none;fill:#F6E684;}
	.st19{clip-path:url(#SVGID_10_);}
	.st20{clip-path:url(#SVGID_12_);}
	.st21{clip-path:url(#SVGID_14_);}
	.st22{clip-path:url(#SVGID_16_);}
	.st23{fill:none;stroke:#5D53A6;stroke-width:100;stroke-linecap:round;stroke-miterlimit:10;}
	.st24{fill:#5D53A6;}
	.st25{fill:none;stroke:#66C8DE;stroke-width:100;stroke-linecap:round;stroke-miterlimit:10;}
	.st26{clip-path:url(#SVGID_18_);fill:none;stroke:#5D53A6;stroke-width:100;stroke-linecap:round;stroke-miterlimit:10;}
	.st27{clip-path:url(#SVGID_20_);fill:none;stroke:#5D53A6;stroke-width:100;stroke-linecap:round;stroke-miterlimit:10;}
	.st28{fill:#66C8DE;}
	.st29{clip-path:url(#SVGID_22_);fill:none;stroke:#5D53A6;stroke-width:100;stroke-linecap:round;stroke-miterlimit:10;}
	.st30{clip-path:url(#SVGID_24_);fill:none;stroke:#5D53A6;stroke-width:100;stroke-linecap:round;stroke-miterlimit:10;}
	.st31{clip-path:url(#SVGID_26_);fill:none;stroke:#5D53A6;stroke-width:100;stroke-linecap:round;stroke-miterlimit:10;}
	.st32{clip-path:url(#SVGID_28_);fill:none;stroke:#5D53A6;stroke-width:100;stroke-linecap:round;stroke-miterlimit:10;}
	.st33{fill:#1D425A;}
	.st34{fill:#46138E;}
</style>
<g id="ROUGH">
	<g id="paths" class="st0">
	</g>
	<g id="compound_path" class="st0">
	</g>
	<g id="Layer_5" class="st0">
	</g>
	<g id="clipping_groups" class="st0">
	</g>
	<g id="Highlight" class="st0">
	</g>
	<g id="COLOUR_1__x2014__lighter_purple">
		<g id="Layer_15">
		</g>
		<g id="Layer_16">
		</g>
		<g id="Layer_17">
			<g id="Layer_11">
			</g>
		</g>
	</g>
</g>
<g id="PROTEIN_3">
</g>
<g id="PROTEIN_2">
</g>
<g id="PROTEIN_1">
	<g id="Layer_12">
		<g>
			<path class="st23" d="M3275.41,999.73c101.04,17.05,191.34,88.05,231.74,182.22s29.62,208.54-27.65,293.51
				c-57.28,84.97-159.25,137.86-261.7,135.73"/>
			<path class="st24" d="M3490.11,3604.71c-4.05-1.5-240.32-126.25-364.74-236.16c-140-123.68-209.84-223.56-215.33-369.91
				c-4.42-117.81,84.67-307.19,222.91-355.54c-89.6-91.07-120.16-218.89-84.14-327.51c-151.94,6.13-306.86-96.94-370.41-244.25
				c-63.55-147.31-32.23-330.72,76.62-448.58c108.84-117.87,302.04-155.89,458.08-134.03c13.73,10.12,138.13,178.63,151.25,290.11
				c-186.1-51.29-405.67-94.16-577.17-5.55c-64.12,33.13-80.49,146.63-30.11,181.01c191.33,130.58,493.66,113.38,515.6,101.59
				c200.59-107.79,354.59-118.94,444.01-66.36c43.91,96.75,56.66,207.36,33.36,313.88c-110.15,49.62-197.65,51.42-312.74,64.75
				c-61.76,7.15-177.91,45.4-234.44,70.88c71.86,33.63,204.09,68.56,289.06,86.12c163.43-42.33,352.79-68.48,516.87-26.57
				c32.91,158.51,28.93,357.66-86.95,492.7c-201.46-11.86-368.39-121.08-548.03-182.21c-115.26-6.79-298.18-10.14-320.77,83.62
				c-19.24,79.87,120.49,186.35,228.97,213.84c183.58,46.51,324.88,128.55,482.45,242.19
				C3665.91,3447.26,3613.22,3505.06,3490.11,3604.71z"/>
			<path class="st25" d="M3625.83,3444.48c91.88,83.33,110.07,230.5,57.04,342.63c-53.03,112.13-166.56,188.54-287.67,215.32
				c-121.11,26.79-248.71,8.43-366.09-31.67c-117.38-40.1-226.29-101.14-335.78-161.87"/>
			<g>
				<defs>
					<path id="SVGID_25_" d="M3659.07,3614.39c51.27,207.45,16.4,293.96-135.24,424.08c-118.03,101.29-398.46,98.1-546.03,48.98
						c-147.57-49.12-306.03-167.83-431.9-259.19c-52.17-37.87,81.99-109.22,129.06-153.27c47.07-44.05,118.88-51.22,182.09-38.56
						c63.21,12.66,121.59,42.15,182.45,63.42C3230.41,3766.56,3476.3,3732.28,3659.07,3614.39z"/>
				</defs>
				<clipPath id="SVGID_2_">
					<use xlink:href="#SVGID_25_"  style="overflow:visible;"/>
				</clipPath>
				
					<path style="clip-path:url(#SVGID_2_);fill:none;stroke:#5D53A6;stroke-width:100;stroke-linecap:round;stroke-miterlimit:10;" d="
					M3625.83,3444.48c91.88,83.33,110.07,230.5,57.04,342.63c-53.03,112.13-166.56,188.54-287.67,215.32
					c-121.11,26.79-248.71,8.43-366.09-31.67c-117.38-40.1-226.29-101.14-335.78-161.87"/>
			</g>
			<path class="st25" d="M2258.85,1543.37c193.37-514.15-131.47-775.67-449.94-547.06c-85.68,61.5-152.5,145.4-213.93,231.56"/>
			<path class="st25" d="M1188.93,2793.86c77.03,190.13,210.21,354.6,448.42,399.79c144.39,27.39,267.1,148.27,303.4,290.68
				c36.3,142.41-27.47,308.83-157.56,377.2s-314.05,17.49-396-106.25"/>
			<g>
				<defs>
					<path id="SVGID_27_" d="M2109.98,3625.89c0-230.3-135.45-372.07-253-421c-333.76-138.92-304.27,69.52-512.74-90.78
						c-124.05-95.39-100.26,367.84-100.26,511.78c0,230.3,193.86,417,433,417S2109.98,3856.19,2109.98,3625.89z"/>
				</defs>
				<clipPath id="SVGID_4_">
					<use xlink:href="#SVGID_27_"  style="overflow:visible;"/>
				</clipPath>
				
					<path style="clip-path:url(#SVGID_4_);fill:none;stroke:#5D53A6;stroke-width:100;stroke-linecap:round;stroke-miterlimit:10;" d="
					M1188.93,2793.86c77.03,190.13,210.21,354.6,448.42,399.79c144.39,27.39,267.1,148.27,303.4,290.68
					c36.3,142.41-27.47,308.83-157.56,377.2s-314.05,17.49-396-106.25"/>
			</g>
			<path class="st24" d="M2865.15,3907.13c0,0.32,0,0.65-4.85,2.84c-184.44,14.46-385.35-94.12-446.55-164.09
				c-641.99-723.66-595.62-1762.57-370.54-2202.52c122.04-9.62,308.17-34.25,423.57,2.25
				c-158.12,410.44-437.74,807.55-348.86,1248.25c137.71,274.28,529.19,703.12,529.19,703.12S2812.05,3734.85,2865.15,3907.13z"/>
			<path class="st24" d="M2698.32,3382.09c-131.75,131.75-260.9,287.67-372.47,435.23c142.2,42.57,374.76,93.6,550.08,93.6
				C2839.18,3736.15,2781.92,3563.84,2698.32,3382.09z"/>
		</g>
		<g>
			<g>
				<path class="st28" d="M2038.08,3061.05c-68.9-173.11-119.67-428.41-132.93-677.5c-8.53-160.32-1.89-310.11,19.73-445.2
					c23.59-147.37,64.41-271.81,121.35-370.03c9.26-2.69,34.44-7.9,85.7-12.92c51.79-5.07,110.94-7.98,162.28-7.98
					c62.5,0,112.52,4.23,142.9,11.84c-80.38,207.17-163.38,483.55-246.86,822.08C2125.72,2643.05,2072.95,2893,2038.08,3061.05z"/>
				<path class="st28" d="M2294.23,1572.42c50.78,0,85.46,2.69,108.8,5.92c-38.9,102.93-78.52,222.11-118.06,355.17
					c-39.18,131.85-79.21,280.51-119,441.86c-54.26,220.06-100.2,431.71-134.2,593.52c-16.18-50.39-31.02-105.48-44.15-163.96
					c-30.02-133.71-49.91-279.88-57.51-422.7c-4.06-76.3-4.61-151.47-1.63-223.41c3.14-75.87,10.23-148.72,21.09-216.52
					c22.37-139.73,60.37-258.12,113.04-352.22c12.75-2.63,36.96-6.52,76.71-10.27C2189.79,1575.04,2244.79,1572.42,2294.23,1572.42
					L2294.23,1572.42 M2294.21,1522.42c-122.47,0-259.17,15.7-266,27.22c-255.73,431.32-145.21,1265.15,18.61,1592.53
					c67.62-326.65,225.84-1101.71,422.96-1597.71C2438.34,1528.26,2368.93,1522.42,2294.21,1522.42L2294.21,1522.42z"/>
			</g>
			<g>
				<path class="st28" d="M1023.82,2897c-24.23-126.58-37.01-255.8-38.01-384.63c-1.08-139.66,11.67-279.71,37.89-416.26
					c26.36-137.26,66.51-271.81,119.32-399.93c53.63-130.1,120.73-254.52,199.44-369.8l14.07-20.61l-20.59-14.11
					c-21.29-14.59-47.75-31.35-75.68-48.03c62.57-17.92,125.54-38.84,186.92-59.23c78.07-25.94,158.53-52.67,237.85-73.13
					c7.42,69.92,14.41,145.55,21.2,218.98c6.08,65.8,12.32,133.35,18.91,197.13c-2.61-1.61-5.23-3.24-7.88-4.88
					c-18.36-11.37-37.35-23.13-57.63-35.96l-21.11-13.36l-13.37,21.1c-58.39,92.14-109.22,191.37-151.06,294.93
					c-40.73,100.79-73.22,206.35-96.59,313.74c-22.99,105.65-37.24,213.5-42.35,320.53c-4.83,101.06-1.52,201.64,9.82,299.24
					c-51.68,30.89-114.44,63.81-175.3,95.74C1120.1,2844.46,1069.16,2871.18,1023.82,2897z"/>
				<path class="st28" d="M1663.2,1142.96c6.29,61.41,12.29,126.3,18.14,189.57c4.5,48.72,9.09,98.4,13.85,146.83
					c-7.24-4.52-14.63-9.16-22.18-13.94l-42.22-26.72l-26.75,42.21c-59.2,93.41-110.72,193.99-153.13,298.95
					c-41.25,102.1-74.17,209.02-97.84,317.79c-23.28,107.01-37.71,216.24-42.89,324.65c-4.62,96.84-1.88,193.26,8.16,287.12
					c-48.3,28.17-105.07,57.95-160.28,86.9c-38.89,20.4-78.61,41.23-115.94,61.79c-19.9-114.13-30.41-230.19-31.31-345.93
					c-1.07-138.02,11.53-276.41,37.45-411.35c26.05-135.61,65.71-268.55,117.89-395.12c52.97-128.5,119.24-251.38,196.97-365.23
					l28.14-41.22l-41.18-28.21c-9.05-6.2-18.87-12.7-29.26-19.38c45.13-13.93,90.1-28.87,134.24-43.54
					C1523.49,1185.4,1593.75,1162.05,1663.2,1142.96 M1706.8,1080.09c-171.17,40.97-342.69,112.56-511.21,155.14
					c45.77,25.38,92.45,53.92,126.23,77.06C999.09,1785,889.33,2375.9,1006.17,2936.22c108.16-64.64,260.86-136.06,365.56-200.48
					c-51.03-405.82,40.04-858.07,274.54-1228.08c39.6,25.06,74,45.85,109.19,68.12C1738.23,1420.22,1724.01,1235.65,1706.8,1080.09
					L1706.8,1080.09z"/>
			</g>
			<g>
				<path class="st14" d="M3481.54,3596.19c-71.09-36.61-150.05-77.84-222.75-125.18c-83.34-54.27-148.25-110.25-198.42-171.12
					c-29.02-35.21-55.48-76.13-76.52-118.35c-23.51-47.18-39.68-94.31-48.05-140.1c-9.26-50.62-8.58-98.06,2.01-141
					c5.77-23.4,14.54-45.52,26.22-66.22c0.71,4.39,1.57,8.79,2.57,13.19c6.55,28.89,19.23,57.96,37.69,86.4
					c39.16,60.33,96.04,105.79,136.85,133.31c67.59,45.56,141.67,66.12,213.3,86.01c38.19,10.6,77.69,21.57,116.19,36.26l2.12,0.81
					c54.05,20.63,115.32,44.01,170.69,72.68c52.05,26.95,92.59,55.28,123.18,86.15c-21.37,19.18-43.04,39.01-65.68,59.73
					C3627.51,3475.94,3551.73,3545.28,3481.54,3596.19z"/>
				<path class="st28" d="M2961.57,2908.54c6.15,13.07,13.41,26.06,21.74,38.89c41.46,63.86,101.11,111.61,143.85,140.43
					c70.96,47.83,147.03,68.95,220.59,89.37c37.64,10.45,76.56,21.25,113.96,35.53l2.12,0.81c56.04,21.39,114,43.51,168.11,71.53
					c39.36,20.38,71.67,41.42,97.67,63.69c-15.22,13.8-30.52,27.8-45.55,41.55c-68.58,62.75-139.24,127.4-204.85,176.53
					c-66.88-34.55-139.74-73.15-206.77-116.8c-81.18-52.87-144.24-107.19-192.77-166.07c-27.84-33.77-53.23-73.05-73.44-113.6
					c-22.47-45.08-37.89-89.97-45.84-133.44C2951.92,2990.68,2952.32,2947.48,2961.57,2908.54 M2991.74,2757.16
					c-165.2,165.2-66.02,418.68,49.34,558.63c115.36,139.95,281.3,226.62,442.57,309.6c102.38-71.72,216.43-184.13,318.48-274.55
					c-77.09-91.5-210.81-142.14-322.6-184.81c-112.25-42.84-225.22-52.77-324.43-119.64S2962.49,2873.18,2991.74,2757.16
					L2991.74,2757.16z"/>
			</g>
			<g>
				<path class="st14" d="M3912.07,2967.3c-122.72-11.95-252.36-49.3-385.57-111.09c-115.44-53.55-237-127.14-361.31-218.71
					c-46.17-34.01-82.84-87.16-100.6-145.82c-16.24-53.61-15.67-107.04,1.3-152.58c1.93,0.42,8.78,1.92,10.32,2.25
					c1.49,23.78,12.62,44.89,33.25,62.97c21.85,19.14,52.11,33.15,83.81,46.99c97.59,42.61,177.75,69.87,259.92,88.38
					c92.47,20.83,187.86,30.54,300.21,30.54c54.89,0,127.37-16.85,191.33-31.71c15.84-3.68,31.12-7.23,45.32-10.34
					c15.62,73.44,18.59,152.34,8.26,224.73C3986.25,2837.42,3956.51,2911.23,3912.07,2967.3z"/>
				<path class="st28" d="M3077.87,2407.79c4.37,5.18,9.38,10.31,15.12,15.34c24.54,21.5,56.71,36.44,90.28,51.1
					c99.1,43.27,180.65,70.98,264.43,89.86c94.32,21.25,191.46,31.15,305.71,31.15c57.76,0,131.72-17.19,196.98-32.36
					c6.77-1.57,13.45-3.12,19.97-4.62c10.76,63.32,11.98,129.68,3.2,191.13c-5.89,41.25-16.14,79.88-30.47,114.81
					c-11.56,28.19-25.78,53.92-42.4,76.78c-55.76-6.28-113.18-17.9-171.08-34.61c-62.55-18.06-127.35-42.56-192.59-72.83
					c-59.99-27.83-122.01-61.3-184.35-99.48c-56.17-34.41-114.26-73.67-172.65-116.68c-41.92-30.88-75.27-79.33-91.51-132.94
					C3080.62,2458.37,3077.09,2432.46,3077.87,2407.79 M3050.86,2310.83c-56.46,115.36-3.89,270.61,99.51,346.79
					c224.82,165.63,492.62,312.49,772.6,335.76c112.13-130.94,126.16-336.01,85.9-494.63c-71.74,13.9-182.41,46.48-255.45,46.48
					c-226.4,0-376.13-40.86-550.13-116.83c-60.86-26.57-111.81-51.95-100.69-107.5C3093.68,2320.22,3059.77,2311.52,3050.86,2310.83
					L3050.86,2310.83z"/>
			</g>
			<g>
				<path class="st14" d="M3497.49,2338.5c-68.27,0-139.2-5.98-201.78-11.25c-10.08-0.85-19.97-1.68-29.64-2.48
					c-23.97-1.96-48.61-3.58-72.44-5.14c-67.75-4.44-137.8-9.03-202.22-22.17c-70.61-14.4-126.55-37.74-171.02-71.34
					c-59.39-44.88-108.36-113.79-134.35-189.05c-14.08-40.78-26.24-96.97-19.55-160.15c9.35,16.4,20.99,31.98,34.88,46.69
					c33.93,35.91,81.37,66.46,140.99,90.8c54.48,22.24,118.89,39.24,191.45,50.54c68.38,10.65,142.58,16.05,220.53,16.05
					c82.07,0,164.94-5.93,246.31-17.62c73.09-10.5,141.75-25.2,204.47-43.75c6.21,18.94,15.33,49.97,22.67,88.3
					c13.61,71.03,14.62,135.33,3.01,186.78C3678.6,2324.16,3602.12,2338.5,3497.49,2338.5z"/>
				<path class="st28" d="M2691.66,1949.42c32.71,31.99,78.27,62.43,141.24,88.14c56.28,22.97,122.57,40.5,197.05,52.1
					c69.65,10.85,145.14,16.35,224.38,16.35c83.25,0,167.32-6.01,249.86-17.87c65.15-9.36,126.89-22.01,184.18-37.73
					c5.05,17.71,10.63,39.84,15.24,64.26c11.65,61.8,13.33,117.8,5.04,163.5c-48.08,23.76-117.47,35.34-211.16,35.34
					c-67.22,0-137.6-5.93-199.7-11.16c-10.28-0.87-19.98-1.68-29.69-2.48c-24.18-1.98-48.92-3.6-72.84-5.17
					c-66.91-4.39-136.1-8.92-198.86-21.72c-32.6-6.65-60.96-14.94-86.71-25.34c-28.04-11.33-52.33-24.89-74.23-41.45
					c-55.53-41.97-101.38-106.58-125.79-177.27C2700.57,2002.58,2694.55,1975.96,2691.66,1949.42 M2663.59,1783.18
					c-67.63,175.73,17.21,368.8,141.72,462.89c124.5,94.09,298.66,90.52,458.71,103.63c70.63,5.78,153.17,13.81,233.47,13.81
					c96.53,0,189.79-11.61,255.08-52.67c37.75-142.18-31.26-322.1-32.02-322.09c0,0,0,0,0,0
					c-136.16,43.38-304.35,67.26-466.22,67.26C2954.96,2056,2677.19,1974.31,2663.59,1783.18L2663.59,1783.18z"/>
			</g>
		</g>
	</g>
</g>
<g id="References">
	<g id="Layer_7">
	</g>
</g>
</svg>
