<?xml version="1.0" encoding="utf-8"?>
<!-- Generator: Adobe Adobe Illustrator 24.2.0, SVG Export Plug-In . SVG Version: 6.00 Build 0)  -->
<svg version="1.1" xmlns="http://www.w3.org/2000/svg" xmlns:xlink="http://www.w3.org/1999/xlink" x="0px" y="0px"
	 viewBox="0 0 1500 2200" style="enable-background:new 0 0 1500 2200;" xml:space="preserve">
<style type="text/css">
	.st0{fill:#7C84C0;}
	.st1{fill:#F9CDAE;}
	.st2{fill:#73CEE7;}
	.st3{fill:#F8E187;}
	.st4{fill:#F1F1F3;stroke:#000000;stroke-miterlimit:10;}
	.st5{fill:#194058;stroke:#000000;stroke-miterlimit:10;}
	.st6{fill:#42BA87;}
	.st7{fill:#D5D4D8;}
	.st8{fill:none;stroke:#916747;stroke-width:70;stroke-linecap:round;stroke-miterlimit:10;}
	.st9{fill:#916747;}
	.st10{fill:#A37451;}
	.st11{fill:#C2885F;}
	.st12{fill:none;stroke:#A37451;stroke-width:18;stroke-linecap:round;stroke-miterlimit:10;}
	.st13{fill:#666691;}
	.st14{clip-path:url(#SVGID_2_);fill:#666691;}
	.st15{clip-path:url(#SVGID_4_);fill:#916747;}
	.st16{clip-path:url(#SVGID_6_);fill:#916747;}
	.st17{fill:#E6E7E8;}
	.st18{clip-path:url(#SVGID_8_);fill:#D5D4D8;}
	.st19{clip-path:url(#SVGID_10_);fill:#D5D4D8;}
	.st20{fill:#E0E1E2;}
	.st21{fill:#9D9FA1;}
	.st22{fill:#3B2213;}
	.st23{opacity:0.8;fill:#73CEE7;}
	.st24{fill:none;stroke:#FFFFFF;stroke-width:10;stroke-linecap:round;stroke-miterlimit:10;}
	.st25{fill:#594A41;}
	.st26{fill:none;stroke:#BB7D6E;stroke-width:70;stroke-linecap:round;stroke-miterlimit:10;}
	.st27{fill:#E4A38A;}
	.st28{fill:#F5AF93;stroke:#BB7D6E;stroke-width:18;stroke-linecap:round;stroke-miterlimit:10;}
	.st29{fill:#F5AF93;}
	.st30{fill:#BB7D6E;}
	.st31{clip-path:url(#SVGID_12_);fill:#D5D4D8;}
	.st32{clip-path:url(#SVGID_14_);}
	.st33{clip-path:url(#SVGID_16_);fill:#BB7D6E;}
	.st34{clip-path:url(#SVGID_18_);fill:#BB7D6E;}
	.st35{clip-path:url(#SVGID_20_);fill:#66B1C3;}
	.st36{opacity:0.6784;fill:#404041;}
	.st37{fill:#D3C174;}
	.st38{clip-path:url(#SVGID_22_);}
	.st39{opacity:0.302;fill:#73CEE7;}
	.st40{fill:#66B1C3;}
	.st41{clip-path:url(#SVGID_24_);fill:#666691;}
	.st42{clip-path:url(#SVGID_26_);fill:#666691;}
	.st43{clip-path:url(#SVGID_28_);fill:#666691;}
	.st44{fill:#262161;}
	.st45{fill:none;stroke:#F5AF93;stroke-width:70;stroke-linecap:round;stroke-miterlimit:10;}
	.st46{fill:#8A5D3B;}
	.st47{fill:#194058;}
	.st48{fill:#A7A9AC;stroke:#A7A9AC;stroke-width:20;stroke-miterlimit:10;}
	.st49{fill:#FFFFFF;stroke:#A7A9AC;stroke-width:20;stroke-miterlimit:10;}
	.st50{fill:#A1DCEF;}
	.st51{fill:#A7A9AC;}
	.st52{opacity:0.0392;}
	.st53{fill:#FDE1CE;}
	.st54{fill:none;stroke:#FAC9A7;stroke-width:70;stroke-linecap:round;stroke-miterlimit:10;}
	.st55{fill:#C49A6B;}
	.st56{fill:#FAC9A7;}
	.st57{fill:#4F4E6D;}
	.st58{clip-path:url(#SVGID_30_);fill:#4F4E6D;}
	.st59{clip-path:url(#SVGID_32_);fill:#4F4E6D;}
	.st60{clip-path:url(#SVGID_34_);fill:#D5D4D8;}
	.st61{clip-path:url(#SVGID_36_);fill:#4F4E6D;}
	.st62{clip-path:url(#SVGID_38_);fill:#4F4E6D;}
	.st63{clip-path:url(#SVGID_40_);fill:#C8CCE7;}
	.st64{fill:#F5AF93;stroke:#F5AF93;stroke-width:18;stroke-linecap:round;stroke-miterlimit:10;}
	.st65{fill:#C8CCE7;}
	.st66{fill:#8B8AC3;}
	.st67{fill:#FFFFFF;stroke:#73CEE7;stroke-width:5;stroke-miterlimit:10;}
	.st68{clip-path:url(#SVGID_42_);fill:#66B1C3;}
	.st69{fill:#73CEE7;stroke:#73CEE7;stroke-width:5;stroke-miterlimit:10;}
	.st70{clip-path:url(#SVGID_44_);fill:#66B1C3;}
	.st71{fill:#F1F1F3;}
	.st72{clip-path:url(#SVGID_46_);fill:#4F4E6D;}
	.st73{clip-path:url(#SVGID_48_);fill:#4F4E6D;}
	.st74{clip-path:url(#SVGID_50_);fill:#C8CCE7;}
	.st75{clip-path:url(#SVGID_52_);fill:#66B1C3;}
	.st76{clip-path:url(#SVGID_54_);fill:#66B1C3;}
	.st77{clip-path:url(#SVGID_56_);fill:#666691;}
	.st78{clip-path:url(#SVGID_58_);fill:#916747;}
	.st79{clip-path:url(#SVGID_60_);fill:#916747;}
	.st80{clip-path:url(#SVGID_62_);fill:#D5D4D8;}
	.st81{clip-path:url(#SVGID_64_);fill:#D5D4D8;}
	.st82{clip-path:url(#SVGID_66_);fill:#D5D4D8;}
	.st83{clip-path:url(#SVGID_68_);}
	.st84{clip-path:url(#SVGID_70_);fill:#BB7D6E;}
	.st85{clip-path:url(#SVGID_72_);fill:#BB7D6E;}
	.st86{clip-path:url(#SVGID_74_);fill:#66B1C3;}
	.st87{clip-path:url(#SVGID_76_);}
	.st88{clip-path:url(#SVGID_78_);fill:#4F4E6D;}
	.st89{clip-path:url(#SVGID_80_);fill:#4F4E6D;}
	.st90{clip-path:url(#SVGID_82_);fill:#D5D4D8;}
	.st91{clip-path:url(#SVGID_84_);fill:#666691;}
	.st92{clip-path:url(#SVGID_86_);fill:#666691;}
	.st93{clip-path:url(#SVGID_88_);fill:#666691;}
	.st94{fill:#E6E7E8;stroke:#A7A9AC;stroke-width:20;stroke-linecap:square;stroke-miterlimit:10;}
	.st95{fill:#FFFFFF;}
	.st96{fill:#BCBEC0;}
	.st97{fill:none;stroke:#FFFFFF;stroke-width:10;stroke-miterlimit:10;}
	.st98{opacity:0.2;}
	.st99{clip-path:url(#SVGID_90_);fill:#58595B;}
	.st100{fill-rule:evenodd;clip-rule:evenodd;fill:#F8E187;}
	.st101{opacity:0.1098;}
	.st102{clip-path:url(#SVGID_92_);}
	.st103{opacity:0.0196;}
	.st104{clip-path:url(#SVGID_94_);fill:#4F4E6D;}
	.st105{clip-path:url(#SVGID_96_);fill:#4F4E6D;}
	.st106{clip-path:url(#SVGID_98_);fill:#D5D4D8;}
	.st107{display:none;opacity:0.0314;}
	.st108{display:inline;}
	.st109{stroke:#A7A9AC;stroke-width:20;stroke-miterlimit:10;}
	.st110{display:inline;opacity:0.1216;}
	.st111{stroke:#FAC9A7;stroke-width:70;stroke-linecap:round;stroke-miterlimit:10;}
	.st112{clip-path:url(#SVGID_100_);}
	.st113{clip-path:url(#SVGID_102_);}
	.st114{clip-path:url(#SVGID_104_);}
	.st115{clip-path:url(#SVGID_106_);fill:#4F4E6D;}
	.st116{clip-path:url(#SVGID_108_);fill:#4F4E6D;}
	.st117{clip-path:url(#SVGID_110_);fill:#C8CCE7;}
	.st118{clip-path:url(#SVGID_112_);fill:#66B1C3;}
	.st119{clip-path:url(#SVGID_114_);fill:#66B1C3;}
	.st120{clip-path:url(#SVGID_116_);}
	.st121{clip-path:url(#SVGID_118_);}
	.st122{clip-path:url(#SVGID_120_);}
	.st123{stroke:#F5AF93;stroke-width:70;stroke-linecap:round;stroke-miterlimit:10;}
	.st124{stroke:#F5AF93;stroke-width:18;stroke-linecap:round;stroke-miterlimit:10;}
	.st125{display:inline;stroke:#73CEE7;stroke-width:5;stroke-miterlimit:10;}
	.st126{clip-path:url(#SVGID_122_);}
	.st127{clip-path:url(#SVGID_124_);}
	.st128{clip-path:url(#SVGID_126_);fill:#666691;}
	.st129{clip-path:url(#SVGID_128_);fill:#916747;}
	.st130{clip-path:url(#SVGID_130_);fill:#916747;}
	.st131{clip-path:url(#SVGID_132_);fill:#D5D4D8;}
	.st132{clip-path:url(#SVGID_134_);fill:#D5D4D8;}
	.st133{fill:#808284;}
	.st134{fill-rule:evenodd;clip-rule:evenodd;fill:#F0BF4F;}
	.st135{fill:none;stroke:#808284;stroke-width:60;stroke-miterlimit:10;}
	.st136{fill:none;stroke:#808284;stroke-width:60;stroke-linecap:round;stroke-miterlimit:10;}
	.st137{display:none;}
	.st138{display:inline;opacity:0.2706;}
</style>
<g id="Layer_2">
</g>
<g id="Business">
	<g id="Layer_65">
	</g>
	<g id="Layer_15">
	</g>
	<g id="Layer_14">
		<g id="Layer_45">
		</g>
	</g>
	<g id="Layer_18">
	</g>
	<g id="Layer_13">
	</g>
	<g id="Layer_66">
	</g>
</g>
<g id="Exec">
	<g id="Layer_17">
		<g id="Layer_39">
		</g>
		<g id="Layer_53">
		</g>
	</g>
	<g id="Layer_21">
		<g id="Layer_47">
		</g>
		<g id="Layer_46">
		</g>
	</g>
	<g id="Layer_20">
		<g id="Layer_16">
		</g>
	</g>
</g>
<g id="graphic">
	<g id="Layer_61">
		<path class="st39" d="M293.16,563.25v-380c0-27.61,22.39-50,50-50h756c27.61,0,50,22.39,50,50v380c0,27.61-22.39,50-50,50h-756
			C315.55,613.25,293.16,590.86,293.16,563.25"/>
		<g>
			<path d="M1110.99,291.03c1.43,20.17-4.5,37.94-12.47,54.94c-3.16,6.74-8.68,12.54-13.83,18.12c-3.44,3.74-7.44,3.49-9.64,0.56
				c-2.5-3.32-1.31-6.4,1.26-9.05c28.04-28.88,28.4-82.4,10.74-111.78c-8.23-13.69-19.69-23.71-33.49-30.48
				c-10.04-4.92-21.33-7.61-32.32-10.22c-22.21-5.28-41.64,2.41-59.84,14.43c-3.07,2.03-5.89,4.42-8.85,6.6
				c-30.31,22.31-43.44,52.11-39.06,89.54c0.61,5.18,0.3,10.75,2.19,15.43c5.12,12.67,11.04,25.04,17.02,37.33
				c1.11,2.29,3.94,3.78,6.07,5.53c2.36,1.95,4.95,3.65,7.22,5.7c3.02,2.72,6.68,6.41,3.76,10.13c-3.35,4.28-7.1,0.14-10.24-2.06
				c-3.51-2.47-6.93-5.07-10.36-7.66c-5.3-4.01-8.7-9.26-10.98-15.53c-1.76-4.84-4.55-9.3-6.64-14.04
				c-2.57-5.83-5.95-11.58-7.1-17.72c-3.2-17.2-5.48-34.61-1.27-52.04c5.95-24.57,17.58-45.64,38.19-61.08
				c11.53-8.64,23.15-16.91,36.77-22.36c16.37-6.55,32.76-7.09,49.55-3.13c6.25,1.47,12.41,3.4,18.52,5.39
				c29.03,9.45,48.79,28.54,58.94,57.35C1109.39,266.88,1112.39,279.08,1110.99,291.03"/>
			<path d="M971.33,290.84c7.12-0.15,11.95,4.19,11.94,10.73c0,6.51-4.94,11.42-11.55,11.48c-7.1,0.07-12.07-4.74-12.22-11.82
				C959.36,294.2,962.98,291.01,971.33,290.84"/>
			<path d="M1056.59,290.04c0.14,6.53-4.84,12.81-10.34,13.04c-6.13,0.25-10.85-4.93-10.95-12.02c-0.11-7.35,4.22-12.55,10.39-12.47
				C1051.37,278.66,1056.46,284.01,1056.59,290.04"/>
		</g>
		<path d="M393.77,264.7c4.59,3.16,8.66,6.12,12.9,8.84c5.59,3.57,9.68,2.25,11.78-3.86c5.19-15.1,10.42-30.2,15.21-45.42
			c1.15-3.64,1.87-8.13,0.67-11.56c-3.07-8.81-8.88-10.94-18.32-7.28c-7.41,2.87-14.61,6.28-21.8,9.64
			c-8.94,4.17-17.84,8.42-26.65,12.83c-6.59,3.3-7.31,6.63-3,12.5c1.1,1.5,2.49,2.81,3.69,4.24c1.18,1.41,2.28,2.88,3.52,4.45
			c-3.89,5.89-7.86,11.47-11.33,17.31c-3.48,5.86-2.71,8.52,2.68,12.62c6.44,4.9,10.67,5.62,15.44,1.4
			C383.71,275.87,388.15,270.59,393.77,264.7 M421.55,216.62l1.68,1.67c-5.34,13.17-7.81,27.37-15.68,39.75
			c-7.26-2.21-11.28-11.42-21.64-4.9c3.64-8.82-3.74-11.54-6.95-17.3C393.46,229.3,407.51,222.96,421.55,216.62"/>
		<g>
			<path class="st2" d="M393.03,565.03c-1.84-16.55-2.13-33.19-1.06-50.67c6.4-0.34,12.14-0.58,17.88-0.97
				c11.3-0.75,12.97-2.59,13.04-14.08c0.02-3.98,0-7.95,0-11.78c7.14-2.43,30.12-2.46,44.36-0.13c5.56,25.02,7.77,50.42,5.81,76.94
				c-4.23,0.91-8.35,2.58-12.46,2.56c-21.44-0.12-42.87-0.66-64.3-1.09C395.41,565.8,394.53,565.4,393.03,565.03"/>
			<path class="st40" d="M380.59,513.79c-12.7-0.17-24.59-0.34-36.48-0.47c-1.84-0.02-3.68,0.23-5.52,0.2
				c-7.13-0.11-9.52-2.09-9.76-9.19c-0.32-9.5-0.19-19.02-0.17-28.53c0.03-15.65,0.12-31.29,0.2-46.93
				c0.04-7.11,1.26-8.97,9.43-9.24c19.92-0.66,39.85-0.7,59.78-0.9c4.29-0.04,8.58,0.3,12.87,0.53c8.48,0.46,9.98,2.11,10.34,10.55
				c0.55,13.16,1.23,26.32,1.9,39.48c0.04,0.87,0.48,1.71,0.87,3.05c1.98,0.25,4.03,0.7,6.09,0.74c14.09,0.31,28.19,0.53,42.28,0.78
				c5.37,0.1,7.72,2.02,8.11,7.79c1.66,24.74,7.29,49.19,5.33,74.19c-0.29,3.65,0.34,7.35,0.32,11.03
				c-0.04,6.78-1.72,7.95-8.45,9.62c-13.08,3.26-26.23,1.36-39.35,1.4c-14.71,0.04-29.43-0.3-44.14-0.15
				c-10.9,0.11-12.65-1.41-12.71-12.66c-0.07-14.42-0.17-28.83-0.3-43.25C381.21,519.71,380.9,517.59,380.59,513.79 M393.03,565.03
				c1.51,0.38,2.38,0.77,3.27,0.79c21.43,0.43,42.87,0.97,64.31,1.09c4.11,0.02,8.23-1.64,12.46-2.56
				c1.95-26.52-0.25-51.92-5.82-76.94c-14.23-2.33-37.22-2.3-44.36,0.13c0,3.83,0.02,7.8,0,11.78
				c-0.07,11.49-1.74,13.32-13.04,14.08c-5.73,0.38-11.48,0.63-17.88,0.97C390.9,531.84,391.18,548.48,393.03,565.03 M408.06,432.25
				c-15.89-2.45-57.21-2.14-67.54,0.46v68.73c23.41-1.44,46.19,2.63,68.89-0.63C411.49,489.61,410.71,451.08,408.06,432.25"/>
			<path class="st2" d="M408.06,432.25c2.65,18.82,3.43,57.36,1.34,68.56c-22.7,3.25-45.48-0.81-68.89,0.63v-68.73
				C350.86,430.11,392.17,429.81,408.06,432.25"/>
		</g>
		<ellipse class="st7" cx="743.44" cy="1957.23" rx="557" ry="79"/>
	</g>
	<path d="M776.78,1919.19l52.23,41.85l55.56-55.69c0,0-52.66-35.75-79.42-28.7C791.01,1880.37,776.78,1919.19,776.78,1919.19z"/>
	<path d="M579.58,1965.17l-74.69-34.43c0,0,11.07-56.82,26.9-61c39.69-10.48,79.21,25.13,108,20.67
		C663.22,1886.76,579.58,1965.17,579.58,1965.17z"/>
	<g id="Layer_35">
		<g id="Layer_50">
			<path class="st0" d="M562.47,1470.65c-3.31-5.59-3.8-356.72,4.95-422.6c3.33-25.03,123.94,4.47,117.98,29
				c-9.82,40.42-36.65,386.07-42.1,389.37C621.7,1479.48,576.97,1495.1,562.47,1470.65z"/>
			<path class="st0" d="M606.69,1903.67c-3.04-5.29-46.09-373.07-44.4-439.45c0.64-25.22,81.63-34.36,81.63-0.98
				c0,41.34,25.84,439.19,21.82,442.93C649.81,1921,620.01,1926.81,606.69,1903.67z"/>
			<g>
				<defs>
					<path id="SVGID_23_" d="M606.69,1903.67c-3.04-5.29-46.09-373.07-44.4-439.45c0.64-25.22,81.63-34.36,81.63-0.98
						c0,41.34,25.84,439.19,21.82,442.93C649.81,1921,620.01,1926.81,606.69,1903.67z"/>
				</defs>
				<clipPath id="SVGID_2_">
					<use xlink:href="#SVGID_23_"  style="overflow:visible;"/>
				</clipPath>
				<path class="st14" d="M643.93,1463.84c-7.43-20.52-36.66-2.15-37.55,19.66c-4.3,105.58,52.3,371.95,32.55,412.89
					c-6.67,13.83,21.99,26.64,37.88,24.46c15.89-2.18,29.18-16.71,29.93-32.74C713.58,1742.74,683.38,1572.77,643.93,1463.84z"/>
			</g>
		</g>
		<g id="Layer_49">
			<path class="st0" d="M783.19,1472.16c-3.81-5.31-32.44-355.29-28.82-421.67c1.37-25.22,124.92-12.05,122.73,13.12
				c-3.58,41.16-4.57,393.77-7.95,400.31C857.39,1486.64,799.87,1495.38,783.19,1472.16z"/>
			<g>
				<defs>
					<path id="SVGID_25_" d="M783.19,1472.16c-3.81-5.31-32.44-355.29-28.82-421.67c1.37-25.22,124.92-12.05,122.73,13.12
						c-3.58,41.16-4.57,393.77-7.95,400.31C857.39,1486.64,799.87,1495.38,783.19,1472.16z"/>
				</defs>
				<clipPath id="SVGID_4_">
					<use xlink:href="#SVGID_25_"  style="overflow:visible;"/>
				</clipPath>
				<path style="clip-path:url(#SVGID_4_);fill:#666691;" d="M730.46,1118.27c43.57,17.38,80.41,7.76,102.77,0.85
					c11.63-3.59,26.35-14.58,28.51-23.58c1.45-6.02,0.15-9.64-6-10.37c-17.6-2.08-34.73-7.06-52.22-9.93
					c-17.49-2.87-35.91-3.54-52.48,2.77C734.49,1084.32,723.17,1090.83,730.46,1118.27z"/>
			</g>
			<path class="st0" d="M848.48,1900.57c-3.3-5.13-64.14-370.39-65.67-436.77c-0.58-25.22,86.07-41.58,87.69-8.24
				c2.01,41.29,40.92,440.72,37.09,444.66C892.39,1915.8,862.91,1923.04,848.48,1900.57z"/>
			<g>
				<defs>
					<path id="SVGID_27_" d="M848.48,1900.57c-3.3-5.13-64.14-370.39-65.67-436.77c-0.58-25.22,86.07-41.58,87.69-8.24
						c2.01,41.29,40.92,440.72,37.09,444.66C892.39,1915.8,862.91,1923.04,848.48,1900.57z"/>
				</defs>
				<clipPath id="SVGID_6_">
					<use xlink:href="#SVGID_27_"  style="overflow:visible;"/>
				</clipPath>
				<path style="clip-path:url(#SVGID_6_);fill:#666691;" d="M869.83,1457.29c-22.97-20.6-35.65,30.79-35.65,61.64
					c0,38.57,6.96-1.42,51.65,371.99c1.53,12.82-15.23,30.21,29.85,19.62c12.57-2.95,23.85-12.75,24.88-25.62
					C952.55,1735.75,980.73,1556.77,869.83,1457.29z"/>
			</g>
		</g>
		<path class="st0" d="M565.23,1065.54v-71c0-16.57,13.43-30,30-30H847.1c16.57,0,30,13.43,30,30v71c0,16.57-13.43,30-30,30H595.23
			C578.66,1095.54,565.23,1082.11,565.23,1065.54z"/>
	</g>
	<g id="Layer_36">
		<path d="M840.61,1876.25c-14.37,12.34-12.53,84.74-12.53,84.74l98.27,0.05c0,0,1.31-80.68-16.97-91.29
			c-9.93-5.76,5.33,29.46-25.41,32.28C861.81,1904.07,848.64,1869.36,840.61,1876.25z"/>
		<path d="M671.74,1866.25c17.93,10.66,18.34,96.66,18.34,96.66l-110.74,2.96c0,0-4.04-83.81,15.99-95.16
			c9.81-5.56,16.29,17.48,41.57,17.48C658.95,1888.19,663.28,1861.22,671.74,1866.25z"/>
	</g>
	<g id="Layer_32">
		<path class="st1" d="M459.92,907.75c9.19-74.53,29.41-196.43,52.99-253.37c6.98-16.87,53.45,8.96,52.32,27.18
			c-0.4,6.45-25.46,176.23-46.44,245.37C513.49,944.4,457.69,925.87,459.92,907.75z"/>
		<path class="st1" d="M436.55,1135.62c1.28-75.08,8.61-178.79,22.35-231.3c4.62-17.66,59.1,6.27,59.89,24.51
			c0.28,6.46-32.18,159.32-45.76,230.28C469.6,1177.04,436.24,1153.87,436.55,1135.62z"/>
		<path class="st7" d="M488.85,653.03c6.13,42.79,75.41,78.93,75.41,78.93s90.34-130.07,11.91-162.75
			C549.27,558,488.58,651.11,488.85,653.03z"/>
		<path class="st29" d="M1068.07,743.85c-1.42-6.77-10.61-259.2-2.38-281.77c9.11-25.02,47.66-5.43,51.29,12.39
			c1.28,6.31,39.72,204.84,22.6,275.11C1134.15,771.79,1074.29,773.53,1068.07,743.85z"/>
		<path class="st1" d="M882.04,579.65c5.82,3.85,231.55,99.93,255.36,152.31c11.11,24.43-23.22,41.62-40.63,35.85
			c-6.16-2.04-187.17-72.38-247.47-112.23C834.06,645.51,866.78,569.57,882.04,579.65z"/>
		<path class="st7" d="M934.26,589.85c11.14,41.95-57.83,122.58-57.83,122.58s-139.57-87.41-68.25-155.91
			C832.64,533.03,933.76,587.96,934.26,589.85z"/>
		<path class="st17" d="M559.8,572.81c-5.99,3.85-18.64,442.58-12,445.98c76.22,38.95,254.26,41.08,343.21-6.19
			c5.38-2.86-14.12-449.34-22.22-452.87C808.49,533.42,636.71,523.38,559.8,572.81z"/>
		<g id="Layer_33">
			<path class="st29" d="M521.85,1202.63c-2.61,9.34-5.23,18.67-7.84,28.01c-0.63,2.24-0.61,4.11-3.26,4.14s-6.79-3-7.46-5.24
				c-3.72-12.36,5.17-36.71,9.81-30.89C515.76,1202,522.75,1199.41,521.85,1202.63z"/>
			<path class="st29" d="M507.76,1168.27c6.66,9.35,11.44,20.04,13.96,31.24c1.02,4.55-3.23,9.11-7.87,9.53
				c-4.64,0.42-20.83-27.7-23.82-31.28c-3.76-4.49-2.35-12.27,2.75-15.16S504.11,1163.14,507.76,1168.27z"/>
			<path class="st1" d="M436.54,1138.41c-5.73,26.05-2.94,80.18,0.92,84.5c9.24,10.33,12.83,13.51,21.67,11.2
				c8.84-2.31,9.09-13.3,15.05-20.22c5.97-6.92,13.98-18.82,22.34-22.51c10.39-4.59,19.39-10.57,13.41-20.24
				c-11.54-18.68-23.08-37.35-34.62-56.03C466.87,1128.32,451.53,1133.61,436.54,1138.41z"/>
			<path class="st1" d="M474.61,1196.49c2.26,13.26,4.74,27.04,12.63,37.94c7.89,10.89,23.04,6.43,35.16,12.27
				c5.47,2.64,8.72,13.95,4.16,17.33c-8.23,6.1-32.06,7.39-47.38,2.16s-28.51-16.43-36.15-30.7c-4.33-8.09-9.22-17.19-7.83-26.26
				c1.39-9.07,9.59-17.95,18.25-20.98S473.34,1189.07,474.61,1196.49z"/>
		</g>
		<g id="Layer_38">
			<path class="st1" d="M1025.69,438.13c8.98,20.69,10.6,50.47,27.11,64.29c6.36,5.33,18.03,4.97,26.9,4.98s18-6.93,16.09-14.4
				c-6.4-25.03-0.15-62.13-26.51-60.2c-22.12,1.62-24.07-8.71-25.95-8.2C1035.4,426.78,1019.04,422.81,1025.69,438.13z"/>
			<path class="st29" d="M1093.28,391.02c-22.3-10.55-50.82-10.59-73.15-0.09c-5.32,2.5-8.51,8-7.64,13.17
				c0.87,5.17,5.73,9.66,11.65,10.76c25.55,4.74,42.89,0.78,47.86,20.78c1.45,5.83,42.49-10.05,44.16-15.84
				c1.67-5.79-1-12-5.34-16.64C1106.46,398.52,1100.95,394.65,1093.28,391.02z"/>
			<path class="st1" d="M1067.68,513.67c9.88,8.14,25.57,10.52,38.07,5.77c20.93-7.94,14.94-19.19,22.7-62.31
				c2.05-11.4,4.54-35.06-2.8-44.7c-7.34-9.65-39.38-11.88-39.38-1.28c0,14.1-20.02,22.27-29.91,33.49
				c-9.89,11.22-16.43,25.31-14.5,39.31C1043.8,497.95,1055.68,511.33,1067.68,513.67z"/>
			<path class="st1" d="M1057.91,378.79c18.85,17.68,30.17,36.54,51.41,49.22c4.7,2.8,11.69,2.24,15.7-1.27
				c4.01-3.51,4.57-9.56,1.26-13.57c-15.07-18.26-35.69-34.49-58.72-44.86c-2.73-1.23-5.87,0.36-8.03,2.25
				C1057.37,372.44,1055.29,376.33,1057.91,378.79z"/>
			<path class="st1" d="M1066.97,367.87c-16.46,0.07-32.84,5.98-45.65,16.47c-2.49,2.04-3.47,5.78-2.31,8.81
				c1.16,3.03,6.61,2.96,9.72,2.18c22.95-5.78,44.15-8.67,43.23-18.28C1071.72,374.43,1069.28,370.42,1066.97,367.87z"/>
			<g id="Layer_34">
				<path class="st44" d="M965.22,397.78c-1.23-0.92-0.91-3.85,0.61-4.11c0.91-0.15,43.36,9.11,44,9.58c2.1,1.54,1.78,6.01-1.62,6.8
					C1007.15,410.3,966.01,398.37,965.22,397.78z"/>
				<path class="st44" d="M972.06,401.43c-1.09-1.49-0.12-7.16,1.53-7.98c0.99-0.49,43.63,7.98,44.2,8.74
					c1.87,2.48,0.57,11.1-3.19,13.35C1013.45,416.24,972.77,402.39,972.06,401.43z"/>
				<path class="st44" d="M986.71,411.08c-4.2-3.73-2.52-16.45,2.94-17.83c3.27-0.83,152.89,31.09,155.09,33
					c7.19,6.24,5.22,25.6-7.09,29.67C1133.86,457.16,989.42,413.48,986.71,411.08z"/>
			</g>
			<path class="st1" d="M1007.78,398.9c-6.43,4.63,7.18,25.34,18,38.01c3.67,4.3,13.28,6.73,20.2,5.13
				c6.92-1.61,7.02-6.46,3.4-10.77c-5.02-5.97-9.74-11.91-14.76-17.89C1027.95,405.44,1015.2,393.56,1007.78,398.9z"/>
		</g>
	</g>
	<g id="Layer_28">
		<g>
			<line class="st45" x1="702.33" y1="487.02" x2="704.13" y2="554.96"/>
			<circle class="st29" cx="573.93" cy="406.15" r="35.25"/>
			<circle class="st29" cx="817.93" cy="404.15" r="35.25"/>
			<ellipse class="st46" cx="696.23" cy="358.21" rx="129" ry="154.5"/>
		</g>
		<g id="Layer_30">
		</g>
		<g id="Layer_29">
			<path class="st47" d="M577.47,428.77c6.39,67.67,66.75,208.4,14.88,265.98c-3,3.33,114.8,0.32,117.78-2.66
				c52.34-52.34-3.32-296.08-3.32-296.08S574.6,398.36,577.47,428.77z"/>
			<path class="st47" d="M829.85,419.33c-33.46,168.42,18.18,198.36,12.9,271.1c-0.33,4.54-122.37,2.24-118.72,0.67
				c41.56-17.89-51.16-295.09-51.16-295.09S836.11,387.81,829.85,419.33z"/>
			<path class="st47" d="M565.23,348.21c0-87.54,61.11-158.5,136.5-158.5s136.5,70.96,136.5,158.5s-56.11,259.5-131.5,259.5
				S565.23,435.75,565.23,348.21z"/>
		</g>
	</g>
</g>
<g id="drylab">
	<g id="Layer_58">
	</g>
	<g id="Layer_26">
	</g>
	<g id="Layer_22">
	</g>
	<g id="Layer_23">
	</g>
	<g id="Layer_25">
	</g>
	<g id="Layer_24">
	</g>
	<g id="Layer_48">
	</g>
</g>
<g id="wetlab">
	<g id="Layer_57">
	</g>
	<g id="Layer_40">
	</g>
	<g id="Layer_51">
	</g>
	<g id="Layer_41">
	</g>
	<g id="Layer_44">
	</g>
	<g id="Layer_7">
	</g>
	<g id="skin">
	</g>
	<g id="Layer_52">
	</g>
	<g id="Hair">
	</g>
	<g id="Layer_54">
	</g>
	<g id="Layer_6">
	</g>
	<g id="Layer_37">
	</g>
	<g id="Layer_8">
	</g>
	<g id="Layer_9">
	</g>
</g>
<g id="segmented_ver.">
	<g id="Segment_wetlab">
	</g>
	<g id="Segment_business_e">
	</g>
	<g id="Segment_exec">
	</g>
	<g id="Layer_59">
	</g>
	<g id="Layer_60">
	</g>
</g>
<g id="Subteams_Graphic">
	<g id="Layer_67">
	</g>
	<g id="Layer_63">
	</g>
	<g id="Layer_64">
	</g>
	<g id="Layer_62">
	</g>
</g>
<g id="Layer_69">
</g>
<g id="Layer_68">
</g>
<g id="Layer_1" class="st137">
</g>
</svg>
