<svg xmlns="http://www.w3.org/2000/svg" viewBox="0 0 638.97 170.05"><defs><style>.cls-1{fill:#fff;}.cls-2{fill:#f5ce40;}.cls-3{fill:#47b3be;}</style></defs><title>Asset 1</title><g id="Layer_2" data-name="Layer 2"><g id="Layer_1-2" data-name="Layer 1"><path class="cls-1" d="M221.32,129.72a2.43,2.43,0,0,0,.78,1.83,2.85,2.85,0,0,0,2.06.74h15.06v21.31A51.92,51.92,0,0,1,229,157.82a47.23,47.23,0,0,1-27.46-1.12A31.66,31.66,0,0,1,189.81,149a34.2,34.2,0,0,1-7.43-12.24,47.9,47.9,0,0,1-2.6-16.33,47.36,47.36,0,0,1,2.5-15.86,33.83,33.83,0,0,1,7.16-12,31.29,31.29,0,0,1,11.28-7.64,39.21,39.21,0,0,1,14.79-2.67,46.69,46.69,0,0,1,9.69.88,41.1,41.1,0,0,1,7.09,2.13,32.52,32.52,0,0,1,5.1,2.6q2.09,1.35,3.71,2.3a3.94,3.94,0,0,0,3.07.64,3.85,3.85,0,0,0,2.26-1.72l3.72-6A47.78,47.78,0,0,0,243.48,78a43.09,43.09,0,0,0-7.77-3.86,49.13,49.13,0,0,0-9.12-2.44,63.28,63.28,0,0,0-10.67-.85,56.08,56.08,0,0,0-20.53,3.58,44,44,0,0,0-15.6,10.11,44.74,44.74,0,0,0-9.9,15.66,56.38,56.38,0,0,0-3.48,20.22A54.57,54.57,0,0,0,170,140.54a44.25,44.25,0,0,0,10.23,15.66,46.4,46.4,0,0,0,16,10.15A58.2,58.2,0,0,0,217.34,170a60.19,60.19,0,0,0,18.14-2.6A54.21,54.21,0,0,0,251,159.48v-37.2H221.32Zm61-4.54h38.5v-10.5h-38.5V81.79h47.54V70.87H269v99h60.93L330,159H282.34ZM441.5,70.87a8.91,8.91,0,0,0-2.79.35,3.67,3.67,0,0,0-1.83,1.93L403.34,134a37.48,37.48,0,0,0-1.66,3.49q-.76,1.83-1.45,3.7-.69-1.87-1.48-3.66t-1.62-3.46L363,73.15a4,4,0,0,0-1.86-1.93,8.59,8.59,0,0,0-2.76-.35h-9.87v99h11.73V97.13a60.57,60.57,0,0,0-.41-6.77l34.64,62.19a5.13,5.13,0,0,0,4.83,3.11h1.93a5.14,5.14,0,0,0,4.83-3.11l34-61.91q-.14,1.73-.24,3.39t-.1,3.11v72.76h11.73v-99ZM141,169.72h12V101.14H141Zm12-96.23a8.72,8.72,0,0,0-2.77-1.86,8.46,8.46,0,0,0-3.35-.68,8,8,0,0,0-3.28.68,8.51,8.51,0,0,0-2.67,1.86,9,9,0,0,0-1.83,2.78,8.48,8.48,0,0,0-.68,3.35,8,8,0,0,0,.68,3.28,9.21,9.21,0,0,0,1.83,2.71,8.48,8.48,0,0,0,2.67,1.86,8,8,0,0,0,3.28.68,8.44,8.44,0,0,0,3.35-.68A8.68,8.68,0,0,0,153,85.61a9.45,9.45,0,0,0,1.89-2.71,7.67,7.67,0,0,0,.71-3.28,8.13,8.13,0,0,0-.71-3.35A9.21,9.21,0,0,0,153,73.49Z"/><path class="cls-2" d="M108.55,60.72H97.39L93.46,47.9A10.85,10.85,0,0,0,83.12,40H62.77V0H51.05V40H30.8a10.69,10.69,0,0,0-10.2,7.67l-4.06,13H5.37A5.47,5.47,0,0,0,0,66.14V87.46a5.31,5.31,0,0,0,5.27,5.33H28.17A43.25,43.25,0,0,0,33.44,104l1.31,1.9,8.71,10.4,8.77-10.5-7.63-9.11-.88-1.29a26.2,26.2,0,0,1-1.52-2.64H72a26,26,0,0,1-1.51,2.62l-.75,1.12-34.93,41.8L32.87,141l-.17.26a47.75,47.75,0,0,0-6.79,24.95v3.52H38.77v-3.52a35.18,35.18,0,0,1,.46-5.55h35.7a35,35,0,0,1,.46,5.55v3.52H88.25v-3.52a47.77,47.77,0,0,0-6.82-25l-.16-.24-2-2.78L70.69,127.9l-8.77,10.52,7.65,9.15.88,1.24H43.7l.76-1.08,35.09-42L80.73,104A43.18,43.18,0,0,0,86,92.79h22.65a5.31,5.31,0,0,0,5.28-5.33V66.14A5.47,5.47,0,0,0,108.55,60.72Zm-28-9.47.19.2,3,9.28H30.2l3.12-9.29.18-.15v0m68.66,31.49H11.66V70.89h90.5Z"/><path class="cls-3" d="M542,71.12H464.69V82.37h32.06v87.68h13.31V82.37h32Z"/><path class="cls-3" d="M635.54,100.64A46,46,0,0,0,625.84,85a43.52,43.52,0,0,0-15.06-10.22,53.59,53.59,0,0,0-38.84,0,43.59,43.59,0,0,0-15,10.22,46,46,0,0,0-9.7,15.65,55.88,55.88,0,0,0-3.44,19.94,55.87,55.87,0,0,0,3.44,19.94,45.66,45.66,0,0,0,9.7,15.62,43.41,43.41,0,0,0,15,10.15,54.05,54.05,0,0,0,38.84,0,43.34,43.34,0,0,0,15.06-10.15,45.66,45.66,0,0,0,9.7-15.62A55.87,55.87,0,0,0,639,120.57,55.88,55.88,0,0,0,635.54,100.64Zm-12.4,35.89a33.87,33.87,0,0,1-6.87,11.94A29.46,29.46,0,0,1,605.49,156a39.65,39.65,0,0,1-28.23,0,29.76,29.76,0,0,1-10.81-7.49,33.58,33.58,0,0,1-6.91-11.94,48.89,48.89,0,0,1-2.43-16,49.2,49.2,0,0,1,2.43-16,33.55,33.55,0,0,1,6.91-12,30.14,30.14,0,0,1,10.81-7.52,39.18,39.18,0,0,1,28.23,0,29.83,29.83,0,0,1,10.78,7.52,33.84,33.84,0,0,1,6.87,12,49.2,49.2,0,0,1,2.43,16A48.89,48.89,0,0,1,623.14,136.53Z"/></g></g></svg>